<svg width="632" height="486" viewBox="0 0 632 486" fill="none" xmlns="http://www.w3.org/2000/svg">
<g clip-path="url(#clip0_1980_533)">
<path d="M628.276 0H-3.72394V486H628.276V0Z" fill="none"/>
<path d="M435.458 426.494C517.161 426.494 583.394 360.282 583.394 278.604C583.394 196.927 517.161 130.715 435.458 130.715C353.755 130.715 287.521 196.927 287.521 278.604C287.521 360.282 353.755 426.494 435.458 426.494Z" fill="#626E7E"/>
<path d="M435.458 431.014C351.927 431.014 283.972 363.081 283.972 279.576C283.972 245.906 294.794 214.025 315.261 187.392C315.426 187.178 315.728 187.139 315.942 187.304C316.156 187.47 316.194 187.771 316.029 187.985C295.689 214.443 284.945 246.12 284.945 279.576C284.945 362.546 352.462 430.042 435.458 430.042C518.454 430.042 585.971 362.546 585.971 279.576C585.971 196.606 518.454 129.111 435.458 129.111C423.566 129.111 411.724 130.501 400.27 133.242C400.007 133.31 399.745 133.145 399.687 132.882C399.628 132.62 399.784 132.357 400.046 132.299C411.578 129.538 423.489 128.139 435.458 128.139C518.989 128.139 586.943 196.072 586.943 279.576C586.943 363.081 518.979 431.014 435.458 431.014Z" fill="#172E4A"/>
<mask id="mask0_1980_533" style="mask-type:luminance" maskUnits="userSpaceOnUse" x="240" y="124" width="365" height="304">
<path d="M604.707 124.066V392.989H530.413C504.715 414.509 471.608 427.466 435.458 427.466C399.307 427.466 366.2 414.509 340.502 392.989H240.461V124.066H604.707Z" fill="white"/>
</mask>
<g mask="url(#mask0_1980_533)">
<path d="M373.415 290.579C379.939 280.432 384.013 270.877 386.23 261.973C398.452 213.101 355.028 183.834 355.028 183.834C355.028 183.834 340.813 203.061 340.191 228.488C339.734 247.53 346.91 270.06 373.415 290.579Z" fill="#F3F3F3"/>
<path d="M357.284 193.943L373.638 288.917C373.716 289.345 373.036 289.384 372.968 288.956L356.613 193.982C356.536 193.554 357.216 193.525 357.284 193.943Z" fill="#366985"/>
<path d="M363.633 234.116L373.58 220.216C374.659 218.69 375.748 217.164 376.828 215.648C377.08 215.298 377.586 215.735 377.333 216.085L365.831 232.259C364.752 233.785 365.228 233.037 364.139 234.563C363.886 234.903 363.381 234.466 363.633 234.116Z" fill="#366985"/>
<path d="M368.427 261.973L378.374 248.074C379.453 246.548 380.542 245.022 381.621 243.505C381.874 243.155 382.379 243.593 382.127 243.943L370.624 260.117C369.545 261.643 370.021 260.895 368.932 262.421C368.689 262.761 368.184 262.323 368.427 261.973Z" fill="#366985"/>
<path d="M349.603 249.542L363.624 259.32C365.16 260.389 366.686 261.468 368.223 262.537C368.573 262.79 368.903 262.197 368.553 261.954L352.306 250.562C350.77 249.493 351.48 250.037 349.943 248.958C349.584 248.706 349.253 249.289 349.603 249.542Z" fill="#366985"/>
<path d="M344.693 220.994L358.714 230.772C360.25 231.841 361.776 232.92 363.313 233.99C363.663 234.242 363.993 233.649 363.643 233.406L347.396 222.014C345.86 220.945 346.569 221.49 345.033 220.411C344.664 220.158 344.343 220.751 344.693 220.994Z" fill="#366985"/>
</g>
<mask id="mask1_1980_533" style="mask-type:luminance" maskUnits="userSpaceOnUse" x="240" y="124" width="365" height="304">
<path d="M604.707 124.066V392.989H530.413C504.715 414.509 471.608 427.466 435.458 427.466C399.307 427.466 366.2 414.509 340.502 392.989H240.461V124.066H604.707Z" fill="white"/>
</mask>
<g mask="url(#mask1_1980_533)">
<path d="M373.833 290.764C372.724 278.75 370.06 268.719 366.336 260.331C345.889 214.287 293.637 217.932 293.637 217.932C293.637 217.932 294.259 241.834 309.427 262.255C320.784 277.555 340.298 290.9 373.833 290.764Z" fill="#2E4057"/>
<path d="M301.629 224.522L372.987 289.326C373.308 289.617 372.802 290.055 372.481 289.773L301.124 224.969C300.813 224.678 301.318 224.231 301.629 224.522Z" fill="#F2E9DA"/>
<path d="M331.362 252.283L330.643 235.214C330.555 233.348 330.478 231.482 330.39 229.606C330.371 229.168 331.042 229.207 331.061 229.645L331.946 249.464C332.033 251.33 331.946 250.445 332.033 252.312C332.053 252.749 331.382 252.71 331.362 252.283Z" fill="#F2E9DA"/>
<path d="M352.296 271.285L351.577 254.217C351.489 252.351 351.411 250.484 351.324 248.608C351.304 248.171 351.975 248.21 351.995 248.647L352.88 268.466C352.967 270.333 352.88 269.448 352.967 271.314C352.987 271.752 352.316 271.713 352.296 271.285Z" fill="#F2E9DA"/>
<path d="M329.797 273.064L346.861 272.141C348.728 272.043 350.595 271.946 352.462 271.849C352.889 271.83 352.792 271.159 352.364 271.188L332.539 272.199C330.672 272.296 331.557 272.296 329.69 272.393C329.272 272.422 329.369 273.093 329.797 273.064Z" fill="#F2E9DA"/>
<path d="M308.358 253.585L325.422 252.662C327.289 252.564 329.155 252.467 331.022 252.37C331.45 252.351 331.353 251.68 330.925 251.709L311.1 252.72C309.233 252.817 310.118 252.817 308.251 252.914C307.823 252.944 307.93 253.614 308.358 253.585Z" fill="#F2E9DA"/>
</g>
<mask id="mask2_1980_533" style="mask-type:luminance" maskUnits="userSpaceOnUse" x="240" y="124" width="365" height="304">
<path d="M604.707 124.066V392.989H530.413C504.715 414.509 471.608 427.466 435.458 427.466C399.307 427.466 366.2 414.509 340.502 392.989H240.461V124.066H604.707Z" fill="white"/>
</mask>
<g mask="url(#mask2_1980_533)">
<path d="M489.985 249.765C483.461 239.617 479.387 230.063 477.17 221.159C464.948 172.287 508.371 143.02 508.371 143.02C508.371 143.02 522.586 162.246 523.208 187.674C523.675 206.725 516.5 229.246 489.985 249.765Z" fill="#F3F3F3"/>
<path d="M506.115 153.139L489.761 248.113C489.683 248.54 490.364 248.579 490.432 248.152L506.786 153.177C506.864 152.75 506.193 152.711 506.115 153.139Z" fill="#366985"/>
<path d="M499.776 193.302L489.829 179.402C488.75 177.876 487.661 176.35 486.582 174.834C486.329 174.484 485.823 174.921 486.076 175.271L497.578 191.445C498.658 192.971 498.181 192.223 499.27 193.749C499.513 194.099 500.019 193.652 499.776 193.302Z" fill="#366985"/>
<path d="M494.973 221.169L485.026 207.269C483.947 205.743 482.858 204.217 481.778 202.701C481.526 202.351 481.02 202.788 481.273 203.138L492.775 219.312C493.855 220.838 493.378 220.09 494.467 221.616C494.72 221.956 495.225 221.509 494.973 221.169Z" fill="#366985"/>
<path d="M513.797 208.727L499.776 218.506C498.24 219.575 496.713 220.654 495.177 221.723C494.827 221.976 494.496 221.383 494.846 221.14L511.094 209.748C512.63 208.679 511.92 209.223 513.456 208.144C513.826 207.901 514.147 208.484 513.797 208.727Z" fill="#366985"/>
<path d="M518.716 180.189L504.696 189.968C503.16 191.037 501.633 192.116 500.097 193.185C499.747 193.438 499.416 192.845 499.766 192.602L516.013 181.21C517.55 180.141 516.84 180.685 518.376 179.606C518.736 179.353 519.066 179.937 518.716 180.189Z" fill="#366985"/>
</g>
<mask id="mask3_1980_533" style="mask-type:luminance" maskUnits="userSpaceOnUse" x="240" y="124" width="365" height="304">
<path d="M604.707 124.066V392.989H530.413C504.715 414.509 471.608 427.466 435.458 427.466C399.307 427.466 366.2 414.509 340.502 392.989H240.461V124.066H604.707Z" fill="white"/>
</mask>
<g mask="url(#mask3_1980_533)">
<path d="M489.576 249.96C490.685 237.946 493.349 227.915 497.073 219.526C517.521 173.483 569.763 177.128 569.763 177.128C569.763 177.128 569.14 201.029 553.972 221.451C542.625 236.75 523.102 250.096 489.576 249.96Z" fill="#2E4057"/>
<path d="M561.77 183.718L490.413 248.521C490.092 248.813 490.597 249.25 490.918 248.968L562.276 184.165C562.597 183.864 562.091 183.426 561.77 183.718Z" fill="#F2E9DA"/>
<path d="M532.047 211.468L532.766 194.4C532.854 192.534 532.932 190.668 533.019 188.792C533.039 188.354 532.368 188.393 532.348 188.83L531.463 208.65C531.376 210.516 531.463 209.631 531.376 211.497C531.356 211.935 532.027 211.896 532.047 211.468Z" fill="#F2E9DA"/>
<path d="M511.113 230.481L511.832 213.412C511.92 211.546 511.998 209.68 512.085 207.804C512.105 207.366 511.434 207.405 511.414 207.843L510.53 227.662C510.442 229.528 510.53 228.644 510.442 230.51C510.423 230.947 511.094 230.908 511.113 230.481Z" fill="#F2E9DA"/>
<path d="M533.602 232.259L516.539 231.336C514.672 231.239 512.805 231.142 510.938 231.044C510.51 231.025 510.607 230.354 511.035 230.383L530.861 231.394C532.727 231.492 531.843 231.492 533.709 231.589C534.137 231.618 534.03 232.279 533.602 232.259Z" fill="#F2E9DA"/>
<path d="M555.052 212.781L537.988 211.857C536.121 211.76 534.254 211.663 532.387 211.566C531.959 211.546 532.057 210.875 532.484 210.905L552.31 211.915C554.177 212.013 553.292 212.013 555.159 212.11C555.577 212.139 555.479 212.81 555.052 212.781Z" fill="#F2E9DA"/>
</g>
<mask id="mask4_1980_533" style="mask-type:luminance" maskUnits="userSpaceOnUse" x="240" y="124" width="365" height="304">
<path d="M604.707 124.066V392.989H530.413C504.715 414.509 471.608 427.466 435.458 427.466C399.307 427.466 366.2 414.509 340.502 392.989H240.461V124.066H604.707Z" fill="white"/>
</mask>
<g mask="url(#mask4_1980_533)">
<path d="M416.692 224.231L465.745 224.221H486.786C507.642 224.221 525.766 238.558 530.559 258.863L548.586 335.282C554.002 358.221 536.587 380.217 513.009 380.217L516.986 448.714H359.054L372.365 359.796H371.577C352.452 359.796 338.927 341.085 344.946 322.928L367.435 255.043C373.531 236.643 390.741 224.221 410.139 224.221L416.692 224.231Z" fill="#AB141D"/>
</g>
<mask id="mask5_1980_533" style="mask-type:luminance" maskUnits="userSpaceOnUse" x="240" y="124" width="365" height="304">
<path d="M604.707 124.066V392.989H530.413C504.715 414.509 471.608 427.466 435.458 427.466C399.307 427.466 366.2 414.509 340.502 392.989H240.461V124.066H604.707Z" fill="white"/>
</mask>
<g mask="url(#mask5_1980_533)">
<mask id="mask6_1980_533" style="mask-type:luminance" maskUnits="userSpaceOnUse" x="343" y="224" width="207" height="225">
<path d="M416.692 224.231L465.745 224.221H486.786C507.642 224.221 525.766 238.558 530.559 258.863L548.586 335.282C554.002 358.221 536.587 380.217 513.009 380.217L516.986 448.714H359.054L372.365 359.796H371.577C352.452 359.796 338.927 341.085 344.946 322.928L367.435 255.043C373.531 236.643 390.741 224.221 410.139 224.221L416.692 224.231Z" fill="white"/>
</mask>
<g mask="url(#mask6_1980_533)">
<path d="M391.665 319.914C391.898 320.216 392.005 320.575 392.005 320.945C392.005 321.47 391.782 321.985 391.334 322.325L385.394 326.796C384.635 327.36 383.546 327.214 382.982 326.446C382.409 325.698 382.564 324.609 383.323 324.045L389.263 319.574C390.012 318.991 391.091 319.146 391.665 319.914Z" fill="#AB141D"/>
<path d="M391.665 355.538C391.898 355.849 392.005 356.209 392.005 356.568C392.005 357.103 391.782 357.609 391.334 357.949L385.394 362.42C384.635 362.993 383.546 362.838 382.982 362.08C382.409 361.322 382.564 360.233 383.323 359.669L389.263 355.198C390.012 354.634 391.091 354.79 391.665 355.538Z" fill="#AB141D"/>
<path d="M391.665 426.805C391.898 427.116 392.005 427.476 392.005 427.836C392.005 428.37 391.782 428.876 391.334 429.216L385.394 433.687C384.635 434.26 383.546 434.115 382.982 433.347C382.409 432.589 382.564 431.51 383.323 430.936L389.263 426.465C390.012 425.901 391.091 426.057 391.665 426.805Z" fill="#AB141D"/>
<path d="M380.367 307.288C380.931 308.046 380.785 309.135 380.017 309.699C379.268 310.272 378.179 310.126 377.615 309.358L373.143 303.42C372.569 302.671 372.715 301.582 373.483 301.009C373.784 300.776 374.144 300.669 374.504 300.669C375.039 300.669 375.564 300.892 375.894 301.359L380.367 307.288Z" fill="#AB141D"/>
<path d="M403.323 412.031C403.352 412.974 402.613 413.78 401.67 413.829L394.251 414.14C393.308 414.179 392.491 413.44 392.453 412.497V412.42C392.453 411.506 393.172 410.738 394.096 410.699L401.524 410.388C402.477 410.349 403.284 411.088 403.323 412.031Z" fill="#AB141D"/>
<path d="M348.67 432.025C349.243 432.773 349.097 433.862 348.329 434.435C347.581 434.999 346.492 434.853 345.918 434.085L341.445 428.156C340.881 427.398 341.027 426.31 341.795 425.746C342.097 425.503 342.466 425.396 342.826 425.396C343.351 425.396 343.857 425.639 344.197 426.086L348.67 432.025Z" fill="#AB141D"/>
<path d="M348.67 289.481C349.243 290.229 349.097 291.318 348.329 291.882C347.581 292.455 346.492 292.31 345.918 291.542L341.445 285.603C340.881 284.854 341.027 283.766 341.795 283.202C342.097 282.959 342.466 282.852 342.826 282.852C343.351 282.852 343.857 283.095 344.197 283.542L348.67 289.481Z" fill="#AB141D"/>
<path d="M391.665 284.271C391.898 284.582 392.005 284.942 392.005 285.301C392.005 285.836 391.782 286.341 391.334 286.682L385.394 291.153C384.635 291.717 383.546 291.571 382.982 290.813C382.409 290.055 382.564 288.966 383.323 288.402L389.263 283.931C390.012 283.367 391.091 283.523 391.665 284.271Z" fill="#AB141D"/>
<path d="M403.323 376.407C403.352 377.35 402.613 378.157 401.67 378.205L394.251 378.516C393.308 378.545 392.491 377.807 392.453 376.864V376.786C392.453 375.872 393.172 375.114 394.096 375.066L401.524 374.755C402.477 374.706 403.284 375.454 403.323 376.407Z" fill="#AB141D"/>
<path d="M359.978 302.088C360.211 302.389 360.318 302.759 360.318 303.118C360.318 303.643 360.094 304.158 359.627 304.498L353.687 308.97C352.938 309.533 351.849 309.388 351.285 308.629C350.711 307.871 350.857 306.783 351.625 306.219L357.566 301.748C358.315 301.174 359.404 301.33 359.978 302.088Z" fill="#AB141D"/>
<path d="M403.323 340.764C403.352 341.707 402.613 342.513 401.67 342.562L394.251 342.873C393.308 342.912 392.491 342.173 392.453 341.23V341.153C392.453 340.239 393.172 339.471 394.096 339.432L401.524 339.121C402.477 339.082 403.284 339.821 403.323 340.764Z" fill="#AB141D"/>
<path d="M403.323 305.121C403.352 306.073 402.613 306.88 401.67 306.919L394.251 307.249C393.308 307.278 392.491 306.54 392.453 305.597V305.519C392.453 304.605 393.172 303.847 394.096 303.799L401.524 303.488C402.477 303.439 403.284 304.178 403.323 305.121Z" fill="#AB141D"/>
<path d="M403.323 269.497C403.352 270.44 402.613 271.246 401.67 271.295L394.251 271.606C393.308 271.645 392.491 270.906 392.453 269.963V269.886C392.453 268.972 393.172 268.204 394.096 268.165L401.524 267.835C402.477 267.805 403.284 268.544 403.323 269.497Z" fill="#AB141D"/>
<path d="M403.323 233.853C403.352 234.796 402.613 235.613 401.67 235.652L394.251 235.982C393.308 236.011 392.491 235.273 392.453 234.33V234.252C392.453 233.338 393.172 232.58 394.096 232.532L401.524 232.221C402.477 232.172 403.284 232.911 403.323 233.853Z" fill="#AB141D"/>
<path d="M412.064 360.748C412.628 361.497 412.482 362.585 411.724 363.159C410.965 363.722 409.876 363.577 409.312 362.809L404.84 356.87C404.266 356.121 404.422 355.033 405.18 354.469C405.491 354.226 405.851 354.119 406.22 354.119C406.746 354.119 407.251 354.362 407.591 354.809L412.064 360.748Z" fill="#AB141D"/>
<path d="M380.367 414.198C380.931 414.957 380.785 416.035 380.017 416.609C379.268 417.173 378.179 417.027 377.615 416.269L373.143 410.33C372.569 409.572 372.715 408.483 373.483 407.919C373.784 407.686 374.144 407.579 374.514 407.579C375.039 407.579 375.554 407.812 375.894 408.25L380.367 414.198Z" fill="#AB141D"/>
<path d="M391.665 248.638C391.898 248.939 392.005 249.299 392.005 249.668C392.005 250.193 391.782 250.708 391.334 251.048L385.394 255.51C384.635 256.083 383.546 255.937 382.982 255.169C382.409 254.421 382.564 253.332 383.323 252.759L389.263 248.288C390.012 247.724 391.091 247.879 391.665 248.638Z" fill="#AB141D"/>
<path d="M359.978 266.464C360.211 266.765 360.318 267.125 360.318 267.485C360.318 268.01 360.094 268.525 359.627 268.865L353.687 273.336C352.938 273.91 351.849 273.764 351.285 272.996C350.711 272.238 350.857 271.159 351.625 270.585L357.566 266.114C358.315 265.55 359.404 265.696 359.978 266.464Z" fill="#AB141D"/>
<path d="M359.978 373.355C360.211 373.656 360.318 374.026 360.318 374.385C360.318 374.91 360.094 375.425 359.627 375.766L353.687 380.237C352.938 380.8 351.849 380.655 351.285 379.897C350.711 379.138 350.857 378.05 351.625 377.486L357.566 373.015C358.315 372.441 359.404 372.606 359.978 373.355Z" fill="#AB141D"/>
<path d="M371.626 287.313C371.665 288.256 370.926 289.063 369.983 289.112L362.554 289.423C361.611 289.462 360.804 288.713 360.755 287.77V287.702C360.755 286.789 361.485 286.021 362.408 285.972L369.827 285.661C370.77 285.632 371.587 286.371 371.626 287.313Z" fill="#AB141D"/>
<path d="M348.67 396.382C349.243 397.14 349.097 398.228 348.329 398.792C347.581 399.356 346.492 399.21 345.918 398.452L341.445 392.513C340.881 391.755 341.027 390.676 341.795 390.102C342.097 389.869 342.457 389.762 342.826 389.762C343.351 389.762 343.857 389.996 344.197 390.433L348.67 396.382Z" fill="#AB141D"/>
<path d="M371.626 322.947C371.665 323.89 370.926 324.706 369.983 324.745L362.554 325.056C361.611 325.095 360.804 324.356 360.755 323.414V323.346C360.755 322.432 361.485 321.664 362.408 321.615L369.827 321.304C370.77 321.256 371.587 321.994 371.626 322.947Z" fill="#AB141D"/>
<path d="M359.978 408.998C360.211 409.299 360.318 409.659 360.318 410.019C360.318 410.544 360.094 411.059 359.627 411.399L353.687 415.87C352.938 416.444 351.849 416.298 351.285 415.53C350.711 414.782 350.857 413.693 351.625 413.119L357.566 408.648C358.315 408.084 359.404 408.24 359.978 408.998Z" fill="#AB141D"/>
<path d="M412.064 432.025C412.628 432.773 412.482 433.862 411.724 434.435C410.965 434.999 409.876 434.853 409.312 434.085L404.84 428.156C404.266 427.398 404.422 426.31 405.18 425.746C405.491 425.503 405.851 425.396 406.22 425.396C406.746 425.396 407.251 425.639 407.591 426.086L412.064 432.025Z" fill="#AB141D"/>
<path d="M359.978 337.731C360.211 338.032 360.318 338.392 360.318 338.752C360.318 339.277 360.094 339.792 359.627 340.132L353.687 344.603C352.938 345.177 351.849 345.031 351.285 344.263C350.711 343.505 350.857 342.426 351.625 341.852L357.566 337.381C358.315 336.817 359.404 336.973 359.978 337.731Z" fill="#AB141D"/>
<path d="M348.67 360.748C349.243 361.497 349.097 362.585 348.329 363.159C347.581 363.722 346.492 363.577 345.918 362.809L341.445 356.87C340.881 356.121 341.027 355.033 341.795 354.469C342.097 354.226 342.466 354.119 342.826 354.119C343.351 354.119 343.857 354.362 344.197 354.809L348.67 360.748Z" fill="#AB141D"/>
<path d="M359.978 230.821C360.211 231.122 360.318 231.492 360.318 231.851C360.318 232.376 360.094 232.891 359.627 233.231L353.687 237.703C352.938 238.266 351.849 238.121 351.285 237.353C350.711 236.604 350.857 235.516 351.625 234.952L357.566 230.481C358.315 229.907 359.404 230.063 359.978 230.821Z" fill="#AB141D"/>
<path d="M380.367 271.664C380.931 272.422 380.785 273.501 380.017 274.075C379.268 274.639 378.179 274.493 377.615 273.725L373.143 267.796C372.569 267.038 372.715 265.949 373.483 265.385C373.784 265.142 374.154 265.035 374.514 265.035C375.039 265.035 375.554 265.278 375.894 265.725L380.367 271.664Z" fill="#AB141D"/>
<path d="M348.67 325.115C349.243 325.873 349.097 326.961 348.329 327.525C347.581 328.089 346.492 327.943 345.918 327.185L341.445 321.246C340.881 320.488 341.027 319.409 341.795 318.835C342.097 318.602 342.457 318.495 342.826 318.495C343.351 318.495 343.857 318.728 344.197 319.166L348.67 325.115Z" fill="#AB141D"/>
<path d="M348.67 253.838C349.243 254.596 349.097 255.685 348.329 256.248C347.581 256.812 346.492 256.666 345.918 255.908L341.445 249.969C340.881 249.211 341.027 248.122 341.795 247.559C342.097 247.325 342.457 247.219 342.826 247.219C343.351 247.219 343.857 247.452 344.197 247.889L348.67 253.838Z" fill="#AB141D"/>
<path d="M412.064 289.481C412.628 290.229 412.482 291.318 411.724 291.882C410.965 292.455 409.876 292.31 409.312 291.542L404.84 285.603C404.266 284.854 404.422 283.766 405.18 283.202C405.491 282.959 405.851 282.852 406.22 282.852C406.746 282.852 407.251 283.095 407.591 283.542L412.064 289.481Z" fill="#AB141D"/>
<path d="M371.626 358.58C371.665 359.523 370.926 360.33 369.983 360.379L362.554 360.69C361.611 360.729 360.804 359.98 360.755 359.037V358.969C360.755 358.056 361.485 357.288 362.408 357.239L369.827 356.928C370.77 356.899 371.587 357.638 371.626 358.58Z" fill="#AB141D"/>
<path d="M380.367 342.931C380.931 343.689 380.785 344.768 380.017 345.342C379.268 345.906 378.179 345.76 377.615 345.002L373.143 339.063C372.569 338.305 372.715 337.216 373.483 336.652C373.784 336.409 374.144 336.302 374.504 336.302C375.039 336.302 375.564 336.545 375.894 336.992L380.367 342.931Z" fill="#AB141D"/>
<path d="M380.367 236.021C380.931 236.779 380.785 237.868 380.017 238.432C379.268 239.005 378.179 238.85 377.615 238.091L373.143 232.152C372.569 231.394 372.715 230.315 373.483 229.742C373.784 229.509 374.144 229.402 374.504 229.402C375.039 229.402 375.564 229.635 375.894 230.092L380.367 236.021Z" fill="#AB141D"/>
<path d="M380.367 378.575C380.931 379.323 380.785 380.412 380.017 380.975C379.268 381.549 378.179 381.403 377.615 380.635L373.143 374.696C372.569 373.948 372.715 372.859 373.483 372.286C373.784 372.062 374.144 371.946 374.504 371.946C375.039 371.946 375.564 372.179 375.894 372.636L380.367 378.575Z" fill="#AB141D"/>
<path d="M371.626 251.68C371.665 252.623 370.926 253.43 369.983 253.478L362.554 253.789C361.611 253.828 360.804 253.089 360.755 252.147V252.079C360.755 251.165 361.485 250.397 362.408 250.348L369.827 250.037C370.77 249.989 371.587 250.727 371.626 251.68Z" fill="#AB141D"/>
<path d="M391.665 391.181C391.898 391.492 392.005 391.852 392.005 392.212C392.005 392.737 391.782 393.252 391.334 393.592L385.394 398.063C384.635 398.627 383.546 398.481 382.982 397.713C382.409 396.965 382.564 395.876 383.323 395.312L389.263 390.841C390.012 390.268 391.091 390.413 391.665 391.181Z" fill="#AB141D"/>
<path d="M371.626 394.214C371.665 395.157 370.926 395.973 369.983 396.012L362.554 396.323C361.611 396.362 360.804 395.623 360.755 394.681V394.613C360.755 393.699 361.485 392.931 362.408 392.882L369.827 392.571C370.77 392.533 371.587 393.271 371.626 394.214Z" fill="#AB141D"/>
<path d="M423.362 302.088C423.596 302.399 423.703 302.759 423.703 303.118C423.703 303.643 423.479 304.158 423.032 304.498L417.091 308.97C416.332 309.533 415.253 309.388 414.68 308.629C414.116 307.871 414.261 306.783 415.02 306.219L420.961 301.748C421.7 301.174 422.789 301.33 423.362 302.088Z" fill="#AB141D"/>
<path d="M455.05 355.538C455.293 355.849 455.4 356.209 455.4 356.578C455.4 357.103 455.157 357.609 454.709 357.949L448.769 362.42C448.02 362.993 446.931 362.838 446.357 362.08C445.793 361.322 445.939 360.233 446.707 359.669L452.638 355.198C453.397 354.634 454.486 354.79 455.05 355.538Z" fill="#AB141D"/>
<path d="M466.708 376.407C466.747 377.35 466.008 378.157 465.065 378.205L457.636 378.516C456.693 378.545 455.886 377.807 455.837 376.864V376.786C455.837 375.872 456.557 375.114 457.49 375.066L464.909 374.755C465.852 374.706 466.659 375.454 466.708 376.407Z" fill="#AB141D"/>
<path d="M423.362 373.355C423.596 373.666 423.703 374.026 423.703 374.385C423.703 374.92 423.479 375.425 423.032 375.766L417.091 380.237C416.332 380.8 415.253 380.655 414.68 379.897C414.116 379.138 414.261 378.05 415.02 377.486L420.961 373.015C421.7 372.441 422.789 372.606 423.362 373.355Z" fill="#AB141D"/>
<path d="M423.362 408.998C423.596 409.299 423.703 409.659 423.703 410.028C423.703 410.553 423.479 411.059 423.032 411.399L417.091 415.87C416.332 416.444 415.253 416.298 414.68 415.53C414.116 414.782 414.261 413.693 415.02 413.119L420.961 408.648C421.7 408.084 422.789 408.24 423.362 408.998Z" fill="#AB141D"/>
<path d="M435.01 251.68C435.049 252.623 434.301 253.43 433.358 253.478L425.939 253.789C424.996 253.828 424.189 253.089 424.14 252.147V252.069C424.14 251.155 424.86 250.397 425.783 250.348L433.212 250.037C434.165 249.989 434.972 250.727 435.01 251.68Z" fill="#AB141D"/>
<path d="M455.05 248.638C455.293 248.939 455.4 249.308 455.4 249.668C455.4 250.193 455.157 250.708 454.709 251.048L448.769 255.51C448.02 256.083 446.931 255.937 446.357 255.169C445.793 254.421 445.939 253.332 446.707 252.759L452.638 248.288C453.397 247.724 454.486 247.879 455.05 248.638Z" fill="#AB141D"/>
<path d="M455.05 284.271C455.293 284.582 455.4 284.942 455.4 285.311C455.4 285.836 455.157 286.341 454.709 286.682L448.769 291.153C448.02 291.717 446.931 291.571 446.357 290.813C445.793 290.055 445.939 288.966 446.707 288.402L452.638 283.931C453.397 283.367 454.486 283.523 455.05 284.271Z" fill="#AB141D"/>
<path d="M466.708 340.764C466.747 341.707 466.008 342.513 465.065 342.562L457.636 342.873C456.693 342.912 455.886 342.173 455.837 341.23V341.153C455.837 340.239 456.557 339.471 457.49 339.432L464.909 339.121C465.852 339.082 466.659 339.821 466.708 340.764Z" fill="#AB141D"/>
<path d="M466.708 269.497C466.747 270.44 466.008 271.246 465.065 271.295L457.636 271.606C456.693 271.645 455.886 270.906 455.837 269.963V269.886C455.837 268.972 456.557 268.204 457.49 268.165L464.909 267.835C465.852 267.805 466.659 268.544 466.708 269.497Z" fill="#AB141D"/>
<path d="M443.752 378.575C444.316 379.323 444.17 380.412 443.411 380.975C442.653 381.549 441.564 381.403 441 380.635L436.527 374.696C435.963 373.948 436.109 372.859 436.868 372.286C437.169 372.062 437.538 371.946 437.898 371.946C438.423 371.946 438.939 372.179 439.279 372.636L443.752 378.575Z" fill="#AB141D"/>
<path d="M466.708 305.121C466.747 306.073 466.008 306.88 465.065 306.919L457.636 307.249C456.693 307.278 455.886 306.54 455.837 305.597V305.519C455.837 304.605 456.557 303.847 457.49 303.799L464.909 303.488C465.852 303.439 466.659 304.178 466.708 305.121Z" fill="#AB141D"/>
<path d="M466.708 233.853C466.747 234.796 466.008 235.613 465.065 235.652L457.636 235.982C456.693 236.011 455.886 235.273 455.837 234.33V234.252C455.837 233.338 456.557 232.58 457.49 232.532L464.909 232.221C465.852 232.172 466.659 232.911 466.708 233.853Z" fill="#AB141D"/>
<path d="M475.439 360.748C476.013 361.497 475.867 362.585 475.099 363.159C474.34 363.722 473.261 363.577 472.687 362.809L468.215 356.87C467.651 356.121 467.797 355.033 468.565 354.469C468.866 354.226 469.236 354.119 469.595 354.119C470.121 354.119 470.626 354.362 470.966 354.809L475.439 360.748Z" fill="#AB141D"/>
<path d="M475.439 289.481C476.013 290.229 475.867 291.318 475.099 291.882C474.34 292.455 473.261 292.31 472.687 291.542L468.215 285.603C467.651 284.854 467.797 283.766 468.565 283.202C468.866 282.959 469.236 282.852 469.595 282.852C470.121 282.852 470.626 283.095 470.966 283.542L475.439 289.481Z" fill="#AB141D"/>
<path d="M412.064 396.382C412.628 397.14 412.482 398.228 411.724 398.792C410.965 399.356 409.876 399.21 409.312 398.452L404.84 392.513C404.266 391.755 404.422 390.676 405.18 390.102C405.491 389.869 405.851 389.762 406.211 389.762C406.746 389.762 407.251 389.996 407.591 390.433L412.064 396.382Z" fill="#AB141D"/>
<path d="M435.01 358.58C435.049 359.523 434.301 360.33 433.358 360.379L425.939 360.69C424.996 360.729 424.189 359.98 424.14 359.037V358.96C424.14 358.046 424.86 357.288 425.783 357.239L433.212 356.928C434.165 356.899 434.972 357.638 435.01 358.58Z" fill="#AB141D"/>
<path d="M455.05 391.181C455.293 391.492 455.4 391.852 455.4 392.212C455.4 392.737 455.157 393.252 454.709 393.592L448.769 398.063C448.02 398.627 446.931 398.481 446.357 397.713C445.793 396.965 445.939 395.876 446.707 395.312L452.638 390.841C453.397 390.268 454.486 390.413 455.05 391.181Z" fill="#AB141D"/>
<path d="M443.752 271.664C444.316 272.422 444.17 273.501 443.411 274.075C442.653 274.639 441.564 274.493 441 273.725L436.527 267.796C435.963 267.038 436.109 265.949 436.868 265.385C437.179 265.142 437.539 265.035 437.908 265.035C438.433 265.035 438.939 265.278 439.279 265.725L443.752 271.664Z" fill="#AB141D"/>
<path d="M423.362 337.731C423.596 338.032 423.703 338.392 423.703 338.761C423.703 339.286 423.479 339.792 423.032 340.132L417.091 344.603C416.332 345.177 415.253 345.031 414.68 344.263C414.116 343.505 414.261 342.426 415.02 341.852L420.961 337.381C421.7 336.817 422.789 336.973 423.362 337.731Z" fill="#AB141D"/>
<path d="M475.439 432.025C476.013 432.773 475.867 433.862 475.099 434.435C474.34 434.999 473.261 434.853 472.687 434.085L468.215 428.156C467.651 427.398 467.797 426.31 468.565 425.746C468.866 425.503 469.236 425.396 469.595 425.396C470.121 425.396 470.626 425.639 470.966 426.086L475.439 432.025Z" fill="#AB141D"/>
<path d="M443.752 414.198C444.316 414.957 444.17 416.035 443.411 416.609C442.653 417.173 441.564 417.027 441 416.269L436.527 410.33C435.963 409.572 436.109 408.483 436.868 407.919C437.179 407.686 437.538 407.579 437.898 407.579C438.433 407.579 438.939 407.812 439.279 408.25L443.752 414.198Z" fill="#AB141D"/>
<path d="M455.05 319.914C455.293 320.216 455.4 320.585 455.4 320.945C455.4 321.47 455.157 321.985 454.709 322.325L448.769 326.796C448.02 327.36 446.931 327.214 446.357 326.446C445.793 325.698 445.939 324.609 446.707 324.045L452.638 319.574C453.397 318.991 454.486 319.146 455.05 319.914Z" fill="#AB141D"/>
<path d="M475.439 396.382C476.013 397.14 475.867 398.228 475.099 398.792C474.34 399.356 473.261 399.21 472.687 398.452L468.215 392.513C467.651 391.755 467.797 390.676 468.565 390.102C468.866 389.869 469.226 389.762 469.595 389.762C470.121 389.762 470.626 389.996 470.966 390.433L475.439 396.382Z" fill="#AB141D"/>
<path d="M435.01 287.313C435.049 288.256 434.301 289.063 433.358 289.112L425.939 289.423C424.996 289.462 424.189 288.713 424.14 287.77V287.693C424.14 286.779 424.86 286.021 425.783 285.972L433.212 285.661C434.165 285.632 434.972 286.371 435.01 287.313Z" fill="#AB141D"/>
<path d="M475.439 325.115C476.013 325.873 475.867 326.961 475.099 327.525C474.34 328.089 473.261 327.943 472.687 327.185L468.215 321.246C467.651 320.488 467.797 319.409 468.565 318.835C468.866 318.602 469.226 318.495 469.595 318.495C470.121 318.495 470.626 318.728 470.966 319.166L475.439 325.115Z" fill="#AB141D"/>
<path d="M475.439 253.838C476.013 254.596 475.867 255.685 475.099 256.248C474.34 256.812 473.261 256.666 472.687 255.908L468.215 249.969C467.651 249.211 467.797 248.122 468.565 247.559C468.866 247.325 469.226 247.219 469.595 247.219C470.121 247.219 470.626 247.452 470.966 247.889L475.439 253.838Z" fill="#AB141D"/>
<path d="M412.064 325.115C412.628 325.873 412.482 326.961 411.724 327.525C410.965 328.089 409.876 327.943 409.312 327.185L404.84 321.246C404.266 320.488 404.422 319.409 405.18 318.835C405.491 318.602 405.851 318.495 406.211 318.495C406.746 318.495 407.251 318.728 407.591 319.166L412.064 325.115Z" fill="#AB141D"/>
<path d="M423.362 230.821C423.596 231.132 423.703 231.492 423.703 231.851C423.703 232.376 423.479 232.891 423.032 233.231L417.091 237.703C416.332 238.266 415.253 238.121 414.68 237.353C414.116 236.604 414.261 235.516 415.02 234.952L420.961 230.481C421.7 229.907 422.789 230.063 423.362 230.821Z" fill="#AB141D"/>
<path d="M443.752 307.288C444.316 308.046 444.17 309.135 443.411 309.699C442.653 310.272 441.564 310.126 441 309.358L436.527 303.42C435.963 302.671 436.109 301.582 436.868 301.009C437.169 300.776 437.538 300.669 437.898 300.669C438.423 300.669 438.939 300.892 439.279 301.359L443.752 307.288Z" fill="#AB141D"/>
<path d="M423.362 266.464C423.596 266.765 423.703 267.125 423.703 267.494C423.703 268.019 423.479 268.525 423.032 268.865L417.091 273.336C416.332 273.91 415.253 273.764 414.68 272.996C414.116 272.238 414.261 271.159 415.02 270.585L420.961 266.114C421.7 265.55 422.789 265.696 423.362 266.464Z" fill="#AB141D"/>
<path d="M443.752 236.021C444.316 236.779 444.17 237.868 443.411 238.432C442.653 239.005 441.564 238.85 441 238.091L436.527 232.152C435.963 231.394 436.109 230.315 436.868 229.742C437.169 229.509 437.538 229.402 437.898 229.402C438.423 229.402 438.939 229.635 439.279 230.092L443.752 236.021Z" fill="#AB141D"/>
<path d="M435.01 322.947C435.049 323.89 434.301 324.706 433.358 324.745L425.939 325.056C424.996 325.095 424.189 324.356 424.14 323.414V323.336C424.14 322.422 424.86 321.664 425.783 321.615L433.212 321.304C434.165 321.256 434.972 321.994 435.01 322.947Z" fill="#AB141D"/>
<path d="M455.05 426.805C455.293 427.116 455.4 427.476 455.4 427.845C455.4 428.37 455.157 428.876 454.709 429.216L448.769 433.687C448.02 434.26 446.931 434.115 446.357 433.347C445.793 432.589 445.939 431.51 446.707 430.936L452.638 426.465C453.397 425.901 454.486 426.057 455.05 426.805Z" fill="#AB141D"/>
<path d="M466.708 412.031C466.747 412.974 466.008 413.78 465.065 413.829L457.636 414.14C456.693 414.179 455.886 413.44 455.837 412.497V412.42C455.837 411.506 456.557 410.738 457.49 410.699L464.909 410.388C465.852 410.349 466.659 411.088 466.708 412.031Z" fill="#AB141D"/>
<path d="M435.01 394.214C435.049 395.157 434.301 395.973 433.358 396.012L425.939 396.323C424.996 396.362 424.189 395.623 424.14 394.681V394.603C424.14 393.689 424.86 392.931 425.783 392.882L433.212 392.571C434.165 392.533 434.972 393.271 435.01 394.214Z" fill="#AB141D"/>
<path d="M443.752 342.931C444.316 343.689 444.17 344.768 443.411 345.342C442.653 345.906 441.564 345.76 441 345.002L436.527 339.063C435.963 338.305 436.109 337.216 436.868 336.652C437.169 336.409 437.538 336.302 437.898 336.302C438.423 336.302 438.939 336.545 439.279 336.992L443.752 342.931Z" fill="#AB141D"/>
<path d="M412.064 253.838C412.628 254.596 412.482 255.685 411.724 256.248C410.965 256.812 409.876 256.666 409.312 255.908L404.84 249.969C404.266 249.211 404.422 248.122 405.18 247.559C405.491 247.325 405.851 247.219 406.211 247.219C406.746 247.219 407.251 247.452 407.591 247.889L412.064 253.838Z" fill="#AB141D"/>
<path d="M498.395 394.214C498.434 395.157 497.695 395.973 496.752 396.012L489.324 396.323C488.38 396.362 487.573 395.623 487.525 394.681V394.613C487.525 393.699 488.254 392.931 489.178 392.882L496.596 392.571C497.549 392.533 498.366 393.271 498.395 394.214Z" fill="#AB141D"/>
<path d="M486.737 408.998C486.98 409.299 487.087 409.669 487.087 410.028C487.087 410.553 486.844 411.059 486.397 411.399L480.456 415.87C479.708 416.444 478.619 416.298 478.055 415.53C477.481 414.782 477.627 413.693 478.395 413.119L484.336 408.648C485.084 408.084 486.173 408.24 486.737 408.998Z" fill="#AB141D"/>
<path d="M518.444 355.538C518.678 355.839 518.785 356.209 518.785 356.568C518.785 357.093 518.561 357.609 518.094 357.949L512.163 362.42C511.405 362.993 510.316 362.838 509.752 362.08C509.178 361.322 509.324 360.233 510.092 359.669L516.033 355.198C516.782 354.634 517.861 354.79 518.444 355.538Z" fill="#AB141D"/>
<path d="M518.444 284.271C518.678 284.572 518.785 284.942 518.785 285.301C518.785 285.826 518.561 286.341 518.094 286.682L512.163 291.153C511.405 291.717 510.316 291.571 509.752 290.813C509.178 290.055 509.324 288.966 510.092 288.402L516.033 283.931C516.782 283.367 517.861 283.523 518.444 284.271Z" fill="#AB141D"/>
<path d="M507.146 236.021C507.71 236.779 507.564 237.868 506.796 238.432C506.047 239.005 504.958 238.85 504.385 238.091L499.922 232.152C499.348 231.394 499.494 230.315 500.262 229.742C500.564 229.509 500.923 229.402 501.283 229.402C501.818 229.402 502.343 229.635 502.673 230.092L507.146 236.021Z" fill="#AB141D"/>
<path d="M507.146 307.288C507.71 308.046 507.564 309.135 506.796 309.699C506.047 310.272 504.958 310.126 504.385 309.358L499.922 303.42C499.348 302.671 499.494 301.582 500.262 301.009C500.564 300.776 500.923 300.669 501.283 300.669C501.818 300.669 502.343 300.892 502.673 301.359L507.146 307.288Z" fill="#AB141D"/>
<path d="M518.444 319.914C518.678 320.216 518.785 320.575 518.785 320.935C518.785 321.47 518.561 321.994 518.094 322.325L512.163 326.796C511.405 327.36 510.316 327.214 509.752 326.446C509.178 325.698 509.324 324.609 510.092 324.045L516.033 319.574C516.782 318.991 517.861 319.146 518.444 319.914Z" fill="#AB141D"/>
<path d="M486.737 373.355C486.98 373.666 487.087 374.026 487.087 374.395C487.087 374.92 486.844 375.425 486.397 375.766L480.456 380.237C479.708 380.8 478.619 380.655 478.055 379.897C477.481 379.138 477.627 378.05 478.395 377.486L484.336 373.015C485.084 372.441 486.173 372.606 486.737 373.355Z" fill="#AB141D"/>
<path d="M507.146 342.931C507.71 343.689 507.564 344.768 506.796 345.342C506.047 345.906 504.958 345.76 504.385 345.002L499.922 339.063C499.348 338.305 499.494 337.216 500.262 336.652C500.564 336.409 500.923 336.302 501.283 336.302C501.818 336.302 502.343 336.545 502.673 336.992L507.146 342.931Z" fill="#AB141D"/>
<path d="M498.395 287.313C498.434 288.256 497.695 289.063 496.752 289.112L489.324 289.423C488.38 289.462 487.573 288.713 487.525 287.77V287.702C487.525 286.789 488.254 286.021 489.178 285.972L496.596 285.661C497.549 285.632 498.366 286.371 498.395 287.313Z" fill="#AB141D"/>
<path d="M498.395 358.58C498.434 359.523 497.695 360.33 496.752 360.379L489.324 360.69C488.38 360.729 487.573 359.98 487.525 359.037V358.969C487.525 358.056 488.254 357.288 489.178 357.239L496.596 356.928C497.549 356.899 498.366 357.638 498.395 358.58Z" fill="#AB141D"/>
<path d="M498.395 322.947C498.434 323.89 497.695 324.706 496.752 324.745L489.324 325.056C488.38 325.095 487.573 324.356 487.525 323.414V323.346C487.525 322.432 488.254 321.664 489.178 321.615L496.596 321.304C497.549 321.256 498.366 321.994 498.395 322.947Z" fill="#AB141D"/>
<path d="M507.146 414.198C507.71 414.957 507.564 416.035 506.796 416.609C506.047 417.173 504.958 417.027 504.385 416.269L499.922 410.33C499.348 409.572 499.494 408.483 500.262 407.919C500.564 407.686 500.923 407.579 501.293 407.579C501.818 407.579 502.333 407.812 502.673 408.25L507.146 414.198Z" fill="#AB141D"/>
<path d="M507.146 271.664C507.71 272.422 507.564 273.501 506.796 274.075C506.047 274.639 504.958 274.493 504.385 273.725L499.922 267.796C499.348 267.038 499.494 265.949 500.262 265.385C500.564 265.142 500.933 265.035 501.293 265.035C501.818 265.035 502.333 265.278 502.673 265.725L507.146 271.664Z" fill="#AB141D"/>
<path d="M498.395 251.68C498.434 252.623 497.695 253.43 496.752 253.478L489.324 253.789C488.38 253.828 487.573 253.089 487.525 252.147V252.079C487.525 251.165 488.254 250.397 489.178 250.348L496.596 250.037C497.549 249.989 498.366 250.727 498.395 251.68Z" fill="#AB141D"/>
<path d="M530.092 412.031C530.122 412.974 529.383 413.78 528.44 413.829L521.011 414.14C520.068 414.179 519.261 413.44 519.212 412.497V412.429C519.212 411.516 519.942 410.728 520.865 410.699L528.294 410.388C529.247 410.349 530.054 411.088 530.092 412.031Z" fill="#AB141D"/>
<path d="M530.092 376.407C530.122 377.35 529.383 378.157 528.44 378.205L521.011 378.516C520.068 378.545 519.261 377.807 519.212 376.864V376.796C519.212 375.882 519.942 375.114 520.865 375.066L528.294 374.755C529.247 374.706 530.054 375.454 530.092 376.407Z" fill="#AB141D"/>
<path d="M530.092 340.764C530.122 341.707 529.383 342.513 528.44 342.562L521.011 342.873C520.068 342.912 519.261 342.173 519.212 341.23V341.172C519.212 340.258 519.942 339.471 520.865 339.442L528.294 339.131C529.247 339.082 530.054 339.821 530.092 340.764Z" fill="#AB141D"/>
<path d="M530.092 269.497C530.122 270.44 529.383 271.246 528.44 271.295L521.011 271.606C520.068 271.645 519.261 270.906 519.212 269.963V269.895C519.212 268.982 519.942 268.194 520.865 268.165L528.294 267.835C529.247 267.805 530.054 268.544 530.092 269.497Z" fill="#AB141D"/>
<path d="M530.092 233.853C530.122 234.796 529.383 235.613 528.44 235.652L521.011 235.982C520.068 236.011 519.261 235.273 519.212 234.33V234.262C519.212 233.348 519.942 232.58 520.865 232.532L528.294 232.221C529.247 232.172 530.054 232.911 530.092 233.853Z" fill="#AB141D"/>
<path d="M538.834 432.025C539.397 432.773 539.252 433.862 538.493 434.435C537.735 434.999 536.646 434.853 536.082 434.085L531.609 428.156C531.036 427.398 531.181 426.31 531.95 425.746C532.261 425.503 532.62 425.396 532.98 425.396C533.505 425.396 534.021 425.639 534.361 426.086L538.834 432.025Z" fill="#AB141D"/>
<path d="M538.834 360.748C539.397 361.497 539.252 362.585 538.493 363.159C537.735 363.722 536.646 363.577 536.082 362.809L531.609 356.87C531.036 356.121 531.181 355.033 531.95 354.469C532.261 354.226 532.62 354.119 532.98 354.119C533.505 354.119 534.021 354.362 534.361 354.809L538.834 360.748Z" fill="#AB141D"/>
<path d="M530.092 305.121C530.122 306.073 529.383 306.88 528.44 306.919L521.011 307.249C520.068 307.278 519.261 306.54 519.212 305.597V305.529C519.212 304.615 519.942 303.847 520.865 303.799L528.294 303.488C529.247 303.439 530.054 304.178 530.092 305.121Z" fill="#AB141D"/>
<path d="M518.444 426.805C518.678 427.107 518.785 427.476 518.785 427.836C518.785 428.36 518.561 428.876 518.094 429.216L512.163 433.687C511.405 434.26 510.316 434.115 509.752 433.347C509.178 432.589 509.324 431.51 510.092 430.936L516.033 426.465C516.782 425.901 517.861 426.057 518.444 426.805Z" fill="#AB141D"/>
<path d="M486.737 302.088C486.98 302.399 487.087 302.759 487.087 303.118C487.087 303.643 486.844 304.158 486.397 304.498L480.456 308.97C479.708 309.533 478.619 309.388 478.055 308.629C477.481 307.871 477.627 306.783 478.395 306.219L484.336 301.748C485.084 301.174 486.173 301.33 486.737 302.088Z" fill="#AB141D"/>
<path d="M507.146 378.575C507.71 379.323 507.564 380.412 506.796 380.975C506.047 381.549 504.958 381.403 504.385 380.635L499.922 374.696C499.348 373.948 499.494 372.859 500.262 372.286C500.564 372.062 500.923 371.946 501.283 371.946C501.818 371.946 502.343 372.179 502.673 372.636L507.146 378.575Z" fill="#AB141D"/>
<path d="M518.444 248.638C518.678 248.939 518.785 249.299 518.785 249.658C518.785 250.193 518.561 250.718 518.094 251.048L512.163 255.51C511.405 256.083 510.316 255.937 509.752 255.169C509.178 254.421 509.324 253.332 510.092 252.759L516.033 248.288C516.782 247.724 517.861 247.879 518.444 248.638Z" fill="#AB141D"/>
<path d="M518.444 391.181C518.678 391.483 518.785 391.852 518.785 392.212C518.785 392.737 518.561 393.252 518.094 393.592L512.163 398.063C511.405 398.627 510.316 398.481 509.752 397.713C509.178 396.965 509.324 395.876 510.092 395.312L516.033 390.841C516.782 390.268 517.861 390.413 518.444 391.181Z" fill="#AB141D"/>
<path d="M538.834 289.481C539.397 290.229 539.252 291.318 538.493 291.882C537.735 292.455 536.646 292.31 536.082 291.542L531.609 285.603C531.036 284.854 531.181 283.766 531.95 283.202C532.261 282.959 532.62 282.852 532.98 282.852C533.505 282.852 534.021 283.095 534.361 283.542L538.834 289.481Z" fill="#AB141D"/>
<path d="M486.737 266.464C486.98 266.765 487.087 267.135 487.087 267.494C487.087 268.019 486.844 268.525 486.397 268.865L480.456 273.336C479.708 273.91 478.619 273.764 478.055 272.996C477.481 272.238 477.627 271.159 478.395 270.585L484.336 266.114C485.084 265.55 486.173 265.696 486.737 266.464Z" fill="#AB141D"/>
<path d="M486.737 230.821C486.98 231.132 487.087 231.492 487.087 231.851C487.087 232.376 486.844 232.891 486.397 233.231L480.456 237.703C479.708 238.266 478.619 238.121 478.055 237.353C477.481 236.604 477.627 235.516 478.395 234.952L484.336 230.481C485.084 229.907 486.173 230.063 486.737 230.821Z" fill="#AB141D"/>
<path d="M486.737 337.731C486.98 338.032 487.087 338.402 487.087 338.761C487.087 339.286 486.844 339.792 486.397 340.132L480.456 344.603C479.708 345.177 478.619 345.031 478.055 344.263C477.481 343.505 477.627 342.426 478.395 341.852L484.336 337.381C485.084 336.817 486.173 336.973 486.737 337.731Z" fill="#AB141D"/>
<path d="M538.834 396.382C539.397 397.14 539.252 398.228 538.493 398.792C537.735 399.356 536.646 399.21 536.082 398.452L531.609 392.513C531.036 391.755 531.181 390.676 531.95 390.102C532.261 389.869 532.62 389.762 532.98 389.762C533.505 389.762 534.021 389.996 534.361 390.433L538.834 396.382Z" fill="#AB141D"/>
<path d="M550.132 373.355C550.365 373.666 550.472 374.026 550.472 374.385C550.472 374.92 550.248 375.425 549.801 375.766L543.86 380.237C543.102 380.8 542.013 380.655 541.449 379.897C540.885 379.138 541.031 378.05 541.789 377.486L547.73 373.015C548.479 372.441 549.568 372.606 550.132 373.355Z" fill="#AB141D"/>
<path d="M550.132 266.464C550.365 266.765 550.472 267.125 550.472 267.494C550.472 268.019 550.248 268.525 549.801 268.865L543.86 273.336C543.102 273.91 542.013 273.764 541.449 272.996C540.885 272.238 541.031 271.159 541.789 270.585L547.73 266.114C548.479 265.55 549.568 265.696 550.132 266.464Z" fill="#AB141D"/>
<path d="M550.132 302.088C550.365 302.399 550.472 302.759 550.472 303.118C550.472 303.643 550.248 304.158 549.801 304.498L543.86 308.97C543.102 309.533 542.013 309.388 541.449 308.629C540.885 307.871 541.031 306.783 541.789 306.219L547.73 301.748C548.479 301.174 549.568 301.33 550.132 302.088Z" fill="#AB141D"/>
<path d="M538.834 325.115C539.397 325.873 539.252 326.961 538.493 327.525C537.735 328.089 536.646 327.943 536.082 327.185L531.609 321.246C531.036 320.488 531.181 319.409 531.95 318.835C532.261 318.602 532.62 318.495 532.98 318.495C533.505 318.495 534.021 318.728 534.361 319.166L538.834 325.115Z" fill="#AB141D"/>
<path d="M538.834 253.838C539.397 254.596 539.252 255.685 538.493 256.248C537.735 256.812 536.646 256.666 536.082 255.908L531.609 249.969C531.036 249.211 531.181 248.122 531.95 247.559C532.261 247.325 532.62 247.219 532.98 247.219C533.505 247.219 534.021 247.452 534.361 247.889L538.834 253.838Z" fill="#AB141D"/>
<path d="M550.132 230.821C550.365 231.132 550.472 231.492 550.472 231.851C550.472 232.376 550.248 232.891 549.801 233.231L543.86 237.703C543.102 238.266 542.013 238.121 541.449 237.353C540.885 236.604 541.031 235.516 541.789 234.952L547.73 230.481C548.479 229.907 549.568 230.063 550.132 230.821Z" fill="#AB141D"/>
<path d="M550.132 408.998C550.365 409.299 550.472 409.659 550.472 410.028C550.472 410.553 550.248 411.059 549.801 411.399L543.86 415.87C543.102 416.444 542.013 416.298 541.449 415.53C540.885 414.782 541.031 413.693 541.789 413.119L547.73 408.648C548.479 408.084 549.568 408.24 550.132 408.998Z" fill="#AB141D"/>
<path d="M550.132 337.731C550.365 338.032 550.472 338.392 550.472 338.761C550.472 339.286 550.248 339.792 549.801 340.132L543.86 344.603C543.102 345.177 542.013 345.031 541.449 344.263C540.885 343.505 541.031 342.426 541.789 341.852L547.73 337.381C548.479 336.817 549.568 336.973 550.132 337.731Z" fill="#AB141D"/>
</g>
</g>
<mask id="mask7_1980_533" style="mask-type:luminance" maskUnits="userSpaceOnUse" x="240" y="124" width="365" height="304">
<path d="M604.707 124.066V392.989H530.413C504.715 414.509 471.608 427.466 435.458 427.466C399.307 427.466 366.2 414.509 340.502 392.989H240.461V124.066H604.707Z" fill="white"/>
</mask>
<g mask="url(#mask7_1980_533)">
<path d="M473.251 188.14C471.2 194.594 466.883 198.444 460.845 197.277L463.616 224.221L437.665 246.013L428.642 231.151L424.422 224.231V216.571L419.677 212.771C411.753 206.424 407.144 196.83 407.144 186.682V164.56C407.193 164.579 407.251 164.589 407.309 164.598C411.238 165.415 415.321 165.114 419.288 164.453C423.868 163.704 428.409 162.47 432.463 160.215C432.619 161.478 433.26 162.732 434.203 163.597C435.905 165.143 438.316 165.668 440.621 165.687C443.839 165.707 447.067 164.851 449.848 163.218C451.569 167.194 453.426 171.111 455.409 174.96V175.057C455.419 175.047 455.429 175.038 455.439 175.028C457.549 172.958 460.252 171.665 463.081 171.412C464.549 171.276 466.047 171.432 467.515 171.898C473.912 173.939 475.449 181.229 473.251 188.14Z" fill="#F3F3F3"/>
<path d="M442.118 212.703L437.101 216.727C433.445 219.662 428.321 219.662 424.655 216.727L424.335 216.464C424.13 216.299 423.819 216.328 423.654 216.532C423.489 216.737 423.518 217.048 423.722 217.213L424.053 217.475C426.065 219.089 428.477 219.896 430.888 219.896C433.299 219.896 435.711 219.089 437.723 217.475L441.155 214.725C441.768 214.239 442.118 213.49 442.118 212.703Z" fill="#172E4A"/>
<path d="M464.16 163.986L463.655 171.684C460.825 171.937 458.122 173.23 456.012 175.3C456.003 175.281 455.993 175.252 455.983 175.232C454 171.383 452.143 167.466 450.422 163.49C447.631 165.123 444.413 165.979 441.194 165.959C438.89 165.94 436.479 165.425 434.777 163.869C433.834 163.004 433.183 161.751 433.037 160.487C428.982 162.732 424.442 163.967 419.862 164.725C415.905 165.386 411.821 165.687 407.883 164.871C407.834 164.861 407.776 164.851 407.718 164.832C403.838 164.006 400.114 161.964 397.868 158.708C395.593 155.394 395.078 150.757 397.188 147.336C399.443 143.681 404.587 142.116 408.496 143.924C406.6 141.076 405.87 137.382 406.94 134.117C407.99 130.86 410.946 128.197 414.359 127.847C417.655 127.507 420.893 129.257 423.1 131.716C425.317 134.175 426.668 137.285 427.864 140.376C428.768 137.577 431.578 135.584 434.515 135.477C437.441 135.37 440.329 137.062 441.817 139.579C443.314 142.097 443.44 145.343 442.332 148.045L449.585 148.172C458.074 148.308 464.714 155.52 464.16 163.986Z" fill="#172E4A"/>
<path d="M464.559 195.761C464.316 195.761 464.112 195.576 464.073 195.333C464.044 195.071 464.228 194.828 464.501 194.789C466.961 194.497 469.168 192.437 469.634 190.007C469.877 188.762 469.673 187.479 469.09 186.498C468.468 185.448 467.379 184.729 466.26 184.631C465.094 184.524 463.907 185.127 463.382 186.089C463.275 186.294 463.032 186.391 462.818 186.323C462.595 186.255 462.459 186.041 462.478 185.817C462.702 183.358 463.081 180.792 464.345 178.615C464.967 177.546 465.716 176.748 466.562 176.233C467.602 175.602 468.847 175.417 469.887 175.747C471.093 176.126 471.987 177.215 472.055 178.391C472.075 178.663 471.871 178.887 471.598 178.906C471.336 178.926 471.103 178.722 471.083 178.449C471.034 177.682 470.412 176.933 469.595 176.68C468.827 176.437 467.884 176.583 467.067 177.069C466.358 177.497 465.726 178.187 465.191 179.11C464.267 180.705 463.849 182.571 463.606 184.447C464.384 183.883 465.385 183.591 466.358 183.679C467.787 183.805 469.158 184.699 469.936 186.012C470.636 187.197 470.879 188.724 470.597 190.201C470.043 193.078 467.534 195.421 464.627 195.771C464.598 195.751 464.588 195.761 464.559 195.761Z" fill="#172E4A"/>
<path d="M415.078 187.159C416.904 187.159 418.384 185.522 418.384 183.504C418.384 181.485 416.904 179.849 415.078 179.849C413.252 179.849 411.772 181.485 411.772 183.504C411.772 185.522 413.252 187.159 415.078 187.159Z" fill="#172E4A"/>
<path d="M435.147 187.159C436.972 187.159 438.452 185.522 438.452 183.504C438.452 181.485 436.972 179.849 435.147 179.849C433.321 179.849 431.841 181.485 431.841 183.504C431.841 185.522 433.321 187.159 435.147 187.159Z" fill="#172E4A"/>
<path d="M417.81 174.97C415.302 174.173 412.482 174.62 410.44 176.331C410.032 176.671 409.857 177.293 410.217 177.75C410.537 178.158 411.199 178.333 411.636 177.973C411.84 177.808 412.045 177.643 412.268 177.507C412.375 177.439 412.482 177.371 412.599 177.303C412.609 177.293 412.628 177.293 412.638 177.283C412.696 177.254 412.754 177.225 412.813 177.196C413.046 177.079 413.289 176.982 413.542 176.904C413.668 176.865 413.795 176.826 413.921 176.787C413.941 176.778 413.97 176.778 413.979 176.768C414.048 176.748 414.116 176.739 414.193 176.719C414.446 176.671 414.709 176.632 414.971 176.612C415.098 176.603 415.234 176.593 415.36 176.593C415.428 176.593 415.487 176.593 415.555 176.593C415.564 176.593 415.555 176.593 415.574 176.593C415.837 176.612 416.099 176.632 416.352 176.68C416.478 176.7 416.605 176.729 416.741 176.758C416.809 176.778 416.867 176.787 416.935 176.807C416.955 176.807 416.964 176.817 416.964 176.817C416.974 176.817 416.984 176.826 417.003 176.826C417.509 176.982 418.122 176.875 418.345 176.321C418.501 175.854 418.355 175.135 417.81 174.97Z" fill="#172E4A"/>
<path d="M431.919 176.311C432.142 176.855 432.755 176.972 433.26 176.817C433.28 176.807 433.28 176.807 433.299 176.807C433.309 176.807 433.319 176.807 433.328 176.797C433.396 176.778 433.455 176.768 433.523 176.748C433.649 176.719 433.776 176.69 433.912 176.671C434.174 176.632 434.427 176.603 434.69 176.583C434.709 176.583 434.699 176.583 434.709 176.583C434.777 176.583 434.835 176.583 434.904 176.583C435.03 176.583 435.166 176.593 435.292 176.603C435.555 176.622 435.808 176.661 436.07 176.71C436.138 176.719 436.206 176.739 436.284 176.758C436.304 176.758 436.323 176.768 436.343 176.778C436.469 176.817 436.595 176.855 436.722 176.894C436.965 176.982 437.208 177.079 437.451 177.186C437.509 177.215 437.568 177.244 437.626 177.273C437.636 177.283 437.655 177.283 437.665 177.293C437.772 177.361 437.889 177.419 437.995 177.497C438.219 177.643 438.423 177.798 438.627 177.963C439.065 178.323 439.716 178.148 440.047 177.74C440.407 177.293 440.232 176.661 439.823 176.321C437.782 174.61 434.962 174.163 432.453 174.96C431.88 175.135 431.734 175.854 431.919 176.311Z" fill="#172E4A"/>
<path d="M432.58 205.539C431.675 205.539 430.82 205.345 430.032 204.956C427.485 203.692 426.532 200.844 426.493 200.728C426.415 200.475 426.542 200.203 426.794 200.115L438.598 195.984C438.851 195.897 439.123 196.023 439.211 196.276C439.25 196.393 440.271 199.211 439.055 201.797C438.345 203.313 437.023 204.412 435.127 205.073C434.242 205.384 433.387 205.539 432.58 205.539ZM427.592 200.864C427.942 201.651 428.836 203.274 430.46 204.081C431.714 204.703 433.173 204.723 434.806 204.149C436.44 203.576 437.568 202.643 438.17 201.379C438.948 199.727 438.647 197.899 438.433 197.063L427.592 200.864Z" fill="#172E4A"/>
<path d="M418.394 198.92C418.267 198.92 418.141 198.871 418.053 198.784C417.937 198.667 417.888 198.502 417.917 198.346L421.155 181.735C421.204 181.472 421.466 181.297 421.729 181.346C421.991 181.395 422.166 181.657 422.118 181.92L419.016 197.812L427.446 195.994C427.718 195.936 427.971 196.101 428.02 196.363C428.078 196.626 427.913 196.888 427.65 196.937L418.491 198.91C418.462 198.92 418.423 198.92 418.394 198.92Z" fill="#172E4A"/>
</g>
<mask id="mask8_1980_533" style="mask-type:luminance" maskUnits="userSpaceOnUse" x="240" y="124" width="365" height="304">
<path d="M604.707 124.066V392.989H530.413C504.715 414.509 471.608 427.466 435.458 427.466C399.307 427.466 366.2 414.509 340.502 392.989H240.461V124.066H604.707Z" fill="white"/>
</mask>
<g mask="url(#mask8_1980_533)">
<path d="M359.054 449.2C359.034 449.2 359.005 449.2 358.986 449.19C358.723 449.152 358.538 448.909 358.577 448.636L387.076 256.822C387.115 256.559 387.367 256.375 387.63 256.414C387.892 256.452 388.077 256.696 388.038 256.968L359.54 448.782C359.501 449.025 359.287 449.2 359.054 449.2Z" fill="#25292B"/>
</g>
<mask id="mask9_1980_533" style="mask-type:luminance" maskUnits="userSpaceOnUse" x="240" y="124" width="365" height="304">
<path d="M604.707 124.066V392.989H530.413C504.715 414.509 471.608 427.466 435.458 427.466C399.307 427.466 366.2 414.509 340.502 392.989H240.461V124.066H604.707Z" fill="white"/>
</mask>
<g mask="url(#mask9_1980_533)">
<path d="M369.574 354.207H351.159C344.741 354.207 339.491 348.958 339.491 342.543V328.04C339.491 321.625 344.741 316.376 351.159 316.376H369.574C375.991 316.376 381.242 321.625 381.242 328.04V342.543C381.242 348.958 375.991 354.207 369.574 354.207Z" fill="#F2E9DA"/>
</g>
<mask id="mask10_1980_533" style="mask-type:luminance" maskUnits="userSpaceOnUse" x="240" y="124" width="365" height="304">
<path d="M604.707 124.066V392.989H530.413C504.715 414.509 471.608 427.466 435.458 427.466C399.307 427.466 366.2 414.509 340.502 392.989H240.461V124.066H604.707Z" fill="white"/>
</mask>
<g mask="url(#mask10_1980_533)">
<path d="M403.206 348.53V359.873H272.616C269.076 359.873 266.218 354.79 266.218 348.53H403.206Z" fill="#172E4A"/>
<path d="M380.075 348.53H267.19L247.326 276.933C246.373 273.492 248.959 270.099 252.518 270.099H354.212C356.642 270.099 358.762 271.713 359.414 274.046L380.075 348.53Z" fill="#172E4A"/>
<path d="M375.729 349.016H272.538C272.266 349.016 272.052 348.802 272.052 348.53C272.052 348.258 272.266 348.044 272.538 348.044H375.087L354.591 274.182C354.523 273.919 354.669 273.657 354.931 273.579C355.194 273.511 355.456 273.657 355.534 273.919L376.196 348.394C376.234 348.54 376.205 348.695 376.118 348.822C376.021 348.948 375.875 349.016 375.729 349.016Z" fill="#F6EFE0"/>
</g>
<mask id="mask11_1980_533" style="mask-type:luminance" maskUnits="userSpaceOnUse" x="240" y="124" width="365" height="304">
<path d="M604.707 124.066V392.989H530.413C504.715 414.509 471.608 427.466 435.458 427.466C399.307 427.466 366.2 414.509 340.502 392.989H240.461V124.066H604.707Z" fill="white"/>
</mask>
<g mask="url(#mask11_1980_533)">
<path d="M425.608 373.938H393.658C390.644 373.938 388.165 371.46 388.165 368.446V368.281C388.165 366.833 388.729 365.521 389.662 364.529H379.365C376.341 364.529 373.872 362.051 373.872 359.037V358.872C373.872 355.849 376.341 353.38 379.365 353.38H400.202V348.219L389.156 351.709C386.288 352.622 383.167 351.009 382.273 348.132L382.214 347.966C381.31 345.099 382.924 341.979 385.802 341.085L412.171 332.755C414.689 331.957 417.373 333.085 418.627 335.301L423.284 341.123L424.821 362.799L425.608 373.938Z" fill="#F3F3F3"/>
<path d="M402.516 365.015H389.672C389.4 365.015 389.186 364.801 389.186 364.529C389.186 364.257 389.4 364.043 389.672 364.043H402.516C402.788 364.043 403.002 364.257 403.002 364.529C403.002 364.801 402.788 365.015 402.516 365.015Z" fill="#25292B"/>
<path d="M506.67 380.694H426.221C425.968 380.694 425.754 380.499 425.735 380.246L422.254 331.024C422.244 330.888 422.293 330.762 422.38 330.655C422.468 330.558 422.604 330.499 422.74 330.499H486.066L467.106 258.688C467.038 258.426 467.194 258.163 467.456 258.095C467.719 258.027 467.981 258.183 468.05 258.445L487.165 330.869C487.204 331.015 487.175 331.17 487.078 331.287C486.99 331.403 486.844 331.481 486.689 331.481H423.255L426.668 379.731H506.67C506.942 379.731 507.156 379.945 507.156 380.217C507.156 380.489 506.932 380.694 506.67 380.694Z" fill="#25292B"/>
</g>
<path d="M158.321 308.542C215.639 308.542 262.105 262.091 262.105 204.791C262.105 147.49 215.639 101.039 158.321 101.039C101.002 101.039 54.5367 147.49 54.5367 204.791C54.5367 262.091 101.002 308.542 158.321 308.542Z" fill="#626E7E"/>
<path d="M157.349 313.898C97.1724 313.898 48.207 264.957 48.207 204.791C48.207 144.634 97.1627 95.6837 157.349 95.6837C217.525 95.6837 266.49 144.624 266.49 204.791C266.49 264.948 217.525 313.898 157.349 313.898ZM157.349 96.6557C97.7072 96.6557 49.1793 145.168 49.1793 204.791C49.1793 264.413 97.7072 312.926 157.349 312.926C216.99 312.926 265.518 264.413 265.518 204.791C265.518 145.168 216.99 96.6557 157.349 96.6557Z" fill="#172E4A"/>
<mask id="mask12_1980_533" style="mask-type:luminance" maskUnits="userSpaceOnUse" x="54" y="101" width="239" height="208">
<path d="M292.733 164.142V215.473H261.561C256.213 267.757 212.031 308.542 158.331 308.542C101.003 308.542 54.5367 262.09 54.5367 204.781C54.5367 147.482 101.003 101.03 158.331 101.03C201.219 101.03 238.031 127.031 253.84 164.132H292.733V164.142Z" fill="white"/>
</mask>
<g mask="url(#mask12_1980_533)">
<path d="M260.86 331.967C255.532 331.967 250.894 328.011 250.194 322.587C240.899 251.33 210.184 242.193 209.873 242.106C210.048 242.154 210.135 242.164 210.135 242.164L214.686 221.111C216.008 221.392 227.977 224.318 240.743 238.762C256.504 256.608 266.879 283.873 271.566 319.788C272.334 325.688 268.172 331.092 262.28 331.86C261.794 331.938 261.327 331.967 260.86 331.967Z" fill="#4F5659"/>
</g>
<mask id="mask13_1980_533" style="mask-type:luminance" maskUnits="userSpaceOnUse" x="54" y="101" width="239" height="208">
<path d="M292.733 164.142V215.473H261.561C256.213 267.757 212.031 308.542 158.331 308.542C101.003 308.542 54.5367 262.09 54.5367 204.781C54.5367 147.482 101.003 101.03 158.331 101.03C201.219 101.03 238.031 127.031 253.84 164.132H292.733V164.142Z" fill="white"/>
</mask>
<g mask="url(#mask13_1980_533)">
<path d="M187.344 289.083H137.261V325.824H187.344V289.083Z" fill="#172E4A"/>
</g>
<mask id="mask14_1980_533" style="mask-type:luminance" maskUnits="userSpaceOnUse" x="54" y="101" width="239" height="208">
<path d="M292.733 164.142V215.473H261.561C256.213 267.757 212.031 308.542 158.331 308.542C101.003 308.542 54.5367 262.09 54.5367 204.781C54.5367 147.482 101.003 101.03 158.331 101.03C201.219 101.03 238.031 127.031 253.84 164.132H292.733V164.142Z" fill="white"/>
</mask>
<g mask="url(#mask14_1980_533)">
<path d="M223.932 165.639C223.932 169.099 223.679 172.501 223.164 175.815C221.181 188.928 209.95 198.638 196.688 198.638H119.905C106.973 198.638 95.6945 189.433 93.5846 176.68C92.9915 173.084 92.6804 169.41 92.6804 165.648C92.6804 128.984 122.063 109.01 158.301 109.01C162.774 109.01 167.149 109.311 171.369 109.923C201.355 114.191 223.932 133.494 223.932 165.639Z" fill="#F3F3F3"/>
</g>
<mask id="mask15_1980_533" style="mask-type:luminance" maskUnits="userSpaceOnUse" x="54" y="101" width="239" height="208">
<path d="M292.733 164.142V215.473H261.561C256.213 267.757 212.031 308.542 158.331 308.542C101.003 308.542 54.5367 262.09 54.5367 204.781C54.5367 147.482 101.003 101.03 158.331 101.03C201.219 101.03 238.031 127.031 253.84 164.132H292.733V164.142Z" fill="white"/>
</mask>
<g mask="url(#mask15_1980_533)">
<g opacity="0.36">
<path d="M223.932 165.639C223.932 169.099 223.679 172.501 223.164 175.815C221.181 188.928 209.95 198.638 196.688 198.638H146.05C133.119 198.638 121.84 189.433 119.73 176.68C119.137 173.084 118.826 169.41 118.826 165.648C118.826 133.514 141.393 114.191 171.369 109.914C201.355 114.191 223.932 133.494 223.932 165.639Z" fill="#0072C6"/>
</g>
</g>
<mask id="mask16_1980_533" style="mask-type:luminance" maskUnits="userSpaceOnUse" x="54" y="101" width="239" height="208">
<path d="M292.733 164.142V215.473H261.561C256.213 267.757 212.031 308.542 158.331 308.542C101.003 308.542 54.5367 262.09 54.5367 204.781C54.5367 147.482 101.003 101.03 158.331 101.03C201.219 101.03 238.031 127.031 253.84 164.132H292.733V164.142Z" fill="white"/>
</mask>
<g mask="url(#mask16_1980_533)">
<path d="M100.576 177.186H97.9017C91.465 177.186 86.2242 171.947 86.2242 165.512V148.143C86.2242 141.708 91.465 136.469 97.9017 136.469H100.576C107.012 136.469 112.253 141.708 112.253 148.143V165.512C112.243 171.947 107.012 177.186 100.576 177.186ZM97.9017 137.451C91.9998 137.451 87.1966 142.252 87.1966 148.152V165.522C87.1966 171.422 91.9998 176.224 97.9017 176.224H100.576C106.477 176.224 111.281 171.422 111.281 165.522V148.152C111.281 142.252 106.477 137.451 100.576 137.451H97.9017Z" fill="#172E4A"/>
</g>
<mask id="mask17_1980_533" style="mask-type:luminance" maskUnits="userSpaceOnUse" x="54" y="101" width="239" height="208">
<path d="M292.733 164.142V215.473H261.561C256.213 267.757 212.031 308.542 158.331 308.542C101.003 308.542 54.5367 262.09 54.5367 204.781C54.5367 147.482 101.003 101.03 158.331 101.03C201.219 101.03 238.031 127.031 253.84 164.132H292.733V164.142Z" fill="white"/>
</mask>
<g mask="url(#mask17_1980_533)">
<path d="M163.581 164.443C169.644 164.443 174.558 159.243 174.558 152.828C174.558 146.413 169.644 141.212 163.581 141.212C157.518 141.212 152.604 146.413 152.604 152.828C152.604 159.243 157.518 164.443 163.581 164.443Z" fill="#172E4A"/>
</g>
<mask id="mask18_1980_533" style="mask-type:luminance" maskUnits="userSpaceOnUse" x="54" y="101" width="239" height="208">
<path d="M292.733 164.142V215.473H261.561C256.213 267.757 212.031 308.542 158.331 308.542C101.003 308.542 54.5367 262.09 54.5367 204.781C54.5367 147.482 101.003 101.03 158.331 101.03C201.219 101.03 238.031 127.031 253.84 164.132H292.733V164.142Z" fill="white"/>
</mask>
<g mask="url(#mask18_1980_533)">
<path d="M207.51 164.443C213.573 164.443 218.487 159.243 218.487 152.828C218.487 146.413 213.573 141.212 207.51 141.212C201.447 141.212 196.533 146.413 196.533 152.828C196.533 159.243 201.447 164.443 207.51 164.443Z" fill="#172E4A"/>
</g>
<mask id="mask19_1980_533" style="mask-type:luminance" maskUnits="userSpaceOnUse" x="54" y="101" width="239" height="208">
<path d="M292.733 164.142V215.473H261.561C256.213 267.757 212.031 308.542 158.331 308.542C101.003 308.542 54.5367 262.09 54.5367 204.781C54.5367 147.482 101.003 101.03 158.331 101.03C201.219 101.03 238.031 127.031 253.84 164.132H292.733V164.142Z" fill="white"/>
</mask>
<g mask="url(#mask19_1980_533)">
<path d="M177.971 189.55H112.379C105.291 189.55 99.5254 183.786 99.5254 176.7C99.5254 176.428 99.7393 176.214 100.012 176.214C100.284 176.214 100.498 176.428 100.498 176.7C100.498 183.251 105.826 188.578 112.379 188.578H177.971C178.243 188.578 178.457 188.792 178.457 189.064C178.457 189.336 178.234 189.55 177.971 189.55Z" fill="#172E4A"/>
</g>
<mask id="mask20_1980_533" style="mask-type:luminance" maskUnits="userSpaceOnUse" x="54" y="101" width="239" height="208">
<path d="M292.733 164.142V215.473H261.561C256.213 267.757 212.031 308.542 158.331 308.542C101.003 308.542 54.5367 262.09 54.5367 204.781C54.5367 147.482 101.003 101.03 158.331 101.03C201.219 101.03 238.031 127.031 253.84 164.132H292.733V164.142Z" fill="white"/>
</mask>
<g mask="url(#mask20_1980_533)">
<path d="M179.935 193.554H158.846C156.221 193.554 154.072 191.406 154.072 188.782V187.645C154.072 185.02 156.221 182.872 158.846 182.872H179.935C182.561 182.872 184.709 185.02 184.709 187.645V188.782C184.709 191.416 182.561 193.554 179.935 193.554Z" fill="#172E4A"/>
</g>
<mask id="mask21_1980_533" style="mask-type:luminance" maskUnits="userSpaceOnUse" x="54" y="101" width="239" height="208">
<path d="M292.733 164.142V215.473H261.561C256.213 267.757 212.031 308.542 158.331 308.542C101.003 308.542 54.5367 262.09 54.5367 204.781C54.5367 147.482 101.003 101.03 158.331 101.03C201.219 101.03 238.031 127.031 253.84 164.132H292.733V164.142Z" fill="white"/>
</mask>
<g mask="url(#mask21_1980_533)">
<path d="M176.202 209.816H146.799C146.527 209.816 146.313 209.602 146.313 209.33V200.261C146.313 199.989 146.527 199.775 146.799 199.775H176.202C176.474 199.775 176.688 199.989 176.688 200.261V209.33C176.688 209.592 176.464 209.816 176.202 209.816ZM147.275 208.844H175.706V200.747H147.275V208.844Z" fill="#172E4A"/>
</g>
<mask id="mask22_1980_533" style="mask-type:luminance" maskUnits="userSpaceOnUse" x="54" y="101" width="239" height="208">
<path d="M292.733 164.142V215.473H261.561C256.213 267.757 212.031 308.542 158.331 308.542C101.003 308.542 54.5367 262.09 54.5367 204.781C54.5367 147.482 101.003 101.03 158.331 101.03C201.219 101.03 238.031 127.031 253.84 164.132H292.733V164.142Z" fill="white"/>
</mask>
<g mask="url(#mask22_1980_533)">
<path d="M95.082 245.255C95.082 241.795 95.3348 238.393 95.8501 235.078C97.8336 221.966 109.064 212.256 122.326 212.256H199.109C212.041 212.256 223.32 221.46 225.43 234.213C226.023 237.81 226.334 241.484 226.334 245.245C226.334 281.909 196.951 301.884 160.713 301.884C156.24 301.884 151.865 301.582 147.645 300.97C117.659 296.713 95.082 277.399 95.082 245.255Z" fill="#F3F3F3"/>
</g>
<mask id="mask23_1980_533" style="mask-type:luminance" maskUnits="userSpaceOnUse" x="54" y="101" width="239" height="208">
<path d="M292.733 164.142V215.473H261.561C256.213 267.757 212.031 308.542 158.331 308.542C101.003 308.542 54.5367 262.09 54.5367 204.781C54.5367 147.482 101.003 101.03 158.331 101.03C201.219 101.03 238.031 127.031 253.84 164.132H292.733V164.142Z" fill="white"/>
</mask>
<g mask="url(#mask23_1980_533)">
<g opacity="0.36">
<path d="M219.761 238.053C219.761 243.282 217.622 248.035 214.17 251.486C210.719 254.936 205.974 257.075 200.733 257.075H148.403C137.932 257.075 129.375 248.511 129.375 238.053C129.375 232.823 131.524 228.07 134.966 224.619C138.418 221.169 143.172 219.03 148.403 219.03H200.733C211.205 219.03 219.761 227.594 219.761 238.053Z" fill="#0072C6"/>
</g>
</g>
<mask id="mask24_1980_533" style="mask-type:luminance" maskUnits="userSpaceOnUse" x="54" y="101" width="239" height="208">
<path d="M292.733 164.142V215.473H261.561C256.213 267.757 212.031 308.542 158.331 308.542C101.003 308.542 54.5367 262.09 54.5367 204.781C54.5367 147.482 101.003 101.03 158.331 101.03C201.219 101.03 238.031 127.031 253.84 164.132H292.733V164.142Z" fill="white"/>
</mask>
<g mask="url(#mask24_1980_533)">
<path d="M131.796 294.808C131.699 294.808 131.592 294.778 131.505 294.71C125.272 289.986 122.093 283.085 120.518 278.128C118.456 271.616 117.873 264.783 117.562 258.377C116.862 244.079 117.396 229.625 119.156 215.424C119.185 215.162 119.429 214.968 119.701 215.006C119.963 215.036 120.158 215.279 120.119 215.551C118.369 229.703 117.834 244.098 118.534 258.338C118.845 264.685 119.409 271.441 121.441 277.846C122.968 282.667 126.06 289.374 132.088 293.943C132.302 294.108 132.341 294.409 132.185 294.623C132.088 294.74 131.942 294.808 131.796 294.808Z" fill="#172E4A"/>
</g>
<mask id="mask25_1980_533" style="mask-type:luminance" maskUnits="userSpaceOnUse" x="54" y="101" width="239" height="208">
<path d="M292.733 164.142V215.473H261.561C256.213 267.757 212.031 308.542 158.331 308.542C101.003 308.542 54.5367 262.09 54.5367 204.781C54.5367 147.482 101.003 101.03 158.331 101.03C201.219 101.03 238.031 127.031 253.84 164.132H292.733V164.142Z" fill="white"/>
</mask>
<g mask="url(#mask25_1980_533)">
<path d="M101.703 270.77H88.4605C81.7613 270.77 76.3067 265.317 76.3067 258.62V223.92C76.3067 217.223 81.7613 211.77 88.4605 211.77H101.703C108.403 211.77 113.857 217.223 113.857 223.92V258.62C113.857 265.317 108.403 270.77 101.703 270.77ZM88.4605 212.742C82.2961 212.742 77.279 217.757 77.279 223.92V258.62C77.279 264.783 82.2961 269.798 88.4605 269.798H101.703C107.868 269.798 112.885 264.783 112.885 258.62V223.92C112.885 217.757 107.868 212.742 101.703 212.742H88.4605Z" fill="#172E4A"/>
</g>
<mask id="mask26_1980_533" style="mask-type:luminance" maskUnits="userSpaceOnUse" x="54" y="101" width="239" height="208">
<path d="M292.733 164.142V215.473H261.561C256.213 267.757 212.031 308.542 158.331 308.542C101.003 308.542 54.5367 262.09 54.5367 204.781C54.5367 147.482 101.003 101.03 158.331 101.03C201.219 101.03 238.031 127.031 253.84 164.132H292.733V164.142Z" fill="white"/>
</mask>
<g mask="url(#mask26_1980_533)">
<path d="M187.869 168.924H178.875C178.875 168.924 177.913 177.448 187.403 177.448C196.892 177.448 195.803 168.924 195.803 168.924H187.869Z" fill="#F3F3F3"/>
</g>
<mask id="mask27_1980_533" style="mask-type:luminance" maskUnits="userSpaceOnUse" x="54" y="101" width="239" height="208">
<path d="M292.733 164.142V215.473H261.561C256.213 267.757 212.031 308.542 158.331 308.542C101.003 308.542 54.5367 262.09 54.5367 204.781C54.5367 147.482 101.003 101.03 158.331 101.03C201.219 101.03 238.031 127.031 253.84 164.132H292.733V164.142Z" fill="white"/>
</mask>
<g mask="url(#mask27_1980_533)">
<path d="M256.611 219.03C255.882 226.029 253.636 238.986 246.587 251.952C237 269.633 216.718 290.706 174.568 290.706C134.013 290.706 111.874 277.02 100.43 265.531C87.498 252.545 84.7561 239.355 84.4838 237.897L105.67 233.97C106.312 236.692 115.18 269.157 174.568 269.157C199.897 269.157 217.748 259.913 227.646 241.668C232.294 233.105 234.161 224.406 234.91 219.021H256.611V219.03Z" fill="#172E4A"/>
</g>
<mask id="mask28_1980_533" style="mask-type:luminance" maskUnits="userSpaceOnUse" x="54" y="101" width="239" height="208">
<path d="M292.733 164.142V215.473H261.561C256.213 267.757 212.031 308.542 158.331 308.542C101.003 308.542 54.5367 262.09 54.5367 204.781C54.5367 147.482 101.003 101.03 158.331 101.03C201.219 101.03 238.031 127.031 253.84 164.132H292.733V164.142Z" fill="white"/>
</mask>
<g mask="url(#mask28_1980_533)">
<path d="M259.314 204.227H232.829V216.717H259.314V204.227Z" fill="#F3F3F3"/>
</g>
<mask id="mask29_1980_533" style="mask-type:luminance" maskUnits="userSpaceOnUse" x="54" y="101" width="239" height="208">
<path d="M292.733 164.142V215.473H261.561C256.213 267.757 212.031 308.542 158.331 308.542C101.003 308.542 54.5367 262.09 54.5367 204.781C54.5367 147.482 101.003 101.03 158.331 101.03C201.219 101.03 238.031 127.031 253.84 164.132H292.733V164.142Z" fill="white"/>
</mask>
<g mask="url(#mask29_1980_533)">
<path d="M255.338 202.38C252.489 202.38 249.582 201.943 246.723 201.039C239.479 198.735 233.568 193.749 230.067 186.993C226.577 180.238 225.916 172.53 228.23 165.289L228.619 164.064C229.688 160.71 233.266 158.864 236.611 159.933C239.966 161.002 241.813 164.579 240.743 167.923L240.354 169.147C239.081 173.152 239.441 177.409 241.375 181.142C243.31 184.874 246.577 187.635 250.583 188.908C258.848 191.533 267.715 186.954 270.35 178.692L270.739 177.468C271.809 174.114 275.387 172.268 278.741 173.337C282.096 174.406 283.943 177.983 282.874 181.336L282.485 182.561C278.634 194.633 267.404 202.38 255.338 202.38Z" fill="#172E4A"/>
</g>
<path d="M343.108 471.576H343.098C327.814 471.566 315.378 459.134 315.378 443.854V417.163C315.378 406.179 306.442 397.247 295.455 397.247C284.468 397.247 275.533 406.179 275.533 417.163V430.868C275.533 443.096 265.576 453.049 253.344 453.049C241.113 453.049 231.156 443.096 231.156 430.868V335.418C231.156 324.735 222.464 316.046 211.778 316.046C201.093 316.046 192.4 324.735 192.4 335.418V360.097C192.4 371.576 183.056 380.917 171.573 380.917C160.09 380.917 150.747 371.576 150.747 360.097V317.679C150.747 317.076 151.233 316.59 151.836 316.59C152.438 316.59 152.925 317.076 152.925 317.679V360.097C152.925 370.381 161.296 378.74 171.573 378.74C181.851 378.74 190.222 370.371 190.222 360.097V335.418C190.222 323.54 199.887 313.869 211.778 313.869C223.66 313.869 233.334 323.53 233.334 335.418V430.868C233.334 441.9 242.309 450.872 253.344 450.872C264.38 450.872 273.355 441.9 273.355 430.868V417.163C273.355 404.984 283.272 395.069 295.455 395.069C307.638 395.069 317.556 404.974 317.556 417.163V443.854C317.556 457.929 329.009 469.389 343.098 469.398H343.108C349.934 469.398 356.351 466.745 361.173 461.924C366.006 457.102 368.66 450.687 368.66 443.854V427.456C368.66 426.854 369.146 426.368 369.749 426.368C370.352 426.368 370.838 426.854 370.838 427.456V443.854C370.838 451.261 367.95 458.22 362.71 463.459C357.479 468.698 350.517 471.576 343.108 471.576Z" fill="#172E4A"/>
<path d="M352.889 76.0104C352.889 107.377 327.464 132.795 296.087 132.795C281.823 132.795 268.794 127.536 258.819 118.876L236.407 124.834L246.743 104.189C241.988 95.8878 239.266 86.265 239.266 76.0104C239.266 44.6439 264.711 19.2164 296.077 19.2164C327.454 19.2164 352.889 44.6439 352.889 76.0104Z" fill="#172E4A"/>
<path d="M256.816 71.5489H258.012L260.559 81.2884L262.756 71.5489H264.565L261.531 83.9711H259.752L257.457 75.2911L255.065 83.9711H253.286L250.253 71.5489H252.061L254.258 81.2884L256.816 71.5489Z" fill="white"/>
<path d="M265.761 75.0967H267.501V83.9613H265.761V75.0967ZM270.058 76.7783C269.825 76.6811 269.553 76.6325 269.251 76.6325C268.697 76.6325 268.269 76.788 267.968 77.0893C267.667 77.3906 267.511 77.8183 267.511 78.3626L267.336 76.6519C267.608 76.127 267.958 75.7091 268.396 75.4175C268.833 75.1259 269.31 74.9801 269.835 74.9801C270.243 74.9801 270.603 75.0384 270.934 75.155C271.264 75.2717 271.546 75.4466 271.789 75.6702L270.652 77.206C270.486 77.0116 270.292 76.8755 270.058 76.7783Z" fill="white"/>
<path d="M273.228 71.5489H274.969V73.2888H273.228V71.5489ZM273.228 75.0967H274.969V83.9614H273.228V75.0967Z" fill="white"/>
<path d="M276.942 75.0967H280.939V76.6713H276.942V75.0967ZM278.352 83.417C278.022 83.0185 277.856 82.4353 277.856 81.6577V72.5209H279.597V81.6771C279.597 81.891 279.636 82.0562 279.723 82.1729C279.811 82.2895 279.937 82.3478 280.102 82.3478H280.939V84.0099H279.927C279.208 84.0099 278.683 83.8155 278.352 83.417Z" fill="white"/>
<path d="M284.857 83.6309C284.274 83.3199 283.836 82.8727 283.525 82.2798C283.224 81.6869 283.068 80.9676 283.068 80.122V79.1208C283.068 78.246 283.214 77.4976 283.505 76.8755C283.797 76.2534 284.225 75.7868 284.779 75.4564C285.333 75.1259 286.014 74.9704 286.792 74.9704C287.531 74.9704 288.163 75.155 288.688 75.5244C289.213 75.8938 289.612 76.4284 289.894 77.1282C290.166 77.828 290.312 78.664 290.312 79.6457V80.2289H284.332V78.8292H288.659C288.61 78.1099 288.416 77.5462 288.095 77.1379C287.774 76.7297 287.346 76.5353 286.802 76.5353C286.14 76.5353 285.625 76.7491 285.265 77.1865C284.906 77.6239 284.721 78.2363 284.721 79.0236V80.1511C284.721 80.8898 284.915 81.4536 285.304 81.8424C285.693 82.2312 286.238 82.4353 286.957 82.4353C287.307 82.4353 287.657 82.3673 288.007 82.2215C288.357 82.0757 288.668 81.8813 288.941 81.6189L290.088 82.7658C289.65 83.1838 289.155 83.5143 288.61 83.7475C288.066 83.9808 287.511 84.0974 286.957 84.0974C286.14 84.0974 285.44 83.9419 284.857 83.6309Z" fill="white"/>
<path d="M297.39 71.5489H298.586L301.133 81.2884L303.331 71.5489H305.139L302.106 83.9711H300.326L298.032 75.2911L295.64 83.9711H293.861L290.827 71.5489H292.635L294.833 81.2884L297.39 71.5489Z" fill="white"/>
<path d="M306.763 71.5489H308.504V73.2888H306.763V71.5489ZM306.763 75.0967H308.504V83.9614H306.763V75.0967Z" fill="white"/>
<path d="M312.821 83.9419C312.364 83.835 311.936 83.6892 311.537 83.4851C311.138 83.281 310.769 83.0282 310.438 82.7172L311.469 81.4439C311.945 81.8132 312.422 82.0854 312.898 82.2603C313.375 82.4353 313.841 82.5325 314.298 82.5325C314.989 82.5325 315.504 82.4256 315.844 82.2118C316.185 81.9979 316.36 81.6771 316.36 81.2495C316.36 80.9676 316.263 80.7538 316.078 80.608C315.893 80.4622 315.66 80.3747 315.378 80.3261C315.096 80.2775 314.707 80.2289 314.201 80.19C314.153 80.19 314.104 80.19 314.055 80.19C314.007 80.19 313.958 80.1803 313.91 80.1803C313.89 80.1803 313.861 80.1803 313.841 80.1803C313.822 80.1803 313.793 80.1803 313.773 80.1803C313.2 80.1317 312.714 80.0539 312.315 79.9276C311.916 79.8012 311.586 79.5776 311.323 79.2374C311.061 78.8972 310.925 78.421 310.925 77.7892C310.925 77.1574 311.051 76.6422 311.313 76.2242C311.576 75.8063 311.955 75.4952 312.461 75.2911C312.966 75.087 313.598 74.9801 314.367 74.9801C314.824 74.9801 315.271 75.0189 315.689 75.1064C316.107 75.1939 316.506 75.3203 316.895 75.4855C317.274 75.6508 317.643 75.8646 317.993 76.1173L316.943 77.3906C316.496 77.1088 316.058 76.8949 315.631 76.7491C315.203 76.6033 314.775 76.5353 314.367 76.5353C313.773 76.5353 313.326 76.6325 313.034 76.8366C312.743 77.0407 312.587 77.342 312.587 77.7503C312.587 77.9933 312.675 78.1682 312.84 78.2849C313.005 78.4015 313.219 78.489 313.472 78.5279C313.725 78.5668 314.094 78.6056 314.561 78.6348C314.6 78.6445 314.629 78.6445 314.668 78.6445C314.707 78.6445 314.746 78.6445 314.785 78.6542C314.804 78.6542 314.824 78.6542 314.833 78.6542C314.843 78.6542 314.872 78.6542 314.882 78.664C315.504 78.7028 316.029 78.7903 316.467 78.907C316.904 79.0333 317.264 79.2763 317.565 79.6457C317.867 80.015 318.013 80.5496 318.013 81.2495C318.013 81.891 317.877 82.4159 317.604 82.8338C317.332 83.2518 316.924 83.5628 316.369 83.7767C315.815 83.9905 315.125 84.0974 314.298 84.0974C313.764 84.0974 313.278 84.0488 312.821 83.9419Z" fill="white"/>
<path d="M321.756 83.6309C321.173 83.3199 320.735 82.8727 320.424 82.2798C320.123 81.6869 319.967 80.9676 319.967 80.122V79.1208C319.967 78.246 320.113 77.4976 320.405 76.8755C320.696 76.2534 321.124 75.7868 321.678 75.4564C322.232 75.1259 322.913 74.9704 323.691 74.9704C324.43 74.9704 325.062 75.155 325.587 75.5244C326.112 75.8938 326.511 76.4284 326.793 77.1282C327.065 77.828 327.211 78.664 327.211 79.6457V80.2289H321.231V78.8292H325.558C325.509 78.1099 325.315 77.5462 324.994 77.1379C324.673 76.7297 324.245 76.5353 323.701 76.5353C323.04 76.5353 322.524 76.7491 322.164 77.1865C321.805 77.6239 321.62 78.2363 321.62 79.0236V80.1511C321.62 80.8898 321.814 81.4536 322.203 81.8424C322.592 82.2312 323.137 82.4353 323.856 82.4353C324.206 82.4353 324.556 82.3673 324.906 82.2215C325.256 82.0757 325.568 81.8813 325.84 81.6189L326.987 82.7658C326.55 83.1838 326.054 83.5143 325.509 83.7475C324.965 83.9808 324.41 84.0974 323.856 84.0974C323.04 84.0974 322.339 83.9419 321.756 83.6309Z" fill="white"/>
<path d="M333.171 71.5489H334.659L339.238 83.9711H337.362L333.92 73.9498L330.478 83.9711H328.601L333.171 71.5489ZM330.701 79.5874H337.235V81.2495H330.701V79.5874Z" fill="white"/>
<path d="M342.855 83.9711H341.115V71.5489H342.855V83.9711Z" fill="white"/>
</g>
<defs>
<clipPath id="clip0_1980_533">
<rect width="632" height="486" fill="white"/>
</clipPath>
</defs>
</svg>
