<svg width="478" height="315" viewBox="0 0 478 315" fill="none" xmlns="http://www.w3.org/2000/svg">
<g clip-path="url(#clip0_3014_3574)">
<path d="M70 252C48.8271 235.142 34.794 230.093 31.7408 204.596C28.5738 178.15 49.9556 168.456 51.8584 145.358C52.8912 132.833 50.5718 120.145 52.2194 107.69C56.7695 73.309 90.4118 51.2568 122.577 55.4472C153.433 59.467 181.202 80.6597 213.323 74.6961C246.866 68.4693 269.683 33.9808 303.989 31.2502C349.748 27.6072 365.06 78.0958 388.753 107.238C400.999 122.301 417.379 133.054 432.154 145.485C464.686 172.855 467.137 228.949 431.484 261.129C377.466 309.883 329.285 275.838 303.141 280.484C265.571 287.16 287.383 261.781 249.309 261.511C233.798 261.401 218.962 256.663 203.299 256.337C156.389 255.36 123.618 280.09 79.6138 255.953C75.5913 253.748 77.0924 256.656 72.5 253L70 252Z" fill="url(#paint0_linear_3014_3574)"/>
<path d="M61.5 245C40.3271 228.142 34.794 230.093 31.7408 204.596C28.5738 178.15 49.9556 168.456 51.8584 145.358C52.8912 132.833 50.5718 120.145 52.2194 107.69C56.7695 73.309 90.4118 51.2568 122.577 55.4472C153.433 59.467 181.202 80.6597 213.323 74.6961C246.866 68.4693 269.683 33.9808 303.989 31.2502C349.748 27.6072 365.06 78.0958 388.753 107.238C400.999 122.301 417.379 133.054 432.154 145.485C464.686 172.855 467.137 228.949 431.484 261.129C377.466 309.883 329.285 275.838 303.141 280.484C265.571 287.16 287.383 261.781 249.309 261.511C233.798 261.401 218.962 256.663 203.299 256.337C156.389 255.36 123.618 280.09 79.6138 255.953C75.5913 253.748 74.5924 254.656 70 251L61.5 245Z" fill="url(#paint1_linear_3014_3574)"/>
<path d="M292.927 304.124C353.513 304.124 402.627 300.234 402.627 295.436C402.627 290.638 353.513 286.749 292.927 286.749C232.341 286.749 183.227 290.638 183.227 295.436C183.227 300.234 232.341 304.124 292.927 304.124Z" fill="#B0C8E4"/>
<path d="M327.607 291.169C327.607 291.988 326.18 292.778 323.51 293.53C320.621 294.343 316.275 295.107 310.71 295.805C309.125 296.004 307.442 296.197 305.663 296.384C304.941 296.461 304.205 296.536 303.451 296.611C302.713 296.683 301.959 296.755 301.194 296.825C301.035 296.839 300.876 296.854 300.716 296.868C300.318 296.904 299.918 296.941 299.513 296.975C299.374 296.989 299.234 297.001 299.095 297.014C297.573 297.146 296.004 297.274 294.383 297.4C294.226 297.412 294.068 297.424 293.909 297.436C293.241 297.486 292.567 297.536 291.885 297.585C291.744 297.596 291.602 297.605 291.46 297.615C289.518 297.754 287.514 297.888 285.45 298.017C285.035 298.043 284.617 298.068 284.197 298.093C284.061 298.102 283.924 298.11 283.788 298.118C277.877 298.471 271.504 298.775 264.751 299.028C262.882 299.099 260.986 299.165 259.061 299.226C256.435 299.311 253.757 299.387 251.033 299.453C240.582 299.717 229.452 299.858 217.905 299.858C212 299.858 206.203 299.82 200.549 299.75C200.385 299.748 200.219 299.746 200.055 299.744C147.959 299.07 108.204 295.489 108.204 291.172C108.204 290.353 109.629 289.564 112.295 288.814C115.221 287.99 119.644 287.215 125.314 286.511C126.855 286.32 128.487 286.134 130.207 285.954C133.322 285.625 136.725 285.315 140.386 285.026C153.546 283.986 170.026 283.209 188.461 282.803C188.625 282.8 188.789 282.798 188.953 282.792C198.176 282.594 207.885 282.487 217.905 282.487C219.234 282.487 220.557 282.488 221.874 282.492C236.449 282.533 250.301 282.8 262.89 283.247C265.099 283.327 267.27 283.411 269.399 283.501C272.448 283.629 275.41 283.768 278.279 283.919C278.323 283.92 278.367 283.923 278.409 283.926C278.584 283.935 278.757 283.943 278.93 283.953C285.051 284.277 290.734 284.649 295.898 285.063C300.592 285.438 304.858 285.848 308.629 286.287C309.331 286.368 310.016 286.451 310.683 286.533C310.991 286.573 311.295 286.611 311.594 286.651C312.866 286.815 314.069 286.983 315.202 287.156C316.63 287.372 317.947 287.594 319.145 287.821C319.352 287.859 319.553 287.898 319.75 287.937C320.004 287.988 320.254 288.038 320.496 288.088C321.151 288.226 321.765 288.363 322.334 288.503C323.216 288.719 323.993 288.94 324.66 289.163C326.498 289.778 327.509 290.418 327.599 291.077C327.603 291.108 327.606 291.14 327.606 291.172L327.607 291.169Z" fill="#B0C8E4"/>
<path d="M325.978 193.728H124.65C120.261 193.728 116.694 197.284 116.694 201.671V217.715C116.694 222.104 120.261 225.671 124.65 225.671H318.021C318.021 225.671 318.024 225.671 318.025 225.671H325.978V221.817H324.831C325 221.53 325.156 221.244 325.287 220.931C324.207 219.316 322.227 215.435 322.227 208.521C322.227 201.606 324.064 199.184 325.158 198.168C325.053 197.973 324.949 197.778 324.832 197.583H325.979V193.728H325.978Z" fill="#AB141D"/>
<path d="M322.228 208.521C322.228 201.892 324.064 199.184 325.158 198.168C325.639 197.712 325.978 197.582 325.978 197.582H203.161C203.07 197.582 202.981 197.589 202.893 197.596C202.811 197.589 202.728 197.582 202.644 197.582C199.365 197.582 196.707 203.008 196.707 209.7C196.707 216.392 199.365 221.818 202.644 221.818C202.735 221.818 202.825 221.813 202.915 221.803C202.996 221.809 203.077 221.818 203.16 221.818H325.976C325.976 221.818 325.703 221.531 325.286 220.932C324.206 219.317 322.226 215.436 322.226 208.522L322.228 208.521Z" fill="#FFF8E9"/>
<path d="M347.844 157.513H143.372L104.213 157.511V160.994H106.247C106.013 161.276 105.799 161.575 105.602 161.881C105.585 161.911 105.569 161.934 105.552 161.963C106.976 163.37 109.044 166.713 109.044 174.195C109.044 182.143 106.732 186.769 105.31 188.876C105.406 189.04 105.503 189.196 105.603 189.358C105.8 189.665 106.017 189.963 106.256 190.244H104.215V193.727H143.374H347.845C353.158 193.727 357.475 189.682 357.475 184.707V166.517C357.475 161.539 353.158 157.511 347.845 157.511L347.844 157.513Z" fill="#4A78B7"/>
<path d="M263.095 160.994C262.988 160.994 262.882 161.001 262.776 161.01C262.776 161.01 262.774 161.01 262.773 161.01C262.66 160.999 262.546 160.995 262.429 160.995H104.211C104.211 160.995 104.65 161.151 105.271 161.7C105.363 161.778 105.454 161.868 105.551 161.963C106.975 163.37 109.043 166.713 109.043 174.195C109.043 182.143 106.732 186.769 105.309 188.876C105.238 188.984 105.17 189.083 105.104 189.175C104.564 189.899 104.213 190.244 104.213 190.244H262.43C262.542 190.244 262.656 190.24 262.765 190.229C262.769 190.229 262.773 190.229 262.776 190.228C262.882 190.236 262.988 190.244 263.095 190.244C267.32 190.244 270.743 183.696 270.743 175.619C270.743 167.542 267.319 160.994 263.095 160.994Z" fill="#FFF8E9"/>
<path d="M341.15 225.671H129.43V229.161H133.077C133.077 229.161 133.402 229.317 133.859 229.864C134.901 231.089 136.633 234.358 136.633 242.354C136.633 250.35 134.758 255.389 133.742 257.342C133.339 258.059 133.078 258.41 133.078 258.41H129.431V261.888H341.151C345.76 261.888 349.51 257.851 349.51 252.863V234.684C349.51 229.71 345.76 225.673 341.151 225.673L341.15 225.671Z" fill="#626E7E"/>
<path d="M255.058 242.483L255.045 243.485C255.045 248.785 253.482 258.409 249.327 258.409H133.076C133.076 258.409 133.337 258.057 133.74 257.34C134.755 255.387 136.63 250.7 136.63 242.352C136.63 234.004 134.898 231.087 133.856 229.863C133.4 229.315 133.075 229.159 133.075 229.159H249.326C253.48 229.159 255.055 237.194 255.055 242.482L255.058 242.483Z" fill="#FFF8E9"/>
<path d="M338.492 231.075V256.482C338.492 259.464 336.069 261.887 333.087 261.887H325.73C323.855 261.887 322.187 262.107 321.225 261.535C323.269 260.767 324.728 258.787 324.728 256.482V231.075C324.728 228.666 323.151 226.635 320.978 225.932C321.889 225.228 323.672 225.671 325.731 225.671H333.089C336.07 225.671 338.493 228.094 338.493 231.075H338.492Z" fill="#626E7E"/>
<path d="M357.467 124.502C356.32 125.763 354.404 129.136 354.404 137.375C354.404 145.614 356.475 150.811 357.598 152.826C358.042 153.563 358.332 153.927 358.332 153.927H362.354V157.509H128.669C123.578 157.509 119.438 153.35 119.438 148.208V129.47C119.438 124.342 123.578 120.18 128.669 120.18H362.353V123.78H358.33C358.33 123.78 357.968 123.94 357.466 124.504L357.467 124.502Z" fill="#626E7E"/>
<path d="M223.693 137.509L223.707 138.543C223.707 144.006 225.433 153.925 230.017 153.925H358.331C358.331 153.925 358.044 153.563 357.598 152.825C356.477 150.811 354.407 145.979 354.407 137.375C354.407 128.771 356.319 125.764 357.469 124.502C357.972 123.938 358.331 123.778 358.331 123.778H230.017C225.432 123.778 223.693 132.059 223.693 137.51V137.509Z" fill="#FFF8E9"/>
<path d="M150.71 157.509H137.566C134.274 157.509 131.6 155.012 131.6 151.939V125.752C131.6 122.675 134.272 120.178 137.566 120.178H150.931C148.534 120.904 146.795 123.266 146.795 125.752V151.939C146.795 154.314 148.456 156.718 150.711 157.509H150.71Z" fill="#132740"/>
<path d="M339.748 265.146H343.746V261.891H128.616C126.116 261.891 124.071 268.415 124.071 276.476C124.071 284.537 126.116 291.074 128.616 291.074H343.747V287.818H339.75C337.81 287.818 336.234 282.74 336.234 276.476C336.234 270.212 337.81 265.146 339.75 265.146H339.748Z" fill="#AB141D"/>
<path d="M339.748 287.819H132.145C130.206 287.819 128.616 282.74 128.616 276.476C128.616 270.212 130.204 265.146 132.145 265.146H339.748C337.809 265.146 336.232 270.225 336.232 276.476C336.232 282.726 337.809 287.819 339.748 287.819Z" fill="white"/>
<path d="M339.749 287.819H224.865C222.925 287.819 221.335 282.74 221.335 276.476C221.335 270.212 222.924 265.146 224.865 265.146H339.749C337.809 265.146 336.232 270.225 336.232 276.476C336.232 282.726 337.809 287.819 339.749 287.819Z" fill="#FFF8E9"/>
<path d="M65.2401 262.061L65 262.5L65.24 262.061C64.5923 261.707 64.0307 261.404 63.5281 261.133C62.2983 260.471 61.4215 259.998 60.5 259.423C59.2105 258.619 57.8358 257.614 55.311 255.609L55.2999 255.6L55.2883 255.592L46.8001 249.6C41.9534 245.75 37.6588 242.662 33.8764 239.942C33.1053 239.387 32.3556 238.848 31.6267 238.321C27.3131 235.201 23.7443 232.508 20.8002 229.53C14.9482 223.609 11.5202 216.517 9.8481 202.585C8.12495 188.227 13.0672 178.421 18.7615 168.983C19.4098 167.909 20.0685 166.838 20.7285 165.766C25.8577 157.431 31.0612 148.975 31.9998 137.606C32.5233 131.27 32.2684 124.899 32.0151 118.568C31.9918 117.987 31.9686 117.406 31.9459 116.825C31.6764 109.909 31.4938 103.043 32.3946 96.2487C37.3637 58.7829 74.1243 34.7116 109.299 39.2841C122.454 40.9941 135.086 45.5413 147.745 50.0984C151.369 51.4029 154.995 52.7082 158.636 53.948C174.964 59.5073 191.552 63.7272 209.368 60.4268C226.956 57.169 241.872 46.9183 256.631 36.7761C257.473 36.1974 258.315 35.619 259.156 35.0423C274.785 24.3323 290.405 14.1916 309.14 12.7037C334.094 10.7214 350.759 23.4437 364.482 40.7496C371.281 49.3223 377.34 58.9994 383.321 68.5514L383.501 68.8381C389.533 78.4722 395.495 87.9695 402.039 96.002C408.812 104.314 416.721 111.429 424.959 118.166C428.602 121.146 432.293 124.039 435.979 126.929C440.66 130.598 445.333 134.261 449.891 138.087C485.47 167.957 488.174 229.225 449.139 264.38C419.523 291.052 391.537 295.064 367.353 293.056C357.165 292.21 347.656 290.296 338.959 288.546C337.318 288.216 335.705 287.891 334.123 287.581C324.186 285.632 315.382 284.228 308.08 285.522C297.77 287.35 291.621 286.966 287.526 285.426C283.455 283.895 281.343 281.198 279.145 278.161C279.02 277.988 278.894 277.814 278.768 277.638C276.683 274.745 274.423 271.608 270.281 269.154C265.889 266.553 259.432 264.746 248.9 264.671C240.406 264.611 232.09 263.287 223.711 261.925L223.178 261.838C214.986 260.506 206.73 259.163 198.25 258.987C178.931 258.585 162.164 262.606 146.291 266.413C140.886 267.709 135.584 268.981 130.321 270.044C109.586 274.234 89.3221 275.242 65.2401 262.061Z" stroke="#2E4057"/>
<path d="M370.242 249.326C370.242 249.326 369.593 251.78 368.249 255.59C365.806 262.529 361.068 273.97 353.79 283.258C342.516 297.639 238.02 283.258 238.02 283.258C238.02 283.258 231.316 277.673 224.745 270.45C223.287 268.847 221.835 267.164 220.465 265.443C215.317 258.976 211.315 251.981 212.429 246.745C214.856 235.318 336.653 246.145 364.578 248.78C368.199 249.123 370.242 249.328 370.242 249.328V249.326Z" fill="#4A78B7"/>
<path d="M373.88 175.183C373.88 175.183 378.026 178.539 378.981 182.575C379.936 186.61 373.033 194.367 373.033 194.367L362.308 184.353L373.88 175.183Z" fill="#F19F78"/>
<path d="M251.871 215.693C251.871 215.693 242.417 226.527 238.749 234.99C235.082 243.452 298.594 260.428 311.551 256.525C324.509 252.621 359.209 238.235 359.209 238.235C359.209 238.235 358.569 224.465 341.75 215.693C324.933 206.921 251.871 215.693 251.871 215.693Z" fill="#4A78B7"/>
<path d="M295.583 2.85523C295.192 3.34184 293.244 1.96928 288.757 2.39375C285.679 2.68466 282.61 3.36432 279.879 4.81622C273.713 8.09556 270.36 14.3078 267.637 20.4684C261.63 34.0578 251.446 93.6901 255.395 120.172C252.456 130.907 334.398 115.545 334.472 115.549C335.689 115.622 340.079 62.7692 340.4 58.5709C341.131 48.9867 341.221 39.2294 338.923 29.8952C336.625 20.561 331.736 11.6103 324.018 5.88068C319.878 2.80763 314.903 0.804327 309.778 0.215898C306.361 -0.176828 297.88 -0.385754 295.588 2.84862C295.587 2.84994 295.586 2.85259 295.584 2.85391L295.583 2.85523Z" fill="#252525"/>
<path d="M267.807 106.067C267.807 106.067 282.542 102.346 297.009 102.51C314.102 102.703 326.794 104.249 335.744 108.606C345.604 113.406 345.168 156.586 341.752 177.169C338.333 197.752 340.859 220.668 340.859 220.668C340.859 220.668 314.122 227.982 274.841 223.561C252.451 221.041 251.873 215.692 251.873 215.692C251.873 215.692 256.283 182.46 255.342 170.634C254.404 158.807 248.436 136.303 248.436 136.303C248.436 136.303 243.249 110.316 267.808 106.067H267.807Z" fill="#AB141D"/>
<path d="M303.28 121.776C296.187 121.576 288.783 120.2 282.626 116.5C280.258 115.078 271.109 110.589 275.283 107.408C276.307 106.629 276.403 106.1 277.166 105.069C287.696 90.8339 280.053 63.4184 279.796 61.9929L310.762 72.6098C309.966 74.6038 308.83 77.8752 307.969 82.0894C307.484 84.4603 307.089 87.1327 306.889 90.0405C306.869 90.3142 306.853 90.5919 306.837 90.8696C306.811 91.3654 306.811 91.8454 306.837 92.3109C306.864 92.7869 306.918 93.2471 306.995 93.6914C308.695 103.486 322.179 105.545 322.179 105.545C322.179 105.545 326.848 122.444 303.279 121.776H303.28Z" fill="#F19F78"/>
<path d="M306.838 92.3084C306.865 92.7844 306.919 93.2445 306.996 93.6888C289.943 92.2766 287.695 80.0413 287.695 80.0413L307.97 82.0869C307.485 84.4578 307.09 87.1302 306.89 90.0379C306.87 90.3117 306.854 90.5893 306.838 90.867C306.812 91.3629 306.812 91.8429 306.838 92.3084Z" fill="black"/>
<path d="M329.297 47.2863C327.33 67.7001 314.89 88.6469 298.943 87.5837C282.567 86.4928 275.522 63.6975 277.487 43.2836C279.453 22.8698 293.166 12.4169 306.062 13.6586C318.959 14.9002 331.263 26.8724 329.297 47.2863Z" fill="#F19F78"/>
<path d="M297.633 21.6731C298.355 27.4542 303.274 31.277 308.042 33.9044C310.624 35.3286 313.364 36.6363 316.109 37.7167C319.03 38.8658 322.191 39.712 324.589 41.8449C325.92 43.0271 326.901 44.5266 327.684 46.112C328.337 47.437 328.747 50.0935 329.758 51.0006C330.053 50.4638 330.434 49.5342 331.135 49.4218C331.461 49.3689 331.736 49.1534 331.985 48.9338C332.745 48.2648 335.973 44.9233 335.743 43.7279L330.628 17.2671C330.628 17.2671 319.066 9.9296 317.732 9.48531C316.398 9.04101 306.836 9.48531 306.836 9.48531L296.608 13.4879C296.608 13.4879 297.629 21.6532 297.631 21.6731H297.633Z" fill="#252525"/>
<path d="M297.302 21.6572C297.139 24.7144 296.097 27.4886 292.965 30.3369C290.313 32.7475 287.165 34.5379 284.351 36.7554C281.537 38.9729 278.965 41.7947 278.159 45.2856C278.094 45.566 273.145 43.8602 272.938 42.797C272.814 42.1597 273.773 40.5385 273.997 39.9289C275.164 36.7673 276.33 33.6043 277.496 30.4427C279.198 25.8291 280.9 21.2143 282.602 16.6007C282.602 16.6007 296.35 11.5111 297.684 13.0675C298.064 16.1009 297.434 19.1819 297.303 21.6559L297.302 21.6572Z" fill="#252525"/>
<path d="M232.035 148.616C232.035 148.616 207.152 194.686 206.34 208.19C205.528 221.694 228.227 213.387 228.227 213.387L252.477 160.586L232.035 148.618V148.616Z" fill="#F19F78"/>
<path d="M333.779 107.799C333.779 107.799 355.065 115.376 364.473 151.204L346.741 155.076L333.779 140.201V107.799Z" fill="#AB141D"/>
<path d="M258.31 109.546C258.31 109.546 244.701 117.648 221.558 160.628L250.426 177.169L261.318 143.023L258.31 109.546Z" fill="#AB141D"/>
<path d="M262.095 216.821L251.107 207.462H278.374L262.095 216.821Z" fill="#CADDEC"/>
<path d="M251.107 207.462V211.035L260.659 219.31V211.035L251.107 207.462Z" fill="#CADDEC"/>
<path d="M209.468 196.247C209.468 196.247 201.158 212.26 217.732 216.822C235.567 221.731 256.683 211.743 256.683 211.743L253.816 198.991C253.816 198.991 231.296 197.864 228.43 194.988C225.566 192.112 209.467 196.247 209.467 196.247H209.468Z" fill="#F19F78"/>
<path d="M272.461 271.7L264.778 284.264L224.745 270.449C223.287 268.846 221.835 267.163 220.465 265.441V263.236L272.461 271.698V271.7Z" fill="black"/>
<path d="M370.242 249.326C370.242 249.326 369.593 251.781 368.25 255.59L336.008 274.483L316.4 265.629L364.579 248.779C368.199 249.121 370.242 249.326 370.242 249.326Z" fill="black"/>
<path d="M253.818 198.99C253.818 198.99 262.352 198.457 265.457 199.443C268.56 200.431 268.835 212.756 256.685 211.742C244.534 210.728 253.818 198.99 253.818 198.99Z" fill="#F19F78"/>
<path d="M243.546 227.138L288.4 247.121L330.11 224.521L300.774 262.579L244.251 255.178L243.546 227.138Z" fill="black"/>
<path d="M361.412 263.958C361.412 263.115 369.024 262.586 369.651 262.58C373.253 262.539 376.494 263.323 378.764 266.371C380.661 268.916 381.427 272.115 381.955 275.245C382.651 279.367 383.008 283.593 382.364 287.722C381.416 293.801 378.635 298.974 372.437 300.509C368.914 301.382 365.008 301.466 361.412 300.981V263.958Z" fill="#4A78B7"/>
<path d="M368.055 300.274C366.28 300.759 363.997 300.989 361.41 300.981C351.107 300.943 336.006 297.083 329.307 290.254C320.924 281.716 333.819 271.946 333.819 271.946C333.819 271.946 349.289 265.379 361.298 264.155C365.108 263.766 368.569 263.913 371.079 264.98C381.496 269.407 376.9 297.851 368.055 300.275V300.274Z" fill="#12253C"/>
<path d="M341.796 289.116C341.796 289.116 331.132 291.735 318.917 289.801C317.706 289.612 316.476 289.374 315.24 289.086C313.357 288.645 311.458 288.083 309.574 287.376C294.042 281.539 315.799 267.381 315.799 267.381C315.799 267.381 330.34 273.006 339.696 273.745C349.053 274.486 341.795 289.117 341.795 289.117L341.796 289.116Z" fill="#F19F78"/>
<path d="M318.007 289.65C316.795 289.461 316.477 289.374 315.24 289.086L319.977 278.949L318.007 289.651V289.65Z" fill="black"/>
<path d="M322.557 266.585C322.557 266.585 319.07 290.254 313.516 290.254C307.35 290.254 286.219 285.384 265.111 279.77C263.088 279.232 261.062 278.687 259.053 278.138C243.63 273.929 228.996 269.531 221.123 266.585C201.52 259.252 185.433 240.632 199.354 223.561C213.278 206.491 234.684 218.393 248.326 230.051C255.079 235.825 273.345 244.837 290.065 252.464C291.899 253.302 293.713 254.122 295.493 254.917C310.258 261.534 322.558 266.584 322.558 266.584L322.557 266.585Z" fill="#4A78B7"/>
<path d="M339.698 273.745C339.698 273.745 334.401 285.15 337.918 290.256C341.437 295.361 349.336 287.376 349.336 287.376C349.336 287.376 353.192 269.621 339.698 273.745Z" fill="#12253C"/>
<path d="M303.156 50.8195C303.122 50.6753 303.082 50.5325 303.038 50.391C301.905 46.6171 298.4 43.8615 294.261 43.8615C290.974 43.8615 288.084 45.6016 286.468 48.2092C286.388 48.3362 286.311 48.4657 286.24 48.598C285.511 49.911 285.097 51.4185 285.097 53.0238C285.097 58.0763 289.208 62.1861 294.262 62.1861C299.316 62.1861 303.424 58.0763 303.424 53.0238C303.424 52.2634 303.331 51.5256 303.156 50.8181V50.8195ZM294.261 61.7431C289.453 61.7431 285.543 57.8317 285.543 53.0251C285.543 48.2185 289.453 44.3071 294.261 44.3071C299.069 44.3071 302.979 48.2171 302.979 53.0251C302.979 57.833 299.067 61.7431 294.261 61.7431Z" fill="black"/>
<path d="M324.914 50.3713C324.86 50.2457 324.803 50.1201 324.742 49.9984C323.256 46.9373 320.118 44.8229 316.494 44.8229C312.663 44.8229 309.374 47.1845 308.007 50.5313C307.945 50.682 307.887 50.8368 307.834 50.9915C307.507 51.9303 307.33 52.9379 307.33 53.9852C307.33 55.4186 307.662 56.7779 308.25 57.9878C309.739 61.041 312.875 63.1488 316.492 63.1488C318.303 63.1488 319.989 62.6212 321.41 61.7154C323.961 60.0863 325.655 57.2315 325.655 53.9865C325.655 52.7039 325.39 51.482 324.912 50.3713H324.914ZM321.472 61.1389C320.06 62.1253 318.344 62.7045 316.494 62.7045C312.957 62.7045 309.907 60.5888 308.54 57.5581C308.049 56.4672 307.774 55.2572 307.774 53.9865C307.774 49.1799 311.684 45.2685 316.492 45.2685C321.3 45.2685 325.21 49.1799 325.21 53.9865C325.21 56.9445 323.729 59.5627 321.471 61.1402L321.472 61.1389Z" fill="black"/>
<path d="M286.52 48.6892C286.493 48.6892 286.467 48.6839 286.441 48.6747L278.076 45.4932C277.961 45.4496 277.904 45.3213 277.947 45.2063C277.991 45.0912 278.119 45.0344 278.234 45.078L286.599 48.2595C286.714 48.3031 286.771 48.4314 286.727 48.5464C286.694 48.635 286.61 48.6892 286.52 48.6892Z" fill="black"/>
<path d="M308.088 51.1566C308.029 51.1566 307.969 51.1328 307.926 51.0852C306.926 50.0075 305.973 49.5051 305.088 49.5923C303.993 49.6994 303.362 50.7031 303.357 50.7137C303.292 50.8181 303.156 50.8512 303.052 50.7864C302.947 50.7229 302.914 50.5854 302.978 50.4809C303.008 50.432 303.723 49.2816 305.039 49.1494C306.069 49.0462 307.149 49.595 308.251 50.7824C308.334 50.8723 308.329 51.0125 308.239 51.0971C308.195 51.1368 308.143 51.1566 308.088 51.1566Z" fill="black"/>
<path d="M324.905 50.37C324.828 50.37 324.753 50.3303 324.712 50.2576C324.651 50.1505 324.688 50.0156 324.794 49.9548L329.406 47.3154C329.513 47.2546 329.649 47.2916 329.71 47.3974C329.771 47.5045 329.734 47.6394 329.628 47.7002L325.016 50.3396C324.982 50.3594 324.943 50.3686 324.906 50.3686L324.905 50.37Z" fill="black"/>
<path d="M297.472 55.0138C297.384 56.241 296.761 57.1943 296.081 57.1454C295.402 57.0965 294.923 56.0624 295.013 54.8353C295.101 53.6082 295.724 52.6548 296.404 52.7038C297.084 52.7527 297.562 53.7867 297.472 55.0138Z" fill="black"/>
<path d="M316.12 56.3666C316.031 57.5937 315.408 58.5471 314.729 58.4981C314.049 58.4492 313.57 57.4152 313.66 56.1881C313.749 54.961 314.372 54.0076 315.051 54.0565C315.731 54.1054 316.21 55.1395 316.12 56.3666Z" fill="black"/>
<path d="M297.03 49.5844C296.995 49.558 296.89 49.4932 296.809 49.4496C296.72 49.4006 296.629 49.3557 296.535 49.3147C296.349 49.2287 296.153 49.1653 295.957 49.1084C295.565 49.0039 295.164 48.9735 294.777 49.0251C294.39 49.0806 294.006 49.1944 293.658 49.4231C293.471 49.5117 293.318 49.6677 293.145 49.792C292.982 49.9335 292.835 50.1028 292.675 50.2575L292.595 50.3342C292.332 50.5881 291.911 50.5801 291.657 50.317C291.421 50.071 291.413 49.6876 291.627 49.431C291.808 49.2155 291.977 48.9881 292.177 48.7818C292.392 48.5874 292.586 48.3692 292.841 48.2079C293.31 47.8443 293.891 47.5944 294.488 47.4582C295.09 47.322 295.717 47.3193 296.308 47.4225C296.603 47.478 296.895 47.5481 297.177 47.6472C297.318 47.6949 297.458 47.7491 297.597 47.8099C297.743 47.8747 297.86 47.9276 298.04 48.0334L298.069 48.0506C298.512 48.3097 298.66 48.8783 298.401 49.3213C298.142 49.7643 297.573 49.9124 297.13 49.6532C297.096 49.6334 297.059 49.6069 297.027 49.5831L297.03 49.5844Z" fill="#252525"/>
<path d="M312.346 49.4866C312.519 49.3703 312.632 49.3108 312.773 49.2354C312.907 49.1666 313.043 49.1032 313.18 49.0463C313.454 48.9299 313.74 48.84 314.028 48.766C314.608 48.6245 315.229 48.5822 315.836 48.6708C316.439 48.7594 317.034 48.9603 317.531 49.283C317.797 49.4232 318.008 49.6215 318.238 49.7974C318.455 49.9851 318.64 50.198 318.839 50.3977C319.096 50.6582 319.095 51.0774 318.835 51.3352C318.593 51.5746 318.213 51.5904 317.954 51.3815L317.864 51.3088C317.692 51.1699 317.533 51.0139 317.36 50.8883C317.178 50.7785 317.012 50.6384 316.819 50.5656C316.454 50.3699 316.062 50.2866 315.673 50.2641C315.283 50.243 314.886 50.3038 314.501 50.436C314.31 50.5061 314.12 50.5828 313.941 50.682C313.849 50.7296 313.762 50.7799 313.678 50.8341C313.599 50.883 313.499 50.9544 313.467 50.9835C313.082 51.3313 312.489 51.3008 312.141 50.9147C311.793 50.5299 311.824 49.9362 312.21 49.5884C312.242 49.5594 312.275 49.5342 312.309 49.5104L312.346 49.4853V49.4866Z" fill="#252525"/>
<path d="M296.014 70.3632C296.014 70.3632 301.212 75.2068 308.186 71.9897C308.186 71.9897 305.633 77.9282 300.792 76.7751C295.952 75.6221 296.014 70.3632 296.014 70.3632Z" fill="white"/>
<path d="M338.898 153.359C338.81 153.359 338.726 153.307 338.692 153.219L333.573 140.284C333.528 140.171 333.584 140.041 333.698 139.996C333.811 139.951 333.941 140.007 333.986 140.12L339.104 153.055C339.149 153.169 339.094 153.299 338.98 153.344C338.954 153.354 338.926 153.359 338.898 153.359Z" fill="black"/>
<path d="M317.142 104.136C317.45 104.217 314.746 108.876 314.429 109.251C308.043 116.833 294.18 115.069 285.704 112.825C283.656 112.283 281.614 111.596 279.855 110.413C278.181 109.288 276.166 107.245 276.177 105.096C276.075 105.206 275.955 105.309 275.858 105.424C275.882 105.378 275.916 105.275 275.947 105.242C275.818 105.291 275.711 105.386 275.602 105.481C273.945 106.924 273.73 107.574 273.73 109.373C273.73 111.797 273.73 114.222 273.73 116.645L297.851 130.327L323.24 126.801L326.626 109.451L324.792 106.182C322.242 105.494 319.695 104.8 317.141 104.135L317.142 104.136Z" fill="#AB141D"/>
<path d="M279.266 47.2863C278.844 46.4559 278.73 45.5515 277.95 44.9088C276.764 43.9329 275.038 44.1564 274.004 45.2619C273.165 46.1584 272.818 47.4106 272.662 48.6298C272.061 53.3042 274.207 58.1161 278.822 59.7372C287.045 62.6265 279.274 47.2996 279.266 47.285V47.2863Z" fill="#F19F78"/>
<path d="M327.925 50.1767C328.347 49.3463 328.461 48.4419 329.241 47.7992C330.427 46.8234 332.152 47.0468 333.187 48.1523C334.026 49.0488 334.373 50.301 334.529 51.5202C335.13 56.1946 332.984 61.0065 328.369 62.6276C320.146 65.5169 327.917 50.19 327.925 50.1754V50.1767Z" fill="#F19F78"/>
<path d="M304.814 66.8619C304.337 66.8619 303.76 66.7336 303.088 66.4771C302.973 66.4334 302.916 66.3052 302.96 66.1901C303.004 66.0751 303.132 66.0182 303.247 66.0619C304.452 66.522 305.27 66.5405 305.68 66.1174C306.43 65.3425 305.749 63.1594 305.422 62.3832C305.375 62.2695 305.427 62.1399 305.541 62.0923C305.654 62.0447 305.784 62.0976 305.832 62.2113C305.885 62.3369 307.105 65.2843 305.999 66.4268C305.717 66.7177 305.32 66.8632 304.813 66.8632L304.814 66.8619Z" fill="black"/>
<path d="M278.045 51.5653C277.925 51.5653 277.825 51.4687 277.823 51.3471C277.79 49.6929 277.4 48.5253 276.695 47.9699C276.079 47.4846 275.432 47.6182 275.425 47.6195C275.306 47.6459 275.187 47.5692 275.161 47.4502C275.135 47.3299 275.211 47.2122 275.33 47.1858C275.366 47.1778 276.191 47.0073 276.97 47.6208C277.794 48.2714 278.23 49.5223 278.267 51.3391C278.27 51.4621 278.172 51.5639 278.049 51.5666H278.045V51.5653Z" fill="black"/>
<path d="M328.353 53.8806C328.338 53.8806 328.325 53.8806 328.31 53.8766C328.19 53.8541 328.111 53.7364 328.133 53.6161C328.358 52.4432 328.853 51.6274 329.602 51.1897C330.66 50.5722 331.821 50.949 331.87 50.9662C331.986 51.0046 332.05 51.1315 332.01 51.2479C331.971 51.3642 331.845 51.4277 331.73 51.388C331.718 51.3841 330.702 51.0588 329.823 51.5758C329.191 51.9474 328.771 52.6614 328.571 53.7007C328.55 53.8065 328.457 53.8806 328.353 53.8806Z" fill="black"/>
<path d="M215.758 278.068C215.758 278.068 203.063 275.105 198.619 282.694C194.176 290.282 196.091 303.751 201.619 309.275C207.148 314.797 206.296 315.448 222.527 314.581C238.757 313.712 215.758 278.069 215.758 278.069V278.068Z" fill="#4A78B7"/>
<path d="M252.451 284.008C252.451 284.008 220.734 275.652 210.946 278.947C201.159 282.242 201.924 294.847 203.34 300.923C204.756 306.999 210.192 314.525 216.038 314.718C221.884 314.913 250.636 314.197 263.378 298.413C276.12 282.63 252.451 284.008 252.451 284.008Z" fill="#12253C"/>
<path d="M279.497 290.512C278.99 290.884 278.483 291.242 277.977 291.582H277.975C265.232 300.237 253.337 300.021 253.337 300.021L248.323 296.337C248.323 296.337 242.415 285.418 249.771 284.541C254.407 283.987 260.635 280.956 264.609 278.786C265.62 278.237 266.488 277.741 267.144 277.357C267.999 276.854 268.5 276.541 268.5 276.541C268.5 276.541 292.797 280.775 279.495 290.514L279.497 290.512Z" fill="#F19F78"/>
<path d="M264.74 274.359C264.74 274.359 292.195 253.355 304.561 242.534C316.927 231.71 355.236 205.424 374.131 216.823C393.024 228.22 379.015 244.405 367.499 252.641C355.985 260.879 290.226 295.406 283.128 296.337C280.732 296.652 264.74 274.359 264.74 274.359Z" fill="#4A78B7"/>
<path d="M244.251 285.205C244.251 285.205 250.423 285.002 252.45 291.028C254.478 297.054 251.092 303.613 251.092 303.613C251.092 303.613 238.61 287.319 242.207 285.205C245.803 283.09 244.252 285.205 244.252 285.205H244.251Z" fill="#132740"/>
<path d="M267.145 277.355L277.976 291.582L264.61 278.786C265.622 278.237 266.489 277.742 267.145 277.357V277.355Z" fill="black"/>
<path d="M277.978 291.582V291.584L277.976 291.582H277.978Z" fill="black"/>
<path d="M301.398 288.488L319.977 278.947L304.949 289.165L301.398 288.488Z" fill="black"/>
<path d="M299.445 119.33C298.491 119.33 297.554 119.303 296.643 119.265C290.042 118.983 284.709 117.747 280.341 115.484C276.339 113.412 271.986 109.297 272.887 104.523C272.909 104.402 273.027 104.323 273.146 104.345C273.266 104.368 273.345 104.484 273.323 104.605C272.467 109.14 276.679 113.087 280.544 115.089C284.855 117.322 290.127 118.543 296.662 118.821C301.586 119.03 307.296 118.874 312.309 116.118C316.577 113.771 320.541 108.905 319.862 104.142C319.845 104.02 319.929 103.908 320.051 103.89C320.173 103.872 320.285 103.958 320.302 104.08C321.011 109.042 316.925 114.089 312.523 116.509C308.347 118.805 303.718 119.332 299.444 119.332L299.445 119.33Z" fill="black"/>
<path d="M252.477 170.958C252.439 170.958 252.401 170.949 252.365 170.928L224.755 154.789C224.649 154.727 224.613 154.591 224.676 154.485C224.738 154.379 224.874 154.343 224.98 154.405L252.59 170.544C252.695 170.606 252.731 170.743 252.669 170.848C252.628 170.92 252.553 170.958 252.477 170.958Z" fill="black"/>
<path d="M267.666 278.892C267.595 278.892 267.525 278.857 267.483 278.794L264.558 274.483C264.493 274.387 264.513 274.257 264.603 274.184L292.53 251.776C292.626 251.7 292.765 251.716 292.842 251.811C292.919 251.906 292.903 252.046 292.807 252.123L265.04 274.402L267.85 278.543C267.919 278.644 267.892 278.782 267.791 278.852C267.752 278.879 267.709 278.89 267.666 278.89V278.892Z" fill="black"/>
<path d="M218.155 313.215C218.118 313.215 218.08 313.206 218.045 313.186C217.938 313.125 217.901 312.989 217.962 312.883C217.975 312.861 219.278 310.561 220.618 307.364C221.853 304.42 223.373 300.091 223.606 296.185C224.048 288.735 216.982 280.057 216.911 279.971C216.833 279.876 216.846 279.735 216.941 279.657C217.036 279.579 217.176 279.593 217.254 279.688C217.327 279.776 224.503 288.587 224.05 296.212C223.814 300.182 222.275 304.565 221.027 307.541C219.676 310.761 218.363 313.079 218.349 313.103C218.308 313.174 218.233 313.215 218.156 313.215H218.155Z" fill="black"/>
<path d="M239.455 302.354C239.383 302.354 239.316 302.319 239.274 302.26L227.214 285.333C227.143 285.232 227.167 285.094 227.266 285.023C227.366 284.952 227.505 284.976 227.576 285.075L239.323 301.562L241.986 285.169C242.006 285.047 242.121 284.965 242.241 284.985C242.363 285.005 242.445 285.119 242.425 285.24L239.674 302.167C239.66 302.256 239.594 302.327 239.505 302.348C239.488 302.352 239.472 302.354 239.455 302.354Z" fill="black"/>
<path d="M230.357 303.835C230.34 303.835 230.323 303.833 230.304 303.828C230.185 303.799 230.112 303.679 230.14 303.56L234.607 285.152C234.627 285.068 234.694 285.004 234.778 284.986C234.861 284.969 234.948 285.001 235 285.07L246.257 299.886C246.331 299.984 246.312 300.123 246.214 300.197C246.116 300.271 245.978 300.252 245.903 300.155L234.93 285.71L230.573 303.664C230.547 303.766 230.456 303.835 230.357 303.835Z" fill="black"/>
<path d="M361.412 296.681C361.318 296.681 361.229 296.62 361.2 296.525C361.175 296.446 358.701 288.561 357.861 281.953C357.016 275.296 361.174 267.355 361.216 267.275C361.274 267.167 361.408 267.126 361.516 267.183C361.625 267.241 361.666 267.374 361.609 267.483C361.568 267.561 357.475 275.381 358.303 281.896C359.137 288.464 361.6 296.311 361.625 296.39C361.662 296.508 361.597 296.632 361.479 296.669C361.457 296.676 361.434 296.68 361.412 296.68V296.681Z" fill="black"/>
<path d="M349.335 287.598C349.335 287.598 349.326 287.598 349.32 287.598C349.229 287.593 349.15 287.53 349.122 287.442L345.737 276.606C345.7 276.488 345.766 276.364 345.882 276.327C345.999 276.289 346.124 276.356 346.161 276.472L349.373 286.753L355.621 273.031C355.673 272.92 355.804 272.87 355.916 272.922C356.028 272.972 356.077 273.104 356.026 273.216L349.537 287.468C349.501 287.548 349.421 287.599 349.335 287.599V287.598Z" fill="black"/>
<path d="M356.811 289.872C356.723 289.872 356.638 289.818 356.604 289.731L350.852 275.007L343.472 288.387C343.412 288.494 343.278 288.534 343.169 288.475C343.062 288.415 343.022 288.28 343.082 288.172L350.69 274.376C350.733 274.301 350.817 274.257 350.899 274.261C350.985 274.266 351.061 274.322 351.092 274.403L357.016 289.568C357.061 289.683 357.005 289.811 356.891 289.856C356.864 289.867 356.837 289.871 356.81 289.871L356.811 289.872Z" fill="black"/>
<path d="M289.247 291.804C289.223 291.804 289.198 291.8 289.174 291.792C285.973 290.679 282.154 287.213 277.821 281.494C274.605 277.25 272.292 273.276 272.269 273.236C272.207 273.131 272.244 272.994 272.35 272.932C272.457 272.87 272.592 272.907 272.654 273.013C272.746 273.17 281.868 288.78 289.321 291.373C289.437 291.414 289.498 291.54 289.457 291.656C289.425 291.747 289.339 291.806 289.247 291.806V291.804Z" fill="black"/>
<path d="M234.895 197.284C234.831 197.284 234.766 197.256 234.722 197.201C234.694 197.166 232.22 194.235 225.471 195.422C225.35 195.442 225.236 195.363 225.213 195.241C225.192 195.121 225.273 195.004 225.395 194.983C232.428 193.748 234.964 196.791 235.07 196.922C235.147 197.017 235.131 197.157 235.035 197.234C234.994 197.267 234.946 197.283 234.897 197.283L234.895 197.284Z" fill="black"/>
<path d="M328.297 40.3772C328.236 40.3772 328.175 40.3521 328.13 40.3032C325.172 36.9723 321.172 34.723 317.302 32.5478C316.232 31.9462 315.125 31.3247 314.058 30.6887C307.628 26.8606 303.925 22.7495 302.742 18.1214C302.711 18.0024 302.783 17.8807 302.902 17.8503C303.021 17.8199 303.143 17.8913 303.173 18.0103C304.326 22.5181 307.961 26.5406 314.286 30.3052C315.347 30.9373 316.452 31.5587 317.52 32.1591C321.421 34.3528 325.455 36.6206 328.462 40.007C328.544 40.0982 328.535 40.2397 328.444 40.3204C328.401 40.3574 328.348 40.3759 328.296 40.3759L328.297 40.3772Z" fill="black"/>
<path d="M254.475 80.3771C254.466 80.3771 254.455 80.3771 254.446 80.3771C254.262 80.3613 254.127 80.1999 254.143 80.0161L254.149 79.9394C255.849 60.5014 257.606 40.4023 263.842 21.5858C265.474 16.6602 267.681 11.047 271.671 6.75738C274.586 3.62482 278.496 1.59639 282.98 0.892921C287.202 0.22912 291.726 0.818871 295.718 2.54978C295.887 2.62383 295.964 2.81953 295.891 2.98879C295.817 3.15804 295.623 3.23606 295.452 3.16201C291.576 1.48003 287.183 0.907466 283.084 1.55143C278.751 2.23242 274.973 4.18945 272.162 7.21225C268.259 11.4079 266.087 16.9379 264.478 21.796C258.267 40.5385 256.514 60.598 254.817 79.9976L254.811 80.0743C254.796 80.2475 254.649 80.3784 254.479 80.3784L254.475 80.3771Z" fill="#252525"/>
<path d="M282.577 40.8625C282.513 40.8625 282.45 40.8453 282.393 40.807C282.24 40.7051 282.197 40.4989 282.298 40.3455C283.903 37.9098 286.542 36.561 289.096 35.2572C291.067 34.2496 293.108 33.2076 294.648 31.6737C297.352 28.9842 298.132 25.3174 297.104 20.1352C297.068 19.9541 297.186 19.7795 297.365 19.7438C297.547 19.7081 297.721 19.8258 297.758 20.0057C298.82 25.3531 297.957 29.324 295.119 32.1471C293.503 33.7537 291.416 34.8208 289.4 35.8509C286.809 37.1746 284.363 38.4241 282.854 40.7131C282.791 40.8096 282.684 40.8625 282.575 40.8625H282.577Z" fill="#252525"/>
<path d="M359.21 252.863C359.136 252.863 359.063 252.826 359.021 252.758C358.956 252.653 358.989 252.516 359.093 252.452C364.188 249.313 370.751 244.49 373.085 239.343C374.466 236.296 373.686 234.56 373.678 234.543C373.627 234.432 373.674 234.299 373.784 234.248C373.894 234.195 374.026 234.241 374.079 234.352C374.115 234.428 374.953 236.25 373.517 239.464C371.626 243.697 366.851 248.194 359.325 252.832C359.289 252.854 359.248 252.865 359.208 252.865L359.21 252.863Z" fill="black"/>
<path d="M214.206 252.863C214.172 252.863 214.138 252.856 214.106 252.84C208.517 249.982 205.601 246.099 204.14 243.344C202.553 240.353 202.294 238.069 202.285 237.973C202.271 237.851 202.36 237.742 202.482 237.728C202.606 237.714 202.713 237.804 202.726 237.925C202.735 238.017 203.828 247.084 214.308 252.443C214.418 252.499 214.46 252.633 214.405 252.742C214.365 252.819 214.287 252.863 214.206 252.863Z" fill="black"/>
<path d="M260.408 219.669C260.355 219.669 260.301 219.651 260.259 219.611L253.232 213.231C253.141 213.149 253.134 213.008 253.218 212.918C253.301 212.826 253.441 212.82 253.531 212.903L260.558 219.283C260.649 219.365 260.656 219.507 260.574 219.597C260.53 219.646 260.469 219.669 260.41 219.669H260.408Z" fill="black"/>
<path d="M368.256 143.724H262.826C259.577 143.724 256.943 146.358 256.943 149.607V215.724C256.943 218.973 259.577 221.607 262.826 221.607H368.256C371.505 221.607 374.139 218.973 374.139 215.724V149.607C374.139 146.358 371.505 143.724 368.256 143.724Z" fill="#E2E8ED"/>
<path d="M376.071 179.254C376.071 179.254 370.36 179.314 364.862 179.334C359.994 179.351 355.858 179.482 355.727 181.849C355.641 183.4 359.619 183.882 363.619 184.074C367.62 184.266 371.681 184.169 371.87 184.563C372.072 184.984 366.792 185.328 361.421 185.702C356.723 186.029 352.056 184.684 351.772 188.228C351.609 190.257 356.361 190.67 361.228 190.724C366.484 190.782 371.959 190.428 371.869 191.261C371.779 192.098 366.557 192.437 361.547 192.456C356.952 192.475 352.629 191.11 352.621 194.165C352.616 196.198 356.912 196.849 361.272 196.894C366.151 196.943 371.247 196.304 371.247 197.469C371.247 198.247 367.041 198.327 363.205 198.38C360.129 198.423 357.268 198.263 357.179 199.823C357.075 201.646 360.382 202.569 364.592 202.862C368.476 203.131 373.847 202.479 377.134 201.268C386.097 197.968 381.065 179.556 376.07 179.253L376.071 179.254Z" fill="#F19F78"/>
<path d="M321.652 188.775C325.027 185.4 325.027 179.929 321.652 176.554C318.278 173.18 312.806 173.18 309.432 176.554C306.057 179.929 306.057 185.4 309.432 188.775C312.806 192.15 318.278 192.15 321.652 188.775Z" fill="white"/>
<path d="M261.505 221.976C261.478 221.976 261.45 221.97 261.422 221.957C261.372 221.935 256.428 219.638 256.428 213.747V200.526C256.428 200.414 256.519 200.323 256.631 200.323C256.744 200.323 256.835 200.414 256.835 200.526V213.747C256.835 219.369 261.542 221.566 261.59 221.587C261.692 221.633 261.738 221.753 261.692 221.855C261.657 221.931 261.583 221.976 261.507 221.976H261.505Z" fill="black"/>
</g>
<defs>
<linearGradient id="paint0_linear_3014_3574" x1="39.5" y1="90.5" x2="449" y2="263.5" gradientUnits="userSpaceOnUse">
<stop stop-color="#172E4A"/>
<stop offset="0.218137" stop-color="#2E4057"/>
<stop offset="0.456079" stop-color="#626E7E"/>
<stop offset="0.855198" stop-color="#2E4057"/>
<stop offset="0.993487" stop-color="#172E4A"/>
</linearGradient>
<linearGradient id="paint1_linear_3014_3574" x1="39.5" y1="90.5" x2="449" y2="263.5" gradientUnits="userSpaceOnUse">
<stop stop-color="#172E4A"/>
<stop offset="0.218137" stop-color="#2E4057"/>
<stop offset="0.456079" stop-color="#626E7E"/>
<stop offset="0.855198" stop-color="#2E4057"/>
<stop offset="0.993487" stop-color="#172E4A"/>
</linearGradient>
<clipPath id="clip0_3014_3574">
<rect width="478" height="314.895" fill="white"/>
</clipPath>
</defs>
</svg>
