<svg width="46" height="46" viewBox="0 0 46 46" fill="none" xmlns="http://www.w3.org/2000/svg">
<g id="dictionary_10538501 1" clip-path="url(#clip0_1_3994)">
<g id="Layer_x0020_1">
<g id="_213092544">
<g id="Group">
<g id="_213091560">
<path id="_533820320" fill-rule="evenodd" clip-rule="evenodd" d="M42.0448 38.2413H11.8798C11.5574 38.2413 11.2959 37.9798 11.2959 37.6573V0.584729C11.2959 0.262246 11.5574 0.000778198 11.8798 0.000778198H42.0448C42.3673 0.000778198 42.6287 0.262246 42.6287 0.584729V37.6573C42.6287 37.9798 42.3673 38.2413 42.0448 38.2413ZM12.4637 37.0734H41.4607V1.16874H12.4637V37.0734Z" fill="#2E4057"/>
</g>
<g id="_213093024">
<path id="_533819960" fill-rule="evenodd" clip-rule="evenodd" d="M3.99659 41.3319C3.97653 41.3319 3.95637 41.3309 3.9361 41.3288C3.63835 41.298 3.41211 41.0472 3.41211 40.7479V4.5235C3.41222 2.02969 5.44113 0.000778198 7.93505 0.000778198H11.8739C12.1965 0.000778198 12.4579 0.262246 12.4579 0.584729V37.6573C12.4579 37.9798 12.1965 38.2413 11.8739 38.2413H7.79371C6.24188 38.2413 4.8851 39.3456 4.56781 40.8671C4.51083 41.1401 4.27005 41.3319 3.99659 41.3319ZM7.93504 1.16872C6.08514 1.16872 4.58001 2.67375 4.58001 4.52365V38.4481C5.40155 37.5956 6.55141 37.0734 7.7937 37.0734H11.29V1.16877L7.93504 1.16872Z" fill="#2E4057"/>
</g>
<g id="_213092424">
<path id="_533820032" fill-rule="evenodd" clip-rule="evenodd" d="M42.039 45.9978H7.79383C5.33312 45.9978 3.33105 43.9959 3.33105 41.535C3.33105 39.0742 5.33312 37.0723 7.79383 37.0723H42.039C42.3615 37.0723 42.623 37.3337 42.623 37.6562V45.4139C42.623 45.7365 42.3615 45.9978 42.039 45.9978ZM7.79383 38.2402C5.97703 38.2402 4.49906 39.7183 4.49906 41.535C4.49906 43.3519 5.97702 44.8299 7.79383 44.8299H41.455V38.2402H7.79383Z" fill="#2E4057"/>
</g>
</g>
</g>
</g>
<rect id="Rectangle 460" x="11.5" y="0.000778198" width="31.2143" height="37.7857" fill="#2E4057"/>
<g id="Group_2">
<g id="_213092712">
<path id="_533819528" fill-rule="evenodd" clip-rule="evenodd" d="M17.2225 17.0652C17.1458 17.0652 17.0679 17.05 16.993 17.0179C16.6965 16.891 16.559 16.5478 16.686 16.2512L21.5437 4.90367C21.6356 4.68889 21.847 4.54945 22.0807 4.54945C22.3143 4.54945 22.5255 4.68889 22.6175 4.90367L27.4752 16.2512C27.6022 16.5477 27.4646 16.891 27.1681 17.0179C26.8719 17.1449 26.5284 17.0074 26.4016 16.7109L22.0806 6.61757L17.7597 16.711C17.6648 16.9324 17.4492 17.0652 17.2225 17.0652Z" fill="#F3F3F3"/>
</g>
<g id="_213092352">
<path id="_533818952" fill-rule="evenodd" clip-rule="evenodd" d="M24.3402 10.9789H19.834C19.5115 10.9789 19.25 10.7174 19.25 10.3949C19.25 10.0723 19.5115 9.81097 19.834 9.81097H24.3402C24.6627 9.81097 24.9242 10.0723 24.9242 10.3949C24.9242 10.7175 24.6626 10.9789 24.3402 10.9789Z" fill="#F3F3F3"/>
</g>
</g>
<g id="_213092304">
<path id="_533819216" fill-rule="evenodd" clip-rule="evenodd" d="M36.3947 33.6917H28.0618C27.8394 33.6917 27.6366 33.5656 27.5382 33.3663C27.4398 33.1669 27.4631 32.9291 27.5982 32.7526L35.5518 22.3718H27.7216C27.3992 22.3718 27.1377 22.1104 27.1377 21.7879C27.1377 21.4653 27.3992 21.2039 27.7216 21.2039H36.7349C36.9573 21.2039 37.1601 21.3301 37.2585 21.5294C37.3569 21.7286 37.3336 21.9666 37.1985 22.143L29.2449 32.5238H36.3948C36.7174 32.5238 36.9787 32.7852 36.9787 33.1078C36.9787 33.4304 36.7172 33.6917 36.3947 33.6917Z" fill="#F3F3F3"/>
</g>
</g>
<defs>
<clipPath id="clip0_1_3994">
<rect width="46" height="46" fill="white" transform="translate(0 0.000778198)"/>
</clipPath>
</defs>
</svg>
