<svg width="1920" height="1080" viewBox="0 0 1920 1080" fill="none" xmlns="http://www.w3.org/2000/svg">
<g clip-path="url(#clip0_2010_1245)">
<rect width="1920" height="1080" fill="white"/>
<g filter="url(#filter0_f_2010_1245)">
<path d="M53.1725 809.452C84.6364 872.294 23.7864 937.786 -24.962 962.194C-73.7103 986.601 -73.8388 917.209 -65.3097 881.608C-68.4647 761.262 -23.8034 692.094 24.945 667.686C73.6933 643.279 21.7087 746.61 53.1725 809.452Z" fill="url(#paint0_linear_2010_1245)" fill-opacity="0.4"/>
</g>
<g filter="url(#filter1_f_2010_1245)">
<path d="M243.538 1734.94C243.538 1822.24 167.977 1893 74.7689 1893C-18.4396 1893 -94 1822.24 -94 1734.94C-94 1647.65 -18.4396 1576.89 74.7689 1576.89C167.977 1576.89 243.538 1647.65 243.538 1734.94Z" fill="#DA282E" fill-opacity="0.14"/>
<path d="M325.013 1488.68C325.013 1575.97 249.452 1646.74 156.244 1646.74C63.0351 1646.74 -12.5253 1575.97 -12.5253 1488.68C-12.5253 1401.39 63.0351 1330.62 156.244 1330.62C249.452 1330.62 325.013 1401.39 325.013 1488.68Z" fill="#DA282E" fill-opacity="0.14"/>
<path d="M362.583 1286.29C362.583 1379.52 219.426 1421.07 126.217 1421.07C33.0089 1421.07 85.9277 1338.68 126.217 1301.52C213.512 1156.89 334.734 1101.37 427.942 1101.37C521.151 1101.37 362.583 1193.07 362.583 1286.29Z" fill="url(#paint1_linear_2010_1245)" fill-opacity="0.4"/>
<path d="M247.086 1511.96C247.086 1605.19 103.929 1646.74 10.7204 1646.74C-82.4881 1646.74 -29.5693 1564.35 10.7204 1527.19C98.0146 1382.56 219.237 1327.04 312.445 1327.04C405.654 1327.04 247.086 1418.73 247.086 1511.96Z" fill="url(#paint2_linear_2010_1245)" fill-opacity="0.4"/>
<path d="M196.948 1718.82C196.948 1812.05 53.7906 1853.6 -39.4179 1853.6C-132.626 1853.6 -79.7076 1771.21 -39.4179 1734.05C47.8764 1589.42 169.099 1533.9 262.307 1533.9C355.516 1533.9 196.948 1625.6 196.948 1718.82Z" fill="url(#paint3_linear_2010_1245)" fill-opacity="0.4"/>
<path d="M586 1057.17C586 1150.4 521.631 1385.82 428.423 1385.82C335.214 1385.82 129.831 1178.61 129.831 1085.38C129.831 992.151 263.495 976.574 356.704 976.574C449.912 976.574 586 963.942 586 1057.17Z" fill="#0072C6" fill-opacity="0.07"/>
</g>
<g filter="url(#filter2_f_2010_1245)">
<path d="M503.087 1608.84C502.549 1681.36 430.901 1739.62 343.056 1738.97C255.211 1738.32 184.435 1679 184.973 1606.48C185.511 1533.97 257.159 1475.71 345.003 1476.36C432.848 1477.01 503.624 1536.32 503.087 1608.84Z" fill="#DA282E" fill-opacity="0.06"/>
<path d="M581.39 1404.83C580.852 1477.35 509.204 1535.61 421.359 1534.95C333.515 1534.3 262.738 1474.99 263.276 1402.47C263.814 1329.95 335.462 1271.69 423.307 1272.35C511.151 1273 581.928 1332.31 581.39 1404.83Z" fill="#DA282E" fill-opacity="0.06"/>
<path d="M618.045 1236.96C617.471 1314.41 482.296 1347.93 394.451 1347.27C306.607 1346.62 356.988 1278.55 395.188 1247.96C478.349 1128.42 592.938 1083.15 680.782 1083.8C768.627 1084.45 618.62 1159.52 618.045 1236.96Z" fill="url(#paint4_linear_2010_1245)" fill-opacity="0.32"/>
<path d="M507.805 1423.63C507.23 1501.08 372.055 1534.59 284.21 1533.94C196.366 1533.29 246.747 1465.21 284.947 1434.62C368.109 1315.09 482.697 1269.81 570.542 1270.46C658.386 1271.11 508.379 1346.18 507.805 1423.63Z" fill="url(#paint5_linear_2010_1245)" fill-opacity="0.32"/>
<path d="M459.277 1595.13C458.703 1672.57 323.528 1706.09 235.683 1705.44C147.838 1704.78 198.219 1636.71 236.42 1606.12C319.581 1486.59 434.17 1441.31 522.014 1441.96C609.859 1442.61 459.852 1517.68 459.277 1595.13Z" fill="url(#paint6_linear_2010_1245)" fill-opacity="0.32"/>
<path d="M830.017 1048.18C829.442 1125.63 767.327 1320.76 679.483 1320.11C591.638 1319.45 399.351 1145.88 399.925 1068.43C400.5 990.982 526.567 978.976 614.412 979.627C702.257 980.278 830.591 970.736 830.017 1048.18Z" fill="#0072C6" fill-opacity="0.06"/>
</g>
<g filter="url(#filter3_f_2010_1245)">
<path d="M462 1024.5C462 1121.98 377.606 1201 273.5 1201C169.394 1201 85 1121.98 85 1024.5C85 927.022 169.394 848 273.5 848C377.606 848 462 927.022 462 1024.5Z" fill="#DA282E" fill-opacity="0.14"/>
</g>
<g filter="url(#filter4_f_2010_1245)">
<path d="M1302.49 1054.75C1367.56 1054.75 1420.32 1110.95 1420.32 1180.26C1420.32 1249.58 1367.56 1305.77 1302.49 1305.77C1237.41 1305.77 1184.65 1249.58 1184.65 1180.26C1184.65 1110.95 1237.41 1054.75 1302.49 1054.75Z" fill="#DA282E" fill-opacity="0.14"/>
<path d="M1785.16 1143.94C1785.16 1211.46 1681.35 1241.56 1613.77 1241.56C1546.18 1241.56 1584.55 1181.88 1613.77 1154.97C1677.07 1050.21 1764.97 1010 1832.56 1010C1900.14 1010 1785.16 1076.41 1785.16 1143.94Z" fill="url(#paint7_linear_2010_1245)" fill-opacity="0.4"/>
<path d="M1366.12 1119.27C1448.97 1067.32 1565.76 1171.3 1617.76 1254.07C1669.76 1336.84 1567.02 1335.76 1511.52 1320.69C1334.29 1323.76 1217.32 1247.05 1165.32 1164.27C1113.32 1081.5 1283.27 1171.22 1366.12 1119.27Z" fill="url(#paint8_linear_2010_1245)" fill-opacity="0.21"/>
<path d="M1850.77 1396.21C1850.77 1485.3 1714.38 1525 1625.58 1525C1536.78 1525 1587.19 1446.27 1625.58 1410.76C1708.74 1272.56 1824.23 1219.5 1913.03 1219.5C2001.84 1219.5 1850.77 1307.12 1850.77 1396.21Z" fill="url(#paint9_linear_2010_1245)" fill-opacity="0.4"/>
<path d="M1627.42 1142.35C1727.57 1142.35 1772.2 1295.34 1772.2 1394.95C1772.2 1494.56 1683.7 1438.01 1643.77 1394.95C1488.41 1301.66 1428.76 1172.11 1428.76 1072.5C1428.76 972.893 1527.27 1142.35 1627.42 1142.35Z" fill="url(#paint10_linear_2010_1245)" fill-opacity="0.28"/>
<path d="M1258.66 1178.02C1358.81 1178.02 1403.44 1331.01 1403.44 1430.62C1403.44 1530.23 1314.93 1473.68 1275.01 1430.62C1119.65 1337.33 1060 1207.79 1060 1108.18C1060 1008.57 1158.51 1178.02 1258.66 1178.02Z" fill="url(#paint11_linear_2010_1245)" fill-opacity="0.28"/>
</g>
<g filter="url(#filter5_f_2010_1245)">
<path d="M2114.31 1085.24C2151.75 1150.7 2043.27 1226.07 1961.78 1256.15C1880.29 1286.23 1893.46 1211.3 1913.76 1172.2C1932 1042.48 2015.68 964.371 2097.17 934.291C2178.67 904.211 2076.86 1019.77 2114.31 1085.24Z" fill="url(#paint12_linear_2010_1245)" fill-opacity="0.27"/>
</g>
</g>
<defs>
<filter id="filter0_f_2010_1245" x="-239.572" y="494.027" width="471.398" height="643.258" filterUnits="userSpaceOnUse" color-interpolation-filters="sRGB">
<feFlood flood-opacity="0" result="BackgroundImageFix"/>
<feBlend mode="normal" in="SourceGraphic" in2="BackgroundImageFix" result="shape"/>
<feGaussianBlur stdDeviation="85" result="effect1_foregroundBlur_2010_1245"/>
</filter>
<filter id="filter1_f_2010_1245" x="-296" y="774" width="1084" height="1321" filterUnits="userSpaceOnUse" color-interpolation-filters="sRGB">
<feFlood flood-opacity="0" result="BackgroundImageFix"/>
<feBlend mode="normal" in="SourceGraphic" in2="BackgroundImageFix" result="shape"/>
<feGaussianBlur stdDeviation="101" result="effect1_foregroundBlur_2010_1245"/>
</filter>
<filter id="filter2_f_2010_1245" x="-17.0303" y="777.555" width="1049.05" height="1163.42" filterUnits="userSpaceOnUse" color-interpolation-filters="sRGB">
<feFlood flood-opacity="0" result="BackgroundImageFix"/>
<feBlend mode="normal" in="SourceGraphic" in2="BackgroundImageFix" result="shape"/>
<feGaussianBlur stdDeviation="101" result="effect1_foregroundBlur_2010_1245"/>
</filter>
<filter id="filter3_f_2010_1245" x="-117" y="646" width="781" height="757" filterUnits="userSpaceOnUse" color-interpolation-filters="sRGB">
<feFlood flood-opacity="0" result="BackgroundImageFix"/>
<feBlend mode="normal" in="SourceGraphic" in2="BackgroundImageFix" result="shape"/>
<feGaussianBlur stdDeviation="101" result="effect1_foregroundBlur_2010_1245"/>
</filter>
<filter id="filter4_f_2010_1245" x="890" y="840" width="1221" height="855" filterUnits="userSpaceOnUse" color-interpolation-filters="sRGB">
<feFlood flood-opacity="0" result="BackgroundImageFix"/>
<feBlend mode="normal" in="SourceGraphic" in2="BackgroundImageFix" result="shape"/>
<feGaussianBlur stdDeviation="85" result="effect1_foregroundBlur_2010_1245"/>
</filter>
<filter id="filter5_f_2010_1245" x="1719.42" y="750.391" width="589.319" height="691.711" filterUnits="userSpaceOnUse" color-interpolation-filters="sRGB">
<feFlood flood-opacity="0" result="BackgroundImageFix"/>
<feBlend mode="normal" in="SourceGraphic" in2="BackgroundImageFix" result="shape"/>
<feGaussianBlur stdDeviation="89.5" result="effect1_foregroundBlur_2010_1245"/>
</filter>
<linearGradient id="paint0_linear_2010_1245" x1="-59.8515" y1="710.143" x2="48.0446" y2="925.641" gradientUnits="userSpaceOnUse">
<stop stop-color="#0072C6"/>
<stop offset="1" stop-color="#0072C6" stop-opacity="0"/>
</linearGradient>
<linearGradient id="paint1_linear_2010_1245" x1="246" y1="976" x2="246" y2="1893" gradientUnits="userSpaceOnUse">
<stop stop-color="#0072C6"/>
<stop offset="1" stop-color="#0072C6" stop-opacity="0"/>
</linearGradient>
<linearGradient id="paint2_linear_2010_1245" x1="246" y1="976" x2="246" y2="1893" gradientUnits="userSpaceOnUse">
<stop stop-color="#0072C6"/>
<stop offset="1" stop-color="#0072C6" stop-opacity="0"/>
</linearGradient>
<linearGradient id="paint3_linear_2010_1245" x1="246" y1="976" x2="246" y2="1893" gradientUnits="userSpaceOnUse">
<stop stop-color="#0072C6"/>
<stop offset="1" stop-color="#0072C6" stop-opacity="0"/>
</linearGradient>
<linearGradient id="paint4_linear_2010_1245" x1="510.083" y1="978.376" x2="504.433" y2="1740.16" gradientUnits="userSpaceOnUse">
<stop stop-color="#0072C6"/>
<stop offset="1" stop-color="#0072C6" stop-opacity="0"/>
</linearGradient>
<linearGradient id="paint5_linear_2010_1245" x1="510.083" y1="978.376" x2="504.433" y2="1740.16" gradientUnits="userSpaceOnUse">
<stop stop-color="#0072C6"/>
<stop offset="1" stop-color="#0072C6" stop-opacity="0"/>
</linearGradient>
<linearGradient id="paint6_linear_2010_1245" x1="510.083" y1="978.376" x2="504.433" y2="1740.16" gradientUnits="userSpaceOnUse">
<stop stop-color="#0072C6"/>
<stop offset="1" stop-color="#0072C6" stop-opacity="0"/>
</linearGradient>
<linearGradient id="paint7_linear_2010_1245" x1="1185.3" y1="1273.99" x2="1185.3" y2="1788.99" gradientUnits="userSpaceOnUse">
<stop stop-color="#0072C6"/>
<stop offset="1" stop-color="#0072C6" stop-opacity="0"/>
</linearGradient>
<linearGradient id="paint8_linear_2010_1245" x1="1185.3" y1="1273.99" x2="1185.3" y2="1788.99" gradientUnits="userSpaceOnUse">
<stop stop-color="#0072C6"/>
<stop offset="1" stop-color="#0072C6" stop-opacity="0"/>
</linearGradient>
<linearGradient id="paint9_linear_2010_1245" x1="1500.5" y1="1010" x2="1500.5" y2="1525" gradientUnits="userSpaceOnUse">
<stop stop-color="#0072C6"/>
<stop offset="1" stop-color="#0072C6" stop-opacity="0"/>
</linearGradient>
<linearGradient id="paint10_linear_2010_1245" x1="1060" y1="1281.45" x2="1403.44" y2="1281.45" gradientUnits="userSpaceOnUse">
<stop stop-color="#0072C6" stop-opacity="0.64"/>
<stop offset="1" stop-color="#0072C6" stop-opacity="0"/>
</linearGradient>
<linearGradient id="paint11_linear_2010_1245" x1="1060" y1="1281.45" x2="1403.44" y2="1281.45" gradientUnits="userSpaceOnUse">
<stop stop-color="#0072C6" stop-opacity="0.64"/>
<stop offset="1" stop-color="#0072C6" stop-opacity="0"/>
</linearGradient>
<linearGradient id="paint12_linear_2010_1245" x1="1955.42" y1="986.614" x2="2043.74" y2="1225.9" gradientUnits="userSpaceOnUse">
<stop stop-color="#0072C6" stop-opacity="0.8"/>
<stop offset="1" stop-color="#0072C6" stop-opacity="0"/>
</linearGradient>
<clipPath id="clip0_2010_1245">
<rect width="1920" height="1080" fill="white"/>
</clipPath>
</defs>
</svg>
