<svg width="1920" height="1080" viewBox="0 0 1920 1080" fill="none" xmlns="http://www.w3.org/2000/svg">
<g clip-path="url(#clip0_2010_1036)">
<rect width="1920" height="1080" fill="#F3F3F3"/>
<g filter="url(#filter0_f_2010_1036)">
<path d="M353.568 310.855C293.771 384.079 198.031 360.288 153.047 323.552C108.062 286.816 186.445 242.964 229.727 229.654C364.621 150.467 458.737 154.636 503.722 191.372C548.707 228.108 413.364 237.632 353.568 310.855Z" fill="url(#paint0_linear_2010_1036)" fill-opacity="0.5"/>
</g>
<g filter="url(#filter1_f_2010_1036)">
<path d="M747.568 289.855C687.771 363.079 592.031 339.288 547.047 302.552C502.062 265.816 580.445 221.964 623.727 208.654C758.621 129.467 852.737 133.636 897.722 170.372C942.707 207.108 807.364 216.632 747.568 289.855Z" fill="url(#paint1_linear_2010_1036)" fill-opacity="0.5"/>
</g>
</g>
<defs>
<filter id="filter0_f_2010_1036" x="-30.4404" y="-3.92188" width="713.156" height="532.465" filterUnits="userSpaceOnUse" color-interpolation-filters="sRGB">
<feFlood flood-opacity="0" result="BackgroundImageFix"/>
<feBlend mode="normal" in="SourceGraphic" in2="BackgroundImageFix" result="shape"/>
<feGaussianBlur stdDeviation="85" result="effect1_foregroundBlur_2010_1036"/>
</filter>
<filter id="filter1_f_2010_1036" x="363.56" y="-24.9219" width="713.156" height="532.465" filterUnits="userSpaceOnUse" color-interpolation-filters="sRGB">
<feFlood flood-opacity="0" result="BackgroundImageFix"/>
<feBlend mode="normal" in="SourceGraphic" in2="BackgroundImageFix" result="shape"/>
<feGaussianBlur stdDeviation="85" result="effect1_foregroundBlur_2010_1036"/>
</filter>
<linearGradient id="paint0_linear_2010_1036" x1="655.882" y1="199.561" x2="22.5749" y2="226.012" gradientUnits="userSpaceOnUse">
<stop stop-color="#FF0303" stop-opacity="0.46"/>
<stop offset="0.689236" stop-color="#FF8C00" stop-opacity="0.56"/>
</linearGradient>
<linearGradient id="paint1_linear_2010_1036" x1="1049.88" y1="178.561" x2="416.575" y2="205.012" gradientUnits="userSpaceOnUse">
<stop stop-color="#FF0303" stop-opacity="0.46"/>
<stop offset="0.689236" stop-color="#FF8C00" stop-opacity="0.56"/>
</linearGradient>
<clipPath id="clip0_2010_1036">
<rect width="1920" height="1080" fill="white"/>
</clipPath>
</defs>
</svg>
