<svg width="2202" height="1326" viewBox="0 0 2202 1326" fill="none" xmlns="http://www.w3.org/2000/svg">
<rect width="1920" height="1157" transform="translate(0 169)" fill="white"/>
<g filter="url(#filter0_f_169_2742)">
<path d="M1302.51 583.812C1169.72 646.796 1024.35 493.161 968.242 374.855C912.129 256.549 1061.34 268.056 1138.53 294.087C1397.08 307.179 1549.15 423.532 1605.26 541.838C1661.37 660.144 1435.3 520.829 1302.51 583.812Z" fill="url(#paint0_linear_169_2742)" fill-opacity="0.31"/>
</g>
<g filter="url(#filter1_f_169_2742)">
<path d="M1553.54 271.302C1787.11 301.456 1949.34 117.285 1965.26 289.303C1981.18 461.322 2038.74 392.579 1869.21 530.646C1753.01 541.485 1379.87 493.814 1363.95 321.795C1348.03 149.777 1437.34 282.141 1553.54 271.302Z" fill="#DA282E" fill-opacity="0.2"/>
</g>
<defs>
<filter id="filter0_f_169_2742" x="785.912" y="106.994" width="998.127" height="661.446" filterUnits="userSpaceOnUse" color-interpolation-filters="sRGB">
<feFlood flood-opacity="0" result="BackgroundImageFix"/>
<feBlend mode="normal" in="SourceGraphic" in2="BackgroundImageFix" result="shape"/>
<feGaussianBlur stdDeviation="85" result="effect1_foregroundBlur_169_2742"/>
</filter>
<filter id="filter1_f_169_2742" x="1148.1" y="0.865662" width="1053.47" height="745.238" filterUnits="userSpaceOnUse" color-interpolation-filters="sRGB">
<feFlood flood-opacity="0" result="BackgroundImageFix"/>
<feBlend mode="normal" in="SourceGraphic" in2="BackgroundImageFix" result="shape"/>
<feGaussianBlur stdDeviation="107" result="effect1_foregroundBlur_169_2742"/>
</filter>
<linearGradient id="paint0_linear_169_2742" x1="1507.65" y1="336.047" x2="1052.28" y2="552.032" gradientUnits="userSpaceOnUse">
<stop stop-color="#0072C6"/>
<stop offset="1" stop-color="#0072C6" stop-opacity="0"/>
</linearGradient>
</defs>
</svg>
