<svg width="40" height="40" viewBox="0 0 40 40" fill="none" xmlns="http://www.w3.org/2000/svg">
<g id="grammar_4041990 1" clip-path="url(#clip0_1_3987)">
<path id="Vector" d="M35.3125 0H4.6875C2.09999 0 0 2.09999 0 4.6875V35.3125C0 37.9 2.09999 40 4.6875 40H35.3125C37.9 40 40 37.9 40 35.3125V4.6875C40 2.09999 37.9 0 35.3125 0ZM10.35 10.2375H6.81251C6.12502 10.2375 5.56251 9.6875 5.56251 8.9875C5.56251 8.30001 6.12502 7.7375 6.81251 7.7375H10.35C12.1125 7.7375 13.55 9.17495 13.55 10.9375V21.8625C13.55 22.55 12.9875 23.1125 12.3 23.1125H9.93751C3.45512 22.6155 4.49539 13.5812 11.0501 14.3626C11.05 14.3625 11.05 10.9375 11.05 10.9375C11.05 10.55 10.7375 10.2375 10.35 10.2375ZM20.1875 14.3625C25.7194 14.5275 25.6431 22.9762 20.1874 23.1125H16.4C15.7125 23.1125 15.15 22.55 15.15 21.8625V9.00001C15.1552 7.36511 17.6529 7.36057 17.65 9.00009C17.65 9.00001 17.65 14.3625 17.65 14.3625H20.1875ZM17.95 30.7375L25.275 23.4C26.4359 22.2492 28.1876 24.0141 27.0374 25.1751C27.0375 25.175 18.825 33.3875 18.825 33.3875C18.3646 33.868 17.5254 33.8597 17.0625 33.3874C17.0625 33.3875 12.9625 29.2875 12.9625 29.2875C12.475 28.8 12.475 28 12.9625 27.5125C13.45 27.025 14.2375 27.025 14.725 27.5125L17.95 30.7375ZM31.1375 20.6125H33.1875C33.875 20.6125 34.4375 21.1625 34.4375 21.8625C34.4375 22.55 33.875 23.1125 33.1875 23.1125H31.1375C23.4395 22.8686 23.4409 11.7053 31.1376 11.4625C31.1375 11.4625 33.1875 11.4625 33.1875 11.4625C33.875 11.4625 34.4375 12.0125 34.4375 12.7125C34.4375 13.4 33.875 13.9625 33.1875 13.9625H31.1375C26.7558 14.08 26.7549 20.4873 31.1375 20.6125Z" fill="#2E4057"/>
<path id="Vector_2" d="M8.06152 18.7354C8.06152 19.7604 8.91151 20.6104 9.93652 20.6104H11.049V16.8604H9.93652C8.91151 16.8604 8.06152 17.6978 8.06152 18.7354Z" fill="#2E4057"/>
<path id="Vector_3" d="M17.6611 20.6104H20.1987C21.1237 20.6104 21.8611 19.7604 21.8611 18.7354C21.8792 17.7835 21.1677 16.8524 20.1987 16.8604C20.1987 16.8604 17.6611 16.8604 17.6611 16.8604L17.6611 20.6104Z" fill="#2E4057"/>
</g>
<defs>
<clipPath id="clip0_1_3987">
<rect width="40" height="40" fill="white"/>
</clipPath>
</defs>
</svg>
