<svg width="1440" height="284" viewBox="0 0 1440 284" fill="none" xmlns="http://www.w3.org/2000/svg">
<g filter="url(#filter0_d_1121_9188)">
<path d="M0 135.5V1V-2H1440.5V162C1440.5 162 1409.09 160.449 1389 159C1348.09 156.049 1325.31 152.582 1284.5 148.5C1241.35 144.184 1217.18 141.554 1174 137.5C1129.7 133.34 1104.87 130.876 1060.5 127.5C1021.87 124.56 961.5 121 961.5 121C961.5 121 871.327 115.518 813.5 113C769.58 111.088 701 109 701 109C701 109 617.798 108.028 564.5 109C514.685 109.909 486.798 111.912 437 113.5C396.779 114.782 374.203 114.754 334 116.5C267.133 119.404 229.767 123.331 163 128C143.668 129.352 132.829 130.102 113.5 131.5C92.409 133.025 80.6302 134.682 59.5 135.5C36.2812 136.399 10.0044 136.896 0 135.5Z" fill="#FFFFFF"/>
</g>
<defs>
<filter id="filter0_d_1121_9188" x="-100" y="-80" width="1640.5" height="364" filterUnits="userSpaceOnUse" color-interpolation-filters="sRGB">
<feFlood flood-opacity="0" result="BackgroundImageFix"/>
<feColorMatrix in="SourceAlpha" type="matrix" values="0 0 0 0 0 0 0 0 0 0 0 0 0 0 0 0 0 0 127 0" result="hardAlpha"/>
<feOffset dy="22"/>
<feGaussianBlur stdDeviation="50"/>
<feComposite in2="hardAlpha" operator="out"/>
<feColorMatrix type="matrix" values="0 0 0 0 0.180392 0 0 0 0 0.25098 0 0 0 0 0.341176 0 0 0 0.2 0"/>
<feBlend mode="normal" in2="BackgroundImageFix" result="effect1_dropShadow_1121_9188"/>
<feBlend mode="normal" in="SourceGraphic" in2="effect1_dropShadow_1121_9188" result="shape"/>
</filter>
</defs>
</svg>
