<svg width="1440" height="1024" viewBox="0 0 1440 1024" fill="none" xmlns="http://www.w3.org/2000/svg">
<path d="M6.00008 -2H1446L1565 63H1529L1552 142C1552 142 1583 179 1332.5 154.5C1082 130 1094 127.5 787 112.5C480 97.5 354 110.594 157.5 128C-39 145.406 -59.5 111.5 -86 111.5C-112.5 111.5 -50.4999 -2 -50.4999 -2H6.00008Z" fill="white"/>
<path d="M49.5 1295.5H1489.5L1608.5 1360.5H1572.5L1586.5 1409C1586.5 1409 1395 1451 1294 1451C1193 1451 1038 1424 731 1409C424 1394 390.5 1411.84 248.5 1424.42C106.5 1437 -16.0001 1409 -42.5001 1409C-69.0001 1409 -7.00007 1295.5 -7.00007 1295.5H49.5Z" fill="white"/>
</svg>
