<svg width="617" height="477" viewBox="0 0 617 477" fill="none" xmlns="http://www.w3.org/2000/svg">
<path d="M461.536 476.488C376.232 476.488 306.817 407.101 306.817 321.833C306.817 287.487 317.84 254.928 338.793 227.729C338.992 227.53 339.29 227.431 339.489 227.63C339.687 227.828 339.786 228.126 339.588 228.325C318.833 255.325 307.81 287.685 307.81 321.833C307.81 406.605 376.728 475.495 461.536 475.495C546.343 475.495 615.261 406.605 615.261 321.833C615.261 237.06 546.343 168.17 461.536 168.17C449.42 168.17 437.305 169.56 425.587 172.339C425.289 172.438 425.09 172.24 424.991 171.942C424.892 171.644 425.09 171.446 425.388 171.346C437.206 168.567 449.321 167.078 461.536 167.078C546.839 167.078 616.254 236.464 616.254 321.733C616.254 407.002 546.839 476.488 461.536 476.488Z" fill="#172E4A"/>
<path d="M112.414 351.414C170.934 351.414 218.374 303.993 218.374 245.497C218.374 187.002 170.934 139.581 112.414 139.581C53.8946 139.581 6.4549 187.002 6.4549 245.497C6.4549 303.993 53.8946 351.414 112.414 351.414Z" fill="#626E7E" fill-opacity="0.41"/>
<path d="M111.421 356.873C49.9509 356.873 0 306.843 0 245.497C0 184.052 49.9509 134.122 111.421 134.122C172.892 134.122 222.942 184.151 222.942 245.497C222.942 306.943 172.892 356.873 111.421 356.873ZM111.421 135.015C50.5467 135.015 0.993059 184.549 0.993059 245.398C0.993059 306.248 50.5467 355.781 111.421 355.781C172.296 355.781 221.949 306.347 221.949 245.497C221.949 184.648 172.395 135.015 111.421 135.015Z" fill="#172E4A"/>
<mask id="mask0_2135_247" style="mask-type:luminance" maskUnits="userSpaceOnUse" x="6" y="139" width="244" height="213">
<path d="M249.754 204.005V256.417H217.877C212.415 309.821 167.33 351.513 112.414 351.513C53.8238 351.513 6.35556 304.064 6.35556 245.497C6.35556 187.03 53.8238 139.581 112.414 139.581C156.208 139.581 193.845 166.184 209.933 204.005H249.754Z" fill="white"/>
</mask>
<g mask="url(#mask0_2135_247)">
<path d="M217.182 375.336C211.72 375.336 207.053 371.267 206.258 365.807C196.725 293.046 165.444 283.715 165.046 283.615C165.245 283.715 165.344 283.715 165.344 283.715L170.012 262.174C171.402 262.472 183.617 265.45 196.626 280.24C212.713 298.505 223.339 326.299 228.106 363.028C228.9 369.083 224.63 374.542 218.672 375.336C218.076 375.336 217.679 375.336 217.182 375.336Z" fill="#4F5659"/>
</g>
<mask id="mask1_2135_247" style="mask-type:luminance" maskUnits="userSpaceOnUse" x="6" y="139" width="244" height="213">
<path d="M249.754 204.005V256.417H217.877C212.415 309.821 167.33 351.513 112.414 351.513C53.8238 351.513 6.35556 304.064 6.35556 245.497C6.35556 187.03 53.8238 139.581 112.414 139.581C156.208 139.581 193.845 166.184 209.933 204.005H249.754Z" fill="white"/>
</mask>
<g mask="url(#mask1_2135_247)">
<path d="M142.107 331.56H90.9642V369.083H142.107V331.56Z" fill="#172E4A"/>
</g>
<mask id="mask2_2135_247" style="mask-type:luminance" maskUnits="userSpaceOnUse" x="6" y="139" width="244" height="213">
<path d="M249.754 204.005V256.417H217.877C212.415 309.821 167.33 351.513 112.414 351.513C53.8238 351.513 6.35556 304.064 6.35556 245.497C6.35556 187.03 53.8238 139.581 112.414 139.581C156.208 139.581 193.845 166.184 209.933 204.005H249.754Z" fill="white"/>
</mask>
<g mask="url(#mask2_2135_247)">
<path d="M179.446 205.494C179.446 209.067 179.148 212.541 178.651 215.916C176.665 229.317 165.146 239.244 151.64 239.244H73.1885C59.9808 239.244 48.4613 229.814 46.2766 216.81C45.6807 213.137 45.3828 209.365 45.3828 205.494C45.3828 168.07 75.3732 147.622 112.414 147.622C116.982 147.622 121.451 147.92 125.721 148.515C156.407 152.982 179.446 172.637 179.446 205.494Z" fill="#F3F3F3"/>
</g>
<mask id="mask3_2135_247" style="mask-type:luminance" maskUnits="userSpaceOnUse" x="6" y="139" width="244" height="213">
<path d="M249.754 204.005V256.417H217.877C212.415 309.821 167.33 351.513 112.414 351.513C53.8238 351.513 6.35556 304.064 6.35556 245.497C6.35556 187.03 53.8238 139.581 112.414 139.581C156.208 139.581 193.845 166.184 209.933 204.005H249.754Z" fill="white"/>
</mask>
<g mask="url(#mask3_2135_247)">
<g opacity="0.36">
<path d="M179.446 205.494C179.446 209.067 179.148 212.541 178.651 215.916C176.665 229.317 165.146 239.244 151.64 239.244H99.9018C86.6941 239.244 75.1746 229.814 72.9899 216.81C72.394 213.137 72.0961 209.365 72.0961 205.494C72.0961 172.637 95.1351 152.982 125.721 148.615C156.407 152.982 179.446 172.637 179.446 205.494Z" fill="#0072C6"/>
</g>
</g>
<mask id="mask4_2135_247" style="mask-type:luminance" maskUnits="userSpaceOnUse" x="6" y="139" width="244" height="213">
<path d="M249.754 204.005V256.417H217.877C212.415 309.821 167.33 351.513 112.414 351.513C53.8238 351.513 6.35556 304.064 6.35556 245.497C6.35556 187.03 53.8238 139.581 112.414 139.581C156.208 139.581 193.845 166.184 209.933 204.005H249.754Z" fill="white"/>
</mask>
<g mask="url(#mask4_2135_247)">
<path d="M53.4266 217.306H50.646C44.0918 217.306 38.7293 211.946 38.7293 205.394V187.626C38.7293 181.074 44.0918 175.714 50.646 175.714H53.4266C59.9808 175.714 65.3433 181.074 65.3433 187.626V205.394C65.3433 211.946 60.0801 217.306 53.4266 217.306ZM50.7453 176.707C44.6877 176.707 39.8217 181.571 39.8217 187.626V205.394C39.8217 211.449 44.6877 216.313 50.7453 216.313H53.5259C59.5836 216.313 64.4495 211.449 64.4495 205.394V187.626C64.4495 181.571 59.5836 176.707 53.5259 176.707H50.7453Z" fill="#172E4A"/>
</g>
<mask id="mask5_2135_247" style="mask-type:luminance" maskUnits="userSpaceOnUse" x="6" y="139" width="244" height="213">
<path d="M249.754 204.005V256.417H217.877C212.415 309.821 167.33 351.513 112.414 351.513C53.8238 351.513 6.35556 304.064 6.35556 245.497C6.35556 187.03 53.8238 139.581 112.414 139.581C156.208 139.581 193.845 166.184 209.933 204.005H249.754Z" fill="white"/>
</mask>
<g mask="url(#mask5_2135_247)">
<path d="M117.777 204.203C123.974 204.203 128.998 198.914 128.998 192.391C128.998 185.867 123.974 180.578 117.777 180.578C111.579 180.578 106.555 185.867 106.555 192.391C106.555 198.914 111.579 204.203 117.777 204.203Z" fill="#172E4A"/>
</g>
<mask id="mask6_2135_247" style="mask-type:luminance" maskUnits="userSpaceOnUse" x="6" y="139" width="244" height="213">
<path d="M249.754 204.005V256.417H217.877C212.415 309.821 167.33 351.513 112.414 351.513C53.8238 351.513 6.35556 304.064 6.35556 245.497C6.35556 187.03 53.8238 139.581 112.414 139.581C156.208 139.581 193.845 166.184 209.933 204.005H249.754Z" fill="white"/>
</mask>
<g mask="url(#mask6_2135_247)">
<path d="M162.663 204.203C168.861 204.203 173.885 198.914 173.885 192.391C173.885 185.867 168.861 180.578 162.663 180.578C156.466 180.578 151.442 185.867 151.442 192.391C151.442 198.914 156.466 204.203 162.663 204.203Z" fill="#172E4A"/>
</g>
<mask id="mask7_2135_247" style="mask-type:luminance" maskUnits="userSpaceOnUse" x="6" y="139" width="244" height="213">
<path d="M249.754 204.005V256.417H217.877C212.415 309.821 167.33 351.513 112.414 351.513C53.8238 351.513 6.35556 304.064 6.35556 245.497C6.35556 187.03 53.8238 139.581 112.414 139.581C156.208 139.581 193.845 166.184 209.933 204.005H249.754Z" fill="white"/>
</mask>
<g mask="url(#mask7_2135_247)">
<path d="M132.474 229.913H65.4426C58.1933 229.913 52.3342 224.056 52.3342 216.81C52.3342 216.512 52.5328 216.313 52.8308 216.313C53.1287 216.313 53.3273 216.512 53.3273 216.81C53.3273 223.461 58.7891 228.92 65.4426 228.92H132.474C132.772 228.92 132.971 229.119 132.971 229.416C132.971 229.714 132.772 229.913 132.474 229.913Z" fill="#172E4A"/>
</g>
<mask id="mask8_2135_247" style="mask-type:luminance" maskUnits="userSpaceOnUse" x="6" y="139" width="244" height="213">
<path d="M249.754 204.005V256.417H217.877C212.415 309.821 167.33 351.513 112.414 351.513C53.8238 351.513 6.35556 304.064 6.35556 245.497C6.35556 187.03 53.8238 139.581 112.414 139.581C156.208 139.581 193.845 166.184 209.933 204.005H249.754Z" fill="white"/>
</mask>
<g mask="url(#mask8_2135_247)">
<path d="M134.559 233.983H113.01C110.329 233.983 108.144 231.799 108.144 229.119V227.928C108.144 225.247 110.329 223.064 113.01 223.064H134.559C137.241 223.064 139.425 225.247 139.425 227.928V229.119C139.425 231.799 137.241 233.983 134.559 233.983Z" fill="#172E4A"/>
</g>
<mask id="mask9_2135_247" style="mask-type:luminance" maskUnits="userSpaceOnUse" x="6" y="139" width="244" height="213">
<path d="M249.754 204.005V256.417H217.877C212.415 309.821 167.33 351.513 112.414 351.513C53.8238 351.513 6.35556 304.064 6.35556 245.497C6.35556 187.03 53.8238 139.581 112.414 139.581C156.208 139.581 193.845 166.184 209.933 204.005H249.754Z" fill="white"/>
</mask>
<g mask="url(#mask9_2135_247)">
<path d="M130.687 250.659H100.696C100.398 250.659 100.2 250.461 100.2 250.163V240.832C100.2 240.534 100.398 240.336 100.696 240.336H130.687C130.985 240.336 131.183 240.534 131.183 240.832V250.064C131.183 250.361 130.985 250.659 130.687 250.659ZM101.193 249.667H130.19V241.428H101.193V249.667Z" fill="#172E4A"/>
</g>
<mask id="mask10_2135_247" style="mask-type:luminance" maskUnits="userSpaceOnUse" x="6" y="139" width="244" height="213">
<path d="M249.754 204.005V256.417H217.877C212.415 309.821 167.33 351.513 112.414 351.513C53.8238 351.513 6.35556 304.064 6.35556 245.497C6.35556 187.03 53.8238 139.581 112.414 139.581C156.208 139.581 193.845 166.184 209.933 204.005H249.754Z" fill="white"/>
</mask>
<g mask="url(#mask10_2135_247)">
<path d="M47.8655 286.792C47.8655 283.218 48.1634 279.744 48.6599 276.369C50.646 262.968 62.1655 253.042 75.6711 253.042H154.123C167.331 253.042 178.85 262.472 181.035 275.476C181.631 279.148 181.928 282.92 181.928 286.792C181.928 324.215 151.938 344.664 114.897 344.664C110.329 344.664 105.86 344.366 101.59 343.77C70.9044 339.402 47.8655 319.649 47.8655 286.792Z" fill="#F3F3F3"/>
</g>
<mask id="mask11_2135_247" style="mask-type:luminance" maskUnits="userSpaceOnUse" x="6" y="139" width="244" height="213">
<path d="M249.754 204.005V256.417H217.877C212.415 309.821 167.33 351.513 112.414 351.513C53.8238 351.513 6.35556 304.064 6.35556 245.497C6.35556 187.03 53.8238 139.581 112.414 139.581C156.208 139.581 193.845 166.184 209.933 204.005H249.754Z" fill="white"/>
</mask>
<g mask="url(#mask11_2135_247)">
<g opacity="0.36">
<path d="M175.176 279.446C175.176 284.806 172.991 289.671 169.416 293.145C165.841 296.619 161.074 298.902 155.712 298.902H102.285C91.5601 298.902 82.8212 290.167 82.8212 279.446C82.8212 274.086 85.0059 269.222 88.5809 265.748C92.1559 262.174 96.9226 259.99 102.285 259.99H155.712C166.437 259.99 175.176 268.726 175.176 279.446Z" fill="#0072C6"/>
</g>
</g>
<mask id="mask12_2135_247" style="mask-type:luminance" maskUnits="userSpaceOnUse" x="6" y="139" width="244" height="213">
<path d="M249.754 204.005V256.417H217.877C212.415 309.821 167.33 351.513 112.414 351.513C53.8238 351.513 6.35556 304.064 6.35556 245.497C6.35556 187.03 53.8238 139.581 112.414 139.581C156.208 139.581 193.845 166.184 209.933 204.005H249.754Z" fill="white"/>
</mask>
<g mask="url(#mask12_2135_247)">
<path d="M85.4031 337.417C85.3038 337.417 85.2045 337.417 85.1052 337.318C78.7496 332.454 75.4725 325.406 73.8836 320.343C71.7982 313.693 71.2023 306.744 70.9044 300.193C70.2093 285.601 70.7058 270.81 72.4933 256.317C72.4933 256.02 72.7912 255.821 73.0892 255.92C73.3871 255.92 73.5857 256.218 73.4864 256.516C71.6989 271.009 71.2023 285.7 71.8975 300.193C72.1954 306.645 72.7912 313.593 74.8767 320.145C76.4656 325.108 79.6433 331.957 85.701 336.623C85.8996 336.821 85.9989 337.119 85.8003 337.318C85.701 337.318 85.5024 337.417 85.4031 337.417Z" fill="#172E4A"/>
</g>
<mask id="mask13_2135_247" style="mask-type:luminance" maskUnits="userSpaceOnUse" x="6" y="139" width="244" height="213">
<path d="M249.754 204.005V256.417H217.877C212.415 309.821 167.33 351.513 112.414 351.513C53.8238 351.513 6.35556 304.064 6.35556 245.497C6.35556 187.03 53.8238 139.581 112.414 139.581C156.208 139.581 193.845 166.184 209.933 204.005H249.754Z" fill="white"/>
</mask>
<g mask="url(#mask13_2135_247)">
<path d="M54.6182 312.899H41.1126C34.2605 312.899 28.6994 307.34 28.6994 300.49V265.053C28.6994 258.203 34.2605 252.645 41.1126 252.645H54.6182C61.4704 252.645 67.0315 258.203 67.0315 265.053V300.49C67.0315 307.34 61.4704 312.899 54.6182 312.899ZM41.1126 253.637C34.8564 253.637 29.6925 258.799 29.6925 265.053V300.49C29.6925 306.744 34.8564 311.906 41.1126 311.906H54.6182C60.8745 311.906 66.0384 306.744 66.0384 300.49V265.053C66.0384 258.799 60.8745 253.637 54.6182 253.637H41.1126Z" fill="#172E4A"/>
</g>
<mask id="mask14_2135_247" style="mask-type:luminance" maskUnits="userSpaceOnUse" x="6" y="139" width="244" height="213">
<path d="M249.754 204.005V256.417H217.877C212.415 309.821 167.33 351.513 112.414 351.513C53.8238 351.513 6.35556 304.064 6.35556 245.497C6.35556 187.03 53.8238 139.581 112.414 139.581C156.208 139.581 193.845 166.184 209.933 204.005H249.754Z" fill="white"/>
</mask>
<g mask="url(#mask14_2135_247)">
<path d="M142.603 208.869H133.467C133.467 208.869 132.474 217.604 142.206 217.604C151.938 217.604 150.746 208.869 150.746 208.869H142.603Z" fill="#F3F3F3"/>
</g>
<mask id="mask15_2135_247" style="mask-type:luminance" maskUnits="userSpaceOnUse" x="6" y="139" width="244" height="213">
<path d="M249.754 204.005V256.417H217.877C212.415 309.821 167.33 351.513 112.414 351.513C53.8238 351.513 6.35556 304.064 6.35556 245.497C6.35556 187.03 53.8238 139.581 112.414 139.581C156.208 139.581 193.845 166.184 209.933 204.005H249.754Z" fill="white"/>
</mask>
<g mask="url(#mask15_2135_247)">
<path d="M212.813 259.99C212.018 267.137 209.734 280.34 202.584 293.641C192.753 311.707 172.097 333.248 128.998 333.248C87.5878 333.248 64.9461 319.252 53.3273 307.538C40.1196 294.237 37.339 280.836 37.0411 279.347L58.6898 275.376C59.3849 278.156 68.4218 311.31 129.098 311.31C155.017 311.31 173.19 301.88 183.319 283.218C188.085 274.483 189.972 265.549 190.767 260.089L212.813 259.99Z" fill="#172E4A"/>
</g>
<mask id="mask16_2135_247" style="mask-type:luminance" maskUnits="userSpaceOnUse" x="6" y="139" width="244" height="213">
<path d="M249.754 204.005V256.417H217.877C212.415 309.821 167.33 351.513 112.414 351.513C53.8238 351.513 6.35556 304.064 6.35556 245.497C6.35556 187.03 53.8238 139.581 112.414 139.581C156.208 139.581 193.845 166.184 209.933 204.005H249.754Z" fill="white"/>
</mask>
<g mask="url(#mask16_2135_247)">
<path d="M215.593 244.902H188.582V257.707H215.593V244.902Z" fill="#F3F3F3"/>
</g>
<mask id="mask17_2135_247" style="mask-type:luminance" maskUnits="userSpaceOnUse" x="6" y="139" width="244" height="213">
<path d="M249.754 204.005V256.417H217.877C212.415 309.821 167.33 351.513 112.414 351.513C53.8238 351.513 6.35556 304.064 6.35556 245.497C6.35556 187.03 53.8238 139.581 112.414 139.581C156.208 139.581 193.845 166.184 209.933 204.005H249.754Z" fill="white"/>
</mask>
<g mask="url(#mask17_2135_247)">
<path d="M211.522 243.016C208.642 243.016 205.663 242.619 202.683 241.626C195.335 239.244 189.277 234.181 185.702 227.332C182.127 220.483 181.432 212.541 183.815 205.196L184.213 203.905C185.305 200.53 188.979 198.545 192.356 199.736C195.732 200.828 197.718 204.501 196.526 207.876L196.129 209.166C194.838 213.236 195.235 217.604 197.222 221.376C199.208 225.148 202.584 228.027 206.656 229.317C215.097 231.997 224.134 227.332 226.815 218.894L227.212 217.604C228.304 214.229 231.979 212.244 235.355 213.435C238.731 214.626 240.718 218.199 239.526 221.575L239.129 222.865C235.355 235.075 223.836 243.016 211.522 243.016Z" fill="#172E4A"/>
</g>
<path d="M369 86C369 133.565 330.438 172 282.716 172C260.997 172 241.2 164.048 226.129 150.942L192 159.925L207.661 128.705C200.422 116.188 196.285 101.61 196.285 86C196.285 38.4349 234.994 0 282.568 0C330.438 0 369 38.4349 369 86Z" fill="#172E4A"/>
</svg>
