<svg width="1920" height="1080" viewBox="0 0 1920 1080" fill="none" xmlns="http://www.w3.org/2000/svg">
<g clip-path="url(#clip0_1691_2424)">
<rect width="1920" height="1080" fill="white"/>
<rect width="1920" height="1080" fill="url(#paint0_linear_1691_2424)"/>
<g opacity="0.28" filter="url(#filter0_f_1691_2424)">
<circle cx="1175.72" cy="682.212" r="32.7241" transform="rotate(-180 1175.72 682.212)" fill="url(#paint1_linear_1691_2424)"/>
</g>
<g filter="url(#filter1_f_1691_2424)">
<path d="M504.969 272.569C504.969 367.634 370.4 410 282.783 410C195.166 410 244.91 325.989 282.783 288.092C364.84 140.616 478.79 84 566.407 84C654.024 84 504.969 177.503 504.969 272.569Z" fill="url(#paint2_linear_1691_2424)" fill-opacity="0.32"/>
<path d="M504.969 272.569C504.969 367.634 370.4 410 282.783 410C195.166 410 244.91 325.989 282.783 288.092C364.84 140.616 478.79 84 566.407 84C654.024 84 504.969 177.503 504.969 272.569Z" fill="url(#paint3_linear_1691_2424)" fill-opacity="0.32"/>
<path d="M706 819.5C706 916.978 621.606 996 517.5 996C413.394 996 329 916.978 329 819.5C329 722.022 413.394 643 517.5 643C621.606 643 706 722.022 706 819.5Z" fill="#DA282E" fill-opacity="0.14"/>
<path d="M290 329.5C290 426.978 205.606 506 101.5 506C-2.60568 506 21 426.978 21 329.5C21 232.022 -2.60568 153 101.5 153C205.606 153 290 232.022 290 329.5Z" fill="#DA282E" fill-opacity="0.14"/>
<path d="M222.044 479.235C222.044 554.471 111.772 588 39.9749 588C-31.8223 588 8.94029 521.513 39.9749 491.521C107.216 374.807 200.592 330 272.389 330C344.187 330 222.044 403.999 222.044 479.235Z" fill="url(#paint4_linear_1691_2424)" fill-opacity="0.5"/>
<path d="M521.044 721.235C521.044 796.471 410.772 830 338.975 830C267.178 830 307.94 763.513 338.975 733.521C406.216 616.807 499.592 572 571.389 572C643.187 572 521.044 645.999 521.044 721.235Z" fill="url(#paint5_linear_1691_2424)" fill-opacity="0.5"/>
</g>
</g>
<defs>
<filter id="filter0_f_1691_2424" x="1093" y="599.488" width="165.448" height="165.448" filterUnits="userSpaceOnUse" color-interpolation-filters="sRGB">
<feFlood flood-opacity="0" result="BackgroundImageFix"/>
<feBlend mode="normal" in="SourceGraphic" in2="BackgroundImageFix" result="shape"/>
<feGaussianBlur stdDeviation="25" result="effect1_foregroundBlur_1691_2424"/>
</filter>
<filter id="filter1_f_1691_2424" x="-170" y="-86" width="1046" height="1252" filterUnits="userSpaceOnUse" color-interpolation-filters="sRGB">
<feFlood flood-opacity="0" result="BackgroundImageFix"/>
<feBlend mode="normal" in="SourceGraphic" in2="BackgroundImageFix" result="shape"/>
<feGaussianBlur stdDeviation="85" result="effect1_foregroundBlur_1691_2424"/>
</filter>
<linearGradient id="paint0_linear_1691_2424" x1="-56.6667" y1="213.012" x2="1968.89" y2="1541.11" gradientUnits="userSpaceOnUse">
<stop stop-color="#172E4A"/>
<stop offset="0.897625" stop-color="#2E4057"/>
</linearGradient>
<linearGradient id="paint1_linear_1691_2424" x1="1108.42" y1="611.186" x2="1267.2" y2="768.857" gradientUnits="userSpaceOnUse">
<stop stop-color="#2E4057"/>
<stop offset="1" stop-color="#6A92C5"/>
</linearGradient>
<linearGradient id="paint2_linear_1691_2424" x1="561.17" y1="135.092" x2="-35.195" y2="754.887" gradientUnits="userSpaceOnUse">
<stop stop-color="#0072C6" stop-opacity="0.64"/>
<stop offset="0.621528" stop-color="#0072C6" stop-opacity="0.242222"/>
<stop offset="1" stop-color="#0072C6" stop-opacity="0"/>
<stop offset="1" stop-color="#FF8C00" stop-opacity="0.46"/>
</linearGradient>
<linearGradient id="paint3_linear_1691_2424" x1="561.17" y1="135.092" x2="-35.195" y2="754.887" gradientUnits="userSpaceOnUse">
<stop stop-color="#0072C6" stop-opacity="0.64"/>
<stop offset="0.621528" stop-color="#0072C6" stop-opacity="0.242222"/>
<stop offset="1" stop-color="#0072C6" stop-opacity="0"/>
<stop offset="1" stop-color="#FF8C00" stop-opacity="0.46"/>
</linearGradient>
<linearGradient id="paint4_linear_1691_2424" x1="446.5" y1="572" x2="446.5" y2="830" gradientUnits="userSpaceOnUse">
<stop stop-color="#0072C6" stop-opacity="0.78"/>
<stop offset="1" stop-color="#0072C6" stop-opacity="0"/>
</linearGradient>
<linearGradient id="paint5_linear_1691_2424" x1="446.5" y1="572" x2="446.5" y2="830" gradientUnits="userSpaceOnUse">
<stop stop-color="#0072C6" stop-opacity="0.78"/>
<stop offset="1" stop-color="#0072C6" stop-opacity="0"/>
</linearGradient>
<clipPath id="clip0_1691_2424">
<rect width="1920" height="1080" fill="white"/>
</clipPath>
</defs>
</svg>
