<svg width="1920" height="1080" viewBox="0 0 1920 1080" fill="none" xmlns="http://www.w3.org/2000/svg">
<g clip-path="url(#clip0_2412_2538)">
<rect width="1920" height="1080" fill="white"/>
<g filter="url(#filter0_f_2412_2538)">
<path d="M378.638 442.883C384.102 476.328 313.102 515.763 220.055 530.963C127.008 546.164 47.1497 531.374 41.686 497.929C36.2223 464.484 107.222 425.049 200.269 409.849C293.316 394.648 373.174 409.438 378.638 442.883Z" fill="#DA282E" fill-opacity="0.14"/>
<path d="M444.557 335.243C450.021 368.688 379.021 408.123 285.974 423.324C192.928 438.524 113.069 423.734 107.605 390.289C102.142 356.844 173.142 317.409 266.188 302.209C359.235 287.008 439.094 301.798 444.557 335.243Z" fill="#DA282E" fill-opacity="0.14"/>
<path d="M469.395 251.575C475.231 287.294 334.922 326.558 241.875 341.759C148.829 356.959 196.499 316.764 234.393 295.955C312.483 226.308 430.02 185.267 523.067 170.066C616.113 154.866 463.56 215.857 469.395 251.575Z" fill="url(#paint0_linear_2412_2538)" fill-opacity="0.4"/>
<path d="M368.224 356.872C374.059 392.591 233.75 431.855 140.704 447.056C47.657 462.256 95.3273 422.061 133.221 401.252C211.311 331.605 328.848 290.564 421.895 275.363C514.941 260.163 362.389 321.153 368.224 356.872Z" fill="url(#paint1_linear_2412_2538)" fill-opacity="0.4"/>
<path d="M331.12 444.305C336.955 480.024 196.647 519.288 103.6 534.489C10.5534 549.689 58.2237 509.494 96.1174 488.685C174.208 419.038 291.744 377.996 384.791 362.796C477.838 347.596 325.285 408.586 331.12 444.305Z" fill="url(#paint2_linear_2412_2538)" fill-opacity="0.4"/>
<path d="M678.083 127.355C683.918 163.074 634.397 263.771 541.35 278.971C448.303 294.171 230.307 248.274 224.472 212.555C218.637 176.836 351.094 149.07 444.141 133.87C537.187 118.669 672.248 91.6362 678.083 127.355Z" fill="#0072C6" fill-opacity="0.07"/>
<path d="M457.15 378.627C462.614 412.072 391.614 451.507 298.567 466.708C205.521 481.908 125.662 467.118 120.199 433.673C114.735 400.228 185.735 360.793 278.782 345.593C371.828 330.392 451.687 345.182 457.15 378.627Z" fill="#DA282E" fill-opacity="0.14"/>
<path d="M523.07 270.988C528.533 304.433 457.533 343.867 364.487 359.068C271.44 374.268 191.582 359.478 186.118 326.033C180.654 292.588 251.654 253.154 344.701 237.953C437.748 222.753 517.606 237.543 523.07 270.988Z" fill="#DA282E" fill-opacity="0.14"/>
<path d="M547.908 187.32C553.743 223.038 413.435 262.303 320.388 277.503C227.341 292.703 275.012 252.508 312.905 231.699C390.996 162.052 508.532 121.011 601.579 105.81C694.626 90.61 542.073 151.601 547.908 187.32Z" fill="url(#paint3_linear_2412_2538)" fill-opacity="0.4"/>
<path d="M446.736 292.616C452.571 328.335 312.263 367.599 219.216 382.8C126.169 398 173.84 357.805 211.733 336.996C289.824 267.349 407.361 226.308 500.407 211.107C593.454 195.907 440.901 256.898 446.736 292.616Z" fill="url(#paint4_linear_2412_2538)" fill-opacity="0.4"/>
<path d="M409.633 380.049C415.468 415.768 275.159 455.032 182.113 470.233C89.0659 485.433 136.736 445.238 174.63 424.429C252.72 354.782 370.257 313.741 463.304 298.54C556.35 283.34 403.797 344.331 409.633 380.049Z" fill="url(#paint5_linear_2412_2538)" fill-opacity="0.4"/>
<path d="M756.596 63.0993C762.431 98.8181 712.909 199.515 619.862 214.715C526.816 229.916 308.82 184.018 302.985 148.299C297.15 112.58 429.606 84.8143 522.653 69.6138C615.7 54.4133 750.761 27.3805 756.596 63.0993Z" fill="#0072C6" fill-opacity="0.07"/>
</g>
</g>
<defs>
<filter id="filter0_f_2412_2538" x="-160.609" y="-156.56" width="1119.67" height="896.403" filterUnits="userSpaceOnUse" color-interpolation-filters="sRGB">
<feFlood flood-opacity="0" result="BackgroundImageFix"/>
<feBlend mode="normal" in="SourceGraphic" in2="BackgroundImageFix" result="shape"/>
<feGaussianBlur stdDeviation="101" result="effect1_foregroundBlur_2412_2538"/>
</filter>
<linearGradient id="paint0_linear_2412_2538" x1="368.758" y1="94.5289" x2="434.337" y2="495.958" gradientUnits="userSpaceOnUse">
<stop stop-color="#0072C6"/>
<stop offset="1" stop-color="#0072C6" stop-opacity="0"/>
</linearGradient>
<linearGradient id="paint1_linear_2412_2538" x1="368.758" y1="94.5289" x2="434.337" y2="495.958" gradientUnits="userSpaceOnUse">
<stop stop-color="#0072C6"/>
<stop offset="1" stop-color="#0072C6" stop-opacity="0"/>
</linearGradient>
<linearGradient id="paint2_linear_2412_2538" x1="368.758" y1="94.5289" x2="434.337" y2="495.958" gradientUnits="userSpaceOnUse">
<stop stop-color="#0072C6"/>
<stop offset="1" stop-color="#0072C6" stop-opacity="0"/>
</linearGradient>
<linearGradient id="paint3_linear_2412_2538" x1="368.758" y1="94.5289" x2="434.337" y2="495.958" gradientUnits="userSpaceOnUse">
<stop stop-color="#0072C6"/>
<stop offset="1" stop-color="#0072C6" stop-opacity="0"/>
</linearGradient>
<linearGradient id="paint4_linear_2412_2538" x1="368.758" y1="94.5289" x2="434.337" y2="495.958" gradientUnits="userSpaceOnUse">
<stop stop-color="#0072C6"/>
<stop offset="1" stop-color="#0072C6" stop-opacity="0"/>
</linearGradient>
<linearGradient id="paint5_linear_2412_2538" x1="368.758" y1="94.5289" x2="434.337" y2="495.958" gradientUnits="userSpaceOnUse">
<stop stop-color="#0072C6"/>
<stop offset="1" stop-color="#0072C6" stop-opacity="0"/>
</linearGradient>
<clipPath id="clip0_2412_2538">
<rect width="1920" height="1080" fill="white"/>
</clipPath>
</defs>
</svg>
