<svg width="69" height="58" viewBox="0 0 69 58" fill="none" xmlns="http://www.w3.org/2000/svg">
<g clip-path="url(#clip0_1_4015)">
<path d="M29.335 22.595L29.4564 22.9925H29.872H43.784L32.4449 31.0526L32.1131 31.2885L32.2341 31.6773L36.5801 45.637L25.1798 37.0327L24.8412 36.7772L24.5028 37.033L13.1242 45.6347L17.4696 31.6773L17.5907 31.2882L17.2584 31.0524L5.90125 22.9925H19.8109H20.2266L20.348 22.595L24.8415 7.88277L29.335 22.595Z" stroke="#2E4057" stroke-width="1.12312"/>
</g>
<g clip-path="url(#clip1_1_4015)">
<path d="M45.6158 24.2342L39.7469 5.01848L33.8779 24.2342H15.5947L30.5208 34.8269L24.845 53.0578L39.7469 41.7926L54.6729 53.0578L48.9971 34.8269L63.899 24.2342H45.6158Z" fill="#2E4057"/>
</g>
<defs>
<clipPath id="clip0_1_4015">
<rect width="49.6844" height="49.4118" fill="white" transform="translate(0 0.192963)"/>
</clipPath>
<clipPath id="clip1_1_4015">
<rect width="57.9651" height="57.6472" fill="white" transform="translate(10.7637 0.214554)"/>
</clipPath>
</defs>
</svg>
