<svg width="76" height="61" viewBox="0 0 76 61" fill="none" xmlns="http://www.w3.org/2000/svg">
<path d="M31.8928 22.244L32.0465 22.7472H32.5726H50.1828L35.8295 32.95L35.4094 33.2485L35.5626 33.7406L41.0639 51.4111L26.6331 40.5197L26.2045 40.1962L25.7762 40.52L11.3729 51.4083L16.8733 33.7406L17.0266 33.2481L16.606 32.9496L2.22987 22.7472H19.8371H20.3632L20.5169 22.244L26.2049 3.62101L31.8928 22.244Z" stroke="#2E4057" stroke-width="1.42168"/>
<path d="M52.4995 24.3237L45.0704 0L37.6413 24.3237H14.498L33.3917 37.7321L26.2072 60.8092L45.0704 46.5495L63.9641 60.8092L56.7796 37.7321L75.6427 24.3237H52.4995Z" fill="#2E4057"/>
</svg>
