<svg width="1067" height="484" viewBox="0 0 1067 484" fill="none" xmlns="http://www.w3.org/2000/svg">
<g filter="url(#filter0_f_839_9070)">
<path d="M615.163 262.086C523.903 372.442 317.246 284.358 209.172 194.986C101.099 105.615 243.105 58.8311 326.2 53.4704C568.988 -34.0261 763.892 16.4832 871.965 105.855C980.038 195.226 706.423 151.729 615.163 262.086Z" fill="url(#paint0_linear_839_9070)" fill-opacity="0.4"/>
<path d="M615.163 262.086C523.903 372.442 317.246 284.358 209.172 194.986C101.099 105.615 243.105 58.8311 326.2 53.4704C568.988 -34.0261 763.892 16.4832 871.965 105.855C980.038 195.226 706.423 151.729 615.163 262.086Z" fill="url(#paint1_linear_839_9070)" fill-opacity="0.4"/>
</g>
<defs>
<filter id="filter0_f_839_9070" x="0.155457" y="-162.002" width="1066.68" height="645.599" filterUnits="userSpaceOnUse" color-interpolation-filters="sRGB">
<feFlood flood-opacity="0" result="BackgroundImageFix"/>
<feBlend mode="normal" in="SourceGraphic" in2="BackgroundImageFix" result="shape"/>
<feGaussianBlur stdDeviation="85" result="effect1_foregroundBlur_839_9070"/>
</filter>
<linearGradient id="paint0_linear_839_9070" x1="797.375" y1="79.8711" x2="281.329" y2="247.58" gradientUnits="userSpaceOnUse">
<stop stop-color="#0072C6" stop-opacity="0.64"/>
<stop offset="0.621528" stop-color="#0072C6" stop-opacity="0.242222"/>
<stop offset="1" stop-color="#0072C6" stop-opacity="0"/>
<stop offset="1" stop-color="#FF8C00" stop-opacity="0.46"/>
</linearGradient>
<linearGradient id="paint1_linear_839_9070" x1="797.375" y1="79.8711" x2="281.329" y2="247.58" gradientUnits="userSpaceOnUse">
<stop stop-color="#0072C6" stop-opacity="0.64"/>
<stop offset="0.621528" stop-color="#0072C6" stop-opacity="0.242222"/>
<stop offset="1" stop-color="#0072C6" stop-opacity="0"/>
<stop offset="1" stop-color="#FF8C00" stop-opacity="0.46"/>
</linearGradient>
</defs>
</svg>
