<svg width="570" height="607" viewBox="0 0 570 607" fill="none" xmlns="http://www.w3.org/2000/svg">
<g filter="url(#filter0_f_505_8059)">
<path d="M310.969 299.569C310.969 394.634 176.4 437 88.7829 437C1.16598 437 50.9102 352.989 88.7829 315.092C170.84 167.616 284.79 111 372.407 111C460.024 111 310.969 204.503 310.969 299.569Z" fill="url(#paint0_linear_505_8059)" fill-opacity="0.4"/>
<path d="M310.969 299.569C310.969 394.634 176.4 437 88.7829 437C1.16598 437 50.9102 352.989 88.7829 315.092C170.84 167.616 284.79 111 372.407 111C460.024 111 310.969 204.503 310.969 299.569Z" fill="url(#paint1_linear_505_8059)" fill-opacity="0.4"/>
</g>
<defs>
<filter id="filter0_f_505_8059" x="-130" y="-59" width="700" height="666" filterUnits="userSpaceOnUse" color-interpolation-filters="sRGB">
<feFlood flood-opacity="0" result="BackgroundImageFix"/>
<feBlend mode="normal" in="SourceGraphic" in2="BackgroundImageFix" result="shape"/>
<feGaussianBlur stdDeviation="85" result="effect1_foregroundBlur_505_8059"/>
</filter>
<linearGradient id="paint0_linear_505_8059" x1="326.149" y1="129.263" x2="128.35" y2="422.511" gradientUnits="userSpaceOnUse">
<stop stop-color="#0072C6" stop-opacity="0.64"/>
<stop offset="0.621528" stop-color="#0072C6" stop-opacity="0.242222"/>
<stop offset="1" stop-color="#0072C6" stop-opacity="0"/>
<stop offset="1" stop-color="#FF8C00" stop-opacity="0.46"/>
</linearGradient>
<linearGradient id="paint1_linear_505_8059" x1="326.149" y1="129.263" x2="128.35" y2="422.511" gradientUnits="userSpaceOnUse">
<stop stop-color="#0072C6" stop-opacity="0.64"/>
<stop offset="0.621528" stop-color="#0072C6" stop-opacity="0.242222"/>
<stop offset="1" stop-color="#0072C6" stop-opacity="0"/>
<stop offset="1" stop-color="#FF8C00" stop-opacity="0.46"/>
</linearGradient>
</defs>
</svg>
