<svg width="56" height="56" viewBox="0 0 56 56" fill="none" xmlns="http://www.w3.org/2000/svg">
<g id="Group 35">
<path id="Vector" d="M17.1262 5.07088C16.2222 3.59239 15.3409 2.14835 14.4584 0.705444C18.6568 2.70852 23.0836 3.94824 27.813 4.79653C23.7497 7.26106 20.0511 9.91613 16.9062 13.2818C17.1513 11.7964 17.3965 10.311 17.6572 8.7338C15.8946 9.49371 14.3676 10.4166 12.947 11.4968C9.04153 14.4664 6.33069 18.2407 4.85629 22.8058C3.72388 26.3138 3.50027 29.8964 4.16632 33.5145C5.02968 38.2082 7.22514 42.2615 10.7216 45.6317C14.3329 49.1121 18.6604 51.3436 23.7353 52.1483C29.9355 53.1297 35.7243 52.0277 40.9451 48.6736C46.7374 44.9521 50.2901 39.7636 51.4464 33.1185C51.9618 30.1558 51.7956 27.2183 51.1391 24.2935C50.894 23.203 51.4453 22.2835 52.4509 22.0643C53.5451 21.8255 54.4371 22.4201 54.7097 23.568C57.527 35.4292 51.6784 47.4867 40.4189 53.0528C35.9407 55.2659 31.1671 56.3048 26.1676 55.9306C15.824 55.1569 8.10882 50.3311 3.18338 41.5544C0.642342 37.0282 -0.29037 32.1301 0.266866 27.0209C1.08478 19.5228 4.60039 13.408 10.7431 8.70052C12.5261 7.33452 14.4692 6.21877 16.5582 5.33604C16.7364 5.26143 16.9086 5.17304 17.1262 5.07088Z" fill="#2E4057"/>
<path id="Vector_2" d="M27.8056 34.7482C29.1066 33.4625 30.3263 32.2573 31.5448 31.052C31.7253 30.874 31.9478 30.7225 32.0841 30.5171C33.1531 28.902 34.7961 28.9777 36.4224 29.2349C40.323 29.8513 42.7206 32.6303 42.723 36.4287C42.7242 38.6097 42.7134 40.7907 42.7325 42.9717C42.7361 43.409 42.6225 43.5697 42.1334 43.5697C32.548 43.5571 22.9626 43.5583 13.3772 43.5686C12.93 43.5686 12.7973 43.4297 12.8009 43.0073C12.8188 40.7689 12.7829 38.5305 12.8152 36.2921C12.8702 32.5431 15.2917 29.8306 19.1457 29.2349C20.0222 29.0994 20.9346 29.1591 21.829 29.1786C22.0263 29.1832 22.2511 29.3692 22.4102 29.5218C24.1692 31.2138 25.9174 32.9162 27.8044 34.7482H27.8056Z" fill="#2E4057"/>
<path id="Vector_3" d="M27.753 28.2335C23.2688 28.214 19.7065 24.7829 19.7257 20.5024C19.7436 16.2127 23.3298 12.7897 27.7924 12.8024C32.2694 12.8138 35.8831 16.3183 35.8305 20.5977C35.7791 24.8552 32.1845 28.253 27.7518 28.2335H27.753Z" fill="#2E4057"/>
</g>
</svg>
