<svg width="21" height="29" viewBox="0 0 21 29" fill="none" xmlns="http://www.w3.org/2000/svg">
<path d="M10.15 0C4.553 0 0 4.553 0 10.15C0 17.7625 10.15 29 10.15 29C10.15 29 20.3 17.7625 20.3 10.15C20.3 4.553 15.747 0 10.15 0ZM10.15 2.9C11.745 2.9 13.05 4.205 13.05 5.8C13.05 7.4095 11.745 8.7 10.15 8.7C8.555 8.7 7.25 7.4095 7.25 5.8C7.25 4.205 8.555 2.9 10.15 2.9ZM10.15 17.4C7.7285 17.4 5.597 16.1675 4.35 14.2825C4.379 12.3685 8.2215 11.31 10.15 11.31C12.0785 11.31 15.921 12.3685 15.95 14.2825C14.703 16.1675 12.5715 17.4 10.15 17.4Z" fill="#2F4057"/>
</svg>
