<svg width="39" height="26" viewBox="0 0 39 26" fill="none" xmlns="http://www.w3.org/2000/svg">
<path d="M32.0656 7.92889L28.7025 4.8125H38.1897V13.6037L34.7311 10.3988L34.3915 10.0841L34.0517 10.3985L22.566 21.0247L15.3973 14.3819L15.0575 14.067L14.7176 14.3819L3.7951 24.5032L1.8838 22.7321L15.0577 10.5082L22.2259 17.1505L22.5657 17.4654L22.9056 17.1505L32.0656 8.66239L32.4614 8.29564L32.0656 7.92889Z" stroke="#2E4057"/>
<path d="M26.7838 0.734375L31.0822 4.71752L21.9222 13.2056L14.4139 6.24816L0.504883 19.1542L3.15154 21.6067L14.4139 11.1706L21.9222 18.128L33.7477 7.18741L38.0461 11.1706V0.734375H26.7838Z" fill="#DA282E"/>
</svg>
