<svg width="50" height="50" viewBox="0 0 50 50" fill="none" xmlns="http://www.w3.org/2000/svg">
<path d="M25 0C11.2 0 0 11.2 0 25C0 38.8 11.2 50 25 50C38.8 50 50 38.8 50 25C50 11.2 38.8 0 25 0ZM27.5 42.5H22.5V37.5H27.5V42.5ZM32.675 23.125L30.425 25.425C28.625 27.25 27.5 28.75 27.5 32.5H22.5V31.25C22.5 28.5 23.625 26 25.425 24.175L28.525 21.025C29.45 20.125 30 18.875 30 17.5C30 14.75 27.75 12.5 25 12.5C22.25 12.5 20 14.75 20 17.5H15C15 11.975 19.475 7.5 25 7.5C30.525 7.5 35 11.975 35 17.5C35 19.7 34.1 21.7 32.675 23.125Z" fill="#2E4057"/>
</svg>
