<svg width="126" height="19" viewBox="0 0 126 19" fill="none" xmlns="http://www.w3.org/2000/svg">
<path d="M6.49219 13.4883L10.1953 0.9375H11.3555L10.418 4.66406L6.46875 18H5.35547L6.49219 13.4883ZM2.19141 0.9375L5.30859 13.3711L6.24609 18H5.08594L0.714844 0.9375H2.19141ZM16.3477 13.3711L19.418 0.9375H20.8945L16.5352 18H15.375L16.3477 13.3711ZM11.4844 0.9375L15.1406 13.4883L16.2656 18H15.1523L11.2852 4.66406L10.3359 0.9375H11.4844ZM24.4922 7.41797V18H23.0977V5.32031H24.457L24.4922 7.41797ZM28.9805 5.22656L28.9453 6.51562C28.7891 6.49219 28.6367 6.47266 28.4883 6.45703C28.3398 6.44141 28.1797 6.43359 28.0078 6.43359C27.3984 6.43359 26.8633 6.54688 26.4023 6.77344C25.9492 6.99219 25.5664 7.30078 25.2539 7.69922C24.9414 8.08984 24.7031 8.55078 24.5391 9.08203C24.375 9.60547 24.2812 10.168 24.2578 10.7695L23.7422 10.9688C23.7422 10.1406 23.8281 9.37109 24 8.66016C24.1719 7.94922 24.4336 7.32812 24.7852 6.79688C25.1445 6.25781 25.5938 5.83984 26.1328 5.54297C26.6797 5.23828 27.3203 5.08594 28.0547 5.08594C28.2344 5.08594 28.4102 5.10156 28.582 5.13281C28.7617 5.15625 28.8945 5.1875 28.9805 5.22656ZM32.7422 5.32031V18H31.3477V5.32031H32.7422ZM31.1016 1.65234C31.1016 1.38672 31.1836 1.16406 31.3477 0.984375C31.5195 0.796875 31.7539 0.703125 32.0508 0.703125C32.3477 0.703125 32.582 0.796875 32.7539 0.984375C32.9336 1.16406 33.0234 1.38672 33.0234 1.65234C33.0234 1.91016 32.9336 2.13281 32.7539 2.32031C32.582 2.5 32.3477 2.58984 32.0508 2.58984C31.7539 2.58984 31.5195 2.5 31.3477 2.32031C31.1836 2.13281 31.1016 1.91016 31.1016 1.65234ZM41.3672 5.32031V6.46875H35.0156V5.32031H41.3672ZM37.3477 2.0625H38.7422V14.918C38.7422 15.5039 38.8203 15.9453 38.9766 16.2422C39.1328 16.5391 39.3359 16.7383 39.5859 16.8398C39.8359 16.9414 40.1055 16.9922 40.3945 16.9922C40.6055 16.9922 40.8086 16.9805 41.0039 16.957C41.1992 16.9258 41.375 16.8945 41.5312 16.8633L41.5898 18.0469C41.418 18.1016 41.1953 18.1445 40.9219 18.1758C40.6484 18.2148 40.375 18.2344 40.1016 18.2344C39.5625 18.2344 39.0859 18.1367 38.6719 17.9414C38.2578 17.7383 37.9336 17.3945 37.6992 16.9102C37.4648 16.418 37.3477 15.75 37.3477 14.9062V2.0625ZM49.207 18.2344C48.3789 18.2344 47.6172 18.082 46.9219 17.7773C46.2344 17.4727 45.6328 17.043 45.1172 16.4883C44.6094 15.9336 44.2148 15.2773 43.9336 14.5195C43.6602 13.7539 43.5234 12.918 43.5234 12.0117V11.5078C43.5234 10.5312 43.668 9.64844 43.957 8.85938C44.2461 8.07031 44.6445 7.39453 45.1523 6.83203C45.6602 6.26953 46.2383 5.83984 46.8867 5.54297C47.543 5.23828 48.2305 5.08594 48.9492 5.08594C49.7539 5.08594 50.4688 5.23047 51.0938 5.51953C51.7188 5.80078 52.2422 6.20312 52.6641 6.72656C53.0938 7.24219 53.418 7.85547 53.6367 8.56641C53.8555 9.26953 53.9648 10.0469 53.9648 10.8984V11.7539H44.3672V10.5586H52.5703V10.3945C52.5547 9.68359 52.4102 9.01953 52.1367 8.40234C51.8711 7.77734 51.4727 7.26953 50.9414 6.87891C50.4102 6.48828 49.7461 6.29297 48.9492 6.29297C48.3555 6.29297 47.8086 6.41797 47.3086 6.66797C46.8164 6.91797 46.3906 7.27734 46.0312 7.74609C45.6797 8.20703 45.4062 8.75781 45.2109 9.39844C45.0234 10.0312 44.9297 10.7344 44.9297 11.5078V12.0117C44.9297 12.7148 45.0312 13.3711 45.2344 13.9805C45.4453 14.582 45.7422 15.1133 46.125 15.5742C46.5156 16.0352 46.9766 16.3945 47.5078 16.6523C48.0391 16.9102 48.625 17.0391 49.2656 17.0391C50.0156 17.0391 50.6797 16.9023 51.2578 16.6289C51.8359 16.3477 52.3555 15.9062 52.8164 15.3047L53.6953 15.9844C53.4219 16.3906 53.0781 16.7656 52.6641 17.1094C52.2578 17.4531 51.7695 17.7266 51.1992 17.9297C50.6289 18.1328 49.9648 18.2344 49.207 18.2344ZM61.3828 13.4883L65.0859 0.9375H66.2461L65.3086 4.66406L61.3594 18H60.2461L61.3828 13.4883ZM57.082 0.9375L60.1992 13.3711L61.1367 18H59.9766L55.6055 0.9375H57.082ZM71.2383 13.3711L74.3086 0.9375H75.7852L71.4258 18H70.2656L71.2383 13.3711ZM66.375 0.9375L70.0312 13.4883L71.1562 18H70.043L66.1758 4.66406L65.2266 0.9375H66.375ZM79.8047 5.32031V18H78.4102V5.32031H79.8047ZM78.1641 1.65234C78.1641 1.38672 78.2461 1.16406 78.4102 0.984375C78.582 0.796875 78.8164 0.703125 79.1133 0.703125C79.4102 0.703125 79.6445 0.796875 79.8164 0.984375C79.9961 1.16406 80.0859 1.38672 80.0859 1.65234C80.0859 1.91016 79.9961 2.13281 79.8164 2.32031C79.6445 2.5 79.4102 2.58984 79.1133 2.58984C78.8164 2.58984 78.582 2.5 78.4102 2.32031C78.2461 2.13281 78.1641 1.91016 78.1641 1.65234ZM91.2305 14.7656C91.2305 14.4219 91.1445 14.082 90.9727 13.7461C90.8008 13.4102 90.4688 13.1016 89.9766 12.8203C89.4922 12.5391 88.7773 12.3008 87.832 12.1055C87.1289 11.9492 86.5 11.7734 85.9453 11.5781C85.3984 11.3828 84.9375 11.1484 84.5625 10.875C84.1875 10.6016 83.9023 10.2734 83.707 9.89062C83.5117 9.50781 83.4141 9.05469 83.4141 8.53125C83.4141 8.0625 83.5156 7.62109 83.7188 7.20703C83.9297 6.78516 84.2266 6.41797 84.6094 6.10547C85 5.78516 85.4688 5.53516 86.0156 5.35547C86.5703 5.17578 87.1914 5.08594 87.8789 5.08594C88.8555 5.08594 89.6914 5.25391 90.3867 5.58984C91.0898 5.91797 91.625 6.36719 91.9922 6.9375C92.3672 7.50781 92.5547 8.15234 92.5547 8.87109H91.1602C91.1602 8.43359 91.0312 8.01953 90.7734 7.62891C90.5234 7.23828 90.1523 6.91797 89.6602 6.66797C89.1758 6.41797 88.582 6.29297 87.8789 6.29297C87.1523 6.29297 86.5625 6.40234 86.1094 6.62109C85.6562 6.83984 85.3242 7.11719 85.1133 7.45312C84.9102 7.78906 84.8086 8.13672 84.8086 8.49609C84.8086 8.77734 84.8516 9.03516 84.9375 9.26953C85.0312 9.49609 85.1953 9.70703 85.4297 9.90234C85.6719 10.0977 86.0156 10.2812 86.4609 10.4531C86.9062 10.625 87.4844 10.793 88.1953 10.957C89.2188 11.1836 90.0547 11.4609 90.7031 11.7891C91.3594 12.1094 91.8438 12.5078 92.1562 12.9844C92.4688 13.4531 92.625 14.0234 92.625 14.6953C92.625 15.2188 92.5156 15.6992 92.2969 16.1367C92.0781 16.5664 91.7617 16.9375 91.3477 17.25C90.9414 17.5625 90.4492 17.8047 89.8711 17.9766C89.3008 18.1484 88.6602 18.2344 87.9492 18.2344C86.8789 18.2344 85.9727 18.0586 85.2305 17.707C84.4961 17.3477 83.9375 16.8789 83.5547 16.3008C83.1797 15.7148 82.9922 15.0938 82.9922 14.4375H84.3867C84.4336 15.0938 84.6406 15.6133 85.0078 15.9961C85.375 16.3711 85.8242 16.6367 86.3555 16.793C86.8945 16.9492 87.4258 17.0273 87.9492 17.0273C88.668 17.0273 89.2695 16.9219 89.7539 16.7109C90.2383 16.5 90.6055 16.2227 90.8555 15.8789C91.1055 15.5352 91.2305 15.1641 91.2305 14.7656ZM100.699 18.2344C99.8711 18.2344 99.1094 18.082 98.4141 17.7773C97.7266 17.4727 97.125 17.043 96.6094 16.4883C96.1016 15.9336 95.707 15.2773 95.4258 14.5195C95.1523 13.7539 95.0156 12.918 95.0156 12.0117V11.5078C95.0156 10.5312 95.1602 9.64844 95.4492 8.85938C95.7383 8.07031 96.1367 7.39453 96.6445 6.83203C97.1523 6.26953 97.7305 5.83984 98.3789 5.54297C99.0352 5.23828 99.7227 5.08594 100.441 5.08594C101.246 5.08594 101.961 5.23047 102.586 5.51953C103.211 5.80078 103.734 6.20312 104.156 6.72656C104.586 7.24219 104.91 7.85547 105.129 8.56641C105.348 9.26953 105.457 10.0469 105.457 10.8984V11.7539H95.8594V10.5586H104.062V10.3945C104.047 9.68359 103.902 9.01953 103.629 8.40234C103.363 7.77734 102.965 7.26953 102.434 6.87891C101.902 6.48828 101.238 6.29297 100.441 6.29297C99.8477 6.29297 99.3008 6.41797 98.8008 6.66797C98.3086 6.91797 97.8828 7.27734 97.5234 7.74609C97.1719 8.20703 96.8984 8.75781 96.7031 9.39844C96.5156 10.0312 96.4219 10.7344 96.4219 11.5078V12.0117C96.4219 12.7148 96.5234 13.3711 96.7266 13.9805C96.9375 14.582 97.2344 15.1133 97.6172 15.5742C98.0078 16.0352 98.4688 16.3945 99 16.6523C99.5312 16.9102 100.117 17.0391 100.758 17.0391C101.508 17.0391 102.172 16.9023 102.75 16.6289C103.328 16.3477 103.848 15.9062 104.309 15.3047L105.188 15.9844C104.914 16.3906 104.57 16.7656 104.156 17.1094C103.75 17.4531 103.262 17.7266 102.691 17.9297C102.121 18.1328 101.457 18.2344 100.699 18.2344ZM114.152 1.95703L108.246 18H106.746L113.191 0.9375H114.234L114.152 1.95703ZM119.52 18L113.602 1.95703L113.52 0.9375H114.562L121.02 18H119.52ZM118.465 11.9766V13.2188H109.406V11.9766H118.465ZM125.309 0.9375V18H123.867V0.9375H125.309Z" fill="white"/>
</svg>
