<svg width="239" height="57" viewBox="0 0 239 57" fill="none" xmlns="http://www.w3.org/2000/svg">
<path d="M71.5156 35.3906L76.0469 16.25H78.5781L79.1562 19.4375L74.3281 39H71.6094L71.5156 35.3906ZM69.1875 16.25L72.9375 35.3906L72.625 39H69.5938L64.5469 16.25H69.1875ZM83.1406 35.3125L86.8438 16.25H91.4844L86.4531 39H83.4219L83.1406 35.3125ZM80 16.25L84.5625 35.4688L84.4375 39H81.7188L76.8594 19.4219L77.4844 16.25H80ZM97.9062 25.7812V39H93.4062V22.0938H97.6406L97.9062 25.7812ZM103 21.9844L102.922 26.1562C102.703 26.125 102.438 26.099 102.125 26.0781C101.823 26.0469 101.547 26.0312 101.297 26.0312C100.661 26.0312 100.109 26.1146 99.6406 26.2812C99.1823 26.4375 98.7969 26.6719 98.4844 26.9844C98.1823 27.2969 97.9531 27.6771 97.7969 28.125C97.651 28.5729 97.5677 29.0833 97.5469 29.6562L96.6406 29.375C96.6406 28.2812 96.75 27.276 96.9688 26.3594C97.1875 25.4323 97.5052 24.625 97.9219 23.9375C98.349 23.25 98.8698 22.7188 99.4844 22.3438C100.099 21.9688 100.802 21.7812 101.594 21.7812C101.844 21.7812 102.099 21.8021 102.359 21.8438C102.62 21.875 102.833 21.9219 103 21.9844ZM109.875 22.0938V39H105.359V22.0938H109.875ZM105.078 17.6875C105.078 17.0312 105.307 16.4896 105.766 16.0625C106.224 15.6354 106.839 15.4219 107.609 15.4219C108.37 15.4219 108.979 15.6354 109.438 16.0625C109.906 16.4896 110.141 17.0312 110.141 17.6875C110.141 18.3438 109.906 18.8854 109.438 19.3125C108.979 19.7396 108.37 19.9531 107.609 19.9531C106.839 19.9531 106.224 19.7396 105.766 19.3125C105.307 18.8854 105.078 18.3438 105.078 17.6875ZM121.875 22.0938V25.2812H112.031V22.0938H121.875ZM114.469 17.9219H118.969V33.9062C118.969 34.3958 119.031 34.7708 119.156 35.0312C119.292 35.2917 119.49 35.474 119.75 35.5781C120.01 35.6719 120.339 35.7188 120.734 35.7188C121.016 35.7188 121.266 35.7083 121.484 35.6875C121.714 35.6562 121.906 35.625 122.062 35.5938L122.078 38.9062C121.693 39.0312 121.276 39.1302 120.828 39.2031C120.38 39.276 119.885 39.3125 119.344 39.3125C118.354 39.3125 117.49 39.151 116.75 38.8281C116.021 38.4948 115.458 37.9635 115.062 37.2344C114.667 36.5052 114.469 35.5469 114.469 34.3594V17.9219ZM132.219 39.3125C130.906 39.3125 129.729 39.1042 128.688 38.6875C127.646 38.2604 126.76 37.6719 126.031 36.9219C125.312 36.1719 124.76 35.3021 124.375 34.3125C123.99 33.3125 123.797 32.25 123.797 31.125V30.5C123.797 29.2188 123.979 28.0469 124.344 26.9844C124.708 25.9219 125.229 25 125.906 24.2188C126.594 23.4375 127.427 22.8385 128.406 22.4219C129.385 21.9948 130.49 21.7812 131.719 21.7812C132.917 21.7812 133.979 21.9792 134.906 22.375C135.833 22.7708 136.609 23.3333 137.234 24.0625C137.87 24.7917 138.349 25.6667 138.672 26.6875C138.995 27.6979 139.156 28.8229 139.156 30.0625V31.9375H125.719V28.9375H134.734V28.5938C134.734 27.9688 134.62 27.4115 134.391 26.9219C134.172 26.4219 133.839 26.026 133.391 25.7344C132.943 25.4427 132.37 25.2969 131.672 25.2969C131.078 25.2969 130.568 25.4271 130.141 25.6875C129.714 25.9479 129.365 26.3125 129.094 26.7812C128.833 27.25 128.635 27.8021 128.5 28.4375C128.375 29.0625 128.312 29.75 128.312 30.5V31.125C128.312 31.8021 128.406 32.4271 128.594 33C128.792 33.5729 129.068 34.0677 129.422 34.4844C129.786 34.901 130.224 35.224 130.734 35.4531C131.255 35.6823 131.844 35.7969 132.5 35.7969C133.312 35.7969 134.068 35.6406 134.766 35.3281C135.474 35.0052 136.083 34.5208 136.594 33.875L138.781 36.25C138.427 36.7604 137.943 37.25 137.328 37.7188C136.724 38.1875 135.995 38.5729 135.141 38.875C134.286 39.1667 133.312 39.3125 132.219 39.3125ZM147.484 35.3906L152.016 16.25H154.547L155.125 19.4375L150.297 39H147.578L147.484 35.3906ZM145.156 16.25L148.906 35.3906L148.594 39H145.562L140.516 16.25H145.156ZM159.109 35.3125L162.812 16.25H167.453L162.422 39H159.391L159.109 35.3125ZM155.969 16.25L160.531 35.4688L160.406 39H157.688L152.828 19.4219L153.453 16.25H155.969ZM174.469 22.0938V39H169.953V22.0938H174.469ZM169.672 17.6875C169.672 17.0312 169.901 16.4896 170.359 16.0625C170.818 15.6354 171.432 15.4219 172.203 15.4219C172.964 15.4219 173.573 15.6354 174.031 16.0625C174.5 16.4896 174.734 17.0312 174.734 17.6875C174.734 18.3438 174.5 18.8854 174.031 19.3125C173.573 19.7396 172.964 19.9531 172.203 19.9531C171.432 19.9531 170.818 19.7396 170.359 19.3125C169.901 18.8854 169.672 18.3438 169.672 17.6875ZM187.328 34.3281C187.328 34.0052 187.234 33.7135 187.047 33.4531C186.859 33.1927 186.51 32.9531 186 32.7344C185.5 32.5052 184.776 32.2969 183.828 32.1094C182.974 31.9219 182.177 31.6875 181.438 31.4062C180.708 31.1146 180.073 30.7656 179.531 30.3594C179 29.9531 178.583 29.474 178.281 28.9219C177.979 28.3594 177.828 27.7188 177.828 27C177.828 26.2917 177.979 25.625 178.281 25C178.594 24.375 179.036 23.8229 179.609 23.3438C180.193 22.8542 180.901 22.474 181.734 22.2031C182.578 21.9219 183.526 21.7812 184.578 21.7812C186.047 21.7812 187.307 22.0156 188.359 22.4844C189.422 22.9531 190.234 23.599 190.797 24.4219C191.37 25.2344 191.656 26.1615 191.656 27.2031H187.156C187.156 26.7656 187.062 26.375 186.875 26.0312C186.698 25.6771 186.417 25.401 186.031 25.2031C185.656 24.9948 185.167 24.8906 184.562 24.8906C184.062 24.8906 183.63 24.9792 183.266 25.1562C182.901 25.3229 182.62 25.5521 182.422 25.8438C182.234 26.125 182.141 26.4375 182.141 26.7812C182.141 27.0417 182.193 27.276 182.297 27.4844C182.411 27.6823 182.594 27.8646 182.844 28.0312C183.094 28.1979 183.417 28.3542 183.812 28.5C184.219 28.6354 184.719 28.7604 185.312 28.875C186.531 29.125 187.62 29.4531 188.578 29.8594C189.536 30.2552 190.297 30.7969 190.859 31.4844C191.422 32.1615 191.703 33.0521 191.703 34.1562C191.703 34.9062 191.536 35.5938 191.203 36.2188C190.87 36.8438 190.391 37.3906 189.766 37.8594C189.141 38.3177 188.391 38.6771 187.516 38.9375C186.651 39.1875 185.677 39.3125 184.594 39.3125C183.021 39.3125 181.688 39.0312 180.594 38.4688C179.51 37.9062 178.688 37.1927 178.125 36.3281C177.573 35.4531 177.297 34.5573 177.297 33.6406H181.562C181.583 34.2552 181.74 34.75 182.031 35.125C182.333 35.5 182.714 35.7708 183.172 35.9375C183.641 36.1042 184.146 36.1875 184.688 36.1875C185.271 36.1875 185.755 36.1094 186.141 35.9531C186.526 35.7865 186.818 35.5677 187.016 35.2969C187.224 35.0156 187.328 34.6927 187.328 34.3281ZM202.406 39.3125C201.094 39.3125 199.917 39.1042 198.875 38.6875C197.833 38.2604 196.948 37.6719 196.219 36.9219C195.5 36.1719 194.948 35.3021 194.562 34.3125C194.177 33.3125 193.984 32.25 193.984 31.125V30.5C193.984 29.2188 194.167 28.0469 194.531 26.9844C194.896 25.9219 195.417 25 196.094 24.2188C196.781 23.4375 197.615 22.8385 198.594 22.4219C199.573 21.9948 200.677 21.7812 201.906 21.7812C203.104 21.7812 204.167 21.9792 205.094 22.375C206.021 22.7708 206.797 23.3333 207.422 24.0625C208.057 24.7917 208.536 25.6667 208.859 26.6875C209.182 27.6979 209.344 28.8229 209.344 30.0625V31.9375H195.906V28.9375H204.922V28.5938C204.922 27.9688 204.807 27.4115 204.578 26.9219C204.359 26.4219 204.026 26.026 203.578 25.7344C203.13 25.4427 202.557 25.2969 201.859 25.2969C201.266 25.2969 200.755 25.4271 200.328 25.6875C199.901 25.9479 199.552 26.3125 199.281 26.7812C199.021 27.25 198.823 27.8021 198.688 28.4375C198.562 29.0625 198.5 29.75 198.5 30.5V31.125C198.5 31.8021 198.594 32.4271 198.781 33C198.979 33.5729 199.255 34.0677 199.609 34.4844C199.974 34.901 200.411 35.224 200.922 35.4531C201.443 35.6823 202.031 35.7969 202.688 35.7969C203.5 35.7969 204.255 35.6406 204.953 35.3281C205.661 35.0052 206.271 34.5208 206.781 33.875L208.969 36.25C208.615 36.7604 208.13 37.25 207.516 37.7188C206.911 38.1875 206.182 38.5729 205.328 38.875C204.474 39.1667 203.5 39.3125 202.406 39.3125ZM221.438 20.1406L215.25 39H210.266L218.719 16.25H221.891L221.438 20.1406ZM226.578 39L220.375 20.1406L219.875 16.25H223.078L231.578 39H226.578ZM226.297 30.5312V34.2031H214.281V30.5312H226.297ZM238.672 16.25V39H234V16.25H238.672Z" fill="#F3F3F3"/>
<path d="M22.7476 25.0287C22.3992 25.9242 22.1105 26.7367 21.782 27.54C19.9902 31.8885 18.1885 36.2279 16.3868 40.5672C15.471 42.7738 13.092 44.0664 10.6632 43.6786C8.57277 43.3462 7 41.6382 7 39.6624C7 35.4154 7.01991 31.1684 7.01991 26.9214C7.02986 23.0991 7.01991 19.2767 7.03982 15.4452C7.04977 13.9033 8.22437 12.5923 9.8469 12.2507C11.7382 11.8445 13.52 12.897 14.1372 14.7528C15.0131 17.3656 15.8991 19.9784 16.785 22.5913C17.1633 23.6992 17.5415 24.8071 17.9098 25.9243C17.9596 26.0627 17.9596 26.2474 17.8999 26.3859C17.3623 27.7246 16.8049 29.0541 16.2475 30.3836C16.1977 30.5129 16.1081 30.6329 15.9887 30.8452C15.8991 30.6052 15.8493 30.4759 15.8095 30.3467C14.4756 26.2012 13.1417 22.0558 11.8079 17.9195C11.569 17.1717 11.3102 16.4239 11.0613 15.6853C10.9817 15.436 10.8722 15.1775 10.5138 15.2421C10.1953 15.2975 10.1754 15.556 10.1754 15.8053C10.1853 19.9692 10.1953 24.1424 10.1953 28.3063C10.1953 31.9624 10.1853 35.6093 10.1754 39.2654C10.1754 39.7363 10.2849 40.161 10.693 40.4749C11.3998 41.0196 12.6241 40.798 13.092 39.9856C13.4603 39.33 13.729 38.6284 14.0078 37.9359C15.1326 35.24 16.2574 32.5348 17.3723 29.8297C17.9695 28.3709 18.5568 26.9121 19.1242 25.4442C19.2437 25.1395 19.4029 25.0102 19.7713 25.0195C20.7269 25.0471 21.6825 25.0287 22.7476 25.0287Z" fill="url(#paint0_linear_845_1327)"/>
<path d="M39.0285 37.2432C38.7399 38.028 38.4711 38.822 38.1625 39.5976C37.8042 40.5024 37.5055 41.4441 37.0078 42.275C35.8133 44.2785 33.2352 43.7892 32.18 42.552C31.6126 41.8873 31.3837 41.0932 31.105 40.3177C30.3883 38.3142 29.6915 36.2923 28.9947 34.2796C28.7856 33.6702 28.5965 33.0516 28.2879 32.4238C28.0988 32.9131 27.9097 33.4025 27.7305 33.901C26.755 36.5508 25.8093 39.219 24.804 41.8596C24.3361 43.0783 23.3506 43.6692 22.0765 43.6415C20.892 43.6138 19.8866 42.8844 19.4585 41.7303C19.1301 40.8255 18.8215 39.9207 18.5229 39.0067C18.483 38.8866 18.4731 38.7389 18.5129 38.6281C19.0405 37.2986 19.578 35.9784 20.1155 34.6581C20.1454 34.5935 20.2051 34.5288 20.3246 34.3627C20.9417 36.1169 21.529 37.7787 22.1462 39.5329C22.2457 39.2837 22.3154 39.1082 22.3751 38.942C23.2511 36.5231 24.137 34.1041 25.003 31.6852C25.3714 30.6696 25.879 29.7925 27.0038 29.2847C28.3576 28.6661 30.5077 29.3678 31.095 30.725C31.4633 31.5836 31.752 32.47 32.0606 33.3563C32.8271 35.5352 33.5836 37.7141 34.3401 39.8838C34.36 39.9299 34.3899 39.9761 34.4595 40.0869C34.788 39.1359 35.0867 38.2404 35.3952 37.354C35.5446 36.9293 35.7038 36.5046 35.8531 36.0707C35.9626 35.766 36.1617 35.6183 36.5201 35.6275C38.2421 35.6368 39.9742 35.6368 41.6963 35.6368C42.0347 35.6368 42.2139 35.7475 42.3134 36.0522C42.6718 37.1786 43.0401 38.305 43.4382 39.4221C43.5577 39.773 43.6971 40.1423 43.926 40.4285C44.6228 41.2871 46.0761 41.1856 46.5241 40.2623C46.6037 40.0869 46.6336 39.8838 46.6435 39.6899C46.6634 38.582 46.6535 37.4648 46.6734 36.3569C46.6833 35.7845 46.8227 35.6645 47.4398 35.6645C48.067 35.6645 48.6941 35.6552 49.3212 35.646C49.6895 35.6368 49.8886 35.8029 49.8886 36.1446C49.8786 37.5756 49.9483 39.0067 49.8289 40.4285C49.6696 42.3027 47.7285 43.8907 45.6979 43.9923C43.06 44.1216 41.1388 42.6443 40.3724 40.4931C39.9841 39.4129 39.586 38.3419 39.1978 37.2709C39.1181 37.2432 39.0683 37.2432 39.0285 37.2432Z" fill="#F3F3F3"/>
<path d="M33.2502 25.0093C33.4991 25.0093 33.6882 25.0093 33.8873 25.0093C34.6538 25.0093 35.4302 25.0462 36.1967 25.0093C36.6247 24.9908 36.7939 25.1293 36.9034 25.4894C37.1324 26.2372 37.4211 26.9666 37.7097 27.8068C37.8292 27.4929 37.9088 27.2621 37.9984 27.0312C39.382 23.1258 40.7657 19.2204 42.1493 15.3058C42.4081 14.5579 42.657 13.8193 43.2542 13.2284C44.2397 12.2682 45.4541 11.9543 46.8079 12.2867C48.1617 12.6191 49.0675 13.4316 49.3761 14.7426C49.4557 15.075 49.4955 15.4258 49.4955 15.7674C49.5055 20.8638 49.5154 25.9603 49.5154 31.0567C49.5154 31.7861 49.4258 31.8784 48.6295 31.8784C45.1654 31.8691 41.6914 31.8599 38.2274 31.8507C37.5106 31.8507 36.8039 31.8414 36.0872 31.8599C35.7587 31.8691 35.5497 31.7491 35.4501 31.4537C34.7334 29.3856 34.0068 27.3267 33.2901 25.2678C33.2801 25.2032 33.2801 25.157 33.2502 25.0093ZM40.915 28.7854C41.124 28.7854 41.2634 28.7854 41.4127 28.7854C42.8362 28.7854 44.2696 28.7854 45.693 28.7854C46.2704 28.7854 46.2704 28.7854 46.2704 28.2407C46.2803 24.1414 46.2803 20.0329 46.2803 15.9336C46.2803 15.6659 46.4097 15.2873 45.9618 15.2227C45.5238 15.1581 45.4939 15.5366 45.4043 15.8043C44.2497 19.1281 43.095 22.4518 41.9502 25.7756C41.6018 26.7543 41.2733 27.7329 40.915 28.7854Z" fill="url(#paint1_linear_845_1327)"/>
<path d="M34.2477 19.9325C33.9491 19.6648 33.5509 19.397 33.2324 19.4986C33.1527 19.5263 33.1229 19.5632 32.8939 19.7663C32.1971 20.3942 32.1275 20.3849 32.1076 20.3757C32.0279 20.3295 32.2867 19.9233 32.1673 19.8217C32.0478 19.7294 31.6596 20.0156 31.6098 19.9602C31.5601 19.9048 31.8985 19.6832 32.0279 19.4063C32.3066 18.7877 31.3112 18.3445 30.4651 16.6826C30.4651 16.6826 29.8977 15.5839 29.2806 15.1869C29.1113 15.0854 28.9322 15.0115 28.9322 15.0115C28.8625 14.9838 28.5738 14.8823 28.1856 14.8823C28.0363 14.8823 27.4788 14.9007 26.9811 15.2423C26.6327 15.4824 26.4336 15.7778 26.3242 16.0548C25.7966 17.3197 25.3188 18.6123 24.841 19.9048C24.7116 20.2557 24.5423 20.4126 24.1243 20.3942C23.1886 20.3572 22.2429 20.3849 21.2375 20.3849C21.2973 20.1726 21.3271 19.9971 21.3869 19.831C21.9343 18.3999 22.4719 16.9596 23.0393 15.5286C23.5171 14.3375 24.2238 13.4143 25.1993 12.8142C26.3042 12.1309 27.4788 12.0294 27.9268 12.0109C28.9222 11.9647 29.6688 12.1863 29.8778 12.251C30.1565 12.3433 30.9031 12.6018 31.5999 13.1742C32.7347 14.1067 33.0731 15.3254 33.1826 15.7224C33.6505 17.4582 32.9835 18.603 33.969 19.6648C34.0785 19.794 34.178 19.8771 34.2477 19.9325Z" fill="url(#paint2_linear_845_1327)"/>
<path d="M37.0887 42.1091C36.6706 42.1091 36.0037 42.0353 35.4264 41.6383C34.7097 41.1397 34.5006 40.3734 34.421 40.0872C34.0129 38.6654 32.7686 35.2862 31.0465 30.6422C30.9072 30.4021 30.6981 30.0975 30.3497 29.8205C29.4638 29.0911 28.3887 29.0634 28.0503 29.0634L28.2593 32.4426L31.5641 41.6844C31.5641 41.6844 32.241 43.6048 34.6997 43.6418C34.9585 43.6325 35.4463 43.5679 35.9639 43.2909C36.6706 42.8939 36.9792 42.3307 37.0887 42.1091Z" fill="url(#paint3_linear_845_1327)"/>
<path d="M28.1128 12.0012C28.1227 12.9614 28.1227 13.9216 28.1327 14.8818C28.5806 14.8726 28.8892 14.9834 29.0584 15.0572C29.6457 15.325 29.9344 15.8051 30.1335 16.1652C30.3226 16.4975 30.4222 16.7838 30.4719 16.9776C30.8203 17.9655 31.1588 18.9627 31.5072 19.9505C31.5072 19.9505 31.547 20.366 32.1243 20.3568C32.7017 20.3476 35.0011 20.3199 35.0011 20.3199L33.1496 15.1219C32.9804 14.7064 32.5026 13.7093 31.3579 12.9245C29.9842 12.0105 28.5707 11.992 28.1128 12.0012Z" fill="url(#paint4_linear_845_1327)"/>
<path d="M36.4559 24.0968H19.7627L20.7382 21.5301C20.7382 21.5301 20.8676 21.2254 21.1861 21.2254C21.5047 21.2254 34.9528 21.2254 34.9528 21.2254C34.9528 21.2254 35.3809 21.1977 35.5401 21.6593C35.6795 22.1302 36.4559 24.0968 36.4559 24.0968Z" fill="url(#paint5_linear_845_1327)"/>
<circle cx="28.5" cy="28.5" r="28.5" fill="#F3F3F3"/>
<path d="M22.6857 26.15C22.3608 26.9852 22.0916 27.7429 21.7853 28.492C20.1143 32.5473 18.4341 36.5941 16.7539 40.6408C15.8998 42.6986 13.6812 43.904 11.4162 43.5424C9.46672 43.2325 8 41.6396 8 39.797C8 35.8364 8.01857 31.8757 8.01857 27.9151C8.02785 24.3505 8.01857 20.7859 8.03713 17.2127C8.04642 15.7748 9.14181 14.5522 10.6549 14.2336C12.4187 13.8548 14.0804 14.8363 14.6559 16.567C15.4728 19.0036 16.299 21.4403 17.1252 23.8769C17.478 24.9102 17.8307 25.9434 18.1742 26.9852C18.2206 27.1143 18.2206 27.2865 18.1649 27.4157C17.6636 28.6642 17.1438 29.904 16.6239 31.1439C16.5775 31.2644 16.494 31.3763 16.3826 31.5744C16.299 31.3505 16.2526 31.23 16.2155 31.1094C14.9715 27.2435 13.7276 23.3776 12.4837 19.5202C12.2609 18.8228 12.0195 18.1254 11.7875 17.4366C11.7132 17.2041 11.6111 16.963 11.2769 17.0233C10.9798 17.075 10.9613 17.316 10.9613 17.5485C10.9706 21.4317 10.9798 25.3234 10.9798 29.2066C10.9798 32.6162 10.9706 36.0172 10.9613 39.4268C10.9613 39.8659 11.0634 40.262 11.444 40.5547C12.1031 41.0627 13.2449 40.8561 13.6812 40.0984C14.0247 39.4871 14.2753 38.8327 14.5352 38.1869C15.5842 35.6728 16.6332 33.15 17.6729 30.6273C18.2299 29.2669 18.7776 27.9065 19.3067 26.5375C19.4181 26.2533 19.5666 26.1328 19.9101 26.1414C20.8013 26.1672 21.6925 26.15 22.6857 26.15Z" fill="url(#paint6_linear_845_1327)"/>
<path d="M37.861 37.5407C37.5918 38.2726 37.3412 39.0131 37.0534 39.7363C36.7192 40.5801 36.4407 41.4583 35.9766 42.2332C34.8626 44.1016 32.4583 43.6453 31.4743 42.4915C30.9452 41.8716 30.7317 41.1312 30.4717 40.4079C29.8034 38.5395 29.1535 36.6539 28.5037 34.7769C28.3088 34.2086 28.1324 33.6318 27.8446 33.0463C27.6683 33.5026 27.4919 33.9589 27.3248 34.4239C26.4151 36.895 25.5332 39.3833 24.5956 41.8458C24.1593 42.9823 23.2403 43.5334 22.052 43.5075C20.9474 43.4817 20.0098 42.8015 19.6106 41.7252C19.3043 40.8815 19.0165 40.0377 18.738 39.1853C18.7009 39.0733 18.6916 38.9356 18.7287 38.8323C19.2207 37.5924 19.722 36.3612 20.2233 35.1299C20.2511 35.0696 20.3068 35.0094 20.4182 34.8544C20.9938 36.4903 21.5415 38.0401 22.117 39.676C22.2098 39.4436 22.2748 39.28 22.3305 39.125C23.1474 36.8692 23.9736 34.6133 24.7812 32.3575C25.1247 31.4103 25.5981 30.5924 26.6471 30.1188C27.9096 29.542 29.9148 30.1963 30.4624 31.462C30.8059 32.2627 31.0751 33.0893 31.3629 33.9159C32.0777 35.9479 32.7832 37.9799 33.4887 40.0032C33.5073 40.0463 33.5351 40.0893 33.6001 40.1927C33.9064 39.3058 34.1849 38.4706 34.4727 37.6441C34.612 37.248 34.7605 36.8519 34.8997 36.4473C35.0018 36.1631 35.1875 36.0254 35.5217 36.034C37.1277 36.0426 38.7429 36.0426 40.3489 36.0426C40.6645 36.0426 40.8316 36.1459 40.9244 36.43C41.2586 37.4805 41.6021 38.5309 41.9734 39.5727C42.0848 39.8999 42.2147 40.2443 42.4283 40.5112C43.0781 41.312 44.4334 41.2173 44.8511 40.3562C44.9254 40.1927 44.9532 40.0032 44.9625 39.8224C44.9811 38.7892 44.9718 37.7474 44.9904 36.7142C44.9997 36.1803 45.1296 36.0684 45.7052 36.0684C46.29 36.0684 46.8748 36.0598 47.4597 36.0512C47.8031 36.0426 47.9888 36.1976 47.9888 36.5161C47.9795 37.8507 48.0445 39.1853 47.9331 40.5112C47.7846 42.2591 45.9744 43.74 44.0806 43.8347C41.6206 43.9553 39.829 42.5777 39.1142 40.5715C38.7522 39.5641 38.3809 38.5653 38.0188 37.5666C37.9446 37.5407 37.8981 37.5407 37.861 37.5407Z" fill="#2F4057"/>
<path d="M32.4785 26.133C32.7106 26.133 32.887 26.133 33.0726 26.133C33.7874 26.133 34.5115 26.1675 35.2263 26.133C35.6255 26.1158 35.7833 26.2449 35.8854 26.5807C36.0989 27.2782 36.3681 27.9584 36.6373 28.7419C36.7487 28.4491 36.823 28.2339 36.9065 28.0186C38.1969 24.3766 39.4872 20.7345 40.7775 17.0838C41.0189 16.3864 41.251 15.6976 41.8079 15.1465C42.727 14.2511 43.8595 13.9583 45.122 14.2683C46.3845 14.5783 47.2292 15.336 47.517 16.5586C47.5913 16.8686 47.6284 17.1957 47.6284 17.5143C47.6377 22.2671 47.647 27.0199 47.647 31.7726C47.647 32.4528 47.5634 32.5389 46.8208 32.5389C43.5903 32.5303 40.3505 32.5217 37.12 32.5131C36.4516 32.5131 35.7926 32.5045 35.1242 32.5217C34.8178 32.5303 34.6229 32.4184 34.5301 32.1429C33.8617 30.2142 33.184 28.2942 32.5156 26.3741C32.5064 26.3138 32.5064 26.2708 32.4785 26.133ZM39.6264 29.6545C39.8214 29.6545 39.9513 29.6545 40.0906 29.6545C41.4181 29.6545 42.7548 29.6545 44.0823 29.6545C44.6207 29.6545 44.6207 29.6546 44.6207 29.1466C44.63 25.3237 44.63 21.4922 44.63 17.6693C44.63 17.4196 44.7507 17.0666 44.3329 17.0063C43.9245 16.946 43.8966 17.2991 43.8131 17.5487C42.7362 20.6484 41.6594 23.748 40.5919 26.8477C40.267 27.7603 39.9606 28.673 39.6264 29.6545Z" fill="url(#paint7_linear_845_1327)"/>
<path d="M33.4144 21.3973C33.1359 21.1477 32.7646 20.898 32.4675 20.9927C32.3933 21.0185 32.3654 21.0529 32.1519 21.2424C31.5021 21.8279 31.4371 21.8192 31.4185 21.8106C31.3443 21.7676 31.5856 21.3887 31.4742 21.294C31.3628 21.2079 31.0008 21.4748 30.9544 21.4232C30.908 21.3715 31.2236 21.1649 31.3443 20.9066C31.6042 20.3297 30.6759 19.9164 29.8869 18.3666C29.8869 18.3666 29.3577 17.342 28.7822 16.9718C28.6244 16.877 28.4573 16.8082 28.4573 16.8082C28.3923 16.7823 28.1231 16.6876 27.761 16.6876C27.6218 16.6876 27.1019 16.7048 26.6378 17.0234C26.3129 17.2473 26.1272 17.5228 26.0251 17.7811C25.5331 18.9607 25.0875 20.1661 24.6419 21.3715C24.5213 21.6987 24.3635 21.8451 23.9736 21.8279C23.101 21.7934 22.2191 21.8192 21.2815 21.8192C21.3372 21.6212 21.365 21.4576 21.4207 21.3026C21.9313 19.9681 22.4326 18.6249 22.9617 17.2903C23.4073 16.1796 24.0664 15.3186 24.9761 14.759C26.0065 14.1218 27.1019 14.0271 27.5197 14.0099C28.448 13.9668 29.1442 14.1735 29.3392 14.2337C29.5991 14.3198 30.2953 14.5609 30.9451 15.0948C32.0034 15.9644 32.319 17.1009 32.4211 17.4711C32.8574 19.0898 32.2355 20.1575 33.1545 21.1477C33.2566 21.2682 33.3494 21.3457 33.4144 21.3973Z" fill="url(#paint8_linear_845_1327)"/>
<path d="M36.0637 42.0787C35.6739 42.0787 35.0519 42.0098 34.5135 41.6396C33.8451 41.1746 33.6502 40.46 33.5759 40.1931C33.1953 38.8671 32.0349 35.7158 30.429 31.3849C30.299 31.1611 30.104 30.8769 29.7791 30.6186C28.953 29.9384 27.9504 29.9126 27.6348 29.9126L27.8297 33.0639L30.9117 41.6826C30.9117 41.6826 31.5429 43.4735 33.8358 43.5079C34.0772 43.4993 34.532 43.4391 35.0148 43.1808C35.6739 42.8105 35.9616 42.2853 36.0637 42.0787Z" fill="url(#paint9_linear_845_1327)"/>
<path d="M27.688 14.0012C27.6973 14.8966 27.6973 15.7921 27.7066 16.6875C28.1243 16.6789 28.4121 16.7822 28.5699 16.8511C29.1176 17.1008 29.3868 17.5485 29.5724 17.8843C29.7488 18.1943 29.8416 18.4612 29.8881 18.642C30.213 19.5633 30.5286 20.4932 30.8535 21.4145C30.8535 21.4145 30.8906 21.8019 31.429 21.7933C31.9675 21.7847 34.1118 21.7589 34.1118 21.7589L32.3852 16.9114C32.2274 16.5239 31.7818 15.594 30.7143 14.8622C29.4332 14.0098 28.115 13.9926 27.688 14.0012Z" fill="url(#paint10_linear_845_1327)"/>
<path d="M35.4695 25.2805H19.9019L20.8116 22.8868C20.8116 22.8868 20.9323 22.6027 21.2293 22.6027C21.5264 22.6027 34.0677 22.6027 34.0677 22.6027C34.0677 22.6027 34.4669 22.5769 34.6154 23.0074C34.7454 23.4465 35.4695 25.2805 35.4695 25.2805Z" fill="url(#paint11_linear_845_1327)"/>
<defs>
<linearGradient id="paint0_linear_845_1327" x1="14.9028" y1="41.4499" x2="14.8217" y2="13.8954" gradientUnits="userSpaceOnUse">
<stop stop-color="#F3F3F3"/>
<stop offset="0.244" stop-color="#F3F3F3" stop-opacity="0.65"/>
<stop offset="0.5296" stop-color="#F3F3F3"/>
<stop offset="0.835" stop-color="#F3F3F3"/>
<stop offset="1" stop-color="#F3F3F3" stop-opacity="0.72"/>
</linearGradient>
<linearGradient id="paint1_linear_845_1327" x1="41.7139" y1="30.04" x2="41.2673" y2="14.9503" gradientUnits="userSpaceOnUse">
<stop stop-color="#F3F3F3"/>
<stop offset="0.244" stop-color="#F3F3F3"/>
<stop offset="0.835" stop-color="#F3F3F3" stop-opacity="0.58"/>
<stop offset="1" stop-color="#F3F3F3" stop-opacity="0.77"/>
</linearGradient>
<linearGradient id="paint2_linear_845_1327" x1="27.7435" y1="23.86" x2="27.7327" y2="14.5552" gradientUnits="userSpaceOnUse">
<stop stop-color="#F3F3F3"/>
<stop offset="0.244" stop-color="#F3F3F3" stop-opacity="0.6"/>
<stop offset="0.457291" stop-color="#F3F3F3" stop-opacity="0.77"/>
<stop offset="0.5296" stop-color="#F3F3F3"/>
<stop offset="0.835" stop-color="#F3F3F3" stop-opacity="0.85"/>
<stop offset="1" stop-color="#F3F3F3" stop-opacity="0.84"/>
</linearGradient>
<linearGradient id="paint3_linear_845_1327" x1="30.4182" y1="30.3449" x2="33.8209" y2="42.4682" gradientUnits="userSpaceOnUse">
<stop stop-color="#F3F3F3"/>
<stop offset="0.682" stop-color="#F3F3F3" stop-opacity="0.71"/>
<stop offset="1" stop-color="#F3F3F3" stop-opacity="0.79"/>
</linearGradient>
<linearGradient id="paint4_linear_845_1327" x1="32.8326" y1="17.923" x2="29.6353" y2="13.9505" gradientUnits="userSpaceOnUse">
<stop stop-color="#F3F3F3"/>
<stop offset="0.9657" stop-color="#F3F3F3" stop-opacity="0.68"/>
</linearGradient>
<linearGradient id="paint5_linear_845_1327" x1="28.1066" y1="23.9716" x2="28.082" y2="21.592" gradientUnits="userSpaceOnUse">
<stop stop-color="#F3F3F3"/>
<stop offset="0.8642" stop-color="#F3F3F3" stop-opacity="0.81"/>
</linearGradient>
<linearGradient id="paint6_linear_845_1327" x1="15.3699" y1="41.464" x2="15.2943" y2="15.7674" gradientUnits="userSpaceOnUse">
<stop stop-color="#2F4057"/>
<stop offset="0.244" stop-color="#33445A"/>
<stop offset="0.5296" stop-color="#3F4E63"/>
<stop offset="0.835" stop-color="#546173"/>
<stop offset="1" stop-color="#626E7E"/>
</linearGradient>
<linearGradient id="paint7_linear_845_1327" x1="40.3715" y1="30.8245" x2="39.955" y2="16.7523" gradientUnits="userSpaceOnUse">
<stop stop-color="#2F4057"/>
<stop offset="0.244" stop-color="#33445A"/>
<stop offset="0.5296" stop-color="#3F4E63"/>
<stop offset="0.835" stop-color="#546173"/>
<stop offset="1" stop-color="#626E7E"/>
</linearGradient>
<linearGradient id="paint8_linear_845_1327" x1="27.3487" y1="25.06" x2="27.3387" y2="16.3826" gradientUnits="userSpaceOnUse">
<stop stop-color="#2F4057"/>
<stop offset="0.244" stop-color="#33445A"/>
<stop offset="0.5296" stop-color="#3F4E63"/>
<stop offset="0.835" stop-color="#546173"/>
<stop offset="1" stop-color="#626E7E"/>
</linearGradient>
<linearGradient id="paint9_linear_845_1327" x1="29.843" y1="31.1077" x2="33.0162" y2="42.4135" gradientUnits="userSpaceOnUse">
<stop stop-color="#DA282D"/>
<stop offset="0.3145" stop-color="#D3272C"/>
<stop offset="0.682" stop-color="#C12328"/>
<stop offset="1" stop-color="#AB1F23"/>
</linearGradient>
<linearGradient id="paint10_linear_845_1327" x1="32.0896" y1="19.5236" x2="29.1078" y2="15.819" gradientUnits="userSpaceOnUse">
<stop stop-color="#DA282D"/>
<stop offset="0.9657" stop-color="#AB1F23"/>
</linearGradient>
<linearGradient id="paint11_linear_845_1327" x1="27.6832" y1="25.1637" x2="27.6602" y2="22.9446" gradientUnits="userSpaceOnUse">
<stop stop-color="#DA282D"/>
<stop offset="0.8642" stop-color="#AB1F23"/>
</linearGradient>
</defs>
</svg>
