<svg width="205" height="25" viewBox="0 0 205 25" fill="none" xmlns="http://www.w3.org/2000/svg">
<path d="M8.625 17.125L13.1406 1.25H15.3281L14.0625 7.42188L9.20312 24H7.03125L8.625 17.125ZM3.95312 1.25L7.54688 16.8125L8.625 24H6.46875L0.953125 1.25H3.95312ZM21.1719 16.7969L24.6875 1.25H27.7031L22.2031 24H20.0469L21.1719 16.7969ZM15.6562 1.25L20.0469 17.125L21.6406 24H19.4688L14.7812 7.42188L13.5 1.25H15.6562ZM32.7188 9.89062V24H30.8594V7.09375H32.6719L32.7188 9.89062ZM38.7031 6.96875L38.6562 8.6875C38.4479 8.65625 38.2448 8.63021 38.0469 8.60938C37.849 8.58854 37.6354 8.57812 37.4062 8.57812C36.5938 8.57812 35.8802 8.72917 35.2656 9.03125C34.6615 9.32292 34.151 9.73438 33.7344 10.2656C33.3177 10.7865 33 11.401 32.7812 12.1094C32.5625 12.8073 32.4375 13.5573 32.4062 14.3594L31.7188 14.625C31.7188 13.5208 31.8333 12.4948 32.0625 11.5469C32.2917 10.599 32.6406 9.77083 33.1094 9.0625C33.5885 8.34375 34.1875 7.78646 34.9062 7.39062C35.6354 6.98438 36.4896 6.78125 37.4688 6.78125C37.7083 6.78125 37.9427 6.80208 38.1719 6.84375C38.4115 6.875 38.5885 6.91667 38.7031 6.96875ZM43.7188 7.09375V24H41.8594V7.09375H43.7188ZM41.5312 2.20312C41.5312 1.84896 41.6406 1.55208 41.8594 1.3125C42.0885 1.0625 42.401 0.9375 42.7969 0.9375C43.1927 0.9375 43.5052 1.0625 43.7344 1.3125C43.974 1.55208 44.0938 1.84896 44.0938 2.20312C44.0938 2.54688 43.974 2.84375 43.7344 3.09375C43.5052 3.33333 43.1927 3.45312 42.7969 3.45312C42.401 3.45312 42.0885 3.33333 41.8594 3.09375C41.6406 2.84375 41.5312 2.54688 41.5312 2.20312ZM55.2188 7.09375V8.625H46.75V7.09375H55.2188ZM49.8594 2.75H51.7188V19.8906C51.7188 20.6719 51.8229 21.2604 52.0312 21.6562C52.2396 22.0521 52.5104 22.3177 52.8438 22.4531C53.1771 22.5885 53.5365 22.6562 53.9219 22.6562C54.2031 22.6562 54.474 22.6406 54.7344 22.6094C54.9948 22.5677 55.2292 22.526 55.4375 22.4844L55.5156 24.0625C55.2865 24.1354 54.9896 24.1927 54.625 24.2344C54.2604 24.2865 53.8958 24.3125 53.5312 24.3125C52.8125 24.3125 52.1771 24.1823 51.625 23.9219C51.0729 23.651 50.6406 23.1927 50.3281 22.5469C50.0156 21.8906 49.8594 21 49.8594 19.875V2.75ZM65.6719 24.3125C64.5677 24.3125 63.5521 24.1094 62.625 23.7031C61.7083 23.2969 60.9062 22.724 60.2188 21.9844C59.5417 21.2448 59.0156 20.3698 58.6406 19.3594C58.276 18.3385 58.0938 17.224 58.0938 16.0156V15.3438C58.0938 14.0417 58.2865 12.8646 58.6719 11.8125C59.0573 10.7604 59.5885 9.85938 60.2656 9.10938C60.9427 8.35938 61.7135 7.78646 62.5781 7.39062C63.4531 6.98438 64.3698 6.78125 65.3281 6.78125C66.401 6.78125 67.3542 6.97396 68.1875 7.35938C69.0208 7.73438 69.7188 8.27083 70.2812 8.96875C70.8542 9.65625 71.2865 10.474 71.5781 11.4219C71.8698 12.3594 72.0156 13.3958 72.0156 14.5312V15.6719H59.2188V14.0781H70.1562V13.8594C70.1354 12.9115 69.9427 12.026 69.5781 11.2031C69.224 10.3698 68.6927 9.69271 67.9844 9.17188C67.276 8.65104 66.3906 8.39062 65.3281 8.39062C64.5365 8.39062 63.8073 8.55729 63.1406 8.89062C62.4844 9.22396 61.9167 9.70312 61.4375 10.3281C60.9688 10.9427 60.6042 11.6771 60.3438 12.5312C60.0938 13.375 59.9688 14.3125 59.9688 15.3438V16.0156C59.9688 16.9531 60.1042 17.8281 60.375 18.6406C60.6562 19.4427 61.0521 20.151 61.5625 20.7656C62.0833 21.3802 62.6979 21.8594 63.4062 22.2031C64.1146 22.5469 64.8958 22.7188 65.75 22.7188C66.75 22.7188 67.6354 22.5365 68.4062 22.1719C69.1771 21.7969 69.8698 21.2083 70.4844 20.4062L71.6562 21.3125C71.2917 21.8542 70.8333 22.3542 70.2812 22.8125C69.7396 23.2708 69.0885 23.6354 68.3281 23.9062C67.5677 24.1771 66.6823 24.3125 65.6719 24.3125ZM81.875 17.125L86.3906 1.25H88.5781L87.3125 7.42188L82.4531 24H80.2812L81.875 17.125ZM77.2031 1.25L80.7969 16.8125L81.875 24H79.7188L74.2031 1.25H77.2031ZM94.4219 16.7969L97.9375 1.25H100.953L95.4531 24H93.2969L94.4219 16.7969ZM88.9062 1.25L93.2969 17.125L94.8906 24H92.7188L88.0312 7.42188L86.75 1.25H88.9062ZM106.188 7.09375V24H104.328V7.09375H106.188ZM104 2.20312C104 1.84896 104.109 1.55208 104.328 1.3125C104.557 1.0625 104.87 0.9375 105.266 0.9375C105.661 0.9375 105.974 1.0625 106.203 1.3125C106.443 1.55208 106.562 1.84896 106.562 2.20312C106.562 2.54688 106.443 2.84375 106.203 3.09375C105.974 3.33333 105.661 3.45312 105.266 3.45312C104.87 3.45312 104.557 3.33333 104.328 3.09375C104.109 2.84375 104 2.54688 104 2.20312ZM121.422 19.6875C121.422 19.2292 121.307 18.776 121.078 18.3281C120.849 17.8802 120.406 17.4688 119.75 17.0938C119.104 16.7188 118.151 16.401 116.891 16.1406C115.953 15.9323 115.115 15.6979 114.375 15.4375C113.646 15.1771 113.031 14.8646 112.531 14.5C112.031 14.1354 111.651 13.6979 111.391 13.1875C111.13 12.6771 111 12.0729 111 11.375C111 10.75 111.135 10.1615 111.406 9.60938C111.688 9.04688 112.083 8.55729 112.594 8.14062C113.115 7.71354 113.74 7.38021 114.469 7.14062C115.208 6.90104 116.036 6.78125 116.953 6.78125C118.255 6.78125 119.37 7.00521 120.297 7.45312C121.234 7.89062 121.948 8.48958 122.438 9.25C122.938 10.0104 123.188 10.8698 123.188 11.8281H121.328C121.328 11.2448 121.156 10.6927 120.812 10.1719C120.479 9.65104 119.984 9.22396 119.328 8.89062C118.682 8.55729 117.891 8.39062 116.953 8.39062C115.984 8.39062 115.198 8.53646 114.594 8.82812C113.99 9.11979 113.547 9.48958 113.266 9.9375C112.995 10.3854 112.859 10.849 112.859 11.3281C112.859 11.7031 112.917 12.0469 113.031 12.3594C113.156 12.6615 113.375 12.9427 113.688 13.2031C114.01 13.4635 114.469 13.7083 115.062 13.9375C115.656 14.1667 116.427 14.3906 117.375 14.6094C118.74 14.9115 119.854 15.2812 120.719 15.7188C121.594 16.1458 122.24 16.6771 122.656 17.3125C123.073 17.9375 123.281 18.6979 123.281 19.5938C123.281 20.2917 123.135 20.9323 122.844 21.5156C122.552 22.0885 122.13 22.5833 121.578 23C121.036 23.4167 120.38 23.7396 119.609 23.9688C118.849 24.1979 117.995 24.3125 117.047 24.3125C115.62 24.3125 114.411 24.0781 113.422 23.6094C112.443 23.1302 111.698 22.5052 111.188 21.7344C110.688 20.9531 110.438 20.125 110.438 19.25H112.297C112.359 20.125 112.635 20.8177 113.125 21.3281C113.615 21.8281 114.214 22.1823 114.922 22.3906C115.641 22.599 116.349 22.7031 117.047 22.7031C118.005 22.7031 118.807 22.5625 119.453 22.2812C120.099 22 120.589 21.6302 120.922 21.1719C121.255 20.7135 121.422 20.2188 121.422 19.6875ZM134.047 24.3125C132.943 24.3125 131.927 24.1094 131 23.7031C130.083 23.2969 129.281 22.724 128.594 21.9844C127.917 21.2448 127.391 20.3698 127.016 19.3594C126.651 18.3385 126.469 17.224 126.469 16.0156V15.3438C126.469 14.0417 126.661 12.8646 127.047 11.8125C127.432 10.7604 127.964 9.85938 128.641 9.10938C129.318 8.35938 130.089 7.78646 130.953 7.39062C131.828 6.98438 132.745 6.78125 133.703 6.78125C134.776 6.78125 135.729 6.97396 136.562 7.35938C137.396 7.73438 138.094 8.27083 138.656 8.96875C139.229 9.65625 139.661 10.474 139.953 11.4219C140.245 12.3594 140.391 13.3958 140.391 14.5312V15.6719H127.594V14.0781H138.531V13.8594C138.51 12.9115 138.318 12.026 137.953 11.2031C137.599 10.3698 137.068 9.69271 136.359 9.17188C135.651 8.65104 134.766 8.39062 133.703 8.39062C132.911 8.39062 132.182 8.55729 131.516 8.89062C130.859 9.22396 130.292 9.70312 129.812 10.3281C129.344 10.9427 128.979 11.6771 128.719 12.5312C128.469 13.375 128.344 14.3125 128.344 15.3438V16.0156C128.344 16.9531 128.479 17.8281 128.75 18.6406C129.031 19.4427 129.427 20.151 129.938 20.7656C130.458 21.3802 131.073 21.8594 131.781 22.2031C132.49 22.5469 133.271 22.7188 134.125 22.7188C135.125 22.7188 136.01 22.5365 136.781 22.1719C137.552 21.7969 138.245 21.2083 138.859 20.4062L140.031 21.3125C139.667 21.8542 139.208 22.3542 138.656 22.8125C138.115 23.2708 137.464 23.6354 136.703 23.9062C135.943 24.1771 135.057 24.3125 134.047 24.3125Z" fill="#F3F3F3"/>
<path d="M152.688 3.26562L145.156 24H142.078L150.75 1.25H152.734L152.688 3.26562ZM159 24L151.453 3.26562L151.406 1.25H153.391L162.094 24H159ZM158.609 15.5781V18.0469H145.828V15.5781H158.609ZM168.375 1.25V24H165.359V1.25H168.375Z" fill="#DA282E"/>
</svg>
