<svg width="185" height="25" viewBox="0 0 185 25" fill="none" xmlns="http://www.w3.org/2000/svg">
<path d="M8.625 17.125L13.1406 1.25H15.3281L14.0625 7.42188L9.20312 24H7.03125L8.625 17.125ZM3.95312 1.25L7.54688 16.8125L8.625 24H6.46875L0.953125 1.25H3.95312ZM21.1719 16.7969L24.6875 1.25H27.7031L22.2031 24H20.0469L21.1719 16.7969ZM15.6562 1.25L20.0469 17.125L21.6406 24H19.4688L14.7812 7.42188L13.5 1.25H15.6562ZM33.1562 9.75V24H30.2656V7.09375H33.0781L33.1562 9.75ZM38.4375 7L38.4219 9.6875C38.1823 9.63542 37.9531 9.60417 37.7344 9.59375C37.526 9.57292 37.2865 9.5625 37.0156 9.5625C36.349 9.5625 35.7604 9.66667 35.25 9.875C34.7396 10.0833 34.3073 10.375 33.9531 10.75C33.599 11.125 33.3177 11.5729 33.1094 12.0938C32.9115 12.6042 32.7812 13.1667 32.7188 13.7812L31.9062 14.25C31.9062 13.2292 32.0052 12.2708 32.2031 11.375C32.4115 10.4792 32.7292 9.6875 33.1562 9C33.5833 8.30208 34.125 7.76042 34.7812 7.375C35.4479 6.97917 36.2396 6.78125 37.1562 6.78125C37.3646 6.78125 37.6042 6.80729 37.875 6.85938C38.1458 6.90104 38.3333 6.94792 38.4375 7ZM44.25 7.09375V24H41.3438V7.09375H44.25ZM41.125 2.60938C41.125 2.14062 41.2656 1.74479 41.5469 1.42188C41.8385 1.09896 42.2656 0.9375 42.8281 0.9375C43.3802 0.9375 43.8021 1.09896 44.0938 1.42188C44.3958 1.74479 44.5469 2.14062 44.5469 2.60938C44.5469 3.05729 44.3958 3.44271 44.0938 3.76562C43.8021 4.07812 43.3802 4.23438 42.8281 4.23438C42.2656 4.23438 41.8385 4.07812 41.5469 3.76562C41.2656 3.44271 41.125 3.05729 41.125 2.60938ZM55.9688 7.09375V9.3125H46.8281V7.09375H55.9688ZM49.9219 2.98438H52.8125V19.8125C52.8125 20.3854 52.901 20.8177 53.0781 21.1094C53.2552 21.401 53.4844 21.5938 53.7656 21.6875C54.0469 21.7812 54.349 21.8281 54.6719 21.8281C54.9115 21.8281 55.1615 21.8073 55.4219 21.7656C55.6927 21.7135 55.8958 21.6719 56.0312 21.6406L56.0469 24C55.8177 24.0729 55.5156 24.1406 55.1406 24.2031C54.776 24.276 54.3333 24.3125 53.8125 24.3125C53.1042 24.3125 52.4531 24.1719 51.8594 23.8906C51.2656 23.6094 50.7917 23.1406 50.4375 22.4844C50.0938 21.8177 49.9219 20.9219 49.9219 19.7969V2.98438ZM66.375 24.3125C65.1979 24.3125 64.1302 24.1146 63.1719 23.7188C62.224 23.3125 61.4062 22.7448 60.7188 22.0156C60.0417 21.2865 59.5208 20.4219 59.1562 19.4219C58.7917 18.4219 58.6094 17.3281 58.6094 16.1406V15.4844C58.6094 14.1094 58.8125 12.8854 59.2188 11.8125C59.625 10.7292 60.1771 9.8125 60.875 9.0625C61.5729 8.3125 62.3646 7.74479 63.25 7.35938C64.1354 6.97396 65.0521 6.78125 66 6.78125C67.2083 6.78125 68.25 6.98958 69.125 7.40625C70.0104 7.82292 70.7344 8.40625 71.2969 9.15625C71.8594 9.89583 72.276 10.7708 72.5469 11.7812C72.8177 12.7812 72.9531 13.875 72.9531 15.0625V16.3594H60.3281V14H70.0625V13.7812C70.0208 13.0312 69.8646 12.3021 69.5938 11.5938C69.3333 10.8854 68.9167 10.3021 68.3438 9.84375C67.7708 9.38542 66.9896 9.15625 66 9.15625C65.3438 9.15625 64.7396 9.29688 64.1875 9.57812C63.6354 9.84896 63.1615 10.2552 62.7656 10.7969C62.3698 11.3385 62.0625 12 61.8438 12.7812C61.625 13.5625 61.5156 14.4635 61.5156 15.4844V16.1406C61.5156 16.9427 61.625 17.6979 61.8438 18.4062C62.0729 19.1042 62.401 19.7188 62.8281 20.25C63.2656 20.7812 63.7917 21.1979 64.4062 21.5C65.0312 21.8021 65.7396 21.9531 66.5312 21.9531C67.5521 21.9531 68.4167 21.7448 69.125 21.3281C69.8333 20.9115 70.4531 20.3542 70.9844 19.6562L72.7344 21.0469C72.3698 21.599 71.9062 22.125 71.3438 22.625C70.7812 23.125 70.0885 23.5312 69.2656 23.8438C68.4531 24.1562 67.4896 24.3125 66.375 24.3125ZM82.75 17.125L87.2656 1.25H89.4531L88.1875 7.42188L83.3281 24H81.1562L82.75 17.125ZM78.0781 1.25L81.6719 16.8125L82.75 24H80.5938L75.0781 1.25H78.0781ZM95.2969 16.7969L98.8125 1.25H101.828L96.3281 24H94.1719L95.2969 16.7969ZM89.7812 1.25L94.1719 17.125L95.7656 24H93.5938L88.9062 7.42188L87.625 1.25H89.7812ZM107.875 7.09375V24H104.969V7.09375H107.875ZM104.75 2.60938C104.75 2.14062 104.891 1.74479 105.172 1.42188C105.464 1.09896 105.891 0.9375 106.453 0.9375C107.005 0.9375 107.427 1.09896 107.719 1.42188C108.021 1.74479 108.172 2.14062 108.172 2.60938C108.172 3.05729 108.021 3.44271 107.719 3.76562C107.427 4.07812 107.005 4.23438 106.453 4.23438C105.891 4.23438 105.464 4.07812 105.172 3.76562C104.891 3.44271 104.75 3.05729 104.75 2.60938ZM122.359 19.5156C122.359 19.099 122.266 18.7135 122.078 18.3594C121.901 17.9948 121.531 17.6667 120.969 17.375C120.417 17.0729 119.583 16.8125 118.469 16.5938C117.531 16.3958 116.682 16.1615 115.922 15.8906C115.172 15.6198 114.531 15.2917 114 14.9062C113.479 14.5208 113.078 14.0677 112.797 13.5469C112.516 13.026 112.375 12.4167 112.375 11.7188C112.375 11.0521 112.521 10.4219 112.812 9.82812C113.115 9.23438 113.536 8.70833 114.078 8.25C114.63 7.79167 115.292 7.43229 116.062 7.17188C116.833 6.91146 117.693 6.78125 118.641 6.78125C119.995 6.78125 121.151 7.02083 122.109 7.5C123.068 7.97917 123.802 8.61979 124.312 9.42188C124.823 10.2135 125.078 11.0938 125.078 12.0625H122.188C122.188 11.5938 122.047 11.1406 121.766 10.7031C121.495 10.2552 121.094 9.88542 120.562 9.59375C120.042 9.30208 119.401 9.15625 118.641 9.15625C117.839 9.15625 117.188 9.28125 116.688 9.53125C116.198 9.77083 115.839 10.0781 115.609 10.4531C115.391 10.8281 115.281 11.224 115.281 11.6406C115.281 11.9531 115.333 12.2344 115.438 12.4844C115.552 12.724 115.75 12.9479 116.031 13.1562C116.312 13.3542 116.708 13.5417 117.219 13.7188C117.729 13.8958 118.38 14.0729 119.172 14.25C120.557 14.5625 121.698 14.9375 122.594 15.375C123.49 15.8125 124.156 16.349 124.594 16.9844C125.031 17.6198 125.25 18.3906 125.25 19.2969C125.25 20.0365 125.094 20.7135 124.781 21.3281C124.479 21.9427 124.036 22.474 123.453 22.9219C122.88 23.3594 122.193 23.7031 121.391 23.9531C120.599 24.1927 119.708 24.3125 118.719 24.3125C117.229 24.3125 115.969 24.0469 114.938 23.5156C113.906 22.9844 113.125 22.2969 112.594 21.4531C112.062 20.6094 111.797 19.7188 111.797 18.7812H114.703C114.745 19.5729 114.974 20.2031 115.391 20.6719C115.807 21.1302 116.318 21.4583 116.922 21.6562C117.526 21.8438 118.125 21.9375 118.719 21.9375C119.51 21.9375 120.172 21.8333 120.703 21.625C121.245 21.4167 121.656 21.1302 121.938 20.7656C122.219 20.401 122.359 19.9844 122.359 19.5156ZM136.062 24.3125C134.885 24.3125 133.818 24.1146 132.859 23.7188C131.911 23.3125 131.094 22.7448 130.406 22.0156C129.729 21.2865 129.208 20.4219 128.844 19.4219C128.479 18.4219 128.297 17.3281 128.297 16.1406V15.4844C128.297 14.1094 128.5 12.8854 128.906 11.8125C129.312 10.7292 129.865 9.8125 130.562 9.0625C131.26 8.3125 132.052 7.74479 132.938 7.35938C133.823 6.97396 134.74 6.78125 135.688 6.78125C136.896 6.78125 137.938 6.98958 138.812 7.40625C139.698 7.82292 140.422 8.40625 140.984 9.15625C141.547 9.89583 141.964 10.7708 142.234 11.7812C142.505 12.7812 142.641 13.875 142.641 15.0625V16.3594H130.016V14H139.75V13.7812C139.708 13.0312 139.552 12.3021 139.281 11.5938C139.021 10.8854 138.604 10.3021 138.031 9.84375C137.458 9.38542 136.677 9.15625 135.688 9.15625C135.031 9.15625 134.427 9.29688 133.875 9.57812C133.323 9.84896 132.849 10.2552 132.453 10.7969C132.057 11.3385 131.75 12 131.531 12.7812C131.312 13.5625 131.203 14.4635 131.203 15.4844V16.1406C131.203 16.9427 131.312 17.6979 131.531 18.4062C131.76 19.1042 132.089 19.7188 132.516 20.25C132.953 20.7812 133.479 21.1979 134.094 21.5C134.719 21.8021 135.427 21.9531 136.219 21.9531C137.24 21.9531 138.104 21.7448 138.812 21.3281C139.521 20.9115 140.141 20.3542 140.672 19.6562L142.422 21.0469C142.057 21.599 141.594 22.125 141.031 22.625C140.469 23.125 139.776 23.5312 138.953 23.8438C138.141 24.1562 137.177 24.3125 136.062 24.3125Z" fill="#2E4057"/>
<path d="M154.875 3.26562L147.344 24H144.266L152.938 1.25H154.922L154.875 3.26562ZM161.188 24L153.641 3.26562L153.594 1.25H155.578L164.281 24H161.188ZM160.797 15.5781V18.0469H148.016V15.5781H160.797ZM170.562 1.25V24H167.547V1.25H170.562Z" fill="#DA282E"/>
</svg>
