<svg width="65" height="53" viewBox="0 0 65 53" fill="none" xmlns="http://www.w3.org/2000/svg">
<path d="M23.8633 21.2669C23.3353 22.7288 22.8979 24.055 22.4001 25.3662C19.6849 32.4646 16.9547 39.5479 14.2244 46.6311C12.8367 50.2331 9.23155 52.343 5.551 51.71C2.38331 51.1675 0 48.3794 0 45.1542C0 38.2216 0.030168 31.289 0.030168 24.3565C0.0452523 18.1171 0.0301687 11.8778 0.0603372 5.62343C0.0754214 3.10661 1.85536 0.966548 4.31409 0.408927C7.1801 -0.254189 9.88018 1.46389 10.8154 4.49312C12.1428 8.75816 13.4853 13.0232 14.8278 17.2882C15.401 19.0967 15.9742 20.9052 16.5323 22.7288C16.6077 22.9549 16.6077 23.2563 16.5172 23.4824C15.7027 25.6676 14.858 27.8378 14.0133 30.008C13.9378 30.219 13.8021 30.4149 13.6211 30.7616C13.4853 30.3697 13.4099 30.1587 13.3496 29.9477C11.3283 23.1809 9.30698 16.4141 7.28569 9.66241C6.92367 8.44168 6.53148 7.22094 6.15437 6.01528C6.0337 5.60836 5.86777 5.18638 5.32474 5.29187C4.84204 5.3823 4.81187 5.80428 4.81187 6.21119C4.82696 13.0081 4.84204 19.8201 4.84204 26.6171C4.84204 32.5851 4.82696 38.5381 4.81187 44.5062C4.81187 45.2748 4.9778 45.968 5.59625 46.4804C6.66723 47.3696 8.5226 47.0079 9.23156 45.6817C9.78967 44.6117 10.1969 43.4663 10.6193 42.336C12.3238 37.9353 14.0283 33.5195 15.7178 29.1038C16.6228 26.7226 17.5128 24.3414 18.3726 21.9451C18.5536 21.4478 18.795 21.2368 19.3531 21.2519C20.8012 21.2971 22.2493 21.2669 23.8633 21.2669Z" fill="url(#paint0_linear_3632_3698)"/>
<path d="M48.5255 41.2056C48.088 42.4867 47.6807 43.7828 47.2131 45.0487C46.6701 46.5256 46.2176 48.0629 45.4634 49.4192C43.6533 52.6896 39.7464 51.8909 38.1475 49.8714C37.2877 48.7863 36.9408 47.4902 36.5184 46.2242C35.4323 42.9539 34.3764 39.6534 33.3206 36.3679C33.0038 35.3732 32.7172 34.3635 32.2496 33.3387C31.963 34.1374 31.6764 34.9362 31.4049 35.75C29.9266 40.0753 28.4936 44.4308 26.9701 48.7411C26.2611 50.7304 24.7678 51.6949 22.837 51.6497C21.042 51.6045 19.5185 50.4139 18.8699 48.5301C18.3721 47.0531 17.9045 45.5762 17.4519 44.0842C17.3916 43.8883 17.3765 43.6471 17.4368 43.4663C18.2363 41.2961 19.0509 39.1409 19.8654 36.9858C19.9107 36.8803 20.0012 36.7748 20.1822 36.5036C21.1174 39.367 22.0074 42.0798 22.9426 44.9432C23.0934 44.5363 23.199 44.2499 23.2895 43.9787C24.6169 40.0301 25.9594 36.0816 27.2718 32.133C27.8299 30.4752 28.5992 29.0435 30.3037 28.2146C32.3552 27.2049 35.6134 28.3502 36.5033 30.5656C37.0614 31.9672 37.4989 33.414 37.9665 34.8608C39.128 38.4175 40.2744 41.9743 41.4208 45.5159C41.451 45.5913 41.4962 45.6666 41.6018 45.8475C42.0996 44.2952 42.5521 42.8333 43.0197 41.3865C43.246 40.6932 43.4873 40 43.7136 39.2917C43.8795 38.7943 44.1812 38.5532 44.7242 38.5683C47.3338 38.5833 49.9585 38.5833 52.568 38.5833C53.0809 38.5833 53.3524 38.7642 53.5033 39.2615C54.0463 41.1001 54.6044 42.9388 55.2078 44.7624C55.3888 45.335 55.6 45.9379 55.9469 46.4051C57.0028 47.8067 59.2051 47.6409 59.8839 46.1338C60.0046 45.8475 60.0498 45.5159 60.0649 45.1994C60.0951 43.3909 60.08 41.5673 60.1102 39.7588C60.1252 38.8245 60.3364 38.6285 61.2716 38.6285C62.222 38.6285 63.1723 38.6135 64.1226 38.5984C64.6807 38.5833 64.9824 38.8546 64.9824 39.4122C64.9673 41.7482 65.0729 44.0842 64.8919 46.4051C64.6505 49.4645 61.7091 52.0566 58.6319 52.2224C54.6346 52.4334 51.7233 50.0221 50.5618 46.5106C49.9736 44.7473 49.3702 42.9991 48.7819 41.2509C48.6612 41.2056 48.5858 41.2056 48.5255 41.2056Z" fill="#2F4057"/>
<path d="M39.7773 21.2368C40.1544 21.2368 40.441 21.2368 40.7427 21.2368C41.9042 21.2368 43.0808 21.2971 44.2423 21.2368C44.8909 21.2067 45.1473 21.4327 45.3133 22.0205C45.6602 23.2412 46.0976 24.4318 46.5351 25.8033C46.7161 25.2909 46.8368 24.9141 46.9725 24.5373C49.0692 18.1624 51.1659 11.7874 53.2627 5.39738C53.6548 4.17664 54.0319 2.97098 54.937 2.00644C56.4303 0.439078 58.2706 -0.073332 60.3221 0.469218C62.3735 1.01177 63.7462 2.338 64.2138 4.47806C64.3345 5.02061 64.3948 5.5933 64.3948 6.15092C64.4099 14.47 64.425 22.7891 64.425 31.1082C64.425 32.2988 64.2892 32.4495 63.0825 32.4495C57.8332 32.4344 52.5688 32.4194 47.3195 32.4043C46.2334 32.4043 45.1624 32.3892 44.0764 32.4194C43.5786 32.4344 43.2618 32.2385 43.111 31.7562C42.0249 28.3804 40.9237 25.0196 39.8377 21.6588C39.8226 21.5533 39.8226 21.4779 39.7773 21.2368ZM51.3922 27.4008C51.709 27.4008 51.9202 27.4008 52.1464 27.4008C54.3035 27.4008 56.4756 27.4008 58.6326 27.4008C59.5075 27.4008 59.5075 27.4008 59.5075 26.5116C59.5226 19.8202 59.5226 13.1136 59.5226 6.42219C59.5226 5.98514 59.7187 5.36724 59.0399 5.26174C58.3762 5.15625 58.331 5.77415 58.1952 6.2112C56.4454 11.6367 54.6957 17.0622 52.961 22.4877C52.433 24.0852 51.9352 25.6827 51.3922 27.4008Z" fill="url(#paint1_linear_3632_3698)"/>
<path d="M41.301 12.9479C40.8485 12.5108 40.2451 12.0738 39.7624 12.2395C39.6418 12.2848 39.5965 12.345 39.2496 12.6766C38.1937 13.7014 38.0881 13.6863 38.0579 13.6713C37.9373 13.5959 38.3294 12.9328 38.1484 12.767C37.9674 12.6163 37.3791 13.0835 37.3037 12.9931C37.2283 12.9027 37.7412 12.541 37.9373 12.0888C38.3596 11.0791 36.8512 10.3557 35.569 7.64295C35.569 7.64295 34.7092 5.84952 33.774 5.20147C33.5176 5.03569 33.2461 4.91513 33.2461 4.91513C33.1405 4.86991 32.703 4.70413 32.1147 4.70413C31.8885 4.70413 31.0438 4.73428 30.2895 5.2919C29.7616 5.68374 29.4599 6.16601 29.294 6.61813C28.4945 8.68283 27.7705 10.7927 27.0464 12.9027C26.8503 13.4754 26.5939 13.7316 25.9604 13.7014C24.5424 13.6411 23.1094 13.6863 21.5859 13.6863C21.6764 13.3397 21.7217 13.0534 21.8122 12.7821C22.6418 10.4461 23.4564 8.09507 24.3162 5.75909C25.0402 3.81496 26.1112 2.30787 27.5895 1.32827C29.2638 0.21303 31.0438 0.0472493 31.7225 0.0171076C33.231 -0.0582465 34.3623 0.303454 34.6791 0.40895C35.1014 0.559658 36.2327 0.981641 37.2886 1.91603C39.0082 3.43819 39.5211 5.42754 39.687 6.07558C40.396 8.9089 39.3853 10.7777 40.8787 12.5108C41.0446 12.7218 41.1955 12.8575 41.301 12.9479Z" fill="url(#paint2_linear_3632_3698)"/>
<path d="M45.5998 49.148C44.9663 49.148 43.9556 49.0274 43.0807 48.3794C41.9947 47.5655 41.6779 46.3147 41.5572 45.8475C40.9388 43.5266 39.0533 38.0106 36.4437 30.43C36.2325 30.0382 35.9157 29.5408 35.3878 29.0887C34.0453 27.8981 32.4162 27.8529 31.9033 27.8529L32.2201 33.3688L37.2281 48.4547C37.2281 48.4547 38.2538 51.5894 41.9796 51.6497C42.3718 51.6347 43.1109 51.5292 43.8953 51.077C44.9663 50.429 45.4339 49.5097 45.5998 49.148Z" fill="url(#paint3_linear_3632_3698)"/>
<path d="M31.9932 0.00203087C32.0082 1.5694 32.0083 3.13676 32.0233 4.70413C32.7021 4.68906 33.1697 4.86991 33.4262 4.99047C34.3161 5.42753 34.7536 6.21121 35.0553 6.79897C35.3419 7.34152 35.4927 7.80872 35.5681 8.12521C36.0961 9.73778 36.6089 11.3654 37.1369 12.978C37.1369 12.978 37.1972 13.6562 38.0721 13.6411C38.947 13.6261 42.4315 13.5808 42.4315 13.5808L39.6258 5.09597C39.3694 4.41778 38.6453 2.79013 36.9106 1.50911C34.829 0.0170994 32.687 -0.01304 31.9932 0.00203087Z" fill="url(#paint4_linear_3632_3698)"/>
<path d="M44.6342 19.7448H19.3379L20.8161 15.5551C20.8161 15.5551 21.0122 15.0578 21.4949 15.0578C21.9776 15.0578 42.3564 15.0578 42.3564 15.0578C42.3564 15.0578 43.0051 15.0126 43.2464 15.7661C43.4576 16.5347 44.6342 19.7448 44.6342 19.7448Z" fill="url(#paint5_linear_3632_3698)"/>
<defs>
<linearGradient id="paint0_linear_3632_3698" x1="11.9755" y1="48.072" x2="11.833" y2="3.0937" gradientUnits="userSpaceOnUse">
<stop stop-color="#2F4057"/>
<stop offset="0.244" stop-color="#33445A"/>
<stop offset="0.5296" stop-color="#3F4E63"/>
<stop offset="0.835" stop-color="#546173"/>
<stop offset="1" stop-color="#626E7E"/>
</linearGradient>
<linearGradient id="paint1_linear_3632_3698" x1="52.6029" y1="29.4486" x2="51.8176" y2="4.8206" gradientUnits="userSpaceOnUse">
<stop stop-color="#2F4057"/>
<stop offset="0.244" stop-color="#33445A"/>
<stop offset="0.5296" stop-color="#3F4E63"/>
<stop offset="0.835" stop-color="#546173"/>
<stop offset="1" stop-color="#626E7E"/>
</linearGradient>
<linearGradient id="paint2_linear_3632_3698" x1="31.4447" y1="19.3589" x2="31.4259" y2="4.17019" gradientUnits="userSpaceOnUse">
<stop stop-color="#2F4057"/>
<stop offset="0.244" stop-color="#33445A"/>
<stop offset="0.5296" stop-color="#3F4E63"/>
<stop offset="0.835" stop-color="#546173"/>
<stop offset="1" stop-color="#626E7E"/>
</linearGradient>
<linearGradient id="paint3_linear_3632_3698" x1="35.4916" y1="29.9447" x2="41.4054" y2="49.5051" gradientUnits="userSpaceOnUse">
<stop stop-color="#DA282D"/>
<stop offset="0.3145" stop-color="#D3272C"/>
<stop offset="0.682" stop-color="#C12328"/>
<stop offset="1" stop-color="#AB1F23"/>
</linearGradient>
<linearGradient id="paint4_linear_3632_3698" x1="39.1454" y1="9.66835" x2="33.8568" y2="3.56842" gradientUnits="userSpaceOnUse">
<stop stop-color="#DA282D"/>
<stop offset="0.9657" stop-color="#AB1F23"/>
</linearGradient>
<linearGradient id="paint5_linear_3632_3698" x1="31.982" y1="19.5405" x2="31.9386" y2="15.6562" gradientUnits="userSpaceOnUse">
<stop stop-color="#DA282D"/>
<stop offset="0.8642" stop-color="#AB1F23"/>
</linearGradient>
</defs>
</svg>
