<svg width="183" height="25" viewBox="0 0 183 25" fill="none" xmlns="http://www.w3.org/2000/svg">
<path d="M11.9824 9.91345C11.7173 10.5949 11.4977 11.2131 11.2477 11.8243C9.88435 15.1332 8.51341 18.435 7.14248 21.7368C6.44565 23.4158 4.63542 24.3993 2.78731 24.1043C1.19673 23.8514 0 22.5517 0 21.0483C0 17.8168 0.0151482 14.5852 0.0151482 11.3536C0.0227224 8.44519 0.0151485 5.53678 0.030297 2.62133C0.0378712 1.44813 0.931628 0.450557 2.16622 0.190626C3.60532 -0.118481 4.96111 0.682388 5.43071 2.09445C6.09724 4.08257 6.77134 6.07069 7.44545 8.05881C7.73327 8.90183 8.02109 9.74485 8.30134 10.5949C8.33921 10.7003 8.33921 10.8408 8.29376 10.9462C7.88475 11.9648 7.4606 12.9764 7.03644 13.988C6.99857 14.0864 6.9304 14.1777 6.83951 14.3393C6.77134 14.1567 6.73347 14.0583 6.70318 13.9599C5.68823 10.8056 4.67329 7.65135 3.65834 4.50408C3.47656 3.93504 3.27963 3.366 3.09028 2.80399C3.02968 2.61431 2.94637 2.4176 2.6737 2.46678C2.43132 2.50893 2.41617 2.70564 2.41617 2.89531C2.42375 6.06366 2.43132 9.23904 2.43132 12.4074C2.43132 15.1894 2.42375 17.9643 2.41617 20.7463C2.41617 21.1045 2.49949 21.4277 2.81003 21.6666C3.3478 22.081 4.27943 21.9124 4.63542 21.2942C4.91566 20.7954 5.12017 20.2615 5.33224 19.7346C6.18813 17.6833 7.04402 15.6249 7.89233 13.5665C8.34678 12.4566 8.79366 11.3466 9.22539 10.2296C9.31628 9.99776 9.43747 9.8994 9.71771 9.90643C10.4448 9.9275 11.172 9.91345 11.9824 9.91345Z" fill="url(#paint0_linear_3743_3579)"/>
<path d="M24.3662 19.2077C24.1466 19.8049 23.9421 20.409 23.7073 20.9992C23.4346 21.6876 23.2074 22.4042 22.8287 23.0365C21.9198 24.5609 19.9581 24.1886 19.1552 23.2472C18.7235 22.7414 18.5493 22.1372 18.3372 21.5471C17.7918 20.0227 17.2616 18.4842 16.7314 16.9527C16.5724 16.489 16.4285 16.0183 16.1937 15.5406C16.0498 15.9129 15.9059 16.2853 15.7695 16.6646C15.0272 18.6809 14.3077 20.7111 13.5427 22.7203C13.1867 23.6477 12.4369 24.0973 11.4674 24.0762C10.566 24.0551 9.80104 23.5001 9.47535 22.622C9.2254 21.9335 8.9906 21.245 8.76337 20.5496C8.73308 20.4582 8.7255 20.3458 8.7558 20.2615C9.15723 19.2499 9.56624 18.2453 9.97525 17.2407C9.99797 17.1915 10.0434 17.1423 10.1343 17.0159C10.6039 18.3507 11.0508 19.6152 11.5204 20.95C11.5961 20.7603 11.6491 20.6268 11.6946 20.5004C12.3611 18.6598 13.0352 16.8192 13.6942 14.9786C13.9744 14.2058 14.3607 13.5384 15.2166 13.1521C16.2467 12.6814 17.8827 13.2153 18.3296 14.248C18.6098 14.9013 18.8295 15.5757 19.0643 16.2502C19.6475 17.9081 20.2232 19.566 20.7988 21.2169C20.8139 21.2521 20.8367 21.2872 20.8897 21.3715C21.1396 20.6479 21.3669 19.9665 21.6017 19.292C21.7153 18.9689 21.8365 18.6457 21.9501 18.3156C22.0334 18.0837 22.1849 17.9713 22.4575 17.9783C23.7679 17.9854 25.0858 17.9854 26.3961 17.9854C26.6537 17.9854 26.79 18.0697 26.8657 18.3015C27.1384 19.1586 27.4187 20.0156 27.7216 20.8657C27.8125 21.1326 27.9186 21.4136 28.0928 21.6314C28.623 22.2848 29.7288 22.2075 30.0696 21.505C30.1302 21.3715 30.1529 21.2169 30.1605 21.0694C30.1757 20.2264 30.1681 19.3764 30.1832 18.5333C30.1908 18.0978 30.2969 18.0064 30.7665 18.0064C31.2436 18.0064 31.7208 17.9994 32.198 17.9924C32.4782 17.9854 32.6297 18.1118 32.6297 18.3718C32.6221 19.4607 32.6752 20.5496 32.5843 21.6314C32.4631 23.0575 30.9861 24.2659 29.441 24.3431C27.4338 24.4415 25.972 23.3175 25.3888 21.6806C25.0934 20.8587 24.7904 20.0437 24.495 19.2288C24.4344 19.2077 24.3965 19.2077 24.3662 19.2077Z" fill="#2F4057"/>
<path d="M19.9733 9.8994C20.1626 9.8994 20.3065 9.8994 20.458 9.8994C21.0412 9.8994 21.632 9.9275 22.2152 9.8994C22.5409 9.88535 22.6697 9.99073 22.753 10.2647C22.9272 10.8337 23.1469 11.3887 23.3665 12.028C23.4574 11.7892 23.518 11.6135 23.5862 11.4379C24.639 8.46627 25.6918 5.49462 26.7446 2.51596C26.9415 1.94692 27.1309 1.3849 27.5853 0.935293C28.3352 0.204677 29.2592 -0.0341799 30.2893 0.218726C31.3194 0.471632 32.0087 1.08985 32.2435 2.08742C32.3041 2.34033 32.3344 2.60728 32.3344 2.86721C32.342 6.7451 32.3495 10.623 32.3495 14.5009C32.3495 15.0559 32.2814 15.1261 31.6754 15.1261C29.0396 15.1191 26.3962 15.1121 23.7604 15.105C23.215 15.105 22.6773 15.098 22.1319 15.1121C21.882 15.1191 21.7229 15.0278 21.6472 14.803C21.1018 13.2293 20.5489 11.6627 20.0036 10.0961C19.996 10.0469 19.996 10.0118 19.9733 9.8994ZM25.8054 12.7727C25.9645 12.7727 26.0705 12.7727 26.1841 12.7727C27.2672 12.7727 28.3579 12.7727 29.441 12.7727C29.8803 12.7727 29.8803 12.7727 29.8803 12.3582C29.8879 9.23904 29.8879 6.11284 29.8879 2.99367C29.8879 2.78994 29.9864 2.50191 29.6455 2.45273C29.3123 2.40355 29.2895 2.69158 29.2214 2.89531C28.3428 5.42437 27.4642 7.95343 26.5931 10.4825C26.328 11.2272 26.0781 11.9718 25.8054 12.7727Z" fill="url(#paint1_linear_3743_3579)"/>
<path d="M20.7382 6.03556C20.511 5.83183 20.208 5.6281 19.9656 5.70538C19.905 5.72645 19.8823 5.75455 19.7081 5.90911C19.1779 6.38682 19.1249 6.37979 19.1097 6.37277C19.0491 6.33764 19.2461 6.02854 19.1552 5.95126C19.0643 5.88101 18.7689 6.09879 18.731 6.05664C18.6931 6.01449 18.9507 5.84588 19.0491 5.63513C19.2612 5.16444 18.5038 4.82723 17.86 3.5627C17.86 3.5627 17.4282 2.72671 16.9586 2.42463C16.8299 2.34735 16.6935 2.29115 16.6935 2.29115C16.6405 2.27007 16.4209 2.1928 16.1255 2.1928C16.0119 2.1928 15.5877 2.20685 15.209 2.46678C14.9439 2.64943 14.7924 2.87424 14.7091 3.08499C14.3077 4.04744 13.9441 5.03096 13.5805 6.01449C13.4821 6.28144 13.3533 6.40087 13.0352 6.38682C12.3232 6.35872 11.6037 6.3798 10.8387 6.3798C10.8841 6.21822 10.9069 6.08474 10.9523 5.95829C11.3689 4.86938 11.7779 3.77346 12.2096 2.68456C12.5732 1.77831 13.1109 1.0758 13.8532 0.619161C14.694 0.0992986 15.5877 0.0220209 15.9286 0.00797057C16.686 -0.0271552 17.254 0.141449 17.4131 0.190625C17.6252 0.260877 18.1932 0.457582 18.7234 0.893142C19.5869 1.60268 19.8444 2.53001 19.9277 2.83209C20.2837 4.15282 19.7763 5.02394 20.5261 5.83183C20.6094 5.93018 20.6852 5.99341 20.7382 6.03556Z" fill="url(#paint2_linear_3743_3579)"/>
<path d="M22.8968 22.91C22.5787 22.91 22.0712 22.8538 21.6319 22.5517C21.0866 22.1724 20.9275 21.5893 20.8669 21.3715C20.5564 20.2896 19.6096 17.7184 18.2992 14.1848C18.1932 14.0021 18.0341 13.7703 17.7691 13.5595C17.0949 13.0045 16.2769 12.9834 16.0194 12.9834L16.1785 15.5547L18.6931 22.5868C18.6931 22.5868 19.2082 24.0481 21.079 24.0762C21.2759 24.0692 21.647 24.02 22.0409 23.8092C22.5787 23.5071 22.8135 23.0786 22.8968 22.91Z" fill="url(#paint3_linear_3743_3579)"/>
<path d="M16.0649 0.000946675C16.0725 0.731564 16.0725 1.46218 16.0801 2.1928C16.4209 2.18577 16.6557 2.27007 16.7845 2.32628C17.2314 2.53001 17.451 2.89531 17.6025 3.1693C17.7464 3.4222 17.8222 3.63998 17.86 3.78751C18.1251 4.5392 18.3827 5.29792 18.6477 6.04961C18.6477 6.04961 18.678 6.36574 19.1173 6.35872C19.5567 6.35169 21.3063 6.33062 21.3063 6.33062L19.8975 2.37545C19.7687 2.05932 19.4052 1.3006 18.5341 0.703462C17.4889 0.00797079 16.4134 -0.00607849 16.0649 0.000946675Z" fill="url(#paint4_linear_3743_3579)"/>
<path d="M22.4121 9.20391H9.71014L10.4524 7.25091C10.4524 7.25091 10.5509 7.01908 10.7933 7.01908C11.0356 7.01908 21.2684 7.01908 21.2684 7.01908C21.2684 7.01908 21.5941 6.99801 21.7153 7.34927C21.8213 7.70755 22.4121 9.20391 22.4121 9.20391Z" fill="url(#paint5_linear_3743_3579)"/>
<path d="M47.6369 16.596L51.301 3.71456H53.076L52.049 8.7226L48.106 22.1746H46.3437L47.6369 16.596ZM43.846 3.71456L46.7621 16.3424L47.6369 22.1746H45.8872L41.4117 3.71456H43.846ZM57.8178 16.3297L60.6704 3.71456H63.1174L58.6546 22.1746H56.9049L57.8178 16.3297ZM53.3422 3.71456L56.9049 16.596L58.1981 22.1746H56.4358L52.6322 8.7226L51.5926 3.71456H53.3422ZM67.5422 10.6117V22.1746H65.1967V8.45635H67.4788L67.5422 10.6117ZM71.8276 8.38028L71.8149 10.561C71.6205 10.5187 71.4346 10.4934 71.2571 10.4849C71.088 10.468 70.8936 10.4596 70.6738 10.4596C70.1329 10.4596 69.6553 10.5441 69.2412 10.7131C68.827 10.8822 68.4762 11.1188 68.1888 11.4231C67.9015 11.7274 67.6732 12.0909 67.5042 12.5135C67.3436 12.9277 67.2379 13.3841 67.1872 13.8828L66.5279 14.2631C66.5279 13.4348 66.6082 12.6572 66.7688 11.9303C66.9379 11.2034 67.1957 10.561 67.5422 10.0031C67.8888 9.43682 68.3283 8.9973 68.8608 8.68456C69.4018 8.36337 70.0441 8.20278 70.7879 8.20278C70.957 8.20278 71.1514 8.22391 71.3712 8.26617C71.5909 8.29998 71.7431 8.33801 71.8276 8.38028ZM76.544 8.45635V22.1746H74.1858V8.45635H76.544ZM74.0083 4.8176C74.0083 4.43724 74.1224 4.11605 74.3506 3.85403C74.5873 3.592 74.9338 3.46099 75.3903 3.46099C75.8382 3.46099 76.1806 3.592 76.4172 3.85403C76.6624 4.11605 76.7849 4.43724 76.7849 4.8176C76.7849 5.18105 76.6624 5.49379 76.4172 5.75581C76.1806 6.00938 75.8382 6.13617 75.3903 6.13617C74.9338 6.13617 74.5873 6.00938 74.3506 5.75581C74.1224 5.49379 74.0083 5.18105 74.0083 4.8176ZM86.0529 8.45635V10.2567H78.636V8.45635H86.0529ZM81.1463 5.12188H83.4919V18.7767C83.4919 19.2416 83.5637 19.5924 83.7074 19.829C83.8511 20.0657 84.0371 20.2221 84.2653 20.2981C84.4935 20.3742 84.7386 20.4122 85.0006 20.4122C85.195 20.4122 85.3979 20.3953 85.6092 20.3615C85.829 20.3193 85.9938 20.2855 86.1037 20.2601L86.1163 22.1746C85.9304 22.2337 85.6853 22.2887 85.381 22.3394C85.0852 22.3985 84.7259 22.4281 84.3033 22.4281C83.7285 22.4281 83.2003 22.314 82.7185 22.0858C82.2367 21.8576 81.8521 21.4772 81.5647 20.9447C81.2858 20.4038 81.1463 19.6769 81.1463 18.764V5.12188ZM94.4969 22.4281C93.5418 22.4281 92.6754 22.2675 91.8978 21.9463C91.1286 21.6167 90.4651 21.156 89.9072 20.5644C89.3578 19.9727 88.9352 19.2712 88.6394 18.4597C88.3435 17.6483 88.1956 16.7608 88.1956 15.7972V15.2647C88.1956 14.149 88.3604 13.1559 88.6901 12.2853C89.0197 11.4062 89.4677 10.6624 90.034 10.0538C90.6003 9.44528 91.2427 8.98462 91.9612 8.67188C92.6796 8.35914 93.4234 8.20278 94.1926 8.20278C95.1731 8.20278 96.0183 8.37182 96.7283 8.70992C97.4468 9.04801 98.0342 9.52135 98.4906 10.1299C98.9471 10.73 99.2851 11.44 99.5049 12.2599C99.7247 13.0713 99.8346 13.9588 99.8346 14.9224V15.9747H89.5903V14.0603H97.489V13.8828C97.4552 13.2742 97.3284 12.6825 97.1087 12.1078C96.8974 11.533 96.5593 11.0597 96.0944 10.6878C95.6295 10.3159 94.9956 10.1299 94.1926 10.1299C93.6601 10.1299 93.1699 10.244 92.7219 10.4722C92.2739 10.692 91.8893 11.0216 91.5681 11.4612C91.2469 11.9007 90.9976 12.4374 90.8201 13.0713C90.6426 13.7053 90.5538 14.4364 90.5538 15.2647V15.7972C90.5538 16.4481 90.6426 17.0609 90.8201 17.6356C91.006 18.2019 91.2723 18.7006 91.6188 19.1317C91.9738 19.5628 92.4007 19.9009 92.8994 20.146C93.4065 20.3911 93.9813 20.5137 94.6237 20.5137C95.452 20.5137 96.1535 20.3446 96.7283 20.0065C97.3031 19.6684 97.806 19.2162 98.2371 18.6499L99.6571 19.7783C99.3612 20.2263 98.9851 20.6531 98.5287 21.0588C98.0722 21.4646 97.5101 21.7942 96.8424 22.0478C96.1831 22.3013 95.4013 22.4281 94.4969 22.4281ZM106.047 19.7403L109.572 8.45635H111.118L110.814 10.7005L107.226 22.1746H105.717L106.047 19.7403ZM103.676 8.45635L106.681 19.8671L106.897 22.1746H105.312L101.331 8.45635H103.676ZM114.491 19.7783L117.356 8.45635H119.689L115.708 22.1746H114.136L114.491 19.7783ZM111.461 8.45635L114.909 19.5501L115.302 22.1746H113.806L110.117 10.6751L109.813 8.45635H111.461ZM124.647 8.45635V22.1746H122.288V8.45635H124.647ZM122.111 4.8176C122.111 4.43724 122.225 4.11605 122.453 3.85403C122.69 3.592 123.036 3.46099 123.493 3.46099C123.941 3.46099 124.283 3.592 124.52 3.85403C124.765 4.11605 124.887 4.43724 124.887 4.8176C124.887 5.18105 124.765 5.49379 124.52 5.75581C124.283 6.00938 123.941 6.13617 123.493 6.13617C123.036 6.13617 122.69 6.00938 122.453 5.75581C122.225 5.49379 122.111 5.18105 122.111 4.8176ZM136.4 18.5358C136.4 18.1977 136.323 17.885 136.171 17.5976C136.028 17.3018 135.728 17.0355 135.271 16.7988C134.823 16.5537 134.147 16.3424 133.243 16.1649C132.482 16.0043 131.793 15.8141 131.176 15.5944C130.567 15.3746 130.048 15.1084 129.617 14.7956C129.194 14.4829 128.868 14.1152 128.64 13.6926C128.412 13.27 128.298 12.7755 128.298 12.2092C128.298 11.6683 128.416 11.1569 128.653 10.6751C128.898 10.1933 129.24 9.76647 129.68 9.39456C130.128 9.02266 130.665 8.73105 131.29 8.51974C131.916 8.30843 132.613 8.20278 133.382 8.20278C134.481 8.20278 135.419 8.39718 136.197 8.78599C136.974 9.1748 137.57 9.69462 137.984 10.3455C138.399 10.9878 138.606 11.7021 138.606 12.4881H136.26C136.26 12.1078 136.146 11.7401 135.918 11.3851C135.698 11.0216 135.373 10.7216 134.942 10.4849C134.519 10.2483 133.999 10.1299 133.382 10.1299C132.731 10.1299 132.203 10.2313 131.797 10.4342C131.4 10.6286 131.108 10.878 130.922 11.1822C130.745 11.4865 130.656 11.8077 130.656 12.1458C130.656 12.3994 130.698 12.6276 130.783 12.8305C130.876 13.0249 131.037 13.2066 131.265 13.3756C131.493 13.5362 131.814 13.6884 132.228 13.8321C132.642 13.9758 133.171 14.1194 133.813 14.2631C134.937 14.5167 135.863 14.821 136.59 15.176C137.317 15.531 137.858 15.9663 138.213 16.4819C138.568 16.9975 138.745 17.623 138.745 18.3583C138.745 18.9584 138.618 19.5078 138.365 20.0065C138.12 20.5052 137.76 20.9363 137.287 21.2997C136.822 21.6547 136.264 21.9337 135.613 22.1365C134.971 22.3309 134.248 22.4281 133.445 22.4281C132.237 22.4281 131.214 22.2126 130.377 21.7815C129.54 21.3505 128.907 20.7926 128.475 20.108C128.044 19.4233 127.829 18.7006 127.829 17.9399H130.187C130.221 18.5823 130.407 19.0937 130.745 19.474C131.083 19.8459 131.497 20.1122 131.987 20.2728C132.478 20.4249 132.964 20.501 133.445 20.501C134.088 20.501 134.625 20.4165 135.056 20.2474C135.495 20.0784 135.829 19.8459 136.057 19.5501C136.285 19.2543 136.4 18.9162 136.4 18.5358ZM147.519 22.4281C146.564 22.4281 145.697 22.2675 144.92 21.9463C144.15 21.6167 143.487 21.156 142.929 20.5644C142.38 19.9727 141.957 19.2712 141.661 18.4597C141.365 17.6483 141.217 16.7608 141.217 15.7972V15.2647C141.217 14.149 141.382 13.1559 141.712 12.2853C142.042 11.4062 142.489 10.6624 143.056 10.0538C143.622 9.44528 144.264 8.98462 144.983 8.67188C145.701 8.35914 146.445 8.20278 147.214 8.20278C148.195 8.20278 149.04 8.37182 149.75 8.70992C150.469 9.04801 151.056 9.52135 151.512 10.1299C151.969 10.73 152.307 11.44 152.527 12.2599C152.746 13.0713 152.856 13.9588 152.856 14.9224V15.9747H142.612V14.0603H150.511V13.8828C150.477 13.2742 150.35 12.6825 150.13 12.1078C149.919 11.533 149.581 11.0597 149.116 10.6878C148.651 10.3159 148.017 10.1299 147.214 10.1299C146.682 10.1299 146.192 10.244 145.744 10.4722C145.296 10.692 144.911 11.0216 144.59 11.4612C144.269 11.9007 144.019 12.4374 143.842 13.0713C143.664 13.7053 143.576 14.4364 143.576 15.2647V15.7972C143.576 16.4481 143.664 17.0609 143.842 17.6356C144.028 18.2019 144.294 18.7006 144.641 19.1317C144.996 19.5628 145.422 19.9009 145.921 20.146C146.428 20.3911 147.003 20.5137 147.645 20.5137C148.474 20.5137 149.175 20.3446 149.75 20.0065C150.325 19.6684 150.828 19.2162 151.259 18.6499L152.679 19.7783C152.383 20.2263 152.007 20.6531 151.55 21.0588C151.094 21.4646 150.532 21.7942 149.864 22.0478C149.205 22.3013 148.423 22.4281 147.519 22.4281Z" fill="#2E4057"/>
<path d="M162.784 5.3501L156.673 22.1746H154.175L161.212 3.71456H162.822L162.784 5.3501ZM167.906 22.1746L161.782 5.3501L161.744 3.71456H163.354L170.416 22.1746H167.906ZM167.589 15.3408V17.344H157.218V15.3408H167.589ZM175.513 3.71456V22.1746H173.066V3.71456H175.513Z" fill="#DA282E"/>
<defs>
<linearGradient id="paint0_linear_3743_3579" x1="6.01324" y1="22.4085" x2="5.95158" y2="1.44209" gradientUnits="userSpaceOnUse">
<stop stop-color="#2F4057"/>
<stop offset="0.244" stop-color="#33445A"/>
<stop offset="0.5296" stop-color="#3F4E63"/>
<stop offset="0.835" stop-color="#546173"/>
<stop offset="1" stop-color="#626E7E"/>
</linearGradient>
<linearGradient id="paint1_linear_3743_3579" x1="26.4133" y1="13.7273" x2="26.0734" y2="2.24548" gradientUnits="userSpaceOnUse">
<stop stop-color="#2F4057"/>
<stop offset="0.244" stop-color="#33445A"/>
<stop offset="0.5296" stop-color="#3F4E63"/>
<stop offset="0.835" stop-color="#546173"/>
<stop offset="1" stop-color="#626E7E"/>
</linearGradient>
<linearGradient id="paint2_linear_3743_3579" x1="15.7891" y1="9.02401" x2="15.7809" y2="1.9439" gradientUnits="userSpaceOnUse">
<stop stop-color="#2F4057"/>
<stop offset="0.244" stop-color="#33445A"/>
<stop offset="0.5296" stop-color="#3F4E63"/>
<stop offset="0.835" stop-color="#546173"/>
<stop offset="1" stop-color="#626E7E"/>
</linearGradient>
<linearGradient id="paint3_linear_3743_3579" x1="17.8212" y1="13.9585" x2="20.4103" y2="23.1832" gradientUnits="userSpaceOnUse">
<stop stop-color="#DA282D"/>
<stop offset="0.3145" stop-color="#D3272C"/>
<stop offset="0.682" stop-color="#C12328"/>
<stop offset="1" stop-color="#AB1F23"/>
</linearGradient>
<linearGradient id="paint4_linear_3743_3579" x1="19.6563" y1="4.50684" x2="17.2234" y2="1.48415" gradientUnits="userSpaceOnUse">
<stop stop-color="#DA282D"/>
<stop offset="0.9657" stop-color="#AB1F23"/>
</linearGradient>
<linearGradient id="paint5_linear_3743_3579" x1="16.0591" y1="9.10868" x2="16.0403" y2="7.29801" gradientUnits="userSpaceOnUse">
<stop stop-color="#DA282D"/>
<stop offset="0.8642" stop-color="#AB1F23"/>
</linearGradient>
</defs>
</svg>
