<svg width="57" height="57" viewBox="0 0 57 57" fill="none" xmlns="http://www.w3.org/2000/svg">
<circle cx="28.5" cy="28.5" r="28.5" fill="#F3F3F3"/>
<path d="M22.6857 26.15C22.3608 26.9852 22.0916 27.7429 21.7853 28.492C20.1143 32.5473 18.4341 36.5941 16.7539 40.6408C15.8998 42.6986 13.6812 43.904 11.4162 43.5424C9.46672 43.2325 8 41.6396 8 39.797C8 35.8364 8.01857 31.8757 8.01857 27.9151C8.02785 24.3505 8.01857 20.7859 8.03713 17.2127C8.04642 15.7748 9.14181 14.5522 10.6549 14.2336C12.4187 13.8548 14.0804 14.8363 14.6559 16.567C15.4728 19.0036 16.299 21.4403 17.1252 23.8769C17.478 24.9102 17.8307 25.9434 18.1742 26.9852C18.2206 27.1143 18.2206 27.2865 18.1649 27.4157C17.6636 28.6642 17.1438 29.904 16.6239 31.1439C16.5775 31.2644 16.494 31.3763 16.3826 31.5744C16.299 31.3505 16.2526 31.23 16.2155 31.1094C14.9715 27.2435 13.7276 23.3776 12.4837 19.5202C12.2609 18.8228 12.0195 18.1254 11.7875 17.4366C11.7132 17.2041 11.6111 16.963 11.2769 17.0233C10.9798 17.075 10.9613 17.316 10.9613 17.5485C10.9706 21.4317 10.9798 25.3234 10.9798 29.2066C10.9798 32.6162 10.9706 36.0172 10.9613 39.4268C10.9613 39.8659 11.0634 40.262 11.444 40.5547C12.1031 41.0627 13.2449 40.8561 13.6812 40.0984C14.0247 39.4871 14.2753 38.8327 14.5352 38.1869C15.5842 35.6728 16.6332 33.15 17.6729 30.6273C18.2299 29.2669 18.7776 27.9065 19.3067 26.5375C19.4181 26.2533 19.5666 26.1328 19.9101 26.1414C20.8013 26.1672 21.6925 26.15 22.6857 26.15Z" fill="url(#paint0_linear_845_1235)"/>
<path d="M37.861 37.5407C37.5918 38.2726 37.3412 39.0131 37.0534 39.7363C36.7192 40.5801 36.4407 41.4583 35.9766 42.2332C34.8626 44.1016 32.4583 43.6453 31.4743 42.4915C30.9452 41.8716 30.7317 41.1312 30.4717 40.4079C29.8034 38.5395 29.1535 36.6539 28.5037 34.7769C28.3088 34.2086 28.1324 33.6318 27.8446 33.0463C27.6683 33.5026 27.4919 33.9589 27.3248 34.4239C26.4151 36.895 25.5332 39.3833 24.5956 41.8458C24.1593 42.9823 23.2403 43.5334 22.052 43.5075C20.9474 43.4817 20.0098 42.8015 19.6106 41.7252C19.3043 40.8815 19.0165 40.0377 18.738 39.1853C18.7009 39.0733 18.6916 38.9356 18.7287 38.8323C19.2207 37.5924 19.722 36.3612 20.2233 35.1299C20.2511 35.0696 20.3068 35.0094 20.4182 34.8544C20.9938 36.4903 21.5415 38.0401 22.117 39.676C22.2098 39.4436 22.2748 39.28 22.3305 39.125C23.1474 36.8692 23.9736 34.6133 24.7812 32.3575C25.1247 31.4103 25.5981 30.5924 26.6471 30.1188C27.9096 29.542 29.9148 30.1963 30.4624 31.462C30.8059 32.2627 31.0751 33.0893 31.3629 33.9159C32.0777 35.9479 32.7832 37.9799 33.4887 40.0032C33.5073 40.0463 33.5351 40.0893 33.6001 40.1927C33.9064 39.3058 34.1849 38.4706 34.4727 37.6441C34.612 37.248 34.7605 36.8519 34.8997 36.4473C35.0018 36.1631 35.1875 36.0254 35.5217 36.034C37.1277 36.0426 38.7429 36.0426 40.3489 36.0426C40.6645 36.0426 40.8316 36.1459 40.9244 36.43C41.2586 37.4805 41.6021 38.5309 41.9734 39.5727C42.0848 39.8999 42.2147 40.2443 42.4283 40.5112C43.0781 41.312 44.4334 41.2173 44.8511 40.3562C44.9254 40.1927 44.9532 40.0032 44.9625 39.8224C44.9811 38.7892 44.9718 37.7474 44.9904 36.7142C44.9997 36.1803 45.1296 36.0684 45.7052 36.0684C46.29 36.0684 46.8748 36.0598 47.4597 36.0512C47.8031 36.0426 47.9888 36.1976 47.9888 36.5161C47.9795 37.8507 48.0445 39.1853 47.9331 40.5112C47.7846 42.2591 45.9744 43.74 44.0806 43.8347C41.6206 43.9553 39.829 42.5777 39.1142 40.5715C38.7522 39.5641 38.3809 38.5653 38.0188 37.5666C37.9446 37.5407 37.8981 37.5407 37.861 37.5407Z" fill="#2F4057"/>
<path d="M32.4785 26.133C32.7106 26.133 32.887 26.133 33.0726 26.133C33.7874 26.133 34.5115 26.1675 35.2263 26.133C35.6255 26.1158 35.7833 26.2449 35.8854 26.5807C36.0989 27.2782 36.3681 27.9584 36.6373 28.7419C36.7487 28.4491 36.823 28.2339 36.9065 28.0186C38.1969 24.3766 39.4872 20.7345 40.7775 17.0838C41.0189 16.3864 41.251 15.6976 41.8079 15.1465C42.727 14.2511 43.8595 13.9583 45.122 14.2683C46.3845 14.5783 47.2292 15.336 47.517 16.5586C47.5913 16.8686 47.6284 17.1957 47.6284 17.5143C47.6377 22.2671 47.647 27.0199 47.647 31.7726C47.647 32.4528 47.5634 32.5389 46.8208 32.5389C43.5903 32.5303 40.3505 32.5217 37.12 32.5131C36.4516 32.5131 35.7926 32.5045 35.1242 32.5217C34.8178 32.5303 34.6229 32.4184 34.5301 32.1429C33.8617 30.2142 33.184 28.2942 32.5156 26.3741C32.5064 26.3138 32.5064 26.2708 32.4785 26.133ZM39.6264 29.6545C39.8214 29.6545 39.9513 29.6545 40.0906 29.6545C41.4181 29.6545 42.7548 29.6545 44.0823 29.6545C44.6207 29.6545 44.6207 29.6546 44.6207 29.1466C44.63 25.3237 44.63 21.4922 44.63 17.6693C44.63 17.4196 44.7507 17.0666 44.3329 17.0063C43.9245 16.946 43.8966 17.2991 43.8131 17.5487C42.7362 20.6484 41.6594 23.748 40.5919 26.8477C40.267 27.7603 39.9606 28.673 39.6264 29.6545Z" fill="url(#paint1_linear_845_1235)"/>
<path d="M33.4146 21.3973C33.1361 21.1477 32.7648 20.898 32.4678 20.9927C32.3935 21.0185 32.3657 21.0529 32.1521 21.2424C31.5023 21.8279 31.4374 21.8192 31.4188 21.8106C31.3445 21.7676 31.5859 21.3887 31.4745 21.294C31.3631 21.2079 31.0011 21.4748 30.9546 21.4232C30.9082 21.3715 31.2238 21.1649 31.3445 20.9066C31.6045 20.3297 30.6762 19.9164 29.8871 18.3666C29.8871 18.3666 29.358 17.342 28.7824 16.9718C28.6246 16.877 28.4575 16.8082 28.4575 16.8082C28.3925 16.7823 28.1233 16.6876 27.7613 16.6876C27.622 16.6876 27.1022 16.7048 26.638 17.0234C26.3131 17.2473 26.1275 17.5228 26.0254 17.7811C25.5334 18.9607 25.0878 20.1661 24.6422 21.3715C24.5215 21.6987 24.3637 21.8451 23.9738 21.8279C23.1012 21.7934 22.2193 21.8192 21.2817 21.8192C21.3374 21.6212 21.3653 21.4576 21.421 21.3026C21.9315 19.9681 22.4328 18.6249 22.962 17.2903C23.4075 16.1796 24.0666 15.3186 24.9764 14.759C26.0068 14.1218 27.1022 14.0271 27.5199 14.0099C28.4482 13.9668 29.1445 14.1735 29.3394 14.2337C29.5993 14.3198 30.2955 14.5609 30.9454 15.0948C32.0036 15.9644 32.3192 17.1009 32.4214 17.4711C32.8577 19.0898 32.2357 20.1575 33.1547 21.1477C33.2568 21.2682 33.3497 21.3457 33.4146 21.3973Z" fill="url(#paint2_linear_845_1235)"/>
<path d="M36.0637 42.0787C35.6739 42.0787 35.0519 42.0098 34.5135 41.6396C33.8451 41.1746 33.6502 40.46 33.5759 40.1931C33.1953 38.8671 32.0349 35.7158 30.429 31.3849C30.299 31.1611 30.104 30.8769 29.7791 30.6186C28.953 29.9384 27.9504 29.9126 27.6348 29.9126L27.8297 33.0639L30.9117 41.6826C30.9117 41.6826 31.5429 43.4735 33.8358 43.5079C34.0772 43.4993 34.532 43.4391 35.0148 43.1808C35.6739 42.8105 35.9616 42.2853 36.0637 42.0787Z" fill="url(#paint3_linear_845_1235)"/>
<path d="M27.688 14.0012C27.6973 14.8966 27.6973 15.7921 27.7066 16.6875C28.1243 16.6789 28.4121 16.7822 28.5699 16.8511C29.1176 17.1008 29.3868 17.5485 29.5724 17.8843C29.7488 18.1943 29.8416 18.4612 29.8881 18.642C30.213 19.5633 30.5286 20.4932 30.8535 21.4145C30.8535 21.4145 30.8906 21.8019 31.429 21.7933C31.9675 21.7847 34.1118 21.7589 34.1118 21.7589L32.3852 16.9114C32.2274 16.5239 31.7818 15.594 30.7143 14.8622C29.4332 14.0098 28.115 13.9926 27.688 14.0012Z" fill="url(#paint4_linear_845_1235)"/>
<path d="M35.4695 25.2805H19.9019L20.8116 22.8868C20.8116 22.8868 20.9323 22.6027 21.2293 22.6027C21.5264 22.6027 34.0677 22.6027 34.0677 22.6027C34.0677 22.6027 34.4669 22.5769 34.6154 23.0074C34.7454 23.4465 35.4695 25.2805 35.4695 25.2805Z" fill="url(#paint5_linear_845_1235)"/>
<defs>
<linearGradient id="paint0_linear_845_1235" x1="15.3699" y1="41.464" x2="15.2943" y2="15.7674" gradientUnits="userSpaceOnUse">
<stop stop-color="#2F4057"/>
<stop offset="0.244" stop-color="#33445A"/>
<stop offset="0.5296" stop-color="#3F4E63"/>
<stop offset="0.835" stop-color="#546173"/>
<stop offset="1" stop-color="#626E7E"/>
</linearGradient>
<linearGradient id="paint1_linear_845_1235" x1="40.3715" y1="30.8245" x2="39.955" y2="16.7523" gradientUnits="userSpaceOnUse">
<stop stop-color="#2F4057"/>
<stop offset="0.244" stop-color="#33445A"/>
<stop offset="0.5296" stop-color="#3F4E63"/>
<stop offset="0.835" stop-color="#546173"/>
<stop offset="1" stop-color="#626E7E"/>
</linearGradient>
<linearGradient id="paint2_linear_845_1235" x1="27.349" y1="25.06" x2="27.339" y2="16.3826" gradientUnits="userSpaceOnUse">
<stop stop-color="#2F4057"/>
<stop offset="0.244" stop-color="#33445A"/>
<stop offset="0.5296" stop-color="#3F4E63"/>
<stop offset="0.835" stop-color="#546173"/>
<stop offset="1" stop-color="#626E7E"/>
</linearGradient>
<linearGradient id="paint3_linear_845_1235" x1="29.843" y1="31.1077" x2="33.0162" y2="42.4135" gradientUnits="userSpaceOnUse">
<stop stop-color="#DA282D"/>
<stop offset="0.3145" stop-color="#D3272C"/>
<stop offset="0.682" stop-color="#C12328"/>
<stop offset="1" stop-color="#AB1F23"/>
</linearGradient>
<linearGradient id="paint4_linear_845_1235" x1="32.0896" y1="19.5236" x2="29.1078" y2="15.819" gradientUnits="userSpaceOnUse">
<stop stop-color="#DA282D"/>
<stop offset="0.9657" stop-color="#AB1F23"/>
</linearGradient>
<linearGradient id="paint5_linear_845_1235" x1="27.6832" y1="25.1637" x2="27.6602" y2="22.9446" gradientUnits="userSpaceOnUse">
<stop stop-color="#DA282D"/>
<stop offset="0.8642" stop-color="#AB1F23"/>
</linearGradient>
</defs>
</svg>
