<svg width="87" height="19" viewBox="0 0 87 19" fill="none" xmlns="http://www.w3.org/2000/svg">
<circle cx="9.36441" cy="9.36441" r="9.36441" fill="#F3F3F3"/>
<path d="M7.6792 8.16663C7.55711 8.48046 7.45595 8.76518 7.34084 9.04666C6.71295 10.5705 6.08157 12.0912 5.4502 13.6118C5.12928 14.3851 4.29558 14.838 3.44445 14.7021C2.71191 14.5857 2.16077 13.9871 2.16077 13.2947C2.16077 11.8065 2.16774 10.3182 2.16774 8.82988C2.17123 7.49043 2.16774 6.15097 2.17472 4.80828C2.17821 4.26797 2.58982 3.80854 3.15841 3.68883C3.82118 3.54647 4.44558 3.91531 4.66185 4.56563C4.96882 5.48124 5.27927 6.39686 5.58973 7.31248C5.72228 7.70073 5.85484 8.08898 5.9839 8.48046C6.00134 8.52899 6.00134 8.5937 5.98041 8.64223C5.79205 9.11136 5.5967 9.57726 5.40136 10.0432C5.38392 10.0885 5.35253 10.1305 5.31067 10.2049C5.27927 10.1208 5.26183 10.0755 5.24788 10.0302C4.78045 8.57752 4.31302 7.12483 3.8456 5.67537C3.76188 5.4133 3.67118 5.15123 3.58398 4.8924C3.55607 4.80505 3.5177 4.71445 3.39212 4.7371C3.2805 4.75651 3.27352 4.84711 3.27352 4.93446C3.27701 6.39363 3.2805 7.85603 3.2805 9.31519C3.2805 10.5964 3.27701 11.8744 3.27352 13.1556C3.27352 13.3206 3.31189 13.4695 3.45491 13.5795C3.70258 13.7703 4.13163 13.6927 4.29558 13.408C4.42465 13.1783 4.51883 12.9324 4.6165 12.6897C5.01068 11.745 5.40485 10.797 5.79554 9.84904C6.00483 9.33784 6.21064 8.82665 6.40947 8.31222C6.45133 8.20545 6.50714 8.16016 6.63621 8.16339C6.97108 8.1731 7.30595 8.16663 7.6792 8.16663Z" fill="url(#paint0_linear_1062_951)"/>
<path d="M13.3827 12.4472C13.2816 12.7223 13.1874 13.0005 13.0793 13.2723C12.9537 13.5893 12.849 13.9194 12.6746 14.2105C12.256 14.9126 11.3526 14.7411 10.9828 14.3076C10.784 14.0747 10.7037 13.7964 10.6061 13.5246C10.3549 12.8225 10.1107 12.114 9.86656 11.4087C9.79331 11.1951 9.72703 10.9784 9.6189 10.7584C9.55262 10.9298 9.48634 11.1013 9.42355 11.276C9.0817 12.2046 8.75032 13.1396 8.398 14.0649C8.23406 14.492 7.88872 14.6991 7.44222 14.6894C7.02712 14.6797 6.6748 14.4241 6.52481 14.0196C6.40969 13.7026 6.30156 13.3855 6.19691 13.0652C6.18296 13.0231 6.17947 12.9714 6.19342 12.9326C6.3783 12.4667 6.56667 12.004 6.75503 11.5413C6.7655 11.5187 6.78643 11.496 6.82829 11.4378C7.04456 12.0525 7.25037 12.6349 7.46664 13.2496C7.50152 13.1623 7.52594 13.1008 7.54687 13.0426C7.85383 12.1949 8.16429 11.3472 8.46777 10.4995C8.59683 10.1436 8.77474 9.83627 9.16891 9.65833C9.64331 9.44156 10.3968 9.68745 10.6026 10.163C10.7317 10.4639 10.8328 10.7745 10.9409 11.0851C11.2095 11.8487 11.4747 12.6122 11.7398 13.3726C11.7467 13.3887 11.7572 13.4049 11.7816 13.4437C11.8967 13.1105 12.0014 12.7967 12.1095 12.4861C12.1618 12.3372 12.2177 12.1884 12.27 12.0363C12.3083 11.9296 12.3781 11.8778 12.5037 11.881C13.1072 11.8843 13.7141 11.8843 14.3176 11.8843C14.4362 11.8843 14.499 11.9231 14.5339 12.0299C14.6594 12.4246 14.7885 12.8193 14.928 13.2108C14.9699 13.3337 15.0187 13.4632 15.099 13.5635C15.3431 13.8643 15.8524 13.8288 16.0094 13.5052C16.0373 13.4437 16.0478 13.3726 16.0512 13.3046C16.0582 12.9164 16.0547 12.5249 16.0617 12.1366C16.0652 11.936 16.114 11.894 16.3303 11.894C16.5501 11.894 16.7698 11.8908 16.9896 11.8875C17.1187 11.8843 17.1884 11.9425 17.1884 12.0622C17.1849 12.5637 17.2094 13.0652 17.1675 13.5635C17.1117 14.2202 16.4315 14.7767 15.7199 14.8123C14.7955 14.8576 14.1222 14.34 13.8536 13.5861C13.7176 13.2076 13.5781 12.8323 13.442 12.4569C13.4141 12.4472 13.3967 12.4472 13.3827 12.4472Z" fill="#2F4057"/>
<path d="M11.3599 8.15907C11.4471 8.15907 11.5133 8.15907 11.5831 8.15907C11.8517 8.15907 12.1238 8.17201 12.3924 8.15907C12.5424 8.1526 12.6017 8.20113 12.6401 8.32731C12.7203 8.58938 12.8214 8.84498 12.9226 9.1394C12.9645 9.02939 12.9924 8.94851 13.0238 8.86762C13.5086 7.49905 13.9935 6.13047 14.4784 4.75866C14.5691 4.4966 14.6563 4.23776 14.8656 4.0307C15.2109 3.69422 15.6365 3.58421 16.1109 3.70069C16.5853 3.81716 16.9027 4.10188 17.0108 4.5613C17.0388 4.67778 17.0527 4.80072 17.0527 4.92043C17.0562 6.70638 17.0597 8.49232 17.0597 10.2783C17.0597 10.5339 17.0283 10.5662 16.7492 10.5662C15.5353 10.563 14.3179 10.5597 13.104 10.5565C12.8528 10.5565 12.6052 10.5533 12.354 10.5597C12.2389 10.563 12.1657 10.5209 12.1308 10.4174C11.8796 9.69265 11.625 8.97116 11.3738 8.24966C11.3703 8.22701 11.3703 8.21084 11.3599 8.15907ZM14.0458 9.48235C14.1191 9.48235 14.1679 9.48235 14.2202 9.48235C14.7191 9.48235 15.2214 9.48235 15.7202 9.48235C15.9225 9.48235 15.9225 9.48235 15.9225 9.29146C15.926 7.85494 15.926 6.41519 15.926 4.97867C15.926 4.88484 15.9713 4.75219 15.8144 4.72955C15.6609 4.7069 15.6504 4.83955 15.619 4.93338C15.2144 6.09812 14.8098 7.26286 14.4086 8.42761C14.2865 8.77056 14.1714 9.11351 14.0458 9.48235Z" fill="url(#paint1_linear_1062_951)"/>
<path d="M11.7117 6.38047C11.607 6.28664 11.4675 6.19281 11.3559 6.2284C11.3279 6.23811 11.3175 6.25105 11.2373 6.32223C10.9931 6.54224 10.9687 6.539 10.9617 6.53577C10.9338 6.51959 11.0245 6.37723 10.9826 6.34164C10.9407 6.30929 10.8047 6.40959 10.7873 6.39017C10.7698 6.37076 10.8884 6.29311 10.9338 6.19605C11.0314 5.97928 10.6826 5.82398 10.3861 5.24161C10.3861 5.24161 10.1873 4.85659 9.97101 4.71747C9.91171 4.68188 9.84892 4.656 9.84892 4.656C9.8245 4.64629 9.72334 4.6107 9.5873 4.6107C9.53498 4.6107 9.33964 4.61717 9.16522 4.73688C9.04313 4.821 8.97337 4.92454 8.935 5.0216C8.75012 5.46485 8.58268 5.91781 8.41525 6.37076C8.3699 6.49371 8.3106 6.54871 8.16409 6.54224C7.8362 6.5293 7.50481 6.539 7.1525 6.539C7.17343 6.46459 7.18389 6.40312 7.20482 6.34488C7.39667 5.84339 7.58504 5.33867 7.78387 4.83718C7.95131 4.41981 8.19897 4.09627 8.54082 3.88597C8.92802 3.64655 9.33964 3.61096 9.49661 3.60449C9.84543 3.58832 10.1071 3.66597 10.1803 3.68861C10.278 3.72097 10.5396 3.81156 10.7838 4.01215C11.1814 4.33893 11.3 4.766 11.3384 4.90513C11.5024 5.51338 11.2686 5.91457 11.614 6.28664C11.6524 6.33194 11.6872 6.36106 11.7117 6.38047Z" fill="url(#paint2_linear_1062_951)"/>
<path d="M12.7059 14.1532C12.5594 14.1532 12.3257 14.1273 12.1234 13.9882C11.8723 13.8134 11.799 13.5449 11.7711 13.4446C11.6281 12.9464 11.192 11.7622 10.5886 10.1348C10.5397 10.0507 10.4665 9.94391 10.3444 9.84685C10.0339 9.59125 9.65721 9.58154 9.5386 9.58154L9.61186 10.7657L10.77 14.0043C10.77 14.0043 11.0072 14.6773 11.8688 14.6902C11.9595 14.687 12.1304 14.6644 12.3118 14.5673C12.5594 14.4282 12.6676 14.2308 12.7059 14.1532Z" fill="url(#paint3_linear_1062_951)"/>
<path d="M9.55902 3.60273C9.56251 3.93921 9.56251 4.27569 9.566 4.61218C9.72297 4.60894 9.83111 4.64777 9.89041 4.67365C10.0962 4.76748 10.1974 4.93572 10.2671 5.0619C10.3334 5.17837 10.3683 5.27867 10.3857 5.34661C10.5078 5.6928 10.6264 6.04222 10.7485 6.38841C10.7485 6.38841 10.7625 6.534 10.9648 6.53077C11.1671 6.52753 11.9729 6.51783 11.9729 6.51783L11.3241 4.6963C11.2648 4.5507 11.0973 4.20128 10.6962 3.92627C10.2148 3.60597 9.71948 3.5995 9.55902 3.60273Z" fill="url(#paint4_linear_1062_951)"/>
<path d="M12.4824 7.84153H6.63263L6.97448 6.94208C6.97448 6.94208 7.01983 6.83532 7.13145 6.83532C7.24307 6.83532 11.9557 6.83532 11.9557 6.83532C11.9557 6.83532 12.1057 6.82561 12.1615 6.98738C12.2104 7.15239 12.4824 7.84153 12.4824 7.84153Z" fill="url(#paint5_linear_1062_951)"/>
<path d="M24.1 10.797L25.7875 4.86456H26.605L26.132 7.17098L24.3161 13.3662H23.5044L24.1 10.797ZM22.3541 4.86456L23.6971 10.6802L24.1 13.3662H23.2942L21.233 4.86456H22.3541ZM28.7888 10.6744L30.1026 4.86456H31.2295L29.1741 13.3662H28.3684L28.7888 10.6744ZM26.7276 4.86456L28.3684 10.797L28.9639 13.3662H28.1523L26.4006 7.17098L25.9218 4.86456H26.7276ZM33.2673 8.041V13.3662H32.1871V7.04836H33.2381L33.2673 8.041ZM35.2409 7.01333L35.2351 8.01764C35.1455 7.99818 35.0599 7.9865 34.9782 7.98261C34.9003 7.97482 34.8108 7.97093 34.7096 7.97093C34.4604 7.97093 34.2405 8.00986 34.0498 8.08771C33.859 8.16557 33.6975 8.27456 33.5651 8.4147C33.4328 8.55484 33.3277 8.72222 33.2498 8.91686C33.1758 9.1076 33.1272 9.3178 33.1038 9.54747L32.8002 9.72265C32.8002 9.34116 32.8372 8.98303 32.9111 8.64826C32.989 8.31349 33.1077 8.01764 33.2673 7.76073C33.4269 7.49991 33.6293 7.29749 33.8746 7.15346C34.1237 7.00554 34.4196 6.93158 34.7621 6.93158C34.84 6.93158 34.9295 6.94131 35.0307 6.96078C35.1319 6.97635 35.202 6.99386 35.2409 7.01333ZM37.413 7.04836V13.3662H36.327V7.04836H37.413ZM36.2452 5.37255C36.2452 5.19738 36.2978 5.04946 36.4029 4.92879C36.5119 4.80811 36.6715 4.74778 36.8817 4.74778C37.088 4.74778 37.2457 4.80811 37.3547 4.92879C37.4675 5.04946 37.524 5.19738 37.524 5.37255C37.524 5.53994 37.4675 5.68397 37.3547 5.80464C37.2457 5.92143 37.088 5.97982 36.8817 5.97982C36.6715 5.97982 36.5119 5.92143 36.4029 5.80464C36.2978 5.68397 36.2452 5.53994 36.2452 5.37255ZM41.7923 7.04836V7.87751H38.3765V7.04836H41.7923ZM39.5326 5.51269H40.6128V11.8013C40.6128 12.0154 40.6459 12.177 40.7121 12.286C40.7783 12.395 40.8639 12.467 40.969 12.502C41.0741 12.5371 41.187 12.5546 41.3077 12.5546C41.3972 12.5546 41.4906 12.5468 41.588 12.5312C41.6892 12.5118 41.7651 12.4962 41.8157 12.4845L41.8215 13.3662C41.7359 13.3935 41.623 13.4188 41.4829 13.4421C41.3466 13.4694 41.1812 13.483 40.9865 13.483C40.7218 13.483 40.4785 13.4304 40.2567 13.3253C40.0348 13.2202 39.8577 13.0451 39.7253 12.7998C39.5968 12.5507 39.5326 12.2159 39.5326 11.7955V5.51269ZM45.6811 13.483C45.2413 13.483 44.8423 13.409 44.4841 13.2611C44.1299 13.1093 43.8243 12.8971 43.5674 12.6247C43.3144 12.3522 43.1197 12.0291 42.9835 11.6554C42.8473 11.2817 42.7791 10.8729 42.7791 10.4292V10.1839C42.7791 9.67009 42.855 9.2127 43.0069 8.81175C43.1587 8.40691 43.365 8.06436 43.6258 7.78408C43.8866 7.50381 44.1824 7.29166 44.5133 7.14763C44.8442 7.0036 45.1868 6.93158 45.541 6.93158C45.9926 6.93158 46.3818 7.00943 46.7088 7.16514C47.0397 7.32085 47.3102 7.53884 47.5204 7.81912C47.7306 8.0955 47.8863 8.42248 47.9876 8.80008C48.0888 9.17377 48.1394 9.58251 48.1394 10.0263V10.5109H43.4214V9.62922H47.0592V9.54747C47.0436 9.2672 46.9852 8.99471 46.884 8.73001C46.7867 8.4653 46.631 8.24731 46.4169 8.07603C46.2028 7.90476 45.9108 7.81912 45.541 7.81912C45.2958 7.81912 45.07 7.87167 44.8637 7.97677C44.6574 8.07798 44.4802 8.2298 44.3323 8.43222C44.1844 8.63464 44.0696 8.88182 43.9878 9.17377C43.9061 9.46573 43.8652 9.80245 43.8652 10.1839V10.4292C43.8652 10.7289 43.9061 11.0111 43.9878 11.2758C44.0735 11.5366 44.1961 11.7663 44.3557 11.9648C44.5192 12.1634 44.7157 12.3191 44.9454 12.432C45.179 12.5449 45.4437 12.6013 45.7395 12.6013C46.121 12.6013 46.4441 12.5234 46.7088 12.3677C46.9735 12.212 47.2051 12.0038 47.4037 11.743L48.0576 12.2626C47.9214 12.4689 47.7482 12.6655 47.538 12.8524C47.3277 13.0392 47.0689 13.191 46.7614 13.3078C46.4577 13.4246 46.0977 13.483 45.6811 13.483ZM51.8005 10.797L53.4879 4.86456H54.3054L53.8324 7.17098L52.0165 13.3662H51.2049L51.8005 10.797ZM50.0546 4.86456L51.3976 10.6802L51.8005 13.3662H50.9947L48.9335 4.86456H50.0546ZM56.4892 10.6744L57.803 4.86456H58.9299L56.8746 13.3662H56.0688L56.4892 10.6744ZM54.428 4.86456L56.0688 10.797L56.6644 13.3662H55.8528L54.101 7.17098L53.6222 4.86456H54.428ZM61.1896 7.04836V13.3662H60.1036V7.04836H61.1896ZM60.0218 5.37255C60.0218 5.19738 60.0744 5.04946 60.1795 4.92879C60.2885 4.80811 60.4481 4.74778 60.6583 4.74778C60.8646 4.74778 61.0223 4.80811 61.1313 4.92879C61.2441 5.04946 61.3006 5.19738 61.3006 5.37255C61.3006 5.53994 61.2441 5.68397 61.1313 5.80464C61.0223 5.92143 60.8646 5.97982 60.6583 5.97982C60.4481 5.97982 60.2885 5.92143 60.1795 5.80464C60.0744 5.68397 60.0218 5.53994 60.0218 5.37255ZM66.6024 11.6904C66.6024 11.5347 66.5674 11.3907 66.4973 11.2583C66.4312 11.1221 66.293 10.9995 66.0828 10.8905C65.8765 10.7776 65.565 10.6802 65.1485 10.5985C64.7982 10.5245 64.4809 10.437 64.1968 10.3357C63.9165 10.2345 63.6771 10.1119 63.4786 9.96789C63.2839 9.82386 63.134 9.65452 63.0289 9.45989C62.9238 9.26525 62.8713 9.03753 62.8713 8.77672C62.8713 8.52759 62.9258 8.29208 63.0348 8.07019C63.1477 7.84831 63.3053 7.65173 63.5077 7.48045C63.7141 7.30917 63.9612 7.17487 64.2493 7.07756C64.5374 6.98024 64.8585 6.93158 65.2127 6.93158C65.7188 6.93158 66.1509 7.02111 66.509 7.20018C66.8671 7.37924 67.1416 7.61864 67.3323 7.91838C67.5231 8.21422 67.6184 8.54316 67.6184 8.90518H66.5382C66.5382 8.73001 66.4857 8.56067 66.3806 8.39718C66.2793 8.2298 66.1295 8.0916 65.931 7.98261C65.7363 7.87361 65.4969 7.81912 65.2127 7.81912C64.913 7.81912 64.6697 7.86583 64.4829 7.95925C64.2999 8.04879 64.1656 8.16362 64.08 8.30376C63.9982 8.44389 63.9574 8.59182 63.9574 8.74752C63.9574 8.86431 63.9768 8.96941 64.0157 9.06283C64.0586 9.15237 64.1325 9.23606 64.2376 9.31391C64.3427 9.38787 64.4907 9.45794 64.6814 9.52412C64.8721 9.59029 65.1154 9.65647 65.4113 9.72265C65.929 9.83943 66.3553 9.97956 66.69 10.1431C67.0248 10.3066 67.2739 10.507 67.4374 10.7445C67.6009 10.9819 67.6827 11.27 67.6827 11.6087C67.6827 11.885 67.6243 12.1381 67.5075 12.3677C67.3946 12.5974 67.2292 12.7959 67.0112 12.9633C66.7971 13.1268 66.5402 13.2553 66.2404 13.3487C65.9446 13.4382 65.6118 13.483 65.2419 13.483C64.6853 13.483 64.2143 13.3837 63.8289 13.1852C63.4435 12.9867 63.1516 12.7298 62.953 12.4144C62.7545 12.0991 62.6552 11.7663 62.6552 11.416H63.7413C63.7569 11.7118 63.8425 11.9473 63.9982 12.1225C64.1539 12.2938 64.3447 12.4164 64.5705 12.4904C64.7962 12.5604 65.0201 12.5955 65.2419 12.5955C65.5378 12.5955 65.785 12.5565 65.9835 12.4787C66.1859 12.4008 66.3397 12.2938 66.4448 12.1575C66.5499 12.0213 66.6024 11.8656 66.6024 11.6904ZM71.7233 13.483C71.2834 13.483 70.8844 13.409 70.5263 13.2611C70.172 13.1093 69.8665 12.8971 69.6096 12.6247C69.3565 12.3522 69.1619 12.0291 69.0256 11.6554C68.8894 11.2817 68.8213 10.8729 68.8213 10.4292V10.1839C68.8213 9.67009 68.8972 9.2127 69.049 8.81175C69.2008 8.40691 69.4071 8.06436 69.6679 7.78408C69.9288 7.50381 70.2246 7.29166 70.5555 7.14763C70.8864 7.0036 71.2289 6.93158 71.5831 6.93158C72.0347 6.93158 72.424 7.00943 72.751 7.16514C73.0818 7.32085 73.3524 7.53884 73.5626 7.81912C73.7728 8.0955 73.9285 8.42248 74.0297 8.80008C74.1309 9.17377 74.1815 9.58251 74.1815 10.0263V10.5109H69.4636V9.62922H73.1013V9.54747C73.0857 9.2672 73.0273 8.99471 72.9261 8.73001C72.8288 8.4653 72.6731 8.24731 72.459 8.07603C72.2449 7.90476 71.953 7.81912 71.5831 7.81912C71.3379 7.81912 71.1121 7.87167 70.9058 7.97677C70.6995 8.07798 70.5224 8.2298 70.3745 8.43222C70.2265 8.63464 70.1117 8.88182 70.03 9.17377C69.9482 9.46573 69.9073 9.80245 69.9073 10.1839V10.4292C69.9073 10.7289 69.9482 11.0111 70.03 11.2758C70.1156 11.5366 70.2382 11.7663 70.3978 11.9648C70.5613 12.1634 70.7579 12.3191 70.9876 12.432C71.2211 12.5449 71.4858 12.6013 71.7817 12.6013C72.1632 12.6013 72.4863 12.5234 72.751 12.3677C73.0157 12.212 73.2473 12.0038 73.4458 11.743L74.0998 12.2626C73.9635 12.4689 73.7903 12.6655 73.5801 12.8524C73.3699 13.0392 73.111 13.191 72.8035 13.3078C72.4999 13.4246 72.1398 13.483 71.7233 13.483Z" fill="#F3F3F3"/>
<path d="M78.7535 5.61779L75.9391 13.3662H74.7888L78.0295 4.86456H78.771L78.7535 5.61779ZM81.1125 13.3662L78.2922 5.61779L78.2747 4.86456H79.0163L82.2686 13.3662H81.1125ZM80.9665 10.219V11.1415H76.1902V10.219H80.9665ZM84.6159 4.86456V13.3662H83.489V4.86456H84.6159Z" fill="#DA282E"/>
<defs>
<linearGradient id="paint0_linear_1062_951" x1="4.93013" y1="13.9211" x2="4.90174" y2="4.26519" gradientUnits="userSpaceOnUse">
<stop stop-color="#2F4057"/>
<stop offset="0.244" stop-color="#33445A"/>
<stop offset="0.5296" stop-color="#3F4E63"/>
<stop offset="0.835" stop-color="#546173"/>
<stop offset="1" stop-color="#626E7E"/>
</linearGradient>
<linearGradient id="paint1_linear_1062_951" x1="14.3258" y1="9.92198" x2="14.1693" y2="4.6341" gradientUnits="userSpaceOnUse">
<stop stop-color="#2F4057"/>
<stop offset="0.244" stop-color="#33445A"/>
<stop offset="0.5296" stop-color="#3F4E63"/>
<stop offset="0.835" stop-color="#546173"/>
<stop offset="1" stop-color="#626E7E"/>
</linearGradient>
<linearGradient id="paint2_linear_1062_951" x1="9.43236" y1="7.75678" x2="9.42861" y2="4.49608" gradientUnits="userSpaceOnUse">
<stop stop-color="#2F4057"/>
<stop offset="0.244" stop-color="#33445A"/>
<stop offset="0.5296" stop-color="#3F4E63"/>
<stop offset="0.835" stop-color="#546173"/>
<stop offset="1" stop-color="#626E7E"/>
</linearGradient>
<linearGradient id="paint3_linear_1062_951" x1="10.3684" y1="10.0306" x2="11.5608" y2="14.279" gradientUnits="userSpaceOnUse">
<stop stop-color="#DA282D"/>
<stop offset="0.3145" stop-color="#D3272C"/>
<stop offset="0.682" stop-color="#C12328"/>
<stop offset="1" stop-color="#AB1F23"/>
</linearGradient>
<linearGradient id="paint4_linear_1062_951" x1="11.213" y1="5.67789" x2="10.0926" y2="4.28581" gradientUnits="userSpaceOnUse">
<stop stop-color="#DA282D"/>
<stop offset="0.9657" stop-color="#AB1F23"/>
</linearGradient>
<linearGradient id="paint5_linear_1062_951" x1="9.5566" y1="7.79767" x2="9.54796" y2="6.96377" gradientUnits="userSpaceOnUse">
<stop stop-color="#DA282D"/>
<stop offset="0.8642" stop-color="#AB1F23"/>
</linearGradient>
</defs>
</svg>
