<svg width="56" height="54" viewBox="0 0 56 54" fill="none" xmlns="http://www.w3.org/2000/svg">
<path d="M48.1276 0C50.8005 1.60427 53.2835 3.09396 56 4.72589C53.327 6.34202 50.8322 7.8475 48.3533 9.34509C48.2068 9.18703 48.1157 9.13566 48.1117 9.07639C47.9956 7.76189 47.2577 7.10596 45.8981 7.10859C43.6211 7.10859 41.3481 7.10859 38.9167 7.10859C38.9167 7.9858 38.9167 8.72077 38.9167 9.45573C38.9246 12.526 38.9444 15.5923 38.9444 18.6625C38.9444 20.6738 37.9861 21.5905 35.9427 21.5866C31.6026 21.5787 27.2664 21.5747 22.9263 21.5787C22.6174 21.5787 22.3085 21.6221 21.8492 21.6537C21.8492 22.3531 21.8492 23.0051 21.8492 23.6611C21.8492 26.5732 21.8452 29.4854 21.8412 32.3976C21.8373 35.4086 21.2473 36.0092 18.2694 36.0132C14.2064 36.0132 10.1435 36.0408 6.0845 35.9934C5.07867 35.9816 4.71039 36.2265 4.73019 37.3013C4.79751 40.8418 4.78563 44.3862 4.73019 47.9267C4.71435 48.9185 5.04303 49.1872 6.01322 49.1872C20.6453 49.1595 35.2774 49.1595 49.9056 49.1911C50.9629 49.1911 51.2282 48.879 51.2243 47.8556C51.1926 36.681 51.2243 25.5024 51.1807 14.3278C51.1768 13.1187 51.5173 12.7907 52.7132 12.8144C56 12.8856 55.9644 12.8342 55.9604 16.1099C55.9446 27.403 55.9564 38.6962 55.9564 49.9893C55.9564 50.3845 55.9683 50.7756 55.9604 51.1708C55.9248 53.0161 55.0496 53.9091 53.1805 53.9131C48.4087 53.9289 43.637 53.9052 38.8652 53.921C32.4381 53.9407 26.0151 53.996 19.588 54C13.949 54 8.31001 53.9605 2.67496 53.9131C0.940494 53.8973 0.0257398 53.0121 0.0178199 51.2893C-0.00593996 45.5045 -0.00593996 39.7196 0.0178199 33.9387C0.0257398 32.1368 0.892975 31.311 2.76604 31.2991C7.10618 31.2754 11.4424 31.2596 15.7825 31.311C16.816 31.3228 17.1408 31.0383 17.121 29.9833C17.0576 26.5219 17.0972 23.0565 17.1051 19.5951C17.1091 17.7853 17.9486 16.8804 19.7583 16.8686C24.1341 16.833 28.5138 16.8133 32.8896 16.8686C33.9627 16.8804 34.2162 16.5288 34.2003 15.5211C34.1409 12.0597 34.1647 8.59432 34.1726 5.13288C34.1766 3.27572 35.0636 2.3906 36.9248 2.38665C40.1205 2.37875 43.3162 2.33528 46.5079 2.42222C47.7276 2.45383 48.286 2.14167 48.0721 0.873262C48.0404 0.687546 48.0919 0.489975 48.1236 0.00790282L48.1276 0Z" fill="white"/>
</svg>
