<svg width="76" height="79" viewBox="0 0 76 79" fill="none" xmlns="http://www.w3.org/2000/svg">
<path d="M23.2574 6.216C22.0217 4.11077 20.8171 2.05457 19.6108 0C25.3496 2.8522 31.4005 4.61746 37.8649 5.82536C32.3109 9.33463 27.2554 13.1152 22.9567 17.9076C23.2917 15.7925 23.6268 13.6775 23.9831 11.4317C21.5739 12.5137 19.4866 13.8279 17.5448 15.3659C12.2066 19.5944 8.50115 24.9686 6.48581 31.469C4.93794 36.4641 4.63229 41.5653 5.54271 46.7173C6.72282 53.4007 9.72376 59.1722 14.503 63.9711C19.4392 68.9269 25.3545 72.1043 32.2913 73.2501C40.7662 74.6476 48.6788 73.0785 55.815 68.3025C63.7325 63.0034 68.5886 55.6155 70.1692 46.1534C70.8737 41.9347 70.6465 37.752 69.7491 33.5873C69.4141 32.0346 70.1676 30.7253 71.5422 30.4131C73.0377 30.0732 74.2571 30.9198 74.6297 32.5543C78.4806 49.4436 70.4863 66.6124 55.0958 74.5381C48.9746 77.6894 42.4497 79.1686 35.6159 78.6358C21.4774 77.5341 10.9317 70.6627 4.19915 58.1653C0.725835 51.7205 -0.549075 44.7461 0.212602 37.4709C1.3306 26.7944 6.13603 18.0874 14.5325 11.3843C16.9695 9.43924 19.6256 7.8505 22.481 6.59357C22.7246 6.48733 22.9599 6.36147 23.2574 6.216Z" fill="white"/>
<path d="M37.852 48.4761C39.6303 46.6455 41.2975 44.9292 42.963 43.213C43.2099 42.9597 43.5139 42.7439 43.7002 42.4513C45.1614 40.1516 47.4073 40.2595 49.6302 40.6256C54.9619 41.5033 58.2391 45.4604 58.2423 50.869C58.244 53.9746 58.2293 57.0801 58.2554 60.1857C58.2603 60.8084 58.105 61.0372 57.4365 61.0372C44.3344 61.0193 31.2322 61.0209 18.1301 61.0356C17.5188 61.0356 17.3374 60.8378 17.3423 60.2363C17.3668 57.049 17.3177 53.8618 17.3619 50.6745C17.4371 45.3362 20.7469 41.4739 26.0149 40.6256C27.213 40.4327 28.4601 40.5177 29.6827 40.5455C29.9524 40.552 30.2597 40.8168 30.4771 41.0342C32.8815 43.4435 35.2711 45.8674 37.8503 48.4761H37.852Z" fill="white"/>
<path d="M37.7865 39.1987C31.6571 39.1709 26.7879 34.2854 26.8141 28.1903C26.8386 22.0822 31.7405 17.2081 37.8404 17.2261C43.96 17.2425 48.8994 22.2326 48.8275 28.326C48.7572 34.3884 43.8439 39.2265 37.7848 39.1987H37.7865Z" fill="white"/>
</svg>
