<svg width="232" height="36" viewBox="0 0 232 36" fill="none" xmlns="http://www.w3.org/2000/svg">
<path d="M64.5156 23.3906L69.0469 4.25H71.5781L72.1562 7.4375L67.3281 27H64.6094L64.5156 23.3906ZM62.1875 4.25L65.9375 23.3906L65.625 27H62.5938L57.5469 4.25H62.1875ZM76.1406 23.3125L79.8438 4.25H84.4844L79.4531 27H76.4219L76.1406 23.3125ZM73 4.25L77.5625 23.4688L77.4375 27H74.7188L69.8594 7.42188L70.4844 4.25H73ZM90.9062 13.7812V27H86.4062V10.0938H90.6406L90.9062 13.7812ZM96 9.98438L95.9219 14.1562C95.7031 14.125 95.4375 14.099 95.125 14.0781C94.8229 14.0469 94.5469 14.0312 94.2969 14.0312C93.6615 14.0312 93.1094 14.1146 92.6406 14.2812C92.1823 14.4375 91.7969 14.6719 91.4844 14.9844C91.1823 15.2969 90.9531 15.6771 90.7969 16.125C90.651 16.5729 90.5677 17.0833 90.5469 17.6562L89.6406 17.375C89.6406 16.2812 89.75 15.276 89.9688 14.3594C90.1875 13.4323 90.5052 12.625 90.9219 11.9375C91.349 11.25 91.8698 10.7188 92.4844 10.3438C93.099 9.96875 93.8021 9.78125 94.5938 9.78125C94.8438 9.78125 95.099 9.80208 95.3594 9.84375C95.6198 9.875 95.8333 9.92188 96 9.98438ZM102.875 10.0938V27H98.3594V10.0938H102.875ZM98.0781 5.6875C98.0781 5.03125 98.3073 4.48958 98.7656 4.0625C99.224 3.63542 99.8385 3.42188 100.609 3.42188C101.37 3.42188 101.979 3.63542 102.438 4.0625C102.906 4.48958 103.141 5.03125 103.141 5.6875C103.141 6.34375 102.906 6.88542 102.438 7.3125C101.979 7.73958 101.37 7.95312 100.609 7.95312C99.8385 7.95312 99.224 7.73958 98.7656 7.3125C98.3073 6.88542 98.0781 6.34375 98.0781 5.6875ZM114.875 10.0938V13.2812H105.031V10.0938H114.875ZM107.469 5.92188H111.969V21.9062C111.969 22.3958 112.031 22.7708 112.156 23.0312C112.292 23.2917 112.49 23.474 112.75 23.5781C113.01 23.6719 113.339 23.7188 113.734 23.7188C114.016 23.7188 114.266 23.7083 114.484 23.6875C114.714 23.6562 114.906 23.625 115.062 23.5938L115.078 26.9062C114.693 27.0312 114.276 27.1302 113.828 27.2031C113.38 27.276 112.885 27.3125 112.344 27.3125C111.354 27.3125 110.49 27.151 109.75 26.8281C109.021 26.4948 108.458 25.9635 108.062 25.2344C107.667 24.5052 107.469 23.5469 107.469 22.3594V5.92188ZM125.219 27.3125C123.906 27.3125 122.729 27.1042 121.688 26.6875C120.646 26.2604 119.76 25.6719 119.031 24.9219C118.312 24.1719 117.76 23.3021 117.375 22.3125C116.99 21.3125 116.797 20.25 116.797 19.125V18.5C116.797 17.2188 116.979 16.0469 117.344 14.9844C117.708 13.9219 118.229 13 118.906 12.2188C119.594 11.4375 120.427 10.8385 121.406 10.4219C122.385 9.99479 123.49 9.78125 124.719 9.78125C125.917 9.78125 126.979 9.97917 127.906 10.375C128.833 10.7708 129.609 11.3333 130.234 12.0625C130.87 12.7917 131.349 13.6667 131.672 14.6875C131.995 15.6979 132.156 16.8229 132.156 18.0625V19.9375H118.719V16.9375H127.734V16.5938C127.734 15.9688 127.62 15.4115 127.391 14.9219C127.172 14.4219 126.839 14.026 126.391 13.7344C125.943 13.4427 125.37 13.2969 124.672 13.2969C124.078 13.2969 123.568 13.4271 123.141 13.6875C122.714 13.9479 122.365 14.3125 122.094 14.7812C121.833 15.25 121.635 15.8021 121.5 16.4375C121.375 17.0625 121.312 17.75 121.312 18.5V19.125C121.312 19.8021 121.406 20.4271 121.594 21C121.792 21.5729 122.068 22.0677 122.422 22.4844C122.786 22.901 123.224 23.224 123.734 23.4531C124.255 23.6823 124.844 23.7969 125.5 23.7969C126.312 23.7969 127.068 23.6406 127.766 23.3281C128.474 23.0052 129.083 22.5208 129.594 21.875L131.781 24.25C131.427 24.7604 130.943 25.25 130.328 25.7188C129.724 26.1875 128.995 26.5729 128.141 26.875C127.286 27.1667 126.312 27.3125 125.219 27.3125ZM140.484 23.3906L145.016 4.25H147.547L148.125 7.4375L143.297 27H140.578L140.484 23.3906ZM138.156 4.25L141.906 23.3906L141.594 27H138.562L133.516 4.25H138.156ZM152.109 23.3125L155.812 4.25H160.453L155.422 27H152.391L152.109 23.3125ZM148.969 4.25L153.531 23.4688L153.406 27H150.688L145.828 7.42188L146.453 4.25H148.969ZM167.469 10.0938V27H162.953V10.0938H167.469ZM162.672 5.6875C162.672 5.03125 162.901 4.48958 163.359 4.0625C163.818 3.63542 164.432 3.42188 165.203 3.42188C165.964 3.42188 166.573 3.63542 167.031 4.0625C167.5 4.48958 167.734 5.03125 167.734 5.6875C167.734 6.34375 167.5 6.88542 167.031 7.3125C166.573 7.73958 165.964 7.95312 165.203 7.95312C164.432 7.95312 163.818 7.73958 163.359 7.3125C162.901 6.88542 162.672 6.34375 162.672 5.6875ZM180.328 22.3281C180.328 22.0052 180.234 21.7135 180.047 21.4531C179.859 21.1927 179.51 20.9531 179 20.7344C178.5 20.5052 177.776 20.2969 176.828 20.1094C175.974 19.9219 175.177 19.6875 174.438 19.4062C173.708 19.1146 173.073 18.7656 172.531 18.3594C172 17.9531 171.583 17.474 171.281 16.9219C170.979 16.3594 170.828 15.7188 170.828 15C170.828 14.2917 170.979 13.625 171.281 13C171.594 12.375 172.036 11.8229 172.609 11.3438C173.193 10.8542 173.901 10.474 174.734 10.2031C175.578 9.92188 176.526 9.78125 177.578 9.78125C179.047 9.78125 180.307 10.0156 181.359 10.4844C182.422 10.9531 183.234 11.599 183.797 12.4219C184.37 13.2344 184.656 14.1615 184.656 15.2031H180.156C180.156 14.7656 180.062 14.375 179.875 14.0312C179.698 13.6771 179.417 13.401 179.031 13.2031C178.656 12.9948 178.167 12.8906 177.562 12.8906C177.062 12.8906 176.63 12.9792 176.266 13.1562C175.901 13.3229 175.62 13.5521 175.422 13.8438C175.234 14.125 175.141 14.4375 175.141 14.7812C175.141 15.0417 175.193 15.276 175.297 15.4844C175.411 15.6823 175.594 15.8646 175.844 16.0312C176.094 16.1979 176.417 16.3542 176.812 16.5C177.219 16.6354 177.719 16.7604 178.312 16.875C179.531 17.125 180.62 17.4531 181.578 17.8594C182.536 18.2552 183.297 18.7969 183.859 19.4844C184.422 20.1615 184.703 21.0521 184.703 22.1562C184.703 22.9062 184.536 23.5938 184.203 24.2188C183.87 24.8438 183.391 25.3906 182.766 25.8594C182.141 26.3177 181.391 26.6771 180.516 26.9375C179.651 27.1875 178.677 27.3125 177.594 27.3125C176.021 27.3125 174.688 27.0312 173.594 26.4688C172.51 25.9062 171.688 25.1927 171.125 24.3281C170.573 23.4531 170.297 22.5573 170.297 21.6406H174.562C174.583 22.2552 174.74 22.75 175.031 23.125C175.333 23.5 175.714 23.7708 176.172 23.9375C176.641 24.1042 177.146 24.1875 177.688 24.1875C178.271 24.1875 178.755 24.1094 179.141 23.9531C179.526 23.7865 179.818 23.5677 180.016 23.2969C180.224 23.0156 180.328 22.6927 180.328 22.3281ZM195.406 27.3125C194.094 27.3125 192.917 27.1042 191.875 26.6875C190.833 26.2604 189.948 25.6719 189.219 24.9219C188.5 24.1719 187.948 23.3021 187.562 22.3125C187.177 21.3125 186.984 20.25 186.984 19.125V18.5C186.984 17.2188 187.167 16.0469 187.531 14.9844C187.896 13.9219 188.417 13 189.094 12.2188C189.781 11.4375 190.615 10.8385 191.594 10.4219C192.573 9.99479 193.677 9.78125 194.906 9.78125C196.104 9.78125 197.167 9.97917 198.094 10.375C199.021 10.7708 199.797 11.3333 200.422 12.0625C201.057 12.7917 201.536 13.6667 201.859 14.6875C202.182 15.6979 202.344 16.8229 202.344 18.0625V19.9375H188.906V16.9375H197.922V16.5938C197.922 15.9688 197.807 15.4115 197.578 14.9219C197.359 14.4219 197.026 14.026 196.578 13.7344C196.13 13.4427 195.557 13.2969 194.859 13.2969C194.266 13.2969 193.755 13.4271 193.328 13.6875C192.901 13.9479 192.552 14.3125 192.281 14.7812C192.021 15.25 191.823 15.8021 191.688 16.4375C191.562 17.0625 191.5 17.75 191.5 18.5V19.125C191.5 19.8021 191.594 20.4271 191.781 21C191.979 21.5729 192.255 22.0677 192.609 22.4844C192.974 22.901 193.411 23.224 193.922 23.4531C194.443 23.6823 195.031 23.7969 195.688 23.7969C196.5 23.7969 197.255 23.6406 197.953 23.3281C198.661 23.0052 199.271 22.5208 199.781 21.875L201.969 24.25C201.615 24.7604 201.13 25.25 200.516 25.7188C199.911 26.1875 199.182 26.5729 198.328 26.875C197.474 27.1667 196.5 27.3125 195.406 27.3125ZM214.438 8.14062L208.25 27H203.266L211.719 4.25H214.891L214.438 8.14062ZM219.578 27L213.375 8.14062L212.875 4.25H216.078L224.578 27H219.578ZM219.297 18.5312V22.2031H207.281V18.5312H219.297ZM231.672 4.25V27H227V4.25H231.672Z" fill="#F3F3F3"/>
<path d="M15.7476 13.0287C15.3992 13.9243 15.1105 14.7368 14.782 15.54C12.9902 19.8886 11.1885 24.2279 9.38682 28.5673C8.47104 30.7739 6.09198 32.0665 3.66315 31.6787C1.57277 31.3463 0 29.6383 0 27.6625C0 23.4155 0.0199081 19.1685 0.0199081 14.9214C0.0298623 11.0991 0.0199086 7.27681 0.039817 3.44526C0.0497712 1.90341 1.22437 0.592375 2.8469 0.250768C4.73821 -0.155469 6.52001 0.897053 7.13717 2.75281C8.01314 5.36565 8.89907 7.97849 9.78499 10.5913C10.1633 11.6992 10.5415 12.8072 10.9098 13.9243C10.9596 14.0628 10.9596 14.2475 10.8999 14.3859C10.3623 15.7247 9.8049 17.0542 9.24747 18.3837C9.19769 18.5129 9.10811 18.633 8.98866 18.8453C8.89907 18.6053 8.8493 18.476 8.80948 18.3467C7.47561 14.2013 6.14175 10.0558 4.80789 5.91961C4.56898 5.17177 4.31017 4.42392 4.06132 3.68531C3.98169 3.43603 3.87219 3.17751 3.51384 3.24214C3.1953 3.29754 3.17539 3.55605 3.17539 3.80533C3.18535 7.96926 3.1953 12.1424 3.1953 16.3063C3.1953 19.9625 3.18535 23.6094 3.17539 27.2655C3.17539 27.7363 3.28489 28.161 3.69301 28.475C4.39976 29.0197 5.62413 28.7981 6.09198 27.9856C6.46029 27.3301 6.72905 26.6284 7.00777 25.936C8.13259 23.24 9.25742 20.5349 10.3723 17.8297C10.9695 16.371 11.5568 14.9122 12.1242 13.4442C12.2437 13.1395 12.4029 13.0103 12.7713 13.0195C13.7269 13.0472 14.6825 13.0287 15.7476 13.0287Z" fill="url(#paint0_linear_752_643)"/>
<path d="M32.0285 25.2433C31.7399 26.0281 31.4711 26.8221 31.1625 27.5976C30.8042 28.5024 30.5055 29.4442 30.0078 30.2751C28.8133 32.2786 26.2352 31.7892 25.18 30.5521C24.6126 29.8873 24.3837 29.0933 24.105 28.3178C23.3883 26.3143 22.6915 24.2923 21.9947 22.2796C21.7856 21.6703 21.5965 21.0517 21.2879 20.4239C21.0988 20.9132 20.9097 21.4025 20.7305 21.9011C19.755 24.5508 18.8093 27.2191 17.804 29.8596C17.3361 31.0783 16.3506 31.6692 15.0765 31.6415C13.892 31.6138 12.8866 30.8844 12.4585 29.7304C12.1301 28.8256 11.8215 27.9208 11.5229 27.0067C11.483 26.8867 11.4731 26.739 11.5129 26.6282C12.0405 25.2987 12.578 23.9784 13.1155 22.6582C13.1454 22.5935 13.2051 22.5289 13.3246 22.3627C13.9417 24.1169 14.529 25.7788 15.1462 27.533C15.2457 27.2837 15.3154 27.1083 15.3751 26.9421C16.2511 24.5231 17.137 22.1042 18.003 19.6852C18.3714 18.6697 18.879 17.7926 20.0038 17.2848C21.3576 16.6662 23.5077 17.3679 24.095 18.7251C24.4633 19.5837 24.752 20.47 25.0606 21.3564C25.8271 23.5353 26.5836 25.7142 27.3401 27.8838C27.36 27.93 27.3899 27.9762 27.4595 28.087C27.788 27.136 28.0867 26.2404 28.3952 25.3541C28.5446 24.9294 28.7038 24.5047 28.8531 24.0708C28.9626 23.7661 29.1617 23.6184 29.5201 23.6276C31.2421 23.6368 32.9742 23.6368 34.6963 23.6368C35.0347 23.6368 35.2139 23.7476 35.3134 24.0523C35.6718 25.1787 36.0401 26.305 36.4382 27.4222C36.5577 27.773 36.6971 28.1423 36.926 28.4286C37.6228 29.2872 39.0761 29.1856 39.5241 28.2624C39.6037 28.087 39.6336 27.8838 39.6435 27.6899C39.6634 26.582 39.6535 25.4649 39.6734 24.357C39.6833 23.7845 39.8227 23.6645 40.4398 23.6645C41.067 23.6645 41.6941 23.6553 42.3212 23.646C42.6895 23.6368 42.8886 23.803 42.8886 24.1446C42.8786 25.5757 42.9483 27.0067 42.8289 28.4286C42.6696 30.3028 40.7285 31.8908 38.6979 31.9924C36.06 32.1216 34.1388 30.6444 33.3724 28.4932C32.9841 27.413 32.586 26.342 32.1978 25.271C32.1181 25.2433 32.0683 25.2433 32.0285 25.2433Z" fill="#F3F3F3"/>
<path d="M26.2502 13.0094C26.4991 13.0094 26.6882 13.0094 26.8873 13.0094C27.6538 13.0094 28.4302 13.0463 29.1967 13.0094C29.6247 12.9909 29.7939 13.1294 29.9034 13.4894C30.1324 14.2373 30.4211 14.9667 30.7097 15.8068C30.8292 15.4929 30.9088 15.2621 30.9984 15.0313C32.382 11.1259 33.7657 7.22049 35.1493 3.30585C35.4081 2.558 35.657 1.81939 36.2542 1.2285C37.2397 0.268307 38.4541 -0.0456041 39.8079 0.286771C41.1617 0.619146 42.0675 1.43162 42.3761 2.74265C42.4557 3.07503 42.4955 3.42587 42.4955 3.76748C42.5055 8.8639 42.5154 13.9603 42.5154 19.0567C42.5154 19.7861 42.4258 19.8784 41.6295 19.8784C38.1654 19.8692 34.6914 19.86 31.2274 19.8507C30.5106 19.8507 29.8039 19.8415 29.0872 19.86C28.7587 19.8692 28.5497 19.7492 28.4501 19.4537C27.7334 17.3856 27.0068 15.3267 26.2901 13.2679C26.2801 13.2032 26.2801 13.1571 26.2502 13.0094ZM33.915 16.7855C34.124 16.7855 34.2634 16.7855 34.4127 16.7855C35.8362 16.7855 37.2696 16.7855 38.693 16.7855C39.2704 16.7855 39.2704 16.7855 39.2704 16.2408C39.2803 12.1415 39.2803 8.03296 39.2803 3.93366C39.2803 3.66592 39.4097 3.28738 38.9618 3.22275C38.5238 3.15812 38.4939 3.53666 38.4043 3.80441C37.2497 7.12816 36.095 10.4519 34.9502 13.7757C34.6018 14.7543 34.2733 15.733 33.915 16.7855Z" fill="url(#paint1_linear_752_643)"/>
<path d="M27.2477 7.93252C26.9491 7.66477 26.5509 7.39703 26.2324 7.49859C26.1527 7.52628 26.1229 7.56321 25.8939 7.76633C25.1971 8.39415 25.1275 8.38492 25.1076 8.37569C25.0279 8.32952 25.2867 7.92329 25.1673 7.82173C25.0478 7.7294 24.6596 8.01561 24.6098 7.96022C24.5601 7.90482 24.8985 7.68324 25.0279 7.40626C25.3066 6.78767 24.3112 6.34451 23.4651 4.68263C23.4651 4.68263 22.8977 3.58394 22.2806 3.18694C22.1113 3.08538 21.9322 3.01152 21.9322 3.01152C21.8625 2.98382 21.5738 2.88226 21.1856 2.88226C21.0363 2.88226 20.4788 2.90073 19.9811 3.24234C19.6327 3.48239 19.4336 3.77783 19.3242 4.05481C18.7966 5.31968 18.3188 6.61225 17.841 7.90482C17.7116 8.25566 17.5423 8.41262 17.1243 8.39415C16.1886 8.35722 15.2429 8.38492 14.2375 8.38492C14.2973 8.17257 14.3271 7.99715 14.3869 7.83096C14.9343 6.3999 15.4719 4.95961 16.0393 3.52855C16.5171 2.33754 17.2238 1.41428 18.1993 0.814154C19.3042 0.130938 20.4788 0.0293779 20.9268 0.0109126C21.9222 -0.0352506 22.6688 0.186333 22.8778 0.250962C23.1565 0.343288 23.9031 0.601802 24.5999 1.17423C25.7347 2.10672 26.0731 3.32543 26.1826 3.72244C26.6505 5.45817 25.9835 6.60302 26.969 7.66477C27.0785 7.79403 27.178 7.87713 27.2477 7.93252Z" fill="url(#paint2_linear_752_643)"/>
<path d="M30.0887 30.1092C29.6706 30.1092 29.0037 30.0353 28.4264 29.6383C27.7097 29.1398 27.5006 28.3735 27.421 28.0873C27.0129 26.6654 25.7686 23.2863 24.0465 18.6423C23.9072 18.4022 23.6981 18.0975 23.3497 17.8206C22.4638 17.0912 21.3887 17.0635 21.0503 17.0635L21.2593 20.4426L24.5641 29.6845C24.5641 29.6845 25.241 31.6049 27.6997 31.6418C27.9585 31.6326 28.4463 31.568 28.9639 31.291C29.6706 30.894 29.9792 30.3308 30.0887 30.1092Z" fill="url(#paint3_linear_752_643)"/>
<path d="M21.1128 0.00124414C21.1227 0.961439 21.1227 1.92163 21.1327 2.88183C21.5806 2.8726 21.8892 2.98339 22.0584 3.05725C22.6457 3.325 22.9344 3.80509 23.1335 4.16517C23.3226 4.49754 23.4222 4.78375 23.4719 4.97764C23.8203 5.96553 24.1588 6.96266 24.5072 7.95055C24.5072 7.95055 24.547 8.36602 25.1243 8.35679C25.7017 8.34755 28.0011 8.31986 28.0011 8.31986L26.1496 3.12188C25.9804 2.70641 25.5026 1.70928 24.3579 0.924507C22.9842 0.0104754 21.5707 -0.0079885 21.1128 0.00124414Z" fill="url(#paint4_linear_752_643)"/>
<path d="M29.4559 12.0968H12.7627L13.7382 9.53009C13.7382 9.53009 13.8676 9.22542 14.1861 9.22542C14.5047 9.22542 27.9528 9.22542 27.9528 9.22542C27.9528 9.22542 28.3809 9.19772 28.5401 9.65935C28.6795 10.1302 29.4559 12.0968 29.4559 12.0968Z" fill="url(#paint5_linear_752_643)"/>
<defs>
<linearGradient id="paint0_linear_752_643" x1="7.90275" y1="29.45" x2="7.82172" y2="1.89547" gradientUnits="userSpaceOnUse">
<stop stop-color="#F3F3F3"/>
<stop offset="0.244" stop-color="#F3F3F3" stop-opacity="0.65"/>
<stop offset="0.5296" stop-color="#F3F3F3"/>
<stop offset="0.835" stop-color="#F3F3F3"/>
<stop offset="1" stop-color="#F3F3F3" stop-opacity="0.72"/>
</linearGradient>
<linearGradient id="paint1_linear_752_643" x1="34.7139" y1="18.0401" x2="34.2673" y2="2.95038" gradientUnits="userSpaceOnUse">
<stop stop-color="#F3F3F3"/>
<stop offset="0.244" stop-color="#F3F3F3"/>
<stop offset="0.835" stop-color="#F3F3F3" stop-opacity="0.58"/>
<stop offset="1" stop-color="#F3F3F3" stop-opacity="0.77"/>
</linearGradient>
<linearGradient id="paint2_linear_752_643" x1="20.7435" y1="11.86" x2="20.7327" y2="2.55516" gradientUnits="userSpaceOnUse">
<stop stop-color="#F3F3F3"/>
<stop offset="0.244" stop-color="#F3F3F3" stop-opacity="0.6"/>
<stop offset="0.457291" stop-color="#F3F3F3" stop-opacity="0.77"/>
<stop offset="0.5296" stop-color="#F3F3F3"/>
<stop offset="0.835" stop-color="#F3F3F3" stop-opacity="0.85"/>
<stop offset="1" stop-color="#F3F3F3" stop-opacity="0.84"/>
</linearGradient>
<linearGradient id="paint3_linear_752_643" x1="23.4182" y1="18.345" x2="26.8209" y2="30.4683" gradientUnits="userSpaceOnUse">
<stop stop-color="#F3F3F3"/>
<stop offset="0.682" stop-color="#F3F3F3" stop-opacity="0.71"/>
<stop offset="1" stop-color="#F3F3F3" stop-opacity="0.79"/>
</linearGradient>
<linearGradient id="paint4_linear_752_643" x1="25.8326" y1="5.923" x2="22.6353" y2="1.9505" gradientUnits="userSpaceOnUse">
<stop stop-color="#F3F3F3"/>
<stop offset="0.9657" stop-color="#F3F3F3" stop-opacity="0.68"/>
</linearGradient>
<linearGradient id="paint5_linear_752_643" x1="21.1066" y1="11.9716" x2="21.082" y2="9.59198" gradientUnits="userSpaceOnUse">
<stop stop-color="#F3F3F3"/>
<stop offset="0.8642" stop-color="#F3F3F3" stop-opacity="0.81"/>
</linearGradient>
</defs>
</svg>
