<svg width="61" height="61" viewBox="0 0 61 61" fill="none" xmlns="http://www.w3.org/2000/svg">
<path fill-rule="evenodd" clip-rule="evenodd" d="M55.7523 50.7102H15.7509C15.3233 50.7102 14.9766 50.3635 14.9766 49.9358V0.77437C14.9766 0.346729 15.3233 0 15.7509 0H55.7523C56.1799 0 56.5266 0.346729 56.5266 0.77437V49.9358C56.5266 50.3635 56.1799 50.7102 55.7523 50.7102ZM16.5252 49.1615H54.9777V1.54882H16.5252V49.1615Z" fill="#2E4057"/>
<path fill-rule="evenodd" clip-rule="evenodd" d="M5.29851 54.8087C5.27191 54.8087 5.24518 54.8073 5.2183 54.8045C4.82345 54.7637 4.52344 54.4312 4.52344 54.0342V5.99753C4.52358 2.69052 7.2141 0 10.5213 0H15.7446C16.1723 0 16.5189 0.346729 16.5189 0.77437V49.9358C16.5189 50.3635 16.1723 50.7102 15.7446 50.7102H10.3338C8.27596 50.7102 6.47675 52.1747 6.056 54.1923C5.98044 54.5543 5.66114 54.8087 5.29851 54.8087ZM10.5212 1.54879C8.06811 1.54879 6.07217 3.54459 6.07217 5.99772V50.9845C7.16161 49.854 8.68643 49.1615 10.3338 49.1615H14.9702V1.54886L10.5212 1.54879Z" fill="#2E4057"/>
<path fill-rule="evenodd" clip-rule="evenodd" d="M55.7471 60.9923H10.335C7.07191 60.9923 4.41699 58.3375 4.41699 55.0741C4.41699 51.8109 7.07191 49.1562 10.335 49.1562H55.7471C56.1748 49.1562 56.5215 49.5028 56.5215 49.9306V60.2179C56.5215 60.6457 56.1748 60.9923 55.7471 60.9923ZM10.335 50.705C7.92579 50.705 5.96587 52.665 5.96587 55.0741C5.96587 57.4835 7.92578 59.4436 10.335 59.4436H54.9726V50.705H10.335Z" fill="#2E4057"/>
<rect x="15.25" width="41.3929" height="50.1071" fill="#2E4057"/>
<path fill-rule="evenodd" clip-rule="evenodd" d="M22.8367 22.6243C22.735 22.6243 22.6317 22.6042 22.5323 22.5616C22.1392 22.3933 21.9568 21.9382 22.1252 21.5449L28.567 6.49706C28.6889 6.21225 28.9692 6.02734 29.2791 6.02734C29.5889 6.02734 29.8689 6.21225 29.991 6.49706L36.4327 21.5449C36.601 21.938 36.4187 22.3933 36.0255 22.5616C35.6326 22.73 35.1771 22.5476 35.0089 22.1545L29.2789 8.76985L23.549 22.1546C23.4232 22.4483 23.1373 22.6243 22.8367 22.6243Z" fill="#F3F3F3"/>
<path fill-rule="evenodd" clip-rule="evenodd" d="M32.2784 14.5526H26.3027C25.875 14.5526 25.5283 14.2059 25.5283 13.7783C25.5283 13.3505 25.875 13.0039 26.3027 13.0039H32.2784C32.706 13.0039 33.0528 13.3505 33.0528 13.7783C33.0528 14.2061 32.7059 14.5526 32.2784 14.5526Z" fill="#F3F3F3"/>
<path fill-rule="evenodd" clip-rule="evenodd" d="M48.261 44.6771H37.2109C36.9159 44.6771 36.647 44.5098 36.5164 44.2456C36.386 43.9812 36.4169 43.6658 36.5961 43.4318L47.1431 29.6659H36.7597C36.3321 29.6659 35.9854 29.3193 35.9854 28.8916C35.9854 28.4638 36.3321 28.1172 36.7597 28.1172H48.712C49.007 28.1172 49.2759 28.2845 49.4065 28.5488C49.5369 28.813 49.506 29.1285 49.3268 29.3625L38.7797 43.1284H48.261C48.6888 43.1284 49.0354 43.475 49.0354 43.9028C49.0354 44.3306 48.6886 44.6771 48.261 44.6771Z" fill="#F3F3F3"/>
</svg>
