<svg width="53" height="53" viewBox="0 0 53 53" fill="none" xmlns="http://www.w3.org/2000/svg">
<path d="M46.7891 0H6.21094C2.78248 0 0 2.78248 0 6.21094V46.7891C0 50.2175 2.78248 53 6.21094 53H46.7891C50.2175 53 53 50.2175 53 46.7891V6.21094C53 2.78248 50.2175 0 46.7891 0ZM13.7138 13.5647H9.02658C8.11566 13.5647 7.37033 12.8359 7.37033 11.9084C7.37033 10.9975 8.11566 10.2522 9.02658 10.2522H13.7138C16.0491 10.2522 17.9538 12.1568 17.9538 14.4922V28.9678C17.9538 29.8787 17.2085 30.624 16.2975 30.624H13.1672C4.57804 29.9655 5.95639 17.9951 14.6413 19.0305C14.6413 19.0303 14.6413 14.4922 14.6413 14.4922C14.6413 13.9788 14.2272 13.5647 13.7138 13.5647ZM26.7485 19.0303C34.0783 19.2489 33.9772 30.4434 26.7483 30.624H21.73C20.8191 30.624 20.0737 29.8787 20.0737 28.9678V11.925C20.0806 9.75877 23.3901 9.75276 23.3862 11.9251C23.3862 11.925 23.3862 19.0303 23.3862 19.0303H26.7485ZM23.7837 40.7271L33.4893 31.005C35.0275 29.4801 37.3486 31.8187 35.8246 33.357C35.8247 33.3569 24.9431 44.2384 24.9431 44.2384C24.3331 44.8751 23.2211 44.8641 22.6079 44.2383C22.6079 44.2384 17.1753 38.8059 17.1753 38.8059C16.5294 38.16 16.5294 37.0999 17.1753 36.4541C17.8213 35.8081 18.8647 35.8081 19.5107 36.4541L23.7837 40.7271ZM41.2571 27.3115H43.9734C44.8843 27.3115 45.6297 28.0403 45.6297 28.9678C45.6297 29.8787 44.8843 30.624 43.9734 30.624H41.2571C31.0574 30.3009 31.0592 15.5096 41.2573 15.1878C41.2571 15.1878 43.9734 15.1878 43.9734 15.1878C44.8843 15.1878 45.6297 15.9165 45.6297 16.844C45.6297 17.7549 44.8843 18.5003 43.9734 18.5003H41.2571C35.4515 18.656 35.4503 27.1457 41.2571 27.3115Z" fill="#2E4057"/>
</svg>
