<svg width="39" height="50" viewBox="0 0 39 50" fill="none" xmlns="http://www.w3.org/2000/svg">
<path d="M19.0476 38.0952C21.6666 38.0952 23.8095 35.9524 23.8095 33.3333C23.8095 30.7143 21.6666 28.5714 19.0476 28.5714C16.4286 28.5714 14.2857 30.7143 14.2857 33.3333C14.2857 35.9524 16.4286 38.0952 19.0476 38.0952ZM33.3333 16.6667H30.9524V11.9048C30.9524 5.33333 25.619 0 19.0476 0C12.4762 0 7.14285 5.33333 7.14285 11.9048H11.6667C11.6667 7.83333 14.9762 4.52381 19.0476 4.52381C23.119 4.52381 26.4286 7.83333 26.4286 11.9048V16.6667H4.7619C2.14286 16.6667 0 18.8095 0 21.4286V45.2381C0 47.8571 2.14286 50 4.7619 50H33.3333C35.9524 50 38.0952 47.8571 38.0952 45.2381V21.4286C38.0952 18.8095 35.9524 16.6667 33.3333 16.6667ZM33.3333 45.2381H4.7619V21.4286H33.3333V45.2381Z" fill="#2E4057"/>
</svg>
