<svg width="65" height="66" viewBox="0 0 65 66" fill="none" xmlns="http://www.w3.org/2000/svg">
<g clip-path="url(#clip0_3107_3939)">
<path d="M58.2684 11.5281L59.7709 8.22252L63.0765 6.71998L59.7709 5.21744L58.2684 1.91187L56.7658 5.21744L53.4602 6.71998L56.7658 8.22252L58.2684 11.5281ZM49.2531 12.1291L46.2481 5.51795L43.243 12.1291L36.6318 15.1342L43.243 18.1393L46.2481 24.7504L49.2531 18.1393L55.8643 15.1342L49.2531 12.1291ZM58.2684 18.7403L56.7658 22.0458L53.4602 23.5484L56.7658 25.0509L58.2684 28.3565L59.7709 25.0509L63.0765 23.5484L59.7709 22.0458L58.2684 18.7403Z" fill="#2E4057"/>
</g>
<g clip-path="url(#clip1_3107_3939)">
<path d="M29.1781 33.6459C23.7209 32.2275 21.966 30.761 21.966 28.4771C21.966 25.8567 24.3941 24.0296 28.4569 24.0296C32.7361 24.0296 34.3228 26.0731 34.4671 29.0782H39.78C39.6117 24.9432 37.0875 21.1448 32.063 19.9187V14.6538H24.8508V19.8466C20.187 20.8563 16.4366 23.8854 16.4366 28.5252C16.4366 34.0786 21.0284 36.8433 27.7357 38.454C33.7458 39.8964 34.9479 42.012 34.9479 44.2478C34.9479 45.9066 33.7699 48.551 28.4569 48.551C23.5046 48.551 21.5573 46.3393 21.2928 43.5025H16.0039C16.2924 48.7674 20.235 51.7244 24.8508 52.71V57.9268H32.063V52.7581C36.7509 51.8686 40.4772 49.152 40.4772 44.2237C40.4772 37.3962 34.6354 35.0643 29.1781 33.6459Z" fill="#2E4057"/>
</g>
<defs>
<clipPath id="clip0_3107_3939">
<rect width="28.8487" height="28.8487" fill="white" transform="translate(35.4297 0.709717)"/>
</clipPath>
<clipPath id="clip1_3107_3939">
<rect width="57.6974" height="57.6974" fill="white" transform="translate(0.810547 7.44141)"/>
</clipPath>
</defs>
</svg>
