<svg width="87" height="71" viewBox="0 0 87 71" fill="none" xmlns="http://www.w3.org/2000/svg">
<path d="M35.5974 26.7755L35.7061 27.1284H36.0753H53.4234L39.2872 37.0937L38.989 37.3039L39.0982 37.6521L44.5091 54.8883L30.2998 44.2527L30 44.0283L29.7003 44.253L15.517 54.8863L20.9272 37.6521L21.0366 37.3037L20.7379 37.0935L6.57915 27.1284H23.9252H24.2943L24.403 26.7755L30.0002 8.60112L35.5974 26.7755Z" stroke="#2E4057"/>
<path d="M59.0865 29.752L51.9989 6.73828L44.9114 29.752H22.832L40.8572 42.4383L34.003 64.2725L51.9989 50.7807L70.0241 64.2725L63.1699 42.4383L81.1659 29.752H59.0865Z" fill="#2E4057"/>
</svg>
