<svg width="68" height="68" viewBox="0 0 68 68" fill="none" xmlns="http://www.w3.org/2000/svg">
<ellipse cx="34.6224" cy="36.9111" rx="32.0589" ry="30.6746" fill="white"/>
<path d="M21.3519 5.58602C20.2515 3.78634 19.1788 2.02858 18.1046 0.272217C23.215 2.71045 28.6035 4.21949 34.3603 5.25207C29.4143 8.252 24.9122 11.4839 21.0841 15.5807C21.3825 13.7726 21.6809 11.9645 21.9982 10.0447C19.8527 10.9697 17.9939 12.0931 16.2647 13.4079C11.5109 17.0226 8.21111 21.6168 6.4164 27.1738C5.03798 31.4438 4.76579 35.8047 5.57654 40.2089C6.62746 45.9223 9.29987 50.856 13.5559 54.9584C17.9517 59.1949 23.2194 61.9112 29.3968 62.8907C36.9439 64.0853 43.9903 62.744 50.3453 58.6612C57.396 54.1312 61.7205 47.8156 63.128 39.7268C63.7553 36.1205 63.553 32.5449 62.7539 28.9846C62.4555 27.6572 63.1265 26.538 64.3507 26.2711C65.6825 25.9805 66.7684 26.7043 67.1002 28.1016C70.5295 42.5395 63.4104 57.2164 49.7048 63.9917C44.2537 66.6857 38.4431 67.9502 32.3574 67.4947C19.7668 66.5529 10.3755 60.6788 4.38007 49.9953C1.287 44.4859 0.15166 38.5238 0.829952 32.3045C1.82556 23.1776 6.10491 15.7344 13.5821 10.0042C15.7524 8.34143 18.1177 6.98328 20.6605 5.90879C20.8774 5.81796 21.087 5.71037 21.3519 5.58602Z" fill="#2E4057"/>
<path d="M34.3475 41.7126C35.9311 40.1477 37.4158 38.6806 38.899 37.2134C39.1188 36.9968 39.3896 36.8124 39.5555 36.5623C40.8568 34.5963 42.8567 34.6886 44.8363 35.0016C49.5843 35.7519 52.5027 39.1347 52.5056 43.7582C52.5071 46.413 52.494 49.0678 52.5173 51.7226C52.5216 52.255 52.3834 52.4506 51.788 52.4506C40.1202 52.4352 28.4525 52.4366 16.7847 52.4492C16.2403 52.4492 16.0787 52.2801 16.0831 51.7659C16.1049 49.0413 16.0613 46.3166 16.1006 43.5919C16.1675 39.0285 19.115 35.7267 23.8063 35.0016C24.8732 34.8367 25.9838 34.9093 27.0726 34.9331C27.3128 34.9387 27.5864 35.165 27.78 35.3509C29.9211 37.4104 32.0492 39.4826 34.346 41.7126H34.3475Z" fill="#2E4057"/>
<path d="M34.2908 33.7815C28.8325 33.7578 24.4963 29.5814 24.5196 24.3709C24.5415 19.1494 28.9067 14.9827 34.3388 14.9981C39.7885 15.0121 44.1872 19.2779 44.1231 24.4869C44.0605 29.6694 39.6851 33.8053 34.2894 33.7815H34.2908Z" fill="#2E4057"/>
</svg>
