<svg width="192" height="194" viewBox="0 0 192 194" fill="none" xmlns="http://www.w3.org/2000/svg">
<circle cx="79" cy="115" r="78" fill="#626E7E" stroke="#172E4A" stroke-width="2"/>
<path d="M116 139V143C116 147.4 112.4 151 108 151H52C47.56 151 44 147.4 44 143V87C44 82.6 47.56 79 52 79H108C112.4 79 116 82.6 116 87V91H80C75.56 91 72 94.6 72 99V131C72 135.4 75.56 139 80 139H116ZM80 131H120V99H80V131ZM96 121C92.68 121 90 118.32 90 115C90 111.68 92.68 109 96 109C99.32 109 102 111.68 102 115C102 118.32 99.32 121 96 121Z" fill="#172E4A"/>
<g clip-path="url(#clip0_3542_10672)">
<path d="M148.997 7.16699C129.217 7.16699 113.164 23.2203 113.164 43.0003C113.164 62.7803 129.217 78.8337 148.997 78.8337C168.777 78.8337 184.831 62.7803 184.831 43.0003C184.831 23.2203 168.777 7.16699 148.997 7.16699ZM152.581 60.917H145.414V53.7503H152.581V60.917ZM152.581 46.5837H145.414V25.0837H152.581V46.5837Z" fill="#172E4A"/>
</g>
<defs>
<clipPath id="clip0_3542_10672">
<rect width="86" height="86" fill="white" transform="translate(106)"/>
</clipPath>
</defs>
</svg>
