<svg width="18" height="61" viewBox="0 0 18 61" fill="none" xmlns="http://www.w3.org/2000/svg">
<path d="M5.70117 11.8066L8.5332 0.78125H10.0176L9.85156 3.62305L6.82422 15H5.28125L5.70117 11.8066ZM3.58203 0.78125L5.87695 11.7188L6.08203 15H4.44141L1.15039 0.78125H3.58203ZM13.2305 11.6895L15.4961 0.78125H17.9375L14.6465 15H13.0059L13.2305 11.6895ZM10.5938 0.78125L13.3965 11.8359L13.8066 15H12.2637L9.28516 3.62305L9.12891 0.78125H10.5938ZM5.70117 34.8066L8.5332 23.7812H10.0176L9.85156 26.623L6.82422 38H5.28125L5.70117 34.8066ZM3.58203 23.7812L5.87695 34.7188L6.08203 38H4.44141L1.15039 23.7812H3.58203ZM13.2305 34.6895L15.4961 23.7812H17.9375L14.6465 38H13.0059L13.2305 34.6895ZM10.5938 23.7812L13.3965 34.8359L13.8066 38H12.2637L9.28516 26.623L9.12891 23.7812H10.5938Z" fill="white"/>
<path d="M7.01953 48.6758L2.77148 61H0.203125L5.55469 46.7812H7.19531L7.01953 48.6758ZM10.5742 61L6.31641 48.6758L6.13086 46.7812H7.78125L13.1523 61H10.5742ZM10.3691 55.7266V57.6699H2.63477V55.7266H10.3691ZM17.3613 46.7812V61H14.9102V46.7812H17.3613Z" fill="#DA282E"/>
</svg>
