<svg width="26" height="69" viewBox="0 0 26 69" fill="none" xmlns="http://www.w3.org/2000/svg">
<g filter="url(#filter0_d_2009_7468)">
<path d="M9.70117 11.8066L12.5332 0.78125H14.0176L13.8516 3.62305L10.8242 15H9.28125L9.70117 11.8066ZM7.58203 0.78125L9.87695 11.7188L10.082 15H8.44141L5.15039 0.78125H7.58203ZM17.2305 11.6895L19.4961 0.78125H21.9375L18.6465 15H17.0059L17.2305 11.6895ZM14.5938 0.78125L17.3965 11.8359L17.8066 15H16.2637L13.2852 3.62305L13.1289 0.78125H14.5938ZM9.70117 34.8066L12.5332 23.7812H14.0176L13.8516 26.623L10.8242 38H9.28125L9.70117 34.8066ZM7.58203 23.7812L9.87695 34.7188L10.082 38H8.44141L5.15039 23.7812H7.58203ZM17.2305 34.6895L19.4961 23.7812H21.9375L18.6465 38H17.0059L17.2305 34.6895ZM14.5938 23.7812L17.3965 34.8359L17.8066 38H16.2637L13.2852 26.623L13.1289 23.7812H14.5938Z" fill="white"/>
<path d="M11.0195 48.6758L6.77148 61H4.20312L9.55469 46.7812H11.1953L11.0195 48.6758ZM14.5742 61L10.3164 48.6758L10.1309 46.7812H11.7812L17.1523 61H14.5742ZM14.3691 55.7266V57.6699H6.63477V55.7266H14.3691ZM21.3613 46.7812V61H18.9102V46.7812H21.3613Z" fill="#DA282E"/>
</g>
<defs>
<filter id="filter0_d_2009_7468" x="0.203125" y="0.78125" width="25.7344" height="68.2188" filterUnits="userSpaceOnUse" color-interpolation-filters="sRGB">
<feFlood flood-opacity="0" result="BackgroundImageFix"/>
<feColorMatrix in="SourceAlpha" type="matrix" values="0 0 0 0 0 0 0 0 0 0 0 0 0 0 0 0 0 0 127 0" result="hardAlpha"/>
<feOffset dy="4"/>
<feGaussianBlur stdDeviation="2"/>
<feComposite in2="hardAlpha" operator="out"/>
<feColorMatrix type="matrix" values="0 0 0 0 0 0 0 0 0 0 0 0 0 0 0 0 0 0 0.25 0"/>
<feBlend mode="normal" in2="BackgroundImageFix" result="effect1_dropShadow_2009_7468"/>
<feBlend mode="normal" in="SourceGraphic" in2="effect1_dropShadow_2009_7468" result="shape"/>
</filter>
</defs>
</svg>
