<svg width="1928" height="1088" viewBox="0 0 1928 1088" fill="none" xmlns="http://www.w3.org/2000/svg">
<g clip-path="url(#clip0_2997_3125)" filter="url(#filter0_d_2997_3125)">
<rect x="0" width="1928" height="1080" fill="#F3F3F3"/>
<g filter="url(#filter1_f_2997_3125)">
<path d="M1625.8 -236.065C1380.5 -163 1412.61 123.5 1308.5 123.5C1204.39 123.5 1116 115.041 1116 10.9354C1116 -93.1702 1378.39 -354 1482.5 -354C1586.61 -354 1625.8 -340.17 1625.8 -236.065Z" fill="#DA282E" fill-opacity="0.16"/>
</g>
<circle cx="1688.5" cy="457.5" r="2.5" fill="#D9D9D9"/>
<circle cx="655.5" cy="120.5" r="2.5" fill="#D9D9D9"/>
<g filter="url(#filter2_f_2997_3125)">
<path d="M1901.17 126.295C1809.91 236.652 1603.25 148.568 1495.18 59.196C1387.1 -30.1756 1529.11 -76.9594 1612.2 -82.3201C1854.99 -169.817 2049.9 -119.307 2157.97 -29.9357C2266.04 59.4359 1992.43 15.9384 1901.17 126.295Z" fill="url(#paint0_linear_2997_3125)" fill-opacity="0.4"/>
<path d="M1901.17 126.295C1809.91 236.652 1603.25 148.568 1495.18 59.196C1387.1 -30.1756 1529.11 -76.9594 1612.2 -82.3201C1854.99 -169.817 2049.9 -119.307 2157.97 -29.9357C2266.04 59.4359 1992.43 15.9384 1901.17 126.295Z" fill="url(#paint1_linear_2997_3125)" fill-opacity="0.4"/>
</g>
<g filter="url(#filter3_f_2997_3125)">
<path d="M452.022 1268.86C253.653 1107.12 34.8131 1294.8 -23.7363 1208.72C-82.2857 1122.64 -125.005 1044.79 -38.9235 986.241C47.1576 927.692 410.4 997.964 468.949 1084.05C527.498 1170.13 538.103 1210.31 452.022 1268.86Z" fill="#DA282E" fill-opacity="0.1"/>
</g>
<g filter="url(#filter4_f_2997_3125)">
<path d="M1901.16 1190.3C1809.9 1300.65 1603.24 1212.57 1495.17 1123.2C1387.1 1033.82 1529.1 987.041 1612.2 981.68C1854.98 894.183 2049.89 944.693 2157.96 1034.06C2266.03 1123.44 1992.42 1079.94 1901.16 1190.3Z" fill="url(#paint2_linear_2997_3125)" fill-opacity="0.22"/>
<path d="M1901.16 1190.3C1809.9 1300.65 1603.24 1212.57 1495.17 1123.2C1387.1 1033.82 1529.1 987.041 1612.2 981.68C1854.98 894.183 2049.89 944.693 2157.96 1034.06C2266.03 1123.44 1992.42 1079.94 1901.16 1190.3Z" fill="url(#paint3_linear_2997_3125)" fill-opacity="0.22"/>
</g>
<g filter="url(#filter5_f_2997_3125)">
<path d="M768 -42C768 54.6498 683.606 133 579.5 133C475.394 133 391 54.6498 391 -42C391 -138.65 475.394 -217 579.5 -217C683.606 -217 768 -138.65 768 -42Z" fill="#0072C6" fill-opacity="0.5"/>
</g>
<g filter="url(#filter6_f_2997_3125)">
<path d="M623.795 -243.065C378.5 -170 410.606 116.5 306.5 116.5C202.394 116.5 114 108.041 114 3.93542C114 -100.17 376.394 -361 480.5 -361C584.606 -361 623.795 -347.17 623.795 -243.065Z" fill="#DA282E" fill-opacity="0.3"/>
</g>
<g filter="url(#filter7_f_2997_3125)">
<path d="M1664.97 68.5686C1664.97 163.634 1530.4 206 1442.78 206C1355.17 206 1404.91 121.989 1442.78 84.0924C1524.84 -63.3838 1638.79 -120 1726.41 -120C1814.02 -120 1664.97 -26.4971 1664.97 68.5686Z" fill="url(#paint4_linear_2997_3125)" fill-opacity="0.4"/>
<path d="M1664.97 68.5686C1664.97 163.634 1530.4 206 1442.78 206C1355.17 206 1404.91 121.989 1442.78 84.0924C1524.84 -63.3838 1638.79 -120 1726.41 -120C1814.02 -120 1664.97 -26.4971 1664.97 68.5686Z" fill="url(#paint5_linear_2997_3125)" fill-opacity="0.4"/>
</g>
<g filter="url(#filter8_f_2997_3125)">
<path d="M1272.7 129.166C1203.59 207.026 1053.21 135.582 975.349 66.4738C897.49 -2.63405 1002.77 -32.2041 1063.97 -33.3694C1244.1 -89.4305 1386.51 -45.9215 1464.37 23.1863C1542.23 92.2942 1341.81 51.3066 1272.7 129.166Z" fill="url(#paint6_linear_2997_3125)" fill-opacity="0.45"/>
</g>
<path d="M72 169L53 169" stroke="#F3F3F3" stroke-width="4" stroke-linecap="round"/>
</g>
<defs>
<filter id="filter0_d_2997_3125" x="0" y="0" width="1928" height="1088" filterUnits="userSpaceOnUse" color-interpolation-filters="sRGB">
<feFlood flood-opacity="0" result="BackgroundImageFix"/>
<feColorMatrix in="SourceAlpha" type="matrix" values="0 0 0 0 0 0 0 0 0 0 0 0 0 0 0 0 0 0 127 0" result="hardAlpha"/>
<feOffset dy="4"/>
<feGaussianBlur stdDeviation="2"/>
<feComposite in2="hardAlpha" operator="out"/>
<feColorMatrix type="matrix" values="0 0 0 0 0 0 0 0 0 0 0 0 0 0 0 0 0 0 0.25 0"/>
<feBlend mode="normal" in2="BackgroundImageFix" result="effect1_dropShadow_2997_3125"/>
<feBlend mode="normal" in="SourceGraphic" in2="effect1_dropShadow_2997_3125" result="shape"/>
</filter>
<filter id="filter1_f_2997_3125" x="902" y="-568" width="937.797" height="905.5" filterUnits="userSpaceOnUse" color-interpolation-filters="sRGB">
<feFlood flood-opacity="0" result="BackgroundImageFix"/>
<feBlend mode="normal" in="SourceGraphic" in2="BackgroundImageFix" result="shape"/>
<feGaussianBlur stdDeviation="107" result="effect1_foregroundBlur_2997_3125"/>
</filter>
<filter id="filter2_f_2997_3125" x="1286.16" y="-297.792" width="1066.69" height="645.599" filterUnits="userSpaceOnUse" color-interpolation-filters="sRGB">
<feFlood flood-opacity="0" result="BackgroundImageFix"/>
<feBlend mode="normal" in="SourceGraphic" in2="BackgroundImageFix" result="shape"/>
<feGaussianBlur stdDeviation="85" result="effect1_foregroundBlur_2997_3125"/>
</filter>
<filter id="filter3_f_2997_3125" x="-301.641" y="750.707" width="1030.39" height="732.152" filterUnits="userSpaceOnUse" color-interpolation-filters="sRGB">
<feFlood flood-opacity="0" result="BackgroundImageFix"/>
<feBlend mode="normal" in="SourceGraphic" in2="BackgroundImageFix" result="shape"/>
<feGaussianBlur stdDeviation="107" result="effect1_foregroundBlur_2997_3125"/>
</filter>
<filter id="filter4_f_2997_3125" x="1286.15" y="766.208" width="1066.69" height="645.599" filterUnits="userSpaceOnUse" color-interpolation-filters="sRGB">
<feFlood flood-opacity="0" result="BackgroundImageFix"/>
<feBlend mode="normal" in="SourceGraphic" in2="BackgroundImageFix" result="shape"/>
<feGaussianBlur stdDeviation="85" result="effect1_foregroundBlur_2997_3125"/>
</filter>
<filter id="filter5_f_2997_3125" x="189" y="-419" width="781" height="754" filterUnits="userSpaceOnUse" color-interpolation-filters="sRGB">
<feFlood flood-opacity="0" result="BackgroundImageFix"/>
<feBlend mode="normal" in="SourceGraphic" in2="BackgroundImageFix" result="shape"/>
<feGaussianBlur stdDeviation="101" result="effect1_foregroundBlur_2997_3125"/>
</filter>
<filter id="filter6_f_2997_3125" x="-100" y="-575" width="937.797" height="905.5" filterUnits="userSpaceOnUse" color-interpolation-filters="sRGB">
<feFlood flood-opacity="0" result="BackgroundImageFix"/>
<feBlend mode="normal" in="SourceGraphic" in2="BackgroundImageFix" result="shape"/>
<feGaussianBlur stdDeviation="107" result="effect1_foregroundBlur_2997_3125"/>
</filter>
<filter id="filter7_f_2997_3125" x="1224" y="-290" width="700" height="666" filterUnits="userSpaceOnUse" color-interpolation-filters="sRGB">
<feFlood flood-opacity="0" result="BackgroundImageFix"/>
<feBlend mode="normal" in="SourceGraphic" in2="BackgroundImageFix" result="shape"/>
<feGaussianBlur stdDeviation="85" result="effect1_foregroundBlur_2997_3125"/>
</filter>
<filter id="filter8_f_2997_3125" x="777.742" y="-229.024" width="874.312" height="562.073" filterUnits="userSpaceOnUse" color-interpolation-filters="sRGB">
<feFlood flood-opacity="0" result="BackgroundImageFix"/>
<feBlend mode="normal" in="SourceGraphic" in2="BackgroundImageFix" result="shape"/>
<feGaussianBlur stdDeviation="85" result="effect1_foregroundBlur_2997_3125"/>
</filter>
<linearGradient id="paint0_linear_2997_3125" x1="2083.38" y1="-55.9193" x2="1567.33" y2="111.79" gradientUnits="userSpaceOnUse">
<stop stop-color="#0072C6" stop-opacity="0.64"/>
<stop offset="0.621528" stop-color="#0072C6" stop-opacity="0.242222"/>
<stop offset="1" stop-color="#0072C6" stop-opacity="0"/>
<stop offset="1" stop-color="#FF8C00" stop-opacity="0.46"/>
</linearGradient>
<linearGradient id="paint1_linear_2997_3125" x1="2083.38" y1="-55.9193" x2="1567.33" y2="111.79" gradientUnits="userSpaceOnUse">
<stop stop-color="#0072C6" stop-opacity="0.64"/>
<stop offset="0.621528" stop-color="#0072C6" stop-opacity="0.242222"/>
<stop offset="1" stop-color="#0072C6" stop-opacity="0"/>
<stop offset="1" stop-color="#FF8C00" stop-opacity="0.46"/>
</linearGradient>
<linearGradient id="paint2_linear_2997_3125" x1="2083.37" y1="1008.08" x2="1567.33" y2="1175.79" gradientUnits="userSpaceOnUse">
<stop stop-color="#0072C6" stop-opacity="0.64"/>
<stop offset="0.621528" stop-color="#0072C6" stop-opacity="0.242222"/>
<stop offset="1" stop-color="#0072C6" stop-opacity="0"/>
<stop offset="1" stop-color="#FF8C00" stop-opacity="0.46"/>
</linearGradient>
<linearGradient id="paint3_linear_2997_3125" x1="2083.37" y1="1008.08" x2="1567.33" y2="1175.79" gradientUnits="userSpaceOnUse">
<stop stop-color="#0072C6" stop-opacity="0.64"/>
<stop offset="0.621528" stop-color="#0072C6" stop-opacity="0.242222"/>
<stop offset="1" stop-color="#0072C6" stop-opacity="0"/>
<stop offset="1" stop-color="#FF8C00" stop-opacity="0.46"/>
</linearGradient>
<linearGradient id="paint4_linear_2997_3125" x1="1680.15" y1="-101.737" x2="1482.35" y2="191.511" gradientUnits="userSpaceOnUse">
<stop stop-color="#0072C6" stop-opacity="0.64"/>
<stop offset="0.621528" stop-color="#0072C6" stop-opacity="0.242222"/>
<stop offset="1" stop-color="#0072C6" stop-opacity="0"/>
<stop offset="1" stop-color="#FF8C00" stop-opacity="0.46"/>
</linearGradient>
<linearGradient id="paint5_linear_2997_3125" x1="1680.15" y1="-101.737" x2="1482.35" y2="191.511" gradientUnits="userSpaceOnUse">
<stop stop-color="#0072C6" stop-opacity="0.64"/>
<stop offset="0.621528" stop-color="#0072C6" stop-opacity="0.242222"/>
<stop offset="1" stop-color="#0072C6" stop-opacity="0"/>
<stop offset="1" stop-color="#FF8C00" stop-opacity="0.46"/>
</linearGradient>
<linearGradient id="paint6_linear_2997_3125" x1="1328.94" y1="-97.025" x2="1091.95" y2="169.971" gradientUnits="userSpaceOnUse">
<stop stop-color="#0072C6"/>
<stop offset="1" stop-color="#0072C6" stop-opacity="0"/>
</linearGradient>
<clipPath id="clip0_2997_3125">
<rect width="1920" height="1080" fill="white" transform="translate(4)"/>
</clipPath>
</defs>
</svg>
